<svg width="1295" height="194" viewBox="0 0 1295 194" fill="none" xmlns="http://www.w3.org/2000/svg">
<path d="M342.501 24.1075H352.141V30.655H342.501V24.1075ZM342.501 36.2931H352.141V42.9012H342.501V36.2931ZM316.372 20.2881C319.282 20.2881 321.889 20.8742 324.193 22.0462C326.496 23.2183 328.315 24.835 329.649 26.8962C330.983 28.9171 331.65 31.2612 331.65 33.9287C331.65 36.5558 330.983 38.9 329.649 40.9612C328.315 42.9821 326.496 44.5785 324.193 45.7506C321.889 46.9227 319.282 47.5087 316.372 47.5087C313.502 47.5087 310.916 46.9227 308.612 45.7506C306.308 44.5785 304.49 42.9821 303.156 40.9612C301.822 38.9 301.155 36.5558 301.155 33.9287C301.155 31.2612 301.822 28.9171 303.156 26.8962C304.49 24.835 306.308 23.2183 308.612 22.0462C310.916 20.8742 313.502 20.2881 316.372 20.2881ZM316.372 27.0175C314.998 27.0175 313.745 27.3004 312.613 27.8662C311.482 28.3917 310.592 29.1798 309.946 30.2306C309.34 31.241 309.036 32.4737 309.036 33.9287C309.036 35.3433 309.34 36.576 309.946 37.6269C310.592 38.6373 311.482 39.4052 312.613 39.9306C313.745 40.456 314.998 40.7187 316.372 40.7187C317.827 40.7187 319.1 40.456 320.191 39.9306C321.283 39.4052 322.152 38.6373 322.798 37.6269C323.445 36.576 323.768 35.3433 323.768 33.9287C323.768 32.4737 323.445 31.241 322.798 30.2306C322.152 29.1798 321.283 28.3917 320.191 27.8662C319.1 27.3004 317.827 27.0175 316.372 27.0175ZM336.863 17.2569H344.926V49.9944H336.863V17.2569ZM326.618 51.1462C330.498 51.1462 333.852 51.5908 336.681 52.48C339.551 53.3692 341.754 54.6423 343.29 56.2994C344.825 57.9565 345.593 59.9571 345.593 62.3012C345.593 64.605 344.825 66.5854 343.29 68.2425C341.754 69.8996 339.551 71.1727 336.681 72.0619C333.852 72.951 330.498 73.3956 326.618 73.3956C322.738 73.3956 319.363 72.951 316.493 72.0619C313.664 71.1727 311.461 69.8996 309.885 68.2425C308.349 66.5854 307.581 64.605 307.581 62.3012C307.581 59.9571 308.349 57.9565 309.885 56.2994C311.461 54.6423 313.664 53.3692 316.493 52.48C319.363 51.5908 322.738 51.1462 326.618 51.1462ZM326.618 57.5119C324.233 57.5119 322.232 57.6937 320.616 58.0575C318.999 58.3808 317.766 58.886 316.918 59.5731C316.069 60.2602 315.645 61.1696 315.645 62.3012C315.645 63.3521 316.069 64.2412 316.918 64.9687C317.766 65.6962 318.999 66.2419 320.616 66.6056C322.232 66.929 324.233 67.0906 326.618 67.0906C329.002 67.0906 331.003 66.929 332.62 66.6056C334.277 66.2419 335.509 65.6962 336.318 64.9687C337.166 64.2412 337.591 63.3521 337.591 62.3012C337.591 61.1696 337.166 60.2602 336.318 59.5731C335.509 58.886 334.277 58.3808 332.62 58.0575C331.003 57.6937 329.002 57.5119 326.618 57.5119ZM398.272 24.1075H407.911V30.655H398.272V24.1075ZM398.272 36.2931H407.911V42.9012H398.272V36.2931ZM372.142 20.2881C375.052 20.2881 377.659 20.8742 379.963 22.0462C382.267 23.2183 384.085 24.835 385.419 26.8962C386.753 28.9171 387.42 31.2612 387.42 33.9287C387.42 36.5558 386.753 38.9 385.419 40.9612C384.085 42.9821 382.267 44.5785 379.963 45.7506C377.659 46.9227 375.052 47.5087 372.142 47.5087C369.273 47.5087 366.686 46.9227 364.382 45.7506C362.079 44.5785 360.26 42.9821 358.926 40.9612C357.592 38.9 356.925 36.5558 356.925 33.9287C356.925 31.2612 357.592 28.9171 358.926 26.8962C360.26 24.835 362.079 23.2183 364.382 22.0462C366.686 20.8742 369.273 20.2881 372.142 20.2881ZM372.142 27.0175C370.768 27.0175 369.515 27.3004 368.384 27.8662C367.252 28.3917 366.363 29.1798 365.716 30.2306C365.11 31.241 364.807 32.4737 364.807 33.9287C364.807 35.3433 365.11 36.576 365.716 37.6269C366.363 38.6373 367.252 39.4052 368.384 39.9306C369.515 40.456 370.768 40.7187 372.142 40.7187C373.597 40.7187 374.87 40.456 375.962 39.9306C377.053 39.4052 377.922 38.6373 378.569 37.6269C379.215 36.576 379.539 35.3433 379.539 33.9287C379.539 32.4737 379.215 31.241 378.569 30.2306C377.922 29.1798 377.053 28.3917 375.962 27.8662C374.87 27.3004 373.597 27.0175 372.142 27.0175ZM392.634 17.2569H400.697V49.9944H392.634V17.2569ZM382.388 51.1462C386.268 51.1462 389.623 51.5908 392.452 52.48C395.321 53.3692 397.524 54.6423 399.06 56.2994C400.596 57.9565 401.364 59.9571 401.364 62.3012C401.364 64.605 400.596 66.5854 399.06 68.2425C397.524 69.8996 395.321 71.1727 392.452 72.0619C389.623 72.951 386.268 73.3956 382.388 73.3956C378.508 73.3956 375.133 72.951 372.264 72.0619C369.434 71.1727 367.232 69.8996 365.655 68.2425C364.12 66.5854 363.352 64.605 363.352 62.3012C363.352 59.9571 364.12 57.9565 365.655 56.2994C367.232 54.6423 369.434 53.3692 372.264 52.48C375.133 51.5908 378.508 51.1462 382.388 51.1462ZM382.388 57.5119C380.003 57.5119 378.003 57.6937 376.386 58.0575C374.769 58.3808 373.537 58.886 372.688 59.5731C371.839 60.2602 371.415 61.1696 371.415 62.3012C371.415 63.3521 371.839 64.2412 372.688 64.9687C373.537 65.6962 374.769 66.2419 376.386 66.6056C378.003 66.929 380.003 67.0906 382.388 67.0906C384.773 67.0906 386.773 66.929 388.39 66.6056C390.047 66.2419 391.28 65.6962 392.088 64.9687C392.937 64.2412 393.361 63.3521 393.361 62.3012C393.361 61.1696 392.937 60.2602 392.088 59.5731C391.28 58.886 390.047 58.3808 388.39 58.0575C386.773 57.6937 384.773 57.5119 382.388 57.5119ZM454.042 24.1075H463.681V30.655H454.042V24.1075ZM454.042 36.2931H463.681V42.9012H454.042V36.2931ZM427.913 20.2881C430.823 20.2881 433.429 20.8742 435.733 22.0462C438.037 23.2183 439.856 24.835 441.189 26.8962C442.523 28.9171 443.19 31.2612 443.19 33.9287C443.19 36.5558 442.523 38.9 441.189 40.9612C439.856 42.9821 438.037 44.5785 435.733 45.7506C433.429 46.9227 430.823 47.5087 427.913 47.5087C425.043 47.5087 422.456 46.9227 420.153 45.7506C417.849 44.5785 416.03 42.9821 414.696 40.9612C413.363 38.9 412.696 36.5558 412.696 33.9287C412.696 31.2612 413.363 28.9171 414.696 26.8962C416.03 24.835 417.849 23.2183 420.153 22.0462C422.456 20.8742 425.043 20.2881 427.913 20.2881ZM427.913 27.0175C426.538 27.0175 425.285 27.3004 424.154 27.8662C423.022 28.3917 422.133 29.1798 421.486 30.2306C420.88 31.241 420.577 32.4737 420.577 33.9287C420.577 35.3433 420.88 36.576 421.486 37.6269C422.133 38.6373 423.022 39.4052 424.154 39.9306C425.285 40.456 426.538 40.7187 427.913 40.7187C429.368 40.7187 430.641 40.456 431.732 39.9306C432.823 39.4052 433.692 38.6373 434.339 37.6269C434.985 36.576 435.309 35.3433 435.309 33.9287C435.309 32.4737 434.985 31.241 434.339 30.2306C433.692 29.1798 432.823 28.3917 431.732 27.8662C430.641 27.3004 429.368 27.0175 427.913 27.0175ZM448.404 17.2569H456.467V49.9944H448.404V17.2569ZM438.158 51.1462C442.038 51.1462 445.393 51.5908 448.222 52.48C451.092 53.3692 453.294 54.6423 454.83 56.2994C456.366 57.9565 457.134 59.9571 457.134 62.3012C457.134 64.605 456.366 66.5854 454.83 68.2425C453.294 69.8996 451.092 71.1727 448.222 72.0619C445.393 72.951 442.038 73.3956 438.158 73.3956C434.278 73.3956 430.903 72.951 428.034 72.0619C425.205 71.1727 423.002 69.8996 421.426 68.2425C419.89 66.5854 419.122 64.605 419.122 62.3012C419.122 59.9571 419.89 57.9565 421.426 56.2994C423.002 54.6423 425.205 53.3692 428.034 52.48C430.903 51.5908 434.278 51.1462 438.158 51.1462ZM438.158 57.5119C435.774 57.5119 433.773 57.6937 432.156 58.0575C430.54 58.3808 429.307 58.886 428.458 59.5731C427.609 60.2602 427.185 61.1696 427.185 62.3012C427.185 63.3521 427.609 64.2412 428.458 64.9687C429.307 65.6962 430.54 66.2419 432.156 66.6056C433.773 66.929 435.774 67.0906 438.158 67.0906C440.543 67.0906 442.543 66.929 444.16 66.6056C445.817 66.2419 447.05 65.6962 447.858 64.9687C448.707 64.2412 449.131 63.3521 449.131 62.3012C449.131 61.1696 448.707 60.2602 447.858 59.5731C447.05 58.886 445.817 58.3808 444.16 58.0575C442.543 57.6937 440.543 57.5119 438.158 57.5119ZM509.812 24.1075H519.452V30.655H509.812V24.1075ZM509.812 36.2931H519.452V42.9012H509.812V36.2931ZM483.683 20.2881C486.593 20.2881 489.2 20.8742 491.503 22.0462C493.807 23.2183 495.626 24.835 496.96 26.8962C498.293 28.9171 498.96 31.2612 498.96 33.9287C498.96 36.5558 498.293 38.9 496.96 40.9612C495.626 42.9821 493.807 44.5785 491.503 45.7506C489.2 46.9227 486.593 47.5087 483.683 47.5087C480.813 47.5087 478.227 46.9227 475.923 45.7506C473.619 44.5785 471.8 42.9821 470.467 40.9612C469.133 38.9 468.466 36.5558 468.466 33.9287C468.466 31.2612 469.133 28.9171 470.467 26.8962C471.8 24.835 473.619 23.2183 475.923 22.0462C478.227 20.8742 480.813 20.2881 483.683 20.2881ZM483.683 27.0175C482.309 27.0175 481.056 27.3004 479.924 27.8662C478.792 28.3917 477.903 29.1798 477.257 30.2306C476.65 31.241 476.347 32.4737 476.347 33.9287C476.347 35.3433 476.65 36.576 477.257 37.6269C477.903 38.6373 478.792 39.4052 479.924 39.9306C481.056 40.456 482.309 40.7187 483.683 40.7187C485.138 40.7187 486.411 40.456 487.502 39.9306C488.593 39.4052 489.462 38.6373 490.109 37.6269C490.756 36.576 491.079 35.3433 491.079 33.9287C491.079 32.4737 490.756 31.241 490.109 30.2306C489.462 29.1798 488.593 28.3917 487.502 27.8662C486.411 27.3004 485.138 27.0175 483.683 27.0175ZM504.174 17.2569H512.237V49.9944H504.174V17.2569ZM493.928 51.1462C497.808 51.1462 501.163 51.5908 503.992 52.48C506.862 53.3692 509.064 54.6423 510.6 56.2994C512.136 57.9565 512.904 59.9571 512.904 62.3012C512.904 64.605 512.136 66.5854 510.6 68.2425C509.064 69.8996 506.862 71.1727 503.992 72.0619C501.163 72.951 497.808 73.3956 493.928 73.3956C490.048 73.3956 486.674 72.951 483.804 72.0619C480.975 71.1727 478.772 69.8996 477.196 68.2425C475.66 66.5854 474.892 64.605 474.892 62.3012C474.892 59.9571 475.66 57.9565 477.196 56.2994C478.772 54.6423 480.975 53.3692 483.804 52.48C486.674 51.5908 490.048 51.1462 493.928 51.1462ZM493.928 57.5119C491.544 57.5119 489.543 57.6937 487.927 58.0575C486.31 58.3808 485.077 58.886 484.228 59.5731C483.38 60.2602 482.955 61.1696 482.955 62.3012C482.955 63.3521 483.38 64.2412 484.228 64.9687C485.077 65.6962 486.31 66.2419 487.927 66.6056C489.543 66.929 491.544 67.0906 493.928 67.0906C496.313 67.0906 498.314 66.929 499.93 66.6056C501.587 66.2419 502.82 65.6962 503.628 64.9687C504.477 64.2412 504.902 63.3521 504.902 62.3012C504.902 61.1696 504.477 60.2602 503.628 59.5731C502.82 58.886 501.587 58.3808 499.93 58.0575C498.314 57.6937 496.313 57.5119 493.928 57.5119ZM565.582 24.1075H575.222V30.655H565.582V24.1075ZM565.582 36.2931H575.222V42.9012H565.582V36.2931ZM539.453 20.2881C542.363 20.2881 544.97 20.8742 547.274 22.0462C549.577 23.2183 551.396 24.835 552.73 26.8962C554.064 28.9171 554.731 31.2612 554.731 33.9287C554.731 36.5558 554.064 38.9 552.73 40.9612C551.396 42.9821 549.577 44.5785 547.274 45.7506C544.97 46.9227 542.363 47.5087 539.453 47.5087C536.584 47.5087 533.997 46.9227 531.693 45.7506C529.389 44.5785 527.571 42.9821 526.237 40.9612C524.903 38.9 524.236 36.5558 524.236 33.9287C524.236 31.2612 524.903 28.9171 526.237 26.8962C527.571 24.835 529.389 23.2183 531.693 22.0462C533.997 20.8742 536.584 20.2881 539.453 20.2881ZM539.453 27.0175C538.079 27.0175 536.826 27.3004 535.694 27.8662C534.563 28.3917 533.674 29.1798 533.027 30.2306C532.421 31.241 532.117 32.4737 532.117 33.9287C532.117 35.3433 532.421 36.576 533.027 37.6269C533.674 38.6373 534.563 39.4052 535.694 39.9306C536.826 40.456 538.079 40.7187 539.453 40.7187C540.908 40.7187 542.181 40.456 543.272 39.9306C544.364 39.4052 545.233 38.6373 545.879 37.6269C546.526 36.576 546.849 35.3433 546.849 33.9287C546.849 32.4737 546.526 31.241 545.879 30.2306C545.233 29.1798 544.364 28.3917 543.272 27.8662C542.181 27.3004 540.908 27.0175 539.453 27.0175ZM559.944 17.2569H568.007V49.9944H559.944V17.2569ZM549.699 51.1462C553.579 51.1462 556.933 51.5908 559.762 52.48C562.632 53.3692 564.835 54.6423 566.371 56.2994C567.906 57.9565 568.674 59.9571 568.674 62.3012C568.674 64.605 567.906 66.5854 566.371 68.2425C564.835 69.8996 562.632 71.1727 559.762 72.0619C556.933 72.951 553.579 73.3956 549.699 73.3956C545.819 73.3956 542.444 72.951 539.574 72.0619C536.745 71.1727 534.542 69.8996 532.966 68.2425C531.43 66.5854 530.662 64.605 530.662 62.3012C530.662 59.9571 531.43 57.9565 532.966 56.2994C534.542 54.6423 536.745 53.3692 539.574 52.48C542.444 51.5908 545.819 51.1462 549.699 51.1462ZM549.699 57.5119C547.314 57.5119 545.314 57.6937 543.697 58.0575C542.08 58.3808 540.847 58.886 539.999 59.5731C539.15 60.2602 538.726 61.1696 538.726 62.3012C538.726 63.3521 539.15 64.2412 539.999 64.9687C540.847 65.6962 542.08 66.2419 543.697 66.6056C545.314 66.929 547.314 67.0906 549.699 67.0906C552.083 67.0906 554.084 66.929 555.701 66.6056C557.358 66.2419 558.59 65.6962 559.399 64.9687C560.247 64.2412 560.672 63.3521 560.672 62.3012C560.672 61.1696 560.247 60.2602 559.399 59.5731C558.59 58.886 557.358 58.3808 555.701 58.0575C554.084 57.6937 552.083 57.5119 549.699 57.5119ZM621.353 24.1075H630.992V30.655H621.353V24.1075ZM621.353 36.2931H630.992V42.9012H621.353V36.2931ZM595.223 20.2881C598.133 20.2881 600.74 20.8742 603.044 22.0462C605.348 23.2183 607.166 24.835 608.5 26.8962C609.834 28.9171 610.501 31.2612 610.501 33.9287C610.501 36.5558 609.834 38.9 608.5 40.9612C607.166 42.9821 605.348 44.5785 603.044 45.7506C600.74 46.9227 598.133 47.5087 595.223 47.5087C592.354 47.5087 589.767 46.9227 587.463 45.7506C585.16 44.5785 583.341 42.9821 582.007 40.9612C580.673 38.9 580.006 36.5558 580.006 33.9287C580.006 31.2612 580.673 28.9171 582.007 26.8962C583.341 24.835 585.16 23.2183 587.463 22.0462C589.767 20.8742 592.354 20.2881 595.223 20.2881ZM595.223 27.0175C593.849 27.0175 592.596 27.3004 591.465 27.8662C590.333 28.3917 589.444 29.1798 588.797 30.2306C588.191 31.241 587.888 32.4737 587.888 33.9287C587.888 35.3433 588.191 36.576 588.797 37.6269C589.444 38.6373 590.333 39.4052 591.465 39.9306C592.596 40.456 593.849 40.7187 595.223 40.7187C596.678 40.7187 597.951 40.456 599.043 39.9306C600.134 39.4052 601.003 38.6373 601.65 37.6269C602.296 36.576 602.62 35.3433 602.62 33.9287C602.62 32.4737 602.296 31.241 601.65 30.2306C601.003 29.1798 600.134 28.3917 599.043 27.8662C597.951 27.3004 596.678 27.0175 595.223 27.0175ZM615.715 17.2569H623.778V49.9944H615.715V17.2569ZM605.469 51.1462C609.349 51.1462 612.704 51.5908 615.533 52.48C618.402 53.3692 620.605 54.6423 622.141 56.2994C623.677 57.9565 624.445 59.9571 624.445 62.3012C624.445 64.605 623.677 66.5854 622.141 68.2425C620.605 69.8996 618.402 71.1727 615.533 72.0619C612.704 72.951 609.349 73.3956 605.469 73.3956C601.589 73.3956 598.214 72.951 595.345 72.0619C592.515 71.1727 590.313 69.8996 588.736 68.2425C587.201 66.5854 586.433 64.605 586.433 62.3012C586.433 59.9571 587.201 57.9565 588.736 56.2994C590.313 54.6423 592.515 53.3692 595.345 52.48C598.214 51.5908 601.589 51.1462 605.469 51.1462ZM605.469 57.5119C603.084 57.5119 601.084 57.6937 599.467 58.0575C597.85 58.3808 596.618 58.886 595.769 59.5731C594.92 60.2602 594.496 61.1696 594.496 62.3012C594.496 63.3521 594.92 64.2412 595.769 64.9687C596.618 65.6962 597.85 66.2419 599.467 66.6056C601.084 66.929 603.084 67.0906 605.469 67.0906C607.854 67.0906 609.854 66.929 611.471 66.6056C613.128 66.2419 614.361 65.6962 615.169 64.9687C616.018 64.2412 616.442 63.3521 616.442 62.3012C616.442 61.1696 616.018 60.2602 615.169 59.5731C614.361 58.886 613.128 58.3808 611.471 58.0575C609.854 57.6937 607.854 57.5119 605.469 57.5119ZM677.123 24.1075H686.762V30.655H677.123V24.1075ZM677.123 36.2931H686.762V42.9012H677.123V36.2931ZM650.994 20.2881C653.904 20.2881 656.51 20.8742 658.814 22.0462C661.118 23.2183 662.937 24.835 664.27 26.8962C665.604 28.9171 666.271 31.2612 666.271 33.9287C666.271 36.5558 665.604 38.9 664.27 40.9612C662.937 42.9821 661.118 44.5785 658.814 45.7506C656.51 46.9227 653.904 47.5087 650.994 47.5087C648.124 47.5087 645.537 46.9227 643.234 45.7506C640.93 44.5785 639.111 42.9821 637.777 40.9612C636.444 38.9 635.777 36.5558 635.777 33.9287C635.777 31.2612 636.444 28.9171 637.777 26.8962C639.111 24.835 640.93 23.2183 643.234 22.0462C645.537 20.8742 648.124 20.2881 650.994 20.2881ZM650.994 27.0175C649.619 27.0175 648.367 27.3004 647.235 27.8662C646.103 28.3917 645.214 29.1798 644.567 30.2306C643.961 31.241 643.658 32.4737 643.658 33.9287C643.658 35.3433 643.961 36.576 644.567 37.6269C645.214 38.6373 646.103 39.4052 647.235 39.9306C648.367 40.456 649.619 40.7187 650.994 40.7187C652.449 40.7187 653.722 40.456 654.813 39.9306C655.904 39.4052 656.773 38.6373 657.42 37.6269C658.067 36.576 658.39 35.3433 658.39 33.9287C658.39 32.4737 658.067 31.241 657.42 30.2306C656.773 29.1798 655.904 28.3917 654.813 27.8662C653.722 27.3004 652.449 27.0175 650.994 27.0175ZM671.485 17.2569H679.548V49.9944H671.485V17.2569ZM661.239 51.1462C665.119 51.1462 668.474 51.5908 671.303 52.48C674.173 53.3692 676.375 54.6423 677.911 56.2994C679.447 57.9565 680.215 59.9571 680.215 62.3012C680.215 64.605 679.447 66.5854 677.911 68.2425C676.375 69.8996 674.173 71.1727 671.303 72.0619C668.474 72.951 665.119 73.3956 661.239 73.3956C657.359 73.3956 653.984 72.951 651.115 72.0619C648.286 71.1727 646.083 69.8996 644.507 68.2425C642.971 66.5854 642.203 64.605 642.203 62.3012C642.203 59.9571 642.971 57.9565 644.507 56.2994C646.083 54.6423 648.286 53.3692 651.115 52.48C653.984 51.5908 657.359 51.1462 661.239 51.1462ZM661.239 57.5119C658.855 57.5119 656.854 57.6937 655.237 58.0575C653.621 58.3808 652.388 58.886 651.539 59.5731C650.69 60.2602 650.266 61.1696 650.266 62.3012C650.266 63.3521 650.69 64.2412 651.539 64.9687C652.388 65.6962 653.621 66.2419 655.237 66.6056C656.854 66.929 658.855 67.0906 661.239 67.0906C663.624 67.0906 665.624 66.929 667.241 66.6056C668.898 66.2419 670.131 65.6962 670.939 64.9687C671.788 64.2412 672.212 63.3521 672.212 62.3012C672.212 61.1696 671.788 60.2602 670.939 59.5731C670.131 58.886 668.898 58.3808 667.241 58.0575C665.624 57.6937 663.624 57.5119 661.239 57.5119ZM732.893 24.1075H742.533V30.655H732.893V24.1075ZM732.893 36.2931H742.533V42.9012H732.893V36.2931ZM706.764 20.2881C709.674 20.2881 712.281 20.8742 714.585 22.0462C716.888 23.2183 718.707 24.835 720.041 26.8962C721.375 28.9171 722.041 31.2612 722.041 33.9287C722.041 36.5558 721.375 38.9 720.041 40.9612C718.707 42.9821 716.888 44.5785 714.585 45.7506C712.281 46.9227 709.674 47.5087 706.764 47.5087C703.894 47.5087 701.308 46.9227 699.004 45.7506C696.7 44.5785 694.881 42.9821 693.548 40.9612C692.214 38.9 691.547 36.5558 691.547 33.9287C691.547 31.2612 692.214 28.9171 693.548 26.8962C694.881 24.835 696.7 23.2183 699.004 22.0462C701.308 20.8742 703.894 20.2881 706.764 20.2881ZM706.764 27.0175C705.39 27.0175 704.137 27.3004 703.005 27.8662C701.873 28.3917 700.984 29.1798 700.338 30.2306C699.731 31.241 699.428 32.4737 699.428 33.9287C699.428 35.3433 699.731 36.576 700.338 37.6269C700.984 38.6373 701.873 39.4052 703.005 39.9306C704.137 40.456 705.39 40.7187 706.764 40.7187C708.219 40.7187 709.492 40.456 710.583 39.9306C711.675 39.4052 712.543 38.6373 713.19 37.6269C713.837 36.576 714.16 35.3433 714.16 33.9287C714.16 32.4737 713.837 31.241 713.19 30.2306C712.543 29.1798 711.675 28.3917 710.583 27.8662C709.492 27.3004 708.219 27.0175 706.764 27.0175ZM727.255 17.2569H735.318V49.9944H727.255V17.2569ZM717.01 51.1462C720.89 51.1462 724.244 51.5908 727.073 52.48C729.943 53.3692 732.146 54.6423 733.681 56.2994C735.217 57.9565 735.985 59.9571 735.985 62.3012C735.985 64.605 735.217 66.5854 733.681 68.2425C732.146 69.8996 729.943 71.1727 727.073 72.0619C724.244 72.951 720.89 73.3956 717.01 73.3956C713.13 73.3956 709.755 72.951 706.885 72.0619C704.056 71.1727 701.853 69.8996 700.277 68.2425C698.741 66.5854 697.973 64.605 697.973 62.3012C697.973 59.9571 698.741 57.9565 700.277 56.2994C701.853 54.6423 704.056 53.3692 706.885 52.48C709.755 51.5908 713.13 51.1462 717.01 51.1462ZM717.01 57.5119C714.625 57.5119 712.624 57.6937 711.008 58.0575C709.391 58.3808 708.158 58.886 707.31 59.5731C706.461 60.2602 706.036 61.1696 706.036 62.3012C706.036 63.3521 706.461 64.2412 707.31 64.9687C708.158 65.6962 709.391 66.2419 711.008 66.6056C712.624 66.929 714.625 67.0906 717.01 67.0906C719.394 67.0906 721.395 66.929 723.011 66.6056C724.668 66.2419 725.901 65.6962 726.71 64.9687C727.558 64.2412 727.983 63.3521 727.983 62.3012C727.983 61.1696 727.558 60.2602 726.71 59.5731C725.901 58.886 724.668 58.3808 723.011 58.0575C721.395 57.6937 719.394 57.5119 717.01 57.5119ZM788.664 24.1075H798.303V30.655H788.664V24.1075ZM788.664 36.2931H798.303V42.9012H788.664V36.2931ZM762.534 20.2881C765.444 20.2881 768.051 20.8742 770.355 22.0462C772.659 23.2183 774.477 24.835 775.811 26.8962C777.145 28.9171 777.812 31.2612 777.812 33.9287C777.812 36.5558 777.145 38.9 775.811 40.9612C774.477 42.9821 772.659 44.5785 770.355 45.7506C768.051 46.9227 765.444 47.5087 762.534 47.5087C759.665 47.5087 757.078 46.9227 754.774 45.7506C752.47 44.5785 750.652 42.9821 749.318 40.9612C747.984 38.9 747.317 36.5558 747.317 33.9287C747.317 31.2612 747.984 28.9171 749.318 26.8962C750.652 24.835 752.47 23.2183 754.774 22.0462C757.078 20.8742 759.665 20.2881 762.534 20.2881ZM762.534 27.0175C761.16 27.0175 759.907 27.3004 758.775 27.8662C757.644 28.3917 756.755 29.1798 756.108 30.2306C755.502 31.241 755.199 32.4737 755.199 33.9287C755.199 35.3433 755.502 36.576 756.108 37.6269C756.755 38.6373 757.644 39.4052 758.775 39.9306C759.907 40.456 761.16 40.7187 762.534 40.7187C763.989 40.7187 765.262 40.456 766.354 39.9306C767.445 39.4052 768.314 38.6373 768.96 37.6269C769.607 36.576 769.93 35.3433 769.93 33.9287C769.93 32.4737 769.607 31.241 768.96 30.2306C768.314 29.1798 767.445 28.3917 766.354 27.8662C765.262 27.3004 763.989 27.0175 762.534 27.0175ZM783.025 17.2569H791.089V49.9944H783.025V17.2569ZM772.78 51.1462C776.66 51.1462 780.014 51.5908 782.844 52.48C785.713 53.3692 787.916 54.6423 789.452 56.2994C790.987 57.9565 791.755 59.9571 791.755 62.3012C791.755 64.605 790.987 66.5854 789.452 68.2425C787.916 69.8996 785.713 71.1727 782.844 72.0619C780.014 72.951 776.66 73.3956 772.78 73.3956C768.9 73.3956 765.525 72.951 762.655 72.0619C759.826 71.1727 757.624 69.8996 756.047 68.2425C754.511 66.5854 753.744 64.605 753.744 62.3012C753.744 59.9571 754.511 57.9565 756.047 56.2994C757.624 54.6423 759.826 53.3692 762.655 52.48C765.525 51.5908 768.9 51.1462 772.78 51.1462ZM772.78 57.5119C770.395 57.5119 768.395 57.6937 766.778 58.0575C765.161 58.3808 763.929 58.886 763.08 59.5731C762.231 60.2602 761.807 61.1696 761.807 62.3012C761.807 63.3521 762.231 64.2412 763.08 64.9687C763.929 65.6962 765.161 66.2419 766.778 66.6056C768.395 66.929 770.395 67.0906 772.78 67.0906C775.164 67.0906 777.165 66.929 778.782 66.6056C780.439 66.2419 781.671 65.6962 782.48 64.9687C783.329 64.2412 783.753 63.3521 783.753 62.3012C783.753 61.1696 783.329 60.2602 782.48 59.5731C781.671 58.886 780.439 58.3808 778.782 58.0575C777.165 57.6937 775.164 57.5119 772.78 57.5119ZM844.434 24.1075H854.073V30.655H844.434V24.1075ZM844.434 36.2931H854.073V42.9012H844.434V36.2931ZM818.304 20.2881C821.214 20.2881 823.821 20.8742 826.125 22.0462C828.429 23.2183 830.248 24.835 831.581 26.8962C832.915 28.9171 833.582 31.2612 833.582 33.9287C833.582 36.5558 832.915 38.9 831.581 40.9612C830.248 42.9821 828.429 44.5785 826.125 45.7506C823.821 46.9227 821.214 47.5087 818.304 47.5087C815.435 47.5087 812.848 46.9227 810.544 45.7506C808.241 44.5785 806.422 42.9821 805.088 40.9612C803.754 38.9 803.088 36.5558 803.088 33.9287C803.088 31.2612 803.754 28.9171 805.088 26.8962C806.422 24.835 808.241 23.2183 810.544 22.0462C812.848 20.8742 815.435 20.2881 818.304 20.2881ZM818.304 27.0175C816.93 27.0175 815.677 27.3004 814.546 27.8662C813.414 28.3917 812.525 29.1798 811.878 30.2306C811.272 31.241 810.969 32.4737 810.969 33.9287C810.969 35.3433 811.272 36.576 811.878 37.6269C812.525 38.6373 813.414 39.4052 814.546 39.9306C815.677 40.456 816.93 40.7187 818.304 40.7187C819.759 40.7187 821.033 40.456 822.124 39.9306C823.215 39.4052 824.084 38.6373 824.731 37.6269C825.377 36.576 825.701 35.3433 825.701 33.9287C825.701 32.4737 825.377 31.241 824.731 30.2306C824.084 29.1798 823.215 28.3917 822.124 27.8662C821.033 27.3004 819.759 27.0175 818.304 27.0175ZM838.796 17.2569H846.859V49.9944H838.796V17.2569ZM828.55 51.1462C832.43 51.1462 835.785 51.5908 838.614 52.48C841.483 53.3692 843.686 54.6423 845.222 56.2994C846.758 57.9565 847.526 59.9571 847.526 62.3012C847.526 64.605 846.758 66.5854 845.222 68.2425C843.686 69.8996 841.483 71.1727 838.614 72.0619C835.785 72.951 832.43 73.3956 828.55 73.3956C824.67 73.3956 821.295 72.951 818.426 72.0619C815.596 71.1727 813.394 69.8996 811.818 68.2425C810.282 66.5854 809.514 64.605 809.514 62.3012C809.514 59.9571 810.282 57.9565 811.818 56.2994C813.394 54.6423 815.596 53.3692 818.426 52.48C821.295 51.5908 824.67 51.1462 828.55 51.1462ZM828.55 57.5119C826.165 57.5119 824.165 57.6937 822.548 58.0575C820.931 58.3808 819.699 58.886 818.85 59.5731C818.001 60.2602 817.577 61.1696 817.577 62.3012C817.577 63.3521 818.001 64.2412 818.85 64.9687C819.699 65.6962 820.931 66.2419 822.548 66.6056C824.165 66.929 826.165 67.0906 828.55 67.0906C830.935 67.0906 832.935 66.929 834.552 66.6056C836.209 66.2419 837.442 65.6962 838.25 64.9687C839.099 64.2412 839.523 63.3521 839.523 62.3012C839.523 61.1696 839.099 60.2602 838.25 59.5731C837.442 58.886 836.209 58.3808 834.552 58.0575C832.935 57.6937 830.935 57.5119 828.55 57.5119ZM900.204 24.1075H909.843V30.655H900.204V24.1075ZM900.204 36.2931H909.843V42.9012H900.204V36.2931ZM874.075 20.2881C876.985 20.2881 879.592 20.8742 881.895 22.0462C884.199 23.2183 886.018 24.835 887.352 26.8962C888.685 28.9171 889.352 31.2612 889.352 33.9287C889.352 36.5558 888.685 38.9 887.352 40.9612C886.018 42.9821 884.199 44.5785 881.895 45.7506C879.592 46.9227 876.985 47.5087 874.075 47.5087C871.205 47.5087 868.618 46.9227 866.315 45.7506C864.011 44.5785 862.192 42.9821 860.858 40.9612C859.525 38.9 858.858 36.5558 858.858 33.9287C858.858 31.2612 859.525 28.9171 860.858 26.8962C862.192 24.835 864.011 23.2183 866.315 22.0462C868.618 20.8742 871.205 20.2881 874.075 20.2881ZM874.075 27.0175C872.701 27.0175 871.448 27.3004 870.316 27.8662C869.184 28.3917 868.295 29.1798 867.648 30.2306C867.042 31.241 866.739 32.4737 866.739 33.9287C866.739 35.3433 867.042 36.576 867.648 37.6269C868.295 38.6373 869.184 39.4052 870.316 39.9306C871.448 40.456 872.701 40.7187 874.075 40.7187C875.53 40.7187 876.803 40.456 877.894 39.9306C878.985 39.4052 879.854 38.6373 880.501 37.6269C881.148 36.576 881.471 35.3433 881.471 33.9287C881.471 32.4737 881.148 31.241 880.501 30.2306C879.854 29.1798 878.985 28.3917 877.894 27.8662C876.803 27.3004 875.53 27.0175 874.075 27.0175ZM894.566 17.2569H902.629V49.9944H894.566V17.2569ZM884.32 51.1462C888.2 51.1462 891.555 51.5908 894.384 52.48C897.254 53.3692 899.456 54.6423 900.992 56.2994C902.528 57.9565 903.296 59.9571 903.296 62.3012C903.296 64.605 902.528 66.5854 900.992 68.2425C899.456 69.8996 897.254 71.1727 894.384 72.0619C891.555 72.951 888.2 73.3956 884.32 73.3956C880.44 73.3956 877.066 72.951 874.196 72.0619C871.367 71.1727 869.164 69.8996 867.588 68.2425C866.052 66.5854 865.284 64.605 865.284 62.3012C865.284 59.9571 866.052 57.9565 867.588 56.2994C869.164 54.6423 871.367 53.3692 874.196 52.48C877.066 51.5908 880.44 51.1462 884.32 51.1462ZM884.32 57.5119C881.936 57.5119 879.935 57.6937 878.318 58.0575C876.702 58.3808 875.469 58.886 874.62 59.5731C873.772 60.2602 873.347 61.1696 873.347 62.3012C873.347 63.3521 873.772 64.2412 874.62 64.9687C875.469 65.6962 876.702 66.2419 878.318 66.6056C879.935 66.929 881.936 67.0906 884.32 67.0906C886.705 67.0906 888.706 66.929 890.322 66.6056C891.979 66.2419 893.212 65.6962 894.02 64.9687C894.869 64.2412 895.293 63.3521 895.293 62.3012C895.293 61.1696 894.869 60.2602 894.02 59.5731C893.212 58.886 891.979 58.3808 890.322 58.0575C888.706 57.6937 886.705 57.5119 884.32 57.5119ZM955.974 24.1075H965.614V30.655H955.974V24.1075ZM955.974 36.2931H965.614V42.9012H955.974V36.2931ZM929.845 20.2881C932.755 20.2881 935.362 20.8742 937.666 22.0462C939.969 23.2183 941.788 24.835 943.122 26.8962C944.456 28.9171 945.122 31.2612 945.122 33.9287C945.122 36.5558 944.456 38.9 943.122 40.9612C941.788 42.9821 939.969 44.5785 937.666 45.7506C935.362 46.9227 932.755 47.5087 929.845 47.5087C926.975 47.5087 924.389 46.9227 922.085 45.7506C919.781 44.5785 917.962 42.9821 916.629 40.9612C915.295 38.9 914.628 36.5558 914.628 33.9287C914.628 31.2612 915.295 28.9171 916.629 26.8962C917.962 24.835 919.781 23.2183 922.085 22.0462C924.389 20.8742 926.975 20.2881 929.845 20.2881ZM929.845 27.0175C928.471 27.0175 927.218 27.3004 926.086 27.8662C924.955 28.3917 924.065 29.1798 923.419 30.2306C922.812 31.241 922.509 32.4737 922.509 33.9287C922.509 35.3433 922.812 36.576 923.419 37.6269C924.065 38.6373 924.955 39.4052 926.086 39.9306C927.218 40.456 928.471 40.7187 929.845 40.7187C931.3 40.7187 932.573 40.456 933.664 39.9306C934.756 39.4052 935.625 38.6373 936.271 37.6269C936.918 36.576 937.241 35.3433 937.241 33.9287C937.241 32.4737 936.918 31.241 936.271 30.2306C935.625 29.1798 934.756 28.3917 933.664 27.8662C932.573 27.3004 931.3 27.0175 929.845 27.0175ZM950.336 17.2569H958.399V49.9944H950.336V17.2569ZM940.091 51.1462C943.971 51.1462 947.325 51.5908 950.154 52.48C953.024 53.3692 955.227 54.6423 956.762 56.2994C958.298 57.9565 959.066 59.9571 959.066 62.3012C959.066 64.605 958.298 66.5854 956.762 68.2425C955.227 69.8996 953.024 71.1727 950.154 72.0619C947.325 72.951 943.971 73.3956 940.091 73.3956C936.211 73.3956 932.836 72.951 929.966 72.0619C927.137 71.1727 924.934 69.8996 923.358 68.2425C921.822 66.5854 921.054 64.605 921.054 62.3012C921.054 59.9571 921.822 57.9565 923.358 56.2994C924.934 54.6423 927.137 53.3692 929.966 52.48C932.836 51.5908 936.211 51.1462 940.091 51.1462ZM940.091 57.5119C937.706 57.5119 935.705 57.6937 934.089 58.0575C932.472 58.3808 931.239 58.886 930.391 59.5731C929.542 60.2602 929.117 61.1696 929.117 62.3012C929.117 63.3521 929.542 64.2412 930.391 64.9687C931.239 65.6962 932.472 66.2419 934.089 66.6056C935.705 66.929 937.706 67.0906 940.091 67.0906C942.475 67.0906 944.476 66.929 946.092 66.6056C947.75 66.2419 948.982 65.6962 949.791 64.9687C950.639 64.2412 951.064 63.3521 951.064 62.3012C951.064 61.1696 950.639 60.2602 949.791 59.5731C948.982 58.886 947.75 58.3808 946.092 58.0575C944.476 57.6937 942.475 57.5119 940.091 57.5119ZM1011.74 24.1075H1021.38V30.655H1011.74V24.1075ZM1011.74 36.2931H1021.38V42.9012H1011.74V36.2931ZM985.615 20.2881C988.525 20.2881 991.132 20.8742 993.436 22.0462C995.74 23.2183 997.558 24.835 998.892 26.8962C1000.23 28.9171 1000.89 31.2612 1000.89 33.9287C1000.89 36.5558 1000.23 38.9 998.892 40.9612C997.558 42.9821 995.74 44.5785 993.436 45.7506C991.132 46.9227 988.525 47.5087 985.615 47.5087C982.746 47.5087 980.159 46.9227 977.855 45.7506C975.551 44.5785 973.733 42.9821 972.399 40.9612C971.065 38.9 970.398 36.5558 970.398 33.9287C970.398 31.2612 971.065 28.9171 972.399 26.8962C973.733 24.835 975.551 23.2183 977.855 22.0462C980.159 20.8742 982.746 20.2881 985.615 20.2881ZM985.615 27.0175C984.241 27.0175 982.988 27.3004 981.856 27.8662C980.725 28.3917 979.836 29.1798 979.189 30.2306C978.583 31.241 978.28 32.4737 978.28 33.9287C978.28 35.3433 978.583 36.576 979.189 37.6269C979.836 38.6373 980.725 39.4052 981.856 39.9306C982.988 40.456 984.241 40.7187 985.615 40.7187C987.07 40.7187 988.343 40.456 989.435 39.9306C990.526 39.4052 991.395 38.6373 992.041 37.6269C992.688 36.576 993.011 35.3433 993.011 33.9287C993.011 32.4737 992.688 31.241 992.041 30.2306C991.395 29.1798 990.526 28.3917 989.435 27.8662C988.343 27.3004 987.07 27.0175 985.615 27.0175ZM1006.11 17.2569H1014.17V49.9944H1006.11V17.2569ZM995.861 51.1462C999.741 51.1462 1003.1 51.5908 1005.92 52.48C1008.79 53.3692 1011 54.6423 1012.53 56.2994C1014.07 57.9565 1014.84 59.9571 1014.84 62.3012C1014.84 64.605 1014.07 66.5854 1012.53 68.2425C1011 69.8996 1008.79 71.1727 1005.92 72.0619C1003.1 72.951 999.741 73.3956 995.861 73.3956C991.981 73.3956 988.606 72.951 985.736 72.0619C982.907 71.1727 980.705 69.8996 979.128 68.2425C977.592 66.5854 976.825 64.605 976.825 62.3012C976.825 59.9571 977.592 57.9565 979.128 56.2994C980.705 54.6423 982.907 53.3692 985.736 52.48C988.606 51.5908 991.981 51.1462 995.861 51.1462ZM995.861 57.5119C993.476 57.5119 991.476 57.6937 989.859 58.0575C988.242 58.3808 987.01 58.886 986.161 59.5731C985.312 60.2602 984.888 61.1696 984.888 62.3012C984.888 63.3521 985.312 64.2412 986.161 64.9687C987.01 65.6962 988.242 66.2419 989.859 66.6056C991.476 66.929 993.476 67.0906 995.861 67.0906C998.245 67.0906 1000.25 66.929 1001.86 66.6056C1003.52 66.2419 1004.75 65.6962 1005.56 64.9687C1006.41 64.2412 1006.83 63.3521 1006.83 62.3012C1006.83 61.1696 1006.41 60.2602 1005.56 59.5731C1004.75 58.886 1003.52 58.3808 1001.86 58.0575C1000.25 57.6937 998.245 57.5119 995.861 57.5119Z" fill="#02C8D1"/>
<path d="M430.408 66.545H440.047V73.0925H430.408V66.545ZM430.408 78.7306H440.047V85.3387H430.408V78.7306ZM404.278 62.7256C407.188 62.7256 409.795 63.3117 412.099 64.4837C414.403 65.6558 416.221 67.2725 417.555 69.3337C418.889 71.3546 419.556 73.6987 419.556 76.3662C419.556 78.9933 418.889 81.3375 417.555 83.3987C416.221 85.4196 414.403 87.016 412.099 88.1881C409.795 89.3602 407.188 89.9462 404.278 89.9462C401.409 89.9462 398.822 89.3602 396.518 88.1881C394.215 87.016 392.396 85.4196 391.062 83.3987C389.728 81.3375 389.061 78.9933 389.061 76.3662C389.061 73.6987 389.728 71.3546 391.062 69.3337C392.396 67.2725 394.215 65.6558 396.518 64.4837C398.822 63.3117 401.409 62.7256 404.278 62.7256ZM404.278 69.455C402.904 69.455 401.651 69.7379 400.52 70.3037C399.388 70.8292 398.499 71.6173 397.852 72.6681C397.246 73.6785 396.943 74.9112 396.943 76.3662C396.943 77.7808 397.246 79.0135 397.852 80.0644C398.499 81.0748 399.388 81.8427 400.52 82.3681C401.651 82.8935 402.904 83.1562 404.278 83.1562C405.733 83.1562 407.006 82.8935 408.098 82.3681C409.189 81.8427 410.058 81.0748 410.705 80.0644C411.351 79.0135 411.675 77.7808 411.675 76.3662C411.675 74.9112 411.351 73.6785 410.705 72.6681C410.058 71.6173 409.189 70.8292 408.098 70.3037C407.006 69.7379 405.733 69.455 404.278 69.455ZM424.77 59.6944H432.833V92.4319H424.77V59.6944ZM414.524 93.5837C418.404 93.5837 421.758 94.0283 424.588 94.9175C427.457 95.8067 429.66 97.0798 431.196 98.7369C432.732 100.394 433.5 102.395 433.5 104.739C433.5 107.042 432.732 109.023 431.196 110.68C429.66 112.337 427.457 113.61 424.588 114.499C421.758 115.389 418.404 115.833 414.524 115.833C410.644 115.833 407.269 115.389 404.4 114.499C401.57 113.61 399.368 112.337 397.791 110.68C396.256 109.023 395.488 107.042 395.488 104.739C395.488 102.395 396.256 100.394 397.791 98.7369C399.368 97.0798 401.57 95.8067 404.4 94.9175C407.269 94.0283 410.644 93.5837 414.524 93.5837ZM414.524 99.9494C412.139 99.9494 410.139 100.131 408.522 100.495C406.905 100.818 405.673 101.324 404.824 102.011C403.975 102.698 403.551 103.607 403.551 104.739C403.551 105.79 403.975 106.679 404.824 107.406C405.673 108.134 406.905 108.679 408.522 109.043C410.139 109.366 412.139 109.528 414.524 109.528C416.908 109.528 418.909 109.366 420.526 109.043C422.183 108.679 423.416 108.134 424.224 107.406C425.073 106.679 425.497 105.79 425.497 104.739C425.497 103.607 425.073 102.698 424.224 102.011C423.416 101.324 422.183 100.818 420.526 100.495C418.909 100.131 416.908 99.9494 414.524 99.9494ZM486.178 66.545H495.817V73.0925H486.178V66.545ZM486.178 78.7306H495.817V85.3387H486.178V78.7306ZM460.049 62.7256C462.959 62.7256 465.565 63.3117 467.869 64.4837C470.173 65.6558 471.992 67.2725 473.325 69.3337C474.659 71.3546 475.326 73.6987 475.326 76.3662C475.326 78.9933 474.659 81.3375 473.325 83.3987C471.992 85.4196 470.173 87.016 467.869 88.1881C465.565 89.3602 462.959 89.9462 460.049 89.9462C457.179 89.9462 454.592 89.3602 452.289 88.1881C449.985 87.016 448.166 85.4196 446.832 83.3987C445.499 81.3375 444.832 78.9933 444.832 76.3662C444.832 73.6987 445.499 71.3546 446.832 69.3337C448.166 67.2725 449.985 65.6558 452.289 64.4837C454.592 63.3117 457.179 62.7256 460.049 62.7256ZM460.049 69.455C458.674 69.455 457.421 69.7379 456.29 70.3037C455.158 70.8292 454.269 71.6173 453.622 72.6681C453.016 73.6785 452.713 74.9112 452.713 76.3662C452.713 77.7808 453.016 79.0135 453.622 80.0644C454.269 81.0748 455.158 81.8427 456.29 82.3681C457.421 82.8935 458.674 83.1562 460.049 83.1562C461.504 83.1562 462.777 82.8935 463.868 82.3681C464.959 81.8427 465.828 81.0748 466.475 80.0644C467.121 79.0135 467.445 77.7808 467.445 76.3662C467.445 74.9112 467.121 73.6785 466.475 72.6681C465.828 71.6173 464.959 70.8292 463.868 70.3037C462.777 69.7379 461.504 69.455 460.049 69.455ZM480.54 59.6944H488.603V92.4319H480.54V59.6944ZM470.294 93.5837C474.174 93.5837 477.529 94.0283 480.358 94.9175C483.228 95.8067 485.43 97.0798 486.966 98.7369C488.502 100.394 489.27 102.395 489.27 104.739C489.27 107.042 488.502 109.023 486.966 110.68C485.43 112.337 483.228 113.61 480.358 114.499C477.529 115.389 474.174 115.833 470.294 115.833C466.414 115.833 463.039 115.389 460.17 114.499C457.341 113.61 455.138 112.337 453.562 110.68C452.026 109.023 451.258 107.042 451.258 104.739C451.258 102.395 452.026 100.394 453.562 98.7369C455.138 97.0798 457.341 95.8067 460.17 94.9175C463.039 94.0283 466.414 93.5837 470.294 93.5837ZM470.294 99.9494C467.91 99.9494 465.909 100.131 464.292 100.495C462.676 100.818 461.443 101.324 460.594 102.011C459.745 102.698 459.321 103.607 459.321 104.739C459.321 105.79 459.745 106.679 460.594 107.406C461.443 108.134 462.676 108.679 464.292 109.043C465.909 109.366 467.91 109.528 470.294 109.528C472.679 109.528 474.679 109.366 476.296 109.043C477.953 108.679 479.186 108.134 479.994 107.406C480.843 106.679 481.267 105.79 481.267 104.739C481.267 103.607 480.843 102.698 479.994 102.011C479.186 101.324 477.953 100.818 476.296 100.495C474.679 100.131 472.679 99.9494 470.294 99.9494ZM541.948 66.545H551.588V73.0925H541.948V66.545ZM541.948 78.7306H551.588V85.3387H541.948V78.7306ZM515.819 62.7256C518.729 62.7256 521.336 63.3117 523.639 64.4837C525.943 65.6558 527.762 67.2725 529.096 69.3337C530.429 71.3546 531.096 73.6987 531.096 76.3662C531.096 78.9933 530.429 81.3375 529.096 83.3987C527.762 85.4196 525.943 87.016 523.639 88.1881C521.336 89.3602 518.729 89.9462 515.819 89.9462C512.949 89.9462 510.363 89.3602 508.059 88.1881C505.755 87.016 503.936 85.4196 502.603 83.3987C501.269 81.3375 500.602 78.9933 500.602 76.3662C500.602 73.6987 501.269 71.3546 502.603 69.3337C503.936 67.2725 505.755 65.6558 508.059 64.4837C510.363 63.3117 512.949 62.7256 515.819 62.7256ZM515.819 69.455C514.445 69.455 513.192 69.7379 512.06 70.3037C510.928 70.8292 510.039 71.6173 509.393 72.6681C508.786 73.6785 508.483 74.9112 508.483 76.3662C508.483 77.7808 508.786 79.0135 509.393 80.0644C510.039 81.0748 510.928 81.8427 512.06 82.3681C513.192 82.8935 514.445 83.1562 515.819 83.1562C517.274 83.1562 518.547 82.8935 519.638 82.3681C520.729 81.8427 521.598 81.0748 522.245 80.0644C522.892 79.0135 523.215 77.7808 523.215 76.3662C523.215 74.9112 522.892 73.6785 522.245 72.6681C521.598 71.6173 520.729 70.8292 519.638 70.3037C518.547 69.7379 517.274 69.455 515.819 69.455ZM536.31 59.6944H544.373V92.4319H536.31V59.6944ZM526.064 93.5837C529.944 93.5837 533.299 94.0283 536.128 94.9175C538.998 95.8067 541.2 97.0798 542.736 98.7369C544.272 100.394 545.04 102.395 545.04 104.739C545.04 107.042 544.272 109.023 542.736 110.68C541.2 112.337 538.998 113.61 536.128 114.499C533.299 115.389 529.944 115.833 526.064 115.833C522.184 115.833 518.81 115.389 515.94 114.499C513.111 113.61 510.908 112.337 509.332 110.68C507.796 109.023 507.028 107.042 507.028 104.739C507.028 102.395 507.796 100.394 509.332 98.7369C510.908 97.0798 513.111 95.8067 515.94 94.9175C518.81 94.0283 522.184 93.5837 526.064 93.5837ZM526.064 99.9494C523.68 99.9494 521.679 100.131 520.063 100.495C518.446 100.818 517.213 101.324 516.364 102.011C515.516 102.698 515.091 103.607 515.091 104.739C515.091 105.79 515.516 106.679 516.364 107.406C517.213 108.134 518.446 108.679 520.063 109.043C521.679 109.366 523.68 109.528 526.064 109.528C528.449 109.528 530.45 109.366 532.066 109.043C533.723 108.679 534.956 108.134 535.764 107.406C536.613 106.679 537.038 105.79 537.038 104.739C537.038 103.607 536.613 102.698 535.764 102.011C534.956 101.324 533.723 100.818 532.066 100.495C530.45 100.131 528.449 99.9494 526.064 99.9494ZM597.718 66.545H607.358V73.0925H597.718V66.545ZM597.718 78.7306H607.358V85.3387H597.718V78.7306ZM571.589 62.7256C574.499 62.7256 577.106 63.3117 579.41 64.4837C581.713 65.6558 583.532 67.2725 584.866 69.3337C586.2 71.3546 586.867 73.6987 586.867 76.3662C586.867 78.9933 586.2 81.3375 584.866 83.3987C583.532 85.4196 581.713 87.016 579.41 88.1881C577.106 89.3602 574.499 89.9462 571.589 89.9462C568.719 89.9462 566.133 89.3602 563.829 88.1881C561.525 87.016 559.707 85.4196 558.373 83.3987C557.039 81.3375 556.372 78.9933 556.372 76.3662C556.372 73.6987 557.039 71.3546 558.373 69.3337C559.707 67.2725 561.525 65.6558 563.829 64.4837C566.133 63.3117 568.719 62.7256 571.589 62.7256ZM571.589 69.455C570.215 69.455 568.962 69.7379 567.83 70.3037C566.699 70.8292 565.809 71.6173 565.163 72.6681C564.557 73.6785 564.253 74.9112 564.253 76.3662C564.253 77.7808 564.557 79.0135 565.163 80.0644C565.809 81.0748 566.699 81.8427 567.83 82.3681C568.962 82.8935 570.215 83.1562 571.589 83.1562C573.044 83.1562 574.317 82.8935 575.408 82.3681C576.5 81.8427 577.369 81.0748 578.015 80.0644C578.662 79.0135 578.985 77.7808 578.985 76.3662C578.985 74.9112 578.662 73.6785 578.015 72.6681C577.369 71.6173 576.5 70.8292 575.408 70.3037C574.317 69.7379 573.044 69.455 571.589 69.455ZM592.08 59.6944H600.143V92.4319H592.08V59.6944ZM581.835 93.5837C585.715 93.5837 589.069 94.0283 591.898 94.9175C594.768 95.8067 596.971 97.0798 598.507 98.7369C600.042 100.394 600.81 102.395 600.81 104.739C600.81 107.042 600.042 109.023 598.507 110.68C596.971 112.337 594.768 113.61 591.898 114.499C589.069 115.389 585.715 115.833 581.835 115.833C577.955 115.833 574.58 115.389 571.71 114.499C568.881 113.61 566.678 112.337 565.102 110.68C563.566 109.023 562.798 107.042 562.798 104.739C562.798 102.395 563.566 100.394 565.102 98.7369C566.678 97.0798 568.881 95.8067 571.71 94.9175C574.58 94.0283 577.955 93.5837 581.835 93.5837ZM581.835 99.9494C579.45 99.9494 577.449 100.131 575.833 100.495C574.216 100.818 572.983 101.324 572.135 102.011C571.286 102.698 570.862 103.607 570.862 104.739C570.862 105.79 571.286 106.679 572.135 107.406C572.983 108.134 574.216 108.679 575.833 109.043C577.449 109.366 579.45 109.528 581.835 109.528C584.219 109.528 586.22 109.366 587.837 109.043C589.494 108.679 590.726 108.134 591.535 107.406C592.383 106.679 592.808 105.79 592.808 104.739C592.808 103.607 592.383 102.698 591.535 102.011C590.726 101.324 589.494 100.818 587.837 100.495C586.22 100.131 584.219 99.9494 581.835 99.9494ZM653.489 66.545H663.128V73.0925H653.489V66.545ZM653.489 78.7306H663.128V85.3387H653.489V78.7306ZM627.359 62.7256C630.269 62.7256 632.876 63.3117 635.18 64.4837C637.484 65.6558 639.302 67.2725 640.636 69.3337C641.97 71.3546 642.637 73.6987 642.637 76.3662C642.637 78.9933 641.97 81.3375 640.636 83.3987C639.302 85.4196 637.484 87.016 635.18 88.1881C632.876 89.3602 630.269 89.9462 627.359 89.9462C624.49 89.9462 621.903 89.3602 619.599 88.1881C617.296 87.016 615.477 85.4196 614.143 83.3987C612.809 81.3375 612.142 78.9933 612.142 76.3662C612.142 73.6987 612.809 71.3546 614.143 69.3337C615.477 67.2725 617.296 65.6558 619.599 64.4837C621.903 63.3117 624.49 62.7256 627.359 62.7256ZM627.359 69.455C625.985 69.455 624.732 69.7379 623.601 70.3037C622.469 70.8292 621.58 71.6173 620.933 72.6681C620.327 73.6785 620.024 74.9112 620.024 76.3662C620.024 77.7808 620.327 79.0135 620.933 80.0644C621.58 81.0748 622.469 81.8427 623.601 82.3681C624.732 82.8935 625.985 83.1562 627.359 83.1562C628.814 83.1562 630.087 82.8935 631.179 82.3681C632.27 81.8427 633.139 81.0748 633.786 80.0644C634.432 79.0135 634.756 77.7808 634.756 76.3662C634.756 74.9112 634.432 73.6785 633.786 72.6681C633.139 71.6173 632.27 70.8292 631.179 70.3037C630.087 69.7379 628.814 69.455 627.359 69.455ZM647.851 59.6944H655.914V92.4319H647.851V59.6944ZM637.605 93.5837C641.485 93.5837 644.84 94.0283 647.669 94.9175C650.538 95.8067 652.741 97.0798 654.277 98.7369C655.813 100.394 656.581 102.395 656.581 104.739C656.581 107.042 655.813 109.023 654.277 110.68C652.741 112.337 650.538 113.61 647.669 114.499C644.84 115.389 641.485 115.833 637.605 115.833C633.725 115.833 630.35 115.389 627.481 114.499C624.651 113.61 622.449 112.337 620.872 110.68C619.337 109.023 618.569 107.042 618.569 104.739C618.569 102.395 619.337 100.394 620.872 98.7369C622.449 97.0798 624.651 95.8067 627.481 94.9175C630.35 94.0283 633.725 93.5837 637.605 93.5837ZM637.605 99.9494C635.22 99.9494 633.22 100.131 631.603 100.495C629.986 100.818 628.754 101.324 627.905 102.011C627.056 102.698 626.632 103.607 626.632 104.739C626.632 105.79 627.056 106.679 627.905 107.406C628.754 108.134 629.986 108.679 631.603 109.043C633.22 109.366 635.22 109.528 637.605 109.528C639.99 109.528 641.99 109.366 643.607 109.043C645.264 108.679 646.497 108.134 647.305 107.406C648.154 106.679 648.578 105.79 648.578 104.739C648.578 103.607 648.154 102.698 647.305 102.011C646.497 101.324 645.264 100.818 643.607 100.495C641.99 100.131 639.99 99.9494 637.605 99.9494ZM709.259 66.545H718.898V73.0925H709.259V66.545ZM709.259 78.7306H718.898V85.3387H709.259V78.7306ZM683.13 62.7256C686.04 62.7256 688.646 63.3117 690.95 64.4837C693.254 65.6558 695.073 67.2725 696.406 69.3337C697.74 71.3546 698.407 73.6987 698.407 76.3662C698.407 78.9933 697.74 81.3375 696.406 83.3987C695.073 85.4196 693.254 87.016 690.95 88.1881C688.646 89.3602 686.04 89.9462 683.13 89.9462C680.26 89.9462 677.673 89.3602 675.37 88.1881C673.066 87.016 671.247 85.4196 669.913 83.3987C668.58 81.3375 667.913 78.9933 667.913 76.3662C667.913 73.6987 668.58 71.3546 669.913 69.3337C671.247 67.2725 673.066 65.6558 675.37 64.4837C677.673 63.3117 680.26 62.7256 683.13 62.7256ZM683.13 69.455C681.755 69.455 680.503 69.7379 679.371 70.3037C678.239 70.8292 677.35 71.6173 676.703 72.6681C676.097 73.6785 675.794 74.9112 675.794 76.3662C675.794 77.7808 676.097 79.0135 676.703 80.0644C677.35 81.0748 678.239 81.8427 679.371 82.3681C680.503 82.8935 681.755 83.1562 683.13 83.1562C684.585 83.1562 685.858 82.8935 686.949 82.3681C688.04 81.8427 688.909 81.0748 689.556 80.0644C690.203 79.0135 690.526 77.7808 690.526 76.3662C690.526 74.9112 690.203 73.6785 689.556 72.6681C688.909 71.6173 688.04 70.8292 686.949 70.3037C685.858 69.7379 684.585 69.455 683.13 69.455ZM703.621 59.6944H711.684V92.4319H703.621V59.6944ZM693.375 93.5837C697.255 93.5837 700.61 94.0283 703.439 94.9175C706.309 95.8067 708.511 97.0798 710.047 98.7369C711.583 100.394 712.351 102.395 712.351 104.739C712.351 107.042 711.583 109.023 710.047 110.68C708.511 112.337 706.309 113.61 703.439 114.499C700.61 115.389 697.255 115.833 693.375 115.833C689.495 115.833 686.12 115.389 683.251 114.499C680.422 113.61 678.219 112.337 676.643 110.68C675.107 109.023 674.339 107.042 674.339 104.739C674.339 102.395 675.107 100.394 676.643 98.7369C678.219 97.0798 680.422 95.8067 683.251 94.9175C686.12 94.0283 689.495 93.5837 693.375 93.5837ZM693.375 99.9494C690.991 99.9494 688.99 100.131 687.373 100.495C685.757 100.818 684.524 101.324 683.675 102.011C682.826 102.698 682.402 103.607 682.402 104.739C682.402 105.79 682.826 106.679 683.675 107.406C684.524 108.134 685.757 108.679 687.373 109.043C688.99 109.366 690.991 109.528 693.375 109.528C695.76 109.528 697.76 109.366 699.377 109.043C701.034 108.679 702.267 108.134 703.075 107.406C703.924 106.679 704.348 105.79 704.348 104.739C704.348 103.607 703.924 102.698 703.075 102.011C702.267 101.324 701.034 100.818 699.377 100.495C697.76 100.131 695.76 99.9494 693.375 99.9494ZM765.029 66.545H774.669V73.0925H765.029V66.545ZM765.029 78.7306H774.669V85.3387H765.029V78.7306ZM738.9 62.7256C741.81 62.7256 744.417 63.3117 746.72 64.4837C749.024 65.6558 750.843 67.2725 752.177 69.3337C753.51 71.3546 754.177 73.6987 754.177 76.3662C754.177 78.9933 753.51 81.3375 752.177 83.3987C750.843 85.4196 749.024 87.016 746.72 88.1881C744.417 89.3602 741.81 89.9462 738.9 89.9462C736.03 89.9462 733.444 89.3602 731.14 88.1881C728.836 87.016 727.017 85.4196 725.684 83.3987C724.35 81.3375 723.683 78.9933 723.683 76.3662C723.683 73.6987 724.35 71.3546 725.684 69.3337C727.017 67.2725 728.836 65.6558 731.14 64.4837C733.444 63.3117 736.03 62.7256 738.9 62.7256ZM738.9 69.455C737.526 69.455 736.273 69.7379 735.141 70.3037C734.009 70.8292 733.12 71.6173 732.474 72.6681C731.867 73.6785 731.564 74.9112 731.564 76.3662C731.564 77.7808 731.867 79.0135 732.474 80.0644C733.12 81.0748 734.009 81.8427 735.141 82.3681C736.273 82.8935 737.526 83.1562 738.9 83.1562C740.355 83.1562 741.628 82.8935 742.719 82.3681C743.81 81.8427 744.679 81.0748 745.326 80.0644C745.973 79.0135 746.296 77.7808 746.296 76.3662C746.296 74.9112 745.973 73.6785 745.326 72.6681C744.679 71.6173 743.81 70.8292 742.719 70.3037C741.628 69.7379 740.355 69.455 738.9 69.455ZM759.391 59.6944H767.454V92.4319H759.391V59.6944ZM749.145 93.5837C753.025 93.5837 756.38 94.0283 759.209 94.9175C762.079 95.8067 764.282 97.0798 765.817 98.7369C767.353 100.394 768.121 102.395 768.121 104.739C768.121 107.042 767.353 109.023 765.817 110.68C764.282 112.337 762.079 113.61 759.209 114.499C756.38 115.389 753.025 115.833 749.145 115.833C745.265 115.833 741.891 115.389 739.021 114.499C736.192 113.61 733.989 112.337 732.413 110.68C730.877 109.023 730.109 107.042 730.109 104.739C730.109 102.395 730.877 100.394 732.413 98.7369C733.989 97.0798 736.192 95.8067 739.021 94.9175C741.891 94.0283 745.265 93.5837 749.145 93.5837ZM749.145 99.9494C746.761 99.9494 744.76 100.131 743.144 100.495C741.527 100.818 740.294 101.324 739.445 102.011C738.597 102.698 738.172 103.607 738.172 104.739C738.172 105.79 738.597 106.679 739.445 107.406C740.294 108.134 741.527 108.679 743.144 109.043C744.76 109.366 746.761 109.528 749.145 109.528C751.53 109.528 753.531 109.366 755.147 109.043C756.804 108.679 758.037 108.134 758.845 107.406C759.694 106.679 760.119 105.79 760.119 104.739C760.119 103.607 759.694 102.698 758.845 102.011C758.037 101.324 756.804 100.818 755.147 100.495C753.531 100.131 751.53 99.9494 749.145 99.9494ZM820.8 66.545H830.439V73.0925H820.8V66.545ZM820.8 78.7306H830.439V85.3387H820.8V78.7306ZM794.67 62.7256C797.58 62.7256 800.187 63.3117 802.491 64.4837C804.795 65.6558 806.613 67.2725 807.947 69.3337C809.281 71.3546 809.948 73.6987 809.948 76.3662C809.948 78.9933 809.281 81.3375 807.947 83.3987C806.613 85.4196 804.795 87.016 802.491 88.1881C800.187 89.3602 797.58 89.9462 794.67 89.9462C791.801 89.9462 789.214 89.3602 786.91 88.1881C784.606 87.016 782.788 85.4196 781.454 83.3987C780.12 81.3375 779.453 78.9933 779.453 76.3662C779.453 73.6987 780.12 71.3546 781.454 69.3337C782.788 67.2725 784.606 65.6558 786.91 64.4837C789.214 63.3117 791.801 62.7256 794.67 62.7256ZM794.67 69.455C793.296 69.455 792.043 69.7379 790.911 70.3037C789.78 70.8292 788.891 71.6173 788.244 72.6681C787.638 73.6785 787.335 74.9112 787.335 76.3662C787.335 77.7808 787.638 79.0135 788.244 80.0644C788.891 81.0748 789.78 81.8427 790.911 82.3681C792.043 82.8935 793.296 83.1562 794.67 83.1562C796.125 83.1562 797.398 82.8935 798.49 82.3681C799.581 81.8427 800.45 81.0748 801.096 80.0644C801.743 79.0135 802.066 77.7808 802.066 76.3662C802.066 74.9112 801.743 73.6785 801.096 72.6681C800.45 71.6173 799.581 70.8292 798.49 70.3037C797.398 69.7379 796.125 69.455 794.67 69.455ZM815.161 59.6944H823.225V92.4319H815.161V59.6944ZM804.916 93.5837C808.796 93.5837 812.15 94.0283 814.98 94.9175C817.849 95.8067 820.052 97.0798 821.588 98.7369C823.123 100.394 823.891 102.395 823.891 104.739C823.891 107.042 823.123 109.023 821.588 110.68C820.052 112.337 817.849 113.61 814.98 114.499C812.15 115.389 808.796 115.833 804.916 115.833C801.036 115.833 797.661 115.389 794.791 114.499C791.962 113.61 789.76 112.337 788.183 110.68C786.647 109.023 785.88 107.042 785.88 104.739C785.88 102.395 786.647 100.394 788.183 98.7369C789.76 97.0798 791.962 95.8067 794.791 94.9175C797.661 94.0283 801.036 93.5837 804.916 93.5837ZM804.916 99.9494C802.531 99.9494 800.531 100.131 798.914 100.495C797.297 100.818 796.065 101.324 795.216 102.011C794.367 102.698 793.943 103.607 793.943 104.739C793.943 105.79 794.367 106.679 795.216 107.406C796.065 108.134 797.297 108.679 798.914 109.043C800.531 109.366 802.531 109.528 804.916 109.528C807.3 109.528 809.301 109.366 810.918 109.043C812.575 108.679 813.807 108.134 814.616 107.406C815.465 106.679 815.889 105.79 815.889 104.739C815.889 103.607 815.465 102.698 814.616 102.011C813.807 101.324 812.575 100.818 810.918 100.495C809.301 100.131 807.3 99.9494 804.916 99.9494ZM876.57 66.545H886.209V73.0925H876.57V66.545ZM876.57 78.7306H886.209V85.3387H876.57V78.7306ZM850.44 62.7256C853.35 62.7256 855.957 63.3117 858.261 64.4837C860.565 65.6558 862.384 67.2725 863.717 69.3337C865.051 71.3546 865.718 73.6987 865.718 76.3662C865.718 78.9933 865.051 81.3375 863.717 83.3987C862.384 85.4196 860.565 87.016 858.261 88.1881C855.957 89.3602 853.35 89.9462 850.44 89.9462C847.571 89.9462 844.984 89.3602 842.68 88.1881C840.377 87.016 838.558 85.4196 837.224 83.3987C835.89 81.3375 835.224 78.9933 835.224 76.3662C835.224 73.6987 835.89 71.3546 837.224 69.3337C838.558 67.2725 840.377 65.6558 842.68 64.4837C844.984 63.3117 847.571 62.7256 850.44 62.7256ZM850.44 69.455C849.066 69.455 847.813 69.7379 846.682 70.3037C845.55 70.8292 844.661 71.6173 844.014 72.6681C843.408 73.6785 843.105 74.9112 843.105 76.3662C843.105 77.7808 843.408 79.0135 844.014 80.0644C844.661 81.0748 845.55 81.8427 846.682 82.3681C847.813 82.8935 849.066 83.1562 850.44 83.1562C851.895 83.1562 853.169 82.8935 854.26 82.3681C855.351 81.8427 856.22 81.0748 856.867 80.0644C857.513 79.0135 857.837 77.7808 857.837 76.3662C857.837 74.9112 857.513 73.6785 856.867 72.6681C856.22 71.6173 855.351 70.8292 854.26 70.3037C853.169 69.7379 851.895 69.455 850.44 69.455ZM870.932 59.6944H878.995V92.4319H870.932V59.6944ZM860.686 93.5837C864.566 93.5837 867.921 94.0283 870.75 94.9175C873.619 95.8067 875.822 97.0798 877.358 98.7369C878.894 100.394 879.662 102.395 879.662 104.739C879.662 107.042 878.894 109.023 877.358 110.68C875.822 112.337 873.619 113.61 870.75 114.499C867.921 115.389 864.566 115.833 860.686 115.833C856.806 115.833 853.431 115.389 850.562 114.499C847.732 113.61 845.53 112.337 843.954 110.68C842.418 109.023 841.65 107.042 841.65 104.739C841.65 102.395 842.418 100.394 843.954 98.7369C845.53 97.0798 847.732 95.8067 850.562 94.9175C853.431 94.0283 856.806 93.5837 860.686 93.5837ZM860.686 99.9494C858.301 99.9494 856.301 100.131 854.684 100.495C853.067 100.818 851.835 101.324 850.986 102.011C850.137 102.698 849.713 103.607 849.713 104.739C849.713 105.79 850.137 106.679 850.986 107.406C851.835 108.134 853.067 108.679 854.684 109.043C856.301 109.366 858.301 109.528 860.686 109.528C863.071 109.528 865.071 109.366 866.688 109.043C868.345 108.679 869.578 108.134 870.386 107.406C871.235 106.679 871.659 105.79 871.659 104.739C871.659 103.607 871.235 102.698 870.386 102.011C869.578 101.324 868.345 100.818 866.688 100.495C865.071 100.131 863.071 99.9494 860.686 99.9494ZM932.34 66.545H941.979V73.0925H932.34V66.545ZM932.34 78.7306H941.979V85.3387H932.34V78.7306ZM906.211 62.7256C909.121 62.7256 911.728 63.3117 914.031 64.4837C916.335 65.6558 918.154 67.2725 919.488 69.3337C920.821 71.3546 921.488 73.6987 921.488 76.3662C921.488 78.9933 920.821 81.3375 919.488 83.3987C918.154 85.4196 916.335 87.016 914.031 88.1881C911.728 89.3602 909.121 89.9462 906.211 89.9462C903.341 89.9462 900.754 89.3602 898.451 88.1881C896.147 87.016 894.328 85.4196 892.994 83.3987C891.661 81.3375 890.994 78.9933 890.994 76.3662C890.994 73.6987 891.661 71.3546 892.994 69.3337C894.328 67.2725 896.147 65.6558 898.451 64.4837C900.754 63.3117 903.341 62.7256 906.211 62.7256ZM906.211 69.455C904.836 69.455 903.584 69.7379 902.452 70.3037C901.32 70.8292 900.431 71.6173 899.784 72.6681C899.178 73.6785 898.875 74.9112 898.875 76.3662C898.875 77.7808 899.178 79.0135 899.784 80.0644C900.431 81.0748 901.32 81.8427 902.452 82.3681C903.584 82.8935 904.836 83.1562 906.211 83.1562C907.666 83.1562 908.939 82.8935 910.03 82.3681C911.121 81.8427 911.99 81.0748 912.637 80.0644C913.284 79.0135 913.607 77.7808 913.607 76.3662C913.607 74.9112 913.284 73.6785 912.637 72.6681C911.99 71.6173 911.121 70.8292 910.03 70.3037C908.939 69.7379 907.666 69.455 906.211 69.455ZM926.702 59.6944H934.765V92.4319H926.702V59.6944ZM916.456 93.5837C920.336 93.5837 923.691 94.0283 926.52 94.9175C929.39 95.8067 931.592 97.0798 933.128 98.7369C934.664 100.394 935.432 102.395 935.432 104.739C935.432 107.042 934.664 109.023 933.128 110.68C931.592 112.337 929.39 113.61 926.52 114.499C923.691 115.389 920.336 115.833 916.456 115.833C912.576 115.833 909.201 115.389 906.332 114.499C903.503 113.61 901.3 112.337 899.724 110.68C898.188 109.023 897.42 107.042 897.42 104.739C897.42 102.395 898.188 100.394 899.724 98.7369C901.3 97.0798 903.503 95.8067 906.332 94.9175C909.201 94.0283 912.576 93.5837 916.456 93.5837ZM916.456 99.9494C914.072 99.9494 912.071 100.131 910.454 100.495C908.838 100.818 907.605 101.324 906.756 102.011C905.908 102.698 905.483 103.607 905.483 104.739C905.483 105.79 905.908 106.679 906.756 107.406C907.605 108.134 908.838 108.679 910.454 109.043C912.071 109.366 914.072 109.528 916.456 109.528C918.841 109.528 920.841 109.366 922.458 109.043C924.115 108.679 925.348 108.134 926.156 107.406C927.005 106.679 927.429 105.79 927.429 104.739C927.429 103.607 927.005 102.698 926.156 102.011C925.348 101.324 924.115 100.818 922.458 100.495C920.841 100.131 918.841 99.9494 916.456 99.9494ZM988.11 66.545H997.75V73.0925H988.11V66.545ZM988.11 78.7306H997.75V85.3387H988.11V78.7306ZM961.981 62.7256C964.891 62.7256 967.498 63.3117 969.802 64.4837C972.105 65.6558 973.924 67.2725 975.258 69.3337C976.592 71.3546 977.258 73.6987 977.258 76.3662C977.258 78.9933 976.592 81.3375 975.258 83.3987C973.924 85.4196 972.105 87.016 969.802 88.1881C967.498 89.3602 964.891 89.9462 961.981 89.9462C959.111 89.9462 956.525 89.3602 954.221 88.1881C951.917 87.016 950.098 85.4196 948.765 83.3987C947.431 81.3375 946.764 78.9933 946.764 76.3662C946.764 73.6987 947.431 71.3546 948.765 69.3337C950.098 67.2725 951.917 65.6558 954.221 64.4837C956.525 63.3117 959.111 62.7256 961.981 62.7256ZM961.981 69.455C960.607 69.455 959.354 69.7379 958.222 70.3037C957.091 70.8292 956.201 71.6173 955.555 72.6681C954.948 73.6785 954.645 74.9112 954.645 76.3662C954.645 77.7808 954.948 79.0135 955.555 80.0644C956.201 81.0748 957.091 81.8427 958.222 82.3681C959.354 82.8935 960.607 83.1562 961.981 83.1562C963.436 83.1562 964.709 82.8935 965.8 82.3681C966.892 81.8427 967.761 81.0748 968.407 80.0644C969.054 79.0135 969.377 77.7808 969.377 76.3662C969.377 74.9112 969.054 73.6785 968.407 72.6681C967.761 71.6173 966.892 70.8292 965.8 70.3037C964.709 69.7379 963.436 69.455 961.981 69.455ZM982.472 59.6944H990.535V92.4319H982.472V59.6944ZM972.227 93.5837C976.107 93.5837 979.461 94.0283 982.29 94.9175C985.16 95.8067 987.363 97.0798 988.898 98.7369C990.434 100.394 991.202 102.395 991.202 104.739C991.202 107.042 990.434 109.023 988.898 110.68C987.363 112.337 985.16 113.61 982.29 114.499C979.461 115.389 976.107 115.833 972.227 115.833C968.347 115.833 964.972 115.389 962.102 114.499C959.273 113.61 957.07 112.337 955.494 110.68C953.958 109.023 953.19 107.042 953.19 104.739C953.19 102.395 953.958 100.394 955.494 98.7369C957.07 97.0798 959.273 95.8067 962.102 94.9175C964.972 94.0283 968.347 93.5837 972.227 93.5837ZM972.227 99.9494C969.842 99.9494 967.841 100.131 966.225 100.495C964.608 100.818 963.375 101.324 962.527 102.011C961.678 102.698 961.253 103.607 961.253 104.739C961.253 105.79 961.678 106.679 962.527 107.406C963.375 108.134 964.608 108.679 966.225 109.043C967.841 109.366 969.842 109.528 972.227 109.528C974.611 109.528 976.612 109.366 978.228 109.043C979.886 108.679 981.118 108.134 981.927 107.406C982.775 106.679 983.2 105.79 983.2 104.739C983.2 103.607 982.775 102.698 981.927 102.011C981.118 101.324 979.886 100.818 978.228 100.495C976.612 100.131 974.611 99.9494 972.227 99.9494ZM1043.88 66.545H1053.52V73.0925H1043.88V66.545ZM1043.88 78.7306H1053.52V85.3387H1043.88V78.7306ZM1017.75 62.7256C1020.66 62.7256 1023.27 63.3117 1025.57 64.4837C1027.88 65.6558 1029.69 67.2725 1031.03 69.3337C1032.36 71.3546 1033.03 73.6987 1033.03 76.3662C1033.03 78.9933 1032.36 81.3375 1031.03 83.3987C1029.69 85.4196 1027.88 87.016 1025.57 88.1881C1023.27 89.3602 1020.66 89.9462 1017.75 89.9462C1014.88 89.9462 1012.29 89.3602 1009.99 88.1881C1007.69 87.016 1005.87 85.4196 1004.53 83.3987C1003.2 81.3375 1002.53 78.9933 1002.53 76.3662C1002.53 73.6987 1003.2 71.3546 1004.53 69.3337C1005.87 67.2725 1007.69 65.6558 1009.99 64.4837C1012.29 63.3117 1014.88 62.7256 1017.75 62.7256ZM1017.75 69.455C1016.38 69.455 1015.12 69.7379 1013.99 70.3037C1012.86 70.8292 1011.97 71.6173 1011.32 72.6681C1010.72 73.6785 1010.42 74.9112 1010.42 76.3662C1010.42 77.7808 1010.72 79.0135 1011.32 80.0644C1011.97 81.0748 1012.86 81.8427 1013.99 82.3681C1015.12 82.8935 1016.38 83.1562 1017.75 83.1562C1019.21 83.1562 1020.48 82.8935 1021.57 82.3681C1022.66 81.8427 1023.53 81.0748 1024.18 80.0644C1024.82 79.0135 1025.15 77.7808 1025.15 76.3662C1025.15 74.9112 1024.82 73.6785 1024.18 72.6681C1023.53 71.6173 1022.66 70.8292 1021.57 70.3037C1020.48 69.7379 1019.21 69.455 1017.75 69.455ZM1038.24 59.6944H1046.31V92.4319H1038.24V59.6944ZM1028 93.5837C1031.88 93.5837 1035.23 94.0283 1038.06 94.9175C1040.93 95.8067 1043.13 97.0798 1044.67 98.7369C1046.2 100.394 1046.97 102.395 1046.97 104.739C1046.97 107.042 1046.2 109.023 1044.67 110.68C1043.13 112.337 1040.93 113.61 1038.06 114.499C1035.23 115.389 1031.88 115.833 1028 115.833C1024.12 115.833 1020.74 115.389 1017.87 114.499C1015.04 113.61 1012.84 112.337 1011.26 110.68C1009.73 109.023 1008.96 107.042 1008.96 104.739C1008.96 102.395 1009.73 100.394 1011.26 98.7369C1012.84 97.0798 1015.04 95.8067 1017.87 94.9175C1020.74 94.0283 1024.12 93.5837 1028 93.5837ZM1028 99.9494C1025.61 99.9494 1023.61 100.131 1021.99 100.495C1020.38 100.818 1019.15 101.324 1018.3 102.011C1017.45 102.698 1017.02 103.607 1017.02 104.739C1017.02 105.79 1017.45 106.679 1018.3 107.406C1019.15 108.134 1020.38 108.679 1021.99 109.043C1023.61 109.366 1025.61 109.528 1028 109.528C1030.38 109.528 1032.38 109.366 1034 109.043C1035.66 108.679 1036.89 108.134 1037.7 107.406C1038.55 106.679 1038.97 105.79 1038.97 104.739C1038.97 103.607 1038.55 102.698 1037.7 102.011C1036.89 101.324 1035.66 100.818 1034 100.495C1032.38 100.131 1030.38 99.9494 1028 99.9494ZM1099.65 66.545H1109.29V73.0925H1099.65V66.545ZM1099.65 78.7306H1109.29V85.3387H1099.65V78.7306ZM1073.52 62.7256C1076.43 62.7256 1079.04 63.3117 1081.34 64.4837C1083.65 65.6558 1085.46 67.2725 1086.8 69.3337C1088.13 71.3546 1088.8 73.6987 1088.8 76.3662C1088.8 78.9933 1088.13 81.3375 1086.8 83.3987C1085.46 85.4196 1083.65 87.016 1081.34 88.1881C1079.04 89.3602 1076.43 89.9462 1073.52 89.9462C1070.65 89.9462 1068.07 89.3602 1065.76 88.1881C1063.46 87.016 1061.64 85.4196 1060.31 83.3987C1058.97 81.3375 1058.3 78.9933 1058.3 76.3662C1058.3 73.6987 1058.97 71.3546 1060.31 69.3337C1061.64 67.2725 1063.46 65.6558 1065.76 64.4837C1068.07 63.3117 1070.65 62.7256 1073.52 62.7256ZM1073.52 69.455C1072.15 69.455 1070.89 69.7379 1069.76 70.3037C1068.63 70.8292 1067.74 71.6173 1067.1 72.6681C1066.49 73.6785 1066.19 74.9112 1066.19 76.3662C1066.19 77.7808 1066.49 79.0135 1067.1 80.0644C1067.74 81.0748 1068.63 81.8427 1069.76 82.3681C1070.89 82.8935 1072.15 83.1562 1073.52 83.1562C1074.98 83.1562 1076.25 82.8935 1077.34 82.3681C1078.43 81.8427 1079.3 81.0748 1079.95 80.0644C1080.59 79.0135 1080.92 77.7808 1080.92 76.3662C1080.92 74.9112 1080.59 73.6785 1079.95 72.6681C1079.3 71.6173 1078.43 70.8292 1077.34 70.3037C1076.25 69.7379 1074.98 69.455 1073.52 69.455ZM1094.01 59.6944H1102.08V92.4319H1094.01V59.6944ZM1083.77 93.5837C1087.65 93.5837 1091 94.0283 1093.83 94.9175C1096.7 95.8067 1098.9 97.0798 1100.44 98.7369C1101.97 100.394 1102.74 102.395 1102.74 104.739C1102.74 107.042 1101.97 109.023 1100.44 110.68C1098.9 112.337 1096.7 113.61 1093.83 114.499C1091 115.389 1087.65 115.833 1083.77 115.833C1079.89 115.833 1076.51 115.389 1073.64 114.499C1070.81 113.61 1068.61 112.337 1067.03 110.68C1065.5 109.023 1064.73 107.042 1064.73 104.739C1064.73 102.395 1065.5 100.394 1067.03 98.7369C1068.61 97.0798 1070.81 95.8067 1073.64 94.9175C1076.51 94.0283 1079.89 93.5837 1083.77 93.5837ZM1083.77 99.9494C1081.38 99.9494 1079.38 100.131 1077.77 100.495C1076.15 100.818 1074.92 101.324 1074.07 102.011C1073.22 102.698 1072.79 103.607 1072.79 104.739C1072.79 105.79 1073.22 106.679 1074.07 107.406C1074.92 108.134 1076.15 108.679 1077.77 109.043C1079.38 109.366 1081.38 109.528 1083.77 109.528C1086.15 109.528 1088.15 109.366 1089.77 109.043C1091.43 108.679 1092.66 108.134 1093.47 107.406C1094.32 106.679 1094.74 105.79 1094.74 104.739C1094.74 103.607 1094.32 102.698 1093.47 102.011C1092.66 101.324 1091.43 100.818 1089.77 100.495C1088.15 100.131 1086.15 99.9494 1083.77 99.9494Z" fill="#02C8D1"/>
<path d="M227.314 108.982H236.953V115.53H227.314V108.982ZM227.314 121.168H236.953V127.776H227.314V121.168ZM201.185 105.163C204.095 105.163 206.701 105.749 209.005 106.921C211.309 108.093 213.128 109.71 214.461 111.771C215.795 113.792 216.462 116.136 216.462 118.804C216.462 121.431 215.795 123.775 214.461 125.836C213.128 127.857 211.309 129.454 209.005 130.626C206.701 131.798 204.095 132.384 201.185 132.384C198.315 132.384 195.728 131.798 193.425 130.626C191.121 129.454 189.302 127.857 187.968 125.836C186.635 123.775 185.968 121.431 185.968 118.804C185.968 116.136 186.635 113.792 187.968 111.771C189.302 109.71 191.121 108.093 193.425 106.921C195.728 105.749 198.315 105.163 201.185 105.163ZM201.185 111.892C199.81 111.892 198.557 112.175 197.426 112.741C196.294 113.267 195.405 114.055 194.758 115.106C194.152 116.116 193.849 117.349 193.849 118.804C193.849 120.218 194.152 121.451 194.758 122.502C195.405 123.512 196.294 124.28 197.426 124.806C198.557 125.331 199.81 125.594 201.185 125.594C202.64 125.594 203.913 125.331 205.004 124.806C206.095 124.28 206.964 123.512 207.611 122.502C208.257 121.451 208.581 120.218 208.581 118.804C208.581 117.349 208.257 116.116 207.611 115.106C206.964 114.055 206.095 113.267 205.004 112.741C203.913 112.175 202.64 111.892 201.185 111.892ZM221.676 102.132H229.739V134.869H221.676V102.132ZM211.43 136.021C215.31 136.021 218.665 136.466 221.494 137.355C224.363 138.244 226.566 139.517 228.102 141.174C229.638 142.831 230.406 144.832 230.406 147.176C230.406 149.48 229.638 151.46 228.102 153.118C226.566 154.775 224.363 156.048 221.494 156.937C218.665 157.826 215.31 158.271 211.43 158.271C207.55 158.271 204.175 157.826 201.306 156.937C198.477 156.048 196.274 154.775 194.698 153.118C193.162 151.46 192.394 149.48 192.394 147.176C192.394 144.832 193.162 142.831 194.698 141.174C196.274 139.517 198.477 138.244 201.306 137.355C204.175 136.466 207.55 136.021 211.43 136.021ZM211.43 142.387C209.046 142.387 207.045 142.569 205.428 142.932C203.812 143.256 202.579 143.761 201.73 144.448C200.881 145.135 200.457 146.045 200.457 147.176C200.457 148.227 200.881 149.116 201.73 149.844C202.579 150.571 203.812 151.117 205.428 151.481C207.045 151.804 209.046 151.966 211.43 151.966C213.815 151.966 215.815 151.804 217.432 151.481C219.089 151.117 220.322 150.571 221.13 149.844C221.979 149.116 222.403 148.227 222.403 147.176C222.403 146.045 221.979 145.135 221.13 144.448C220.322 143.761 219.089 143.256 217.432 142.932C215.815 142.569 213.815 142.387 211.43 142.387ZM283.084 108.982H292.724V115.53H283.084V108.982ZM283.084 121.168H292.724V127.776H283.084V121.168ZM256.955 105.163C259.865 105.163 262.472 105.749 264.775 106.921C267.079 108.093 268.898 109.71 270.232 111.771C271.565 113.792 272.232 116.136 272.232 118.804C272.232 121.431 271.565 123.775 270.232 125.836C268.898 127.857 267.079 129.454 264.775 130.626C262.472 131.798 259.865 132.384 256.955 132.384C254.085 132.384 251.499 131.798 249.195 130.626C246.891 129.454 245.072 127.857 243.739 125.836C242.405 123.775 241.738 121.431 241.738 118.804C241.738 116.136 242.405 113.792 243.739 111.771C245.072 109.71 246.891 108.093 249.195 106.921C251.499 105.749 254.085 105.163 256.955 105.163ZM256.955 111.892C255.581 111.892 254.328 112.175 253.196 112.741C252.064 113.267 251.175 114.055 250.529 115.106C249.922 116.116 249.619 117.349 249.619 118.804C249.619 120.218 249.922 121.451 250.529 122.502C251.175 123.512 252.064 124.28 253.196 124.806C254.328 125.331 255.581 125.594 256.955 125.594C258.41 125.594 259.683 125.331 260.774 124.806C261.865 124.28 262.734 123.512 263.381 122.502C264.028 121.451 264.351 120.218 264.351 118.804C264.351 117.349 264.028 116.116 263.381 115.106C262.734 114.055 261.865 113.267 260.774 112.741C259.683 112.175 258.41 111.892 256.955 111.892ZM277.446 102.132H285.509V134.869H277.446V102.132ZM267.2 136.021C271.08 136.021 274.435 136.466 277.264 137.355C280.134 138.244 282.336 139.517 283.872 141.174C285.408 142.831 286.176 144.832 286.176 147.176C286.176 149.48 285.408 151.46 283.872 153.118C282.336 154.775 280.134 156.048 277.264 156.937C274.435 157.826 271.08 158.271 267.2 158.271C263.32 158.271 259.946 157.826 257.076 156.937C254.247 156.048 252.044 154.775 250.468 153.118C248.932 151.46 248.164 149.48 248.164 147.176C248.164 144.832 248.932 142.831 250.468 141.174C252.044 139.517 254.247 138.244 257.076 137.355C259.946 136.466 263.32 136.021 267.2 136.021ZM267.2 142.387C264.816 142.387 262.815 142.569 261.199 142.932C259.582 143.256 258.349 143.761 257.5 144.448C256.652 145.135 256.227 146.045 256.227 147.176C256.227 148.227 256.652 149.116 257.5 149.844C258.349 150.571 259.582 151.117 261.199 151.481C262.815 151.804 264.816 151.966 267.2 151.966C269.585 151.966 271.586 151.804 273.202 151.481C274.859 151.117 276.092 150.571 276.9 149.844C277.749 149.116 278.174 148.227 278.174 147.176C278.174 146.045 277.749 145.135 276.9 144.448C276.092 143.761 274.859 143.256 273.202 142.932C271.586 142.569 269.585 142.387 267.2 142.387ZM338.854 108.982H348.494V115.53H338.854V108.982ZM338.854 121.168H348.494V127.776H338.854V121.168ZM312.725 105.163C315.635 105.163 318.242 105.749 320.546 106.921C322.849 108.093 324.668 109.71 326.002 111.771C327.336 113.792 328.003 116.136 328.003 118.804C328.003 121.431 327.336 123.775 326.002 125.836C324.668 127.857 322.849 129.454 320.546 130.626C318.242 131.798 315.635 132.384 312.725 132.384C309.855 132.384 307.269 131.798 304.965 130.626C302.661 129.454 300.843 127.857 299.509 125.836C298.175 123.775 297.508 121.431 297.508 118.804C297.508 116.136 298.175 113.792 299.509 111.771C300.843 109.71 302.661 108.093 304.965 106.921C307.269 105.749 309.855 105.163 312.725 105.163ZM312.725 111.892C311.351 111.892 310.098 112.175 308.966 112.741C307.835 113.267 306.945 114.055 306.299 115.106C305.693 116.116 305.389 117.349 305.389 118.804C305.389 120.218 305.693 121.451 306.299 122.502C306.945 123.512 307.835 124.28 308.966 124.806C310.098 125.331 311.351 125.594 312.725 125.594C314.18 125.594 315.453 125.331 316.544 124.806C317.636 124.28 318.505 123.512 319.151 122.502C319.798 121.451 320.121 120.218 320.121 118.804C320.121 117.349 319.798 116.116 319.151 115.106C318.505 114.055 317.636 113.267 316.544 112.741C315.453 112.175 314.18 111.892 312.725 111.892ZM333.216 102.132H341.279V134.869H333.216V102.132ZM322.971 136.021C326.851 136.021 330.205 136.466 333.034 137.355C335.904 138.244 338.107 139.517 339.643 141.174C341.178 142.831 341.946 144.832 341.946 147.176C341.946 149.48 341.178 151.46 339.643 153.118C338.107 154.775 335.904 156.048 333.034 156.937C330.205 157.826 326.851 158.271 322.971 158.271C319.091 158.271 315.716 157.826 312.846 156.937C310.017 156.048 307.814 154.775 306.238 153.118C304.702 151.46 303.934 149.48 303.934 147.176C303.934 144.832 304.702 142.831 306.238 141.174C307.814 139.517 310.017 138.244 312.846 137.355C315.716 136.466 319.091 136.021 322.971 136.021ZM322.971 142.387C320.586 142.387 318.585 142.569 316.969 142.932C315.352 143.256 314.119 143.761 313.271 144.448C312.422 145.135 311.998 146.045 311.998 147.176C311.998 148.227 312.422 149.116 313.271 149.844C314.119 150.571 315.352 151.117 316.969 151.481C318.585 151.804 320.586 151.966 322.971 151.966C325.355 151.966 327.356 151.804 328.973 151.481C330.63 151.117 331.862 150.571 332.671 149.844C333.519 149.116 333.944 148.227 333.944 147.176C333.944 146.045 333.519 145.135 332.671 144.448C331.862 143.761 330.63 143.256 328.973 142.932C327.356 142.569 325.355 142.387 322.971 142.387ZM394.625 108.982H404.264V115.53H394.625V108.982ZM394.625 121.168H404.264V127.776H394.625V121.168ZM368.495 105.163C371.405 105.163 374.012 105.749 376.316 106.921C378.62 108.093 380.438 109.71 381.772 111.771C383.106 113.792 383.773 116.136 383.773 118.804C383.773 121.431 383.106 123.775 381.772 125.836C380.438 127.857 378.62 129.454 376.316 130.626C374.012 131.798 371.405 132.384 368.495 132.384C365.626 132.384 363.039 131.798 360.735 130.626C358.432 129.454 356.613 127.857 355.279 125.836C353.945 123.775 353.278 121.431 353.278 118.804C353.278 116.136 353.945 113.792 355.279 111.771C356.613 109.71 358.432 108.093 360.735 106.921C363.039 105.749 365.626 105.163 368.495 105.163ZM368.495 111.892C367.121 111.892 365.868 112.175 364.737 112.741C363.605 113.267 362.716 114.055 362.069 115.106C361.463 116.116 361.16 117.349 361.16 118.804C361.16 120.218 361.463 121.451 362.069 122.502C362.716 123.512 363.605 124.28 364.737 124.806C365.868 125.331 367.121 125.594 368.495 125.594C369.95 125.594 371.223 125.331 372.315 124.806C373.406 124.28 374.275 123.512 374.922 122.502C375.568 121.451 375.892 120.218 375.892 118.804C375.892 117.349 375.568 116.116 374.922 115.106C374.275 114.055 373.406 113.267 372.315 112.741C371.223 112.175 369.95 111.892 368.495 111.892ZM388.987 102.132H397.05V134.869H388.987V102.132ZM378.741 136.021C382.621 136.021 385.976 136.466 388.805 137.355C391.674 138.244 393.877 139.517 395.413 141.174C396.949 142.831 397.717 144.832 397.717 147.176C397.717 149.48 396.949 151.46 395.413 153.118C393.877 154.775 391.674 156.048 388.805 156.937C385.976 157.826 382.621 158.271 378.741 158.271C374.861 158.271 371.486 157.826 368.617 156.937C365.787 156.048 363.585 154.775 362.008 153.118C360.473 151.46 359.705 149.48 359.705 147.176C359.705 144.832 360.473 142.831 362.008 141.174C363.585 139.517 365.787 138.244 368.617 137.355C371.486 136.466 374.861 136.021 378.741 136.021ZM378.741 142.387C376.356 142.387 374.356 142.569 372.739 142.932C371.122 143.256 369.89 143.761 369.041 144.448C368.192 145.135 367.768 146.045 367.768 147.176C367.768 148.227 368.192 149.116 369.041 149.844C369.89 150.571 371.122 151.117 372.739 151.481C374.356 151.804 376.356 151.966 378.741 151.966C381.126 151.966 383.126 151.804 384.743 151.481C386.4 151.117 387.633 150.571 388.441 149.844C389.29 149.116 389.714 148.227 389.714 147.176C389.714 146.045 389.29 145.135 388.441 144.448C387.633 143.761 386.4 143.256 384.743 142.932C383.126 142.569 381.126 142.387 378.741 142.387ZM450.395 108.982H460.034V115.53H450.395V108.982ZM450.395 121.168H460.034V127.776H450.395V121.168ZM424.266 105.163C427.176 105.163 429.782 105.749 432.086 106.921C434.39 108.093 436.209 109.71 437.542 111.771C438.876 113.792 439.543 116.136 439.543 118.804C439.543 121.431 438.876 123.775 437.542 125.836C436.209 127.857 434.39 129.454 432.086 130.626C429.782 131.798 427.176 132.384 424.266 132.384C421.396 132.384 418.809 131.798 416.506 130.626C414.202 129.454 412.383 127.857 411.049 125.836C409.716 123.775 409.049 121.431 409.049 118.804C409.049 116.136 409.716 113.792 411.049 111.771C412.383 109.71 414.202 108.093 416.506 106.921C418.809 105.749 421.396 105.163 424.266 105.163ZM424.266 111.892C422.891 111.892 421.639 112.175 420.507 112.741C419.375 113.267 418.486 114.055 417.839 115.106C417.233 116.116 416.93 117.349 416.93 118.804C416.93 120.218 417.233 121.451 417.839 122.502C418.486 123.512 419.375 124.28 420.507 124.806C421.639 125.331 422.891 125.594 424.266 125.594C425.721 125.594 426.994 125.331 428.085 124.806C429.176 124.28 430.045 123.512 430.692 122.502C431.339 121.451 431.662 120.218 431.662 118.804C431.662 117.349 431.339 116.116 430.692 115.106C430.045 114.055 429.176 113.267 428.085 112.741C426.994 112.175 425.721 111.892 424.266 111.892ZM444.757 102.132H452.82V134.869H444.757V102.132ZM434.511 136.021C438.391 136.021 441.746 136.466 444.575 137.355C447.445 138.244 449.647 139.517 451.183 141.174C452.719 142.831 453.487 144.832 453.487 147.176C453.487 149.48 452.719 151.46 451.183 153.118C449.647 154.775 447.445 156.048 444.575 156.937C441.746 157.826 438.391 158.271 434.511 158.271C430.631 158.271 427.256 157.826 424.387 156.937C421.558 156.048 419.355 154.775 417.779 153.118C416.243 151.46 415.475 149.48 415.475 147.176C415.475 144.832 416.243 142.831 417.779 141.174C419.355 139.517 421.558 138.244 424.387 137.355C427.256 136.466 430.631 136.021 434.511 136.021ZM434.511 142.387C432.127 142.387 430.126 142.569 428.509 142.932C426.893 143.256 425.66 143.761 424.811 144.448C423.962 145.135 423.538 146.045 423.538 147.176C423.538 148.227 423.962 149.116 424.811 149.844C425.66 150.571 426.893 151.117 428.509 151.481C430.126 151.804 432.127 151.966 434.511 151.966C436.896 151.966 438.896 151.804 440.513 151.481C442.17 151.117 443.403 150.571 444.211 149.844C445.06 149.116 445.484 148.227 445.484 147.176C445.484 146.045 445.06 145.135 444.211 144.448C443.403 143.761 442.17 143.256 440.513 142.932C438.896 142.569 436.896 142.387 434.511 142.387ZM506.165 108.982H515.805V115.53H506.165V108.982ZM506.165 121.168H515.805V127.776H506.165V121.168ZM480.036 105.163C482.946 105.163 485.553 105.749 487.856 106.921C490.16 108.093 491.979 109.71 493.313 111.771C494.646 113.792 495.313 116.136 495.313 118.804C495.313 121.431 494.646 123.775 493.313 125.836C491.979 127.857 490.16 129.454 487.856 130.626C485.553 131.798 482.946 132.384 480.036 132.384C477.166 132.384 474.58 131.798 472.276 130.626C469.972 129.454 468.153 127.857 466.82 125.836C465.486 123.775 464.819 121.431 464.819 118.804C464.819 116.136 465.486 113.792 466.82 111.771C468.153 109.71 469.972 108.093 472.276 106.921C474.58 105.749 477.166 105.163 480.036 105.163ZM480.036 111.892C478.662 111.892 477.409 112.175 476.277 112.741C475.145 113.267 474.256 114.055 473.61 115.106C473.003 116.116 472.7 117.349 472.7 118.804C472.7 120.218 473.003 121.451 473.61 122.502C474.256 123.512 475.145 124.28 476.277 124.806C477.409 125.331 478.662 125.594 480.036 125.594C481.491 125.594 482.764 125.331 483.855 124.806C484.946 124.28 485.815 123.512 486.462 122.502C487.109 121.451 487.432 120.218 487.432 118.804C487.432 117.349 487.109 116.116 486.462 115.106C485.815 114.055 484.946 113.267 483.855 112.741C482.764 112.175 481.491 111.892 480.036 111.892ZM500.527 102.132H508.59V134.869H500.527V102.132ZM490.281 136.021C494.161 136.021 497.516 136.466 500.345 137.355C503.215 138.244 505.418 139.517 506.953 141.174C508.489 142.831 509.257 144.832 509.257 147.176C509.257 149.48 508.489 151.46 506.953 153.118C505.418 154.775 503.215 156.048 500.345 156.937C497.516 157.826 494.161 158.271 490.281 158.271C486.401 158.271 483.027 157.826 480.157 156.937C477.328 156.048 475.125 154.775 473.549 153.118C472.013 151.46 471.245 149.48 471.245 147.176C471.245 144.832 472.013 142.831 473.549 141.174C475.125 139.517 477.328 138.244 480.157 137.355C483.027 136.466 486.401 136.021 490.281 136.021ZM490.281 142.387C487.897 142.387 485.896 142.569 484.28 142.932C482.663 143.256 481.43 143.761 480.581 144.448C479.733 145.135 479.308 146.045 479.308 147.176C479.308 148.227 479.733 149.116 480.581 149.844C481.43 150.571 482.663 151.117 484.28 151.481C485.896 151.804 487.897 151.966 490.281 151.966C492.666 151.966 494.667 151.804 496.283 151.481C497.94 151.117 499.173 150.571 499.981 149.844C500.83 149.116 501.255 148.227 501.255 147.176C501.255 146.045 500.83 145.135 499.981 144.448C499.173 143.761 497.94 143.256 496.283 142.932C494.667 142.569 492.666 142.387 490.281 142.387ZM561.935 108.982H571.575V115.53H561.935V108.982ZM561.935 121.168H571.575V127.776H561.935V121.168ZM535.806 105.163C538.716 105.163 541.323 105.749 543.627 106.921C545.93 108.093 547.749 109.71 549.083 111.771C550.417 113.792 551.084 116.136 551.084 118.804C551.084 121.431 550.417 123.775 549.083 125.836C547.749 127.857 545.93 129.454 543.627 130.626C541.323 131.798 538.716 132.384 535.806 132.384C532.937 132.384 530.35 131.798 528.046 130.626C525.742 129.454 523.924 127.857 522.59 125.836C521.256 123.775 520.589 121.431 520.589 118.804C520.589 116.136 521.256 113.792 522.59 111.771C523.924 109.71 525.742 108.093 528.046 106.921C530.35 105.749 532.937 105.163 535.806 105.163ZM535.806 111.892C534.432 111.892 533.179 112.175 532.047 112.741C530.916 113.267 530.027 114.055 529.38 115.106C528.774 116.116 528.47 117.349 528.47 118.804C528.47 120.218 528.774 121.451 529.38 122.502C530.027 123.512 530.916 124.28 532.047 124.806C533.179 125.331 534.432 125.594 535.806 125.594C537.261 125.594 538.534 125.331 539.625 124.806C540.717 124.28 541.586 123.512 542.232 122.502C542.879 121.451 543.202 120.218 543.202 118.804C543.202 117.349 542.879 116.116 542.232 115.106C541.586 114.055 540.717 113.267 539.625 112.741C538.534 112.175 537.261 111.892 535.806 111.892ZM556.297 102.132H564.36V134.869H556.297V102.132ZM546.052 136.021C549.932 136.021 553.286 136.466 556.115 137.355C558.985 138.244 561.188 139.517 562.724 141.174C564.259 142.831 565.027 144.832 565.027 147.176C565.027 149.48 564.259 151.46 562.724 153.118C561.188 154.775 558.985 156.048 556.115 156.937C553.286 157.826 549.932 158.271 546.052 158.271C542.172 158.271 538.797 157.826 535.927 156.937C533.098 156.048 530.895 154.775 529.319 153.118C527.783 151.46 527.015 149.48 527.015 147.176C527.015 144.832 527.783 142.831 529.319 141.174C530.895 139.517 533.098 138.244 535.927 137.355C538.797 136.466 542.172 136.021 546.052 136.021ZM546.052 142.387C543.667 142.387 541.667 142.569 540.05 142.932C538.433 143.256 537.2 143.761 536.352 144.448C535.503 145.135 535.079 146.045 535.079 147.176C535.079 148.227 535.503 149.116 536.352 149.844C537.2 150.571 538.433 151.117 540.05 151.481C541.667 151.804 543.667 151.966 546.052 151.966C548.436 151.966 550.437 151.804 552.054 151.481C553.711 151.117 554.943 150.571 555.752 149.844C556.6 149.116 557.025 148.227 557.025 147.176C557.025 146.045 556.6 145.135 555.752 144.448C554.943 143.761 553.711 143.256 552.054 142.932C550.437 142.569 548.436 142.387 546.052 142.387ZM617.706 108.982H627.345V115.53H617.706V108.982ZM617.706 121.168H627.345V127.776H617.706V121.168ZM591.576 105.163C594.486 105.163 597.093 105.749 599.397 106.921C601.701 108.093 603.52 109.71 604.853 111.771C606.187 113.792 606.854 116.136 606.854 118.804C606.854 121.431 606.187 123.775 604.853 125.836C603.52 127.857 601.701 129.454 599.397 130.626C597.093 131.798 594.486 132.384 591.576 132.384C588.707 132.384 586.12 131.798 583.816 130.626C581.513 129.454 579.694 127.857 578.36 125.836C577.026 123.775 576.36 121.431 576.36 118.804C576.36 116.136 577.026 113.792 578.36 111.771C579.694 109.71 581.513 108.093 583.816 106.921C586.12 105.749 588.707 105.163 591.576 105.163ZM591.576 111.892C590.202 111.892 588.949 112.175 587.818 112.741C586.686 113.267 585.797 114.055 585.15 115.106C584.544 116.116 584.241 117.349 584.241 118.804C584.241 120.218 584.544 121.451 585.15 122.502C585.797 123.512 586.686 124.28 587.818 124.806C588.949 125.331 590.202 125.594 591.576 125.594C593.031 125.594 594.305 125.331 595.396 124.806C596.487 124.28 597.356 123.512 598.003 122.502C598.649 121.451 598.973 120.218 598.973 118.804C598.973 117.349 598.649 116.116 598.003 115.106C597.356 114.055 596.487 113.267 595.396 112.741C594.305 112.175 593.031 111.892 591.576 111.892ZM612.068 102.132H620.131V134.869H612.068V102.132ZM601.822 136.021C605.702 136.021 609.057 136.466 611.886 137.355C614.755 138.244 616.958 139.517 618.494 141.174C620.03 142.831 620.798 144.832 620.798 147.176C620.798 149.48 620.03 151.46 618.494 153.118C616.958 154.775 614.755 156.048 611.886 156.937C609.057 157.826 605.702 158.271 601.822 158.271C597.942 158.271 594.567 157.826 591.698 156.937C588.868 156.048 586.666 154.775 585.09 153.118C583.554 151.46 582.786 149.48 582.786 147.176C582.786 144.832 583.554 142.831 585.09 141.174C586.666 139.517 588.868 138.244 591.698 137.355C594.567 136.466 597.942 136.021 601.822 136.021ZM601.822 142.387C599.437 142.387 597.437 142.569 595.82 142.932C594.203 143.256 592.971 143.761 592.122 144.448C591.273 145.135 590.849 146.045 590.849 147.176C590.849 148.227 591.273 149.116 592.122 149.844C592.971 150.571 594.203 151.117 595.82 151.481C597.437 151.804 599.437 151.966 601.822 151.966C604.207 151.966 606.207 151.804 607.824 151.481C609.481 151.117 610.714 150.571 611.522 149.844C612.371 149.116 612.795 148.227 612.795 147.176C612.795 146.045 612.371 145.135 611.522 144.448C610.714 143.761 609.481 143.256 607.824 142.932C606.207 142.569 604.207 142.387 601.822 142.387ZM673.476 108.982H683.115V115.53H673.476V108.982ZM673.476 121.168H683.115V127.776H673.476V121.168ZM647.347 105.163C650.257 105.163 652.864 105.749 655.167 106.921C657.471 108.093 659.29 109.71 660.624 111.771C661.957 113.792 662.624 116.136 662.624 118.804C662.624 121.431 661.957 123.775 660.624 125.836C659.29 127.857 657.471 129.454 655.167 130.626C652.864 131.798 650.257 132.384 647.347 132.384C644.477 132.384 641.89 131.798 639.587 130.626C637.283 129.454 635.464 127.857 634.13 125.836C632.797 123.775 632.13 121.431 632.13 118.804C632.13 116.136 632.797 113.792 634.13 111.771C635.464 109.71 637.283 108.093 639.587 106.921C641.89 105.749 644.477 105.163 647.347 105.163ZM647.347 111.892C645.972 111.892 644.72 112.175 643.588 112.741C642.456 113.267 641.567 114.055 640.92 115.106C640.314 116.116 640.011 117.349 640.011 118.804C640.011 120.218 640.314 121.451 640.92 122.502C641.567 123.512 642.456 124.28 643.588 124.806C644.72 125.331 645.972 125.594 647.347 125.594C648.802 125.594 650.075 125.331 651.166 124.806C652.257 124.28 653.126 123.512 653.773 122.502C654.42 121.451 654.743 120.218 654.743 118.804C654.743 117.349 654.42 116.116 653.773 115.106C653.126 114.055 652.257 113.267 651.166 112.741C650.075 112.175 648.802 111.892 647.347 111.892ZM667.838 102.132H675.901V134.869H667.838V102.132ZM657.592 136.021C661.472 136.021 664.827 136.466 667.656 137.355C670.526 138.244 672.728 139.517 674.264 141.174C675.8 142.831 676.568 144.832 676.568 147.176C676.568 149.48 675.8 151.46 674.264 153.118C672.728 154.775 670.526 156.048 667.656 156.937C664.827 157.826 661.472 158.271 657.592 158.271C653.712 158.271 650.337 157.826 647.468 156.937C644.639 156.048 642.436 154.775 640.86 153.118C639.324 151.46 638.556 149.48 638.556 147.176C638.556 144.832 639.324 142.831 640.86 141.174C642.436 139.517 644.639 138.244 647.468 137.355C650.337 136.466 653.712 136.021 657.592 136.021ZM657.592 142.387C655.208 142.387 653.207 142.569 651.59 142.932C649.974 143.256 648.741 143.761 647.892 144.448C647.044 145.135 646.619 146.045 646.619 147.176C646.619 148.227 647.044 149.116 647.892 149.844C648.741 150.571 649.974 151.117 651.59 151.481C653.207 151.804 655.208 151.966 657.592 151.966C659.977 151.966 661.977 151.804 663.594 151.481C665.251 151.117 666.484 150.571 667.292 149.844C668.141 149.116 668.565 148.227 668.565 147.176C668.565 146.045 668.141 145.135 667.292 144.448C666.484 143.761 665.251 143.256 663.594 142.932C661.977 142.569 659.977 142.387 657.592 142.387ZM729.246 108.982H738.886V115.53H729.246V108.982ZM729.246 121.168H738.886V127.776H729.246V121.168ZM703.117 105.163C706.027 105.163 708.634 105.749 710.938 106.921C713.241 108.093 715.06 109.71 716.394 111.771C717.728 113.792 718.394 116.136 718.394 118.804C718.394 121.431 717.728 123.775 716.394 125.836C715.06 127.857 713.241 129.454 710.938 130.626C708.634 131.798 706.027 132.384 703.117 132.384C700.247 132.384 697.661 131.798 695.357 130.626C693.053 129.454 691.234 127.857 689.901 125.836C688.567 123.775 687.9 121.431 687.9 118.804C687.9 116.136 688.567 113.792 689.901 111.771C691.234 109.71 693.053 108.093 695.357 106.921C697.661 105.749 700.247 105.163 703.117 105.163ZM703.117 111.892C701.743 111.892 700.49 112.175 699.358 112.741C698.226 113.267 697.337 114.055 696.691 115.106C696.084 116.116 695.781 117.349 695.781 118.804C695.781 120.218 696.084 121.451 696.691 122.502C697.337 123.512 698.226 124.28 699.358 124.806C700.49 125.331 701.743 125.594 703.117 125.594C704.572 125.594 705.845 125.331 706.936 124.806C708.028 124.28 708.896 123.512 709.543 122.502C710.19 121.451 710.513 120.218 710.513 118.804C710.513 117.349 710.19 116.116 709.543 115.106C708.896 114.055 708.028 113.267 706.936 112.741C705.845 112.175 704.572 111.892 703.117 111.892ZM723.608 102.132H731.671V134.869H723.608V102.132ZM713.363 136.021C717.243 136.021 720.597 136.466 723.426 137.355C726.296 138.244 728.499 139.517 730.034 141.174C731.57 142.831 732.338 144.832 732.338 147.176C732.338 149.48 731.57 151.46 730.034 153.118C728.499 154.775 726.296 156.048 723.426 156.937C720.597 157.826 717.243 158.271 713.363 158.271C709.483 158.271 706.108 157.826 703.238 156.937C700.409 156.048 698.206 154.775 696.63 153.118C695.094 151.46 694.326 149.48 694.326 147.176C694.326 144.832 695.094 142.831 696.63 141.174C698.206 139.517 700.409 138.244 703.238 137.355C706.108 136.466 709.483 136.021 713.363 136.021ZM713.363 142.387C710.978 142.387 708.977 142.569 707.361 142.932C705.744 143.256 704.511 143.761 703.663 144.448C702.814 145.135 702.389 146.045 702.389 147.176C702.389 148.227 702.814 149.116 703.663 149.844C704.511 150.571 705.744 151.117 707.361 151.481C708.977 151.804 710.978 151.966 713.363 151.966C715.747 151.966 717.748 151.804 719.364 151.481C721.021 151.117 722.254 150.571 723.063 149.844C723.911 149.116 724.336 148.227 724.336 147.176C724.336 146.045 723.911 145.135 723.063 144.448C722.254 143.761 721.021 143.256 719.364 142.932C717.748 142.569 715.747 142.387 713.363 142.387ZM785.017 108.982H794.656V115.53H785.017V108.982ZM785.017 121.168H794.656V127.776H785.017V121.168ZM758.887 105.163C761.797 105.163 764.404 105.749 766.708 106.921C769.012 108.093 770.83 109.71 772.164 111.771C773.498 113.792 774.165 116.136 774.165 118.804C774.165 121.431 773.498 123.775 772.164 125.836C770.83 127.857 769.012 129.454 766.708 130.626C764.404 131.798 761.797 132.384 758.887 132.384C756.018 132.384 753.431 131.798 751.127 130.626C748.823 129.454 747.005 127.857 745.671 125.836C744.337 123.775 743.67 121.431 743.67 118.804C743.67 116.136 744.337 113.792 745.671 111.771C747.005 109.71 748.823 108.093 751.127 106.921C753.431 105.749 756.018 105.163 758.887 105.163ZM758.887 111.892C757.513 111.892 756.26 112.175 755.128 112.741C753.997 113.267 753.108 114.055 752.461 115.106C751.855 116.116 751.552 117.349 751.552 118.804C751.552 120.218 751.855 121.451 752.461 122.502C753.108 123.512 753.997 124.28 755.128 124.806C756.26 125.331 757.513 125.594 758.887 125.594C760.342 125.594 761.615 125.331 762.707 124.806C763.798 124.28 764.667 123.512 765.313 122.502C765.96 121.451 766.283 120.218 766.283 118.804C766.283 117.349 765.96 116.116 765.313 115.106C764.667 114.055 763.798 113.267 762.707 112.741C761.615 112.175 760.342 111.892 758.887 111.892ZM779.378 102.132H787.442V134.869H779.378V102.132ZM769.133 136.021C773.013 136.021 776.367 136.466 779.197 137.355C782.066 138.244 784.269 139.517 785.805 141.174C787.341 142.831 788.108 144.832 788.108 147.176C788.108 149.48 787.341 151.46 785.805 153.118C784.269 154.775 782.066 156.048 779.197 156.937C776.367 157.826 773.013 158.271 769.133 158.271C765.253 158.271 761.878 157.826 759.008 156.937C756.179 156.048 753.977 154.775 752.4 153.118C750.864 151.46 750.097 149.48 750.097 147.176C750.097 144.832 750.864 142.831 752.4 141.174C753.977 139.517 756.179 138.244 759.008 137.355C761.878 136.466 765.253 136.021 769.133 136.021ZM769.133 142.387C766.748 142.387 764.748 142.569 763.131 142.932C761.514 143.256 760.282 143.761 759.433 144.448C758.584 145.135 758.16 146.045 758.16 147.176C758.16 148.227 758.584 149.116 759.433 149.844C760.282 150.571 761.514 151.117 763.131 151.481C764.748 151.804 766.748 151.966 769.133 151.966C771.517 151.966 773.518 151.804 775.135 151.481C776.792 151.117 778.024 150.571 778.833 149.844C779.682 149.116 780.106 148.227 780.106 147.176C780.106 146.045 779.682 145.135 778.833 144.448C778.024 143.761 776.792 143.256 775.135 142.932C773.518 142.569 771.517 142.387 769.133 142.387ZM840.787 108.982H850.426V115.53H840.787V108.982ZM840.787 121.168H850.426V127.776H840.787V121.168ZM814.657 105.163C817.567 105.163 820.174 105.749 822.478 106.921C824.782 108.093 826.601 109.71 827.934 111.771C829.268 113.792 829.935 116.136 829.935 118.804C829.935 121.431 829.268 123.775 827.934 125.836C826.601 127.857 824.782 129.454 822.478 130.626C820.174 131.798 817.567 132.384 814.657 132.384C811.788 132.384 809.201 131.798 806.897 130.626C804.594 129.454 802.775 127.857 801.441 125.836C800.107 123.775 799.441 121.431 799.441 118.804C799.441 116.136 800.107 113.792 801.441 111.771C802.775 109.71 804.594 108.093 806.897 106.921C809.201 105.749 811.788 105.163 814.657 105.163ZM814.657 111.892C813.283 111.892 812.03 112.175 810.899 112.741C809.767 113.267 808.878 114.055 808.231 115.106C807.625 116.116 807.322 117.349 807.322 118.804C807.322 120.218 807.625 121.451 808.231 122.502C808.878 123.512 809.767 124.28 810.899 124.806C812.03 125.331 813.283 125.594 814.657 125.594C816.112 125.594 817.386 125.331 818.477 124.806C819.568 124.28 820.437 123.512 821.084 122.502C821.73 121.451 822.054 120.218 822.054 118.804C822.054 117.349 821.73 116.116 821.084 115.106C820.437 114.055 819.568 113.267 818.477 112.741C817.386 112.175 816.112 111.892 814.657 111.892ZM835.149 102.132H843.212V134.869H835.149V102.132ZM824.903 136.021C828.783 136.021 832.138 136.466 834.967 137.355C837.836 138.244 840.039 139.517 841.575 141.174C843.111 142.831 843.879 144.832 843.879 147.176C843.879 149.48 843.111 151.46 841.575 153.118C840.039 154.775 837.836 156.048 834.967 156.937C832.138 157.826 828.783 158.271 824.903 158.271C821.023 158.271 817.648 157.826 814.779 156.937C811.95 156.048 809.747 154.775 808.171 153.118C806.635 151.46 805.867 149.48 805.867 147.176C805.867 144.832 806.635 142.831 808.171 141.174C809.747 139.517 811.95 138.244 814.779 137.355C817.648 136.466 821.023 136.021 824.903 136.021ZM824.903 142.387C822.518 142.387 820.518 142.569 818.901 142.932C817.285 143.256 816.052 143.761 815.203 144.448C814.354 145.135 813.93 146.045 813.93 147.176C813.93 148.227 814.354 149.116 815.203 149.844C816.052 150.571 817.285 151.117 818.901 151.481C820.518 151.804 822.518 151.966 824.903 151.966C827.288 151.966 829.288 151.804 830.905 151.481C832.562 151.117 833.795 150.571 834.603 149.844C835.452 149.116 835.876 148.227 835.876 147.176C835.876 146.045 835.452 145.135 834.603 144.448C833.795 143.761 832.562 143.256 830.905 142.932C829.288 142.569 827.288 142.387 824.903 142.387ZM896.557 108.982H906.196V115.53H896.557V108.982ZM896.557 121.168H906.196V127.776H896.557V121.168ZM870.428 105.163C873.338 105.163 875.945 105.749 878.248 106.921C880.552 108.093 882.371 109.71 883.705 111.771C885.038 113.792 885.705 116.136 885.705 118.804C885.705 121.431 885.038 123.775 883.705 125.836C882.371 127.857 880.552 129.454 878.248 130.626C875.945 131.798 873.338 132.384 870.428 132.384C867.558 132.384 864.971 131.798 862.668 130.626C860.364 129.454 858.545 127.857 857.211 125.836C855.878 123.775 855.211 121.431 855.211 118.804C855.211 116.136 855.878 113.792 857.211 111.771C858.545 109.71 860.364 108.093 862.668 106.921C864.971 105.749 867.558 105.163 870.428 105.163ZM870.428 111.892C869.054 111.892 867.801 112.175 866.669 112.741C865.537 113.267 864.648 114.055 864.001 115.106C863.395 116.116 863.092 117.349 863.092 118.804C863.092 120.218 863.395 121.451 864.001 122.502C864.648 123.512 865.537 124.28 866.669 124.806C867.801 125.331 869.054 125.594 870.428 125.594C871.883 125.594 873.156 125.331 874.247 124.806C875.338 124.28 876.207 123.512 876.854 122.502C877.501 121.451 877.824 120.218 877.824 118.804C877.824 117.349 877.501 116.116 876.854 115.106C876.207 114.055 875.338 113.267 874.247 112.741C873.156 112.175 871.883 111.892 870.428 111.892ZM890.919 102.132H898.982V134.869H890.919V102.132ZM880.673 136.021C884.553 136.021 887.908 136.466 890.737 137.355C893.607 138.244 895.809 139.517 897.345 141.174C898.881 142.831 899.649 144.832 899.649 147.176C899.649 149.48 898.881 151.46 897.345 153.118C895.809 154.775 893.607 156.048 890.737 156.937C887.908 157.826 884.553 158.271 880.673 158.271C876.793 158.271 873.419 157.826 870.549 156.937C867.72 156.048 865.517 154.775 863.941 153.118C862.405 151.46 861.637 149.48 861.637 147.176C861.637 144.832 862.405 142.831 863.941 141.174C865.517 139.517 867.72 138.244 870.549 137.355C873.419 136.466 876.793 136.021 880.673 136.021ZM880.673 142.387C878.289 142.387 876.288 142.569 874.671 142.932C873.055 143.256 871.822 143.761 870.973 144.448C870.125 145.135 869.7 146.045 869.7 147.176C869.7 148.227 870.125 149.116 870.973 149.844C871.822 150.571 873.055 151.117 874.671 151.481C876.288 151.804 878.289 151.966 880.673 151.966C883.058 151.966 885.059 151.804 886.675 151.481C888.332 151.117 889.565 150.571 890.373 149.844C891.222 149.116 891.646 148.227 891.646 147.176C891.646 146.045 891.222 145.135 890.373 144.448C889.565 143.761 888.332 143.256 886.675 142.932C885.059 142.569 883.058 142.387 880.673 142.387Z" fill="#02C8D1"/>
</svg>
