<svg width="1354" height="985" viewBox="0 0 1354 985" fill="none" xmlns="http://www.w3.org/2000/svg">
<line y1="484.019" x2="1353.42" y2="484.019" stroke="#046284" stroke-width="8.69437"/>
<line y1="-4.34718" x2="1343.77" y2="-4.34718" transform="matrix(0.993003 0.118092 -0.273333 0.961919 8.69336 409.022)" stroke="#02C8D1" stroke-width="8.69437"/>
<line y1="-4.34718" x2="1312.77" y2="-4.34718" transform="matrix(0.97087 0.239606 -0.527899 0.849307 40.5723 331.093)" stroke="#F5AF73" stroke-width="8.69437"/>
<line y1="-4.34718" x2="1263.48" y2="-4.34718" transform="matrix(0.933114 0.359582 -0.714497 0.699638 86.9434 261.206)" stroke="#02A4AF" stroke-width="8.69437"/>
<line y1="-4.34718" x2="1224.23" y2="-4.34718" transform="matrix(0.872186 0.489175 -0.727008 0.686628 142.01 182.399)" stroke="#E3C392" stroke-width="8.69437"/>
<line y1="-4.34718" x2="1164.37" y2="-4.34718" transform="matrix(0.777525 0.628852 -0.836549 0.547892 223.154 122.258)" stroke="#046284" stroke-width="8.69437"/>
<line y1="-4.34718" x2="1104.22" y2="-4.34718" transform="matrix(0.661555 0.749897 -0.920239 0.391357 310.098 75.1216)" stroke="#02C8D1" stroke-width="8.69437"/>
<line y1="-4.34718" x2="1045.06" y2="-4.34718" transform="matrix(0.508383 0.861131 -0.974242 0.225505 411.535 38.6904)" stroke="#F5AF73" stroke-width="8.69437"/>
<line y1="-4.34718" x2="996.115" y2="-4.34718" transform="matrix(0.32588 0.945411 -0.997676 0.0681417 512.969 17.1794)" stroke="#02A4AF" stroke-width="8.69437"/>
<line y1="-4.34718" x2="976.874" y2="-4.34718" transform="matrix(0.107716 0.994182 -0.998357 0.0572977 623.096 1)" stroke="#E3C392" stroke-width="8.69437"/>
<line y1="-4.34718" x2="987.823" y2="-4.34718" transform="matrix(-0.109443 0.993993 -0.998304 -0.0582246 730.326 1.8645)" stroke="#046284" stroke-width="8.69437"/>
<line y1="-4.34718" x2="1008.81" y2="-4.34718" transform="matrix(-0.321098 0.947046 -0.978186 -0.207729 840.455 11.9458)" stroke="#02C8D1" stroke-width="8.69437"/>
<line y1="-4.34718" x2="1045.38" y2="-4.34718" transform="matrix(-0.509489 0.860477 -0.927787 -0.37311 944.789 39.2197)" stroke="#F5AF73" stroke-width="8.69437"/>
<line y1="-4.34718" x2="1088.15" y2="-4.34718" transform="matrix(-0.658379 0.752687 -0.843327 -0.537401 1034.63 78.6458)" stroke="#02A4AF" stroke-width="8.69437"/>
<line y1="-4.34718" x2="1136.59" y2="-4.34718" transform="matrix(-0.779391 0.626538 -0.71581 -0.698295 1121.57 133.493)" stroke="#E3C392" stroke-width="8.69437"/>
<line y1="-4.34718" x2="1230.36" y2="-4.34718" transform="matrix(-0.873733 0.486406 -0.72445 -0.689328 1214.31 183.096)" stroke="#046284" stroke-width="8.69437"/>
<line y1="-4.34718" x2="1279.43" y2="-4.34718" transform="matrix(-0.931926 0.362649 -0.552042 -0.833816 1272.28 250.97)" stroke="#02C8D1" stroke-width="8.69437"/>
<line y1="-4.34718" x2="1312.94" y2="-4.34718" transform="matrix(-0.971032 0.23895 -0.303915 -0.952699 1315.75 325.697)" stroke="#F5AF73" stroke-width="8.69437"/>
<line y1="-4.34718" x2="1325.44" y2="-4.34718" transform="matrix(-0.992646 0.121055 -0.0189396 -0.999821 1336.04 401.835)" stroke="#02A4AF" stroke-width="8.69437"/>
</svg>
