<svg width="1170" height="741" viewBox="0 0 1170 741" fill="none" xmlns="http://www.w3.org/2000/svg">
<path d="M297.726 3.116H312.326V53.8333H297.726V3.116ZM277.417 23.2053H303.215V34.8418H277.417V23.2053ZM255.461 5.75067C260.584 5.75067 265.159 6.77526 269.184 8.82445C273.209 10.8004 276.392 13.5449 278.734 17.0578C281.076 20.5707 282.247 24.6324 282.247 29.2431C282.247 33.7806 281.076 37.8058 278.734 41.3187C276.392 44.8316 273.209 47.6126 269.184 49.6618C265.159 51.6378 260.584 52.6258 255.461 52.6258C250.339 52.6258 245.728 51.6378 241.629 49.6618C237.604 47.6126 234.421 44.8316 232.079 41.3187C229.737 37.8058 228.566 33.7806 228.566 29.2431C228.566 24.6324 229.737 20.5707 232.079 17.0578C234.421 13.5449 237.604 10.8004 241.629 8.82445C245.728 6.77526 250.339 5.75067 255.461 5.75067ZM255.461 17.6067C252.973 17.6067 250.741 18.0824 248.765 19.0338C246.789 19.912 245.252 21.2293 244.154 22.9858C243.057 24.669 242.508 26.7182 242.508 29.1333C242.508 31.6216 243.057 33.744 244.154 35.5004C245.252 37.2569 246.789 38.6108 248.765 39.5622C250.741 40.4404 252.937 40.8796 255.352 40.8796C257.913 40.8796 260.145 40.4404 262.048 39.5622C263.951 38.6108 265.451 37.2569 266.549 35.5004C267.647 33.744 268.196 31.6216 268.196 29.1333C268.196 26.7182 267.647 24.669 266.549 22.9858C265.451 21.2293 263.951 19.912 262.048 19.0338C260.145 18.0824 257.95 17.6067 255.461 17.6067ZM245.142 58.1147H312.326V85.8884H259.743V98.2933H245.362V75.3498H297.945V69.4218H245.142V58.1147ZM245.362 92.2556H315.29V103.672H245.362V92.2556ZM339.652 6.84845H403.982V18.2653H339.652V6.84845ZM328.345 37.9156H420.449V49.4422H328.345V37.9156ZM366.987 43.8436H381.478V63.8231H366.987V43.8436ZM395.2 6.84845H409.581V13.7644C409.581 17.4237 409.471 21.5953 409.252 26.2791C409.032 30.963 408.264 36.1957 406.946 41.9773L392.565 40.66C393.883 34.8784 394.651 29.8652 394.871 25.6204C395.09 21.3025 395.2 17.3505 395.2 13.7644V6.84845ZM338.555 58.6636H409.361V86.2178H353.265V97.1956H338.664V76.228H394.761V69.9707H338.555V58.6636ZM338.664 92.6947H411.996V104.002H338.664V92.6947ZM163.14 164.931H255.134V176.458H163.14V164.931ZM174.337 201.268H244.815V213.014H174.337V201.268ZM174.337 183.264H188.938V205H174.337V183.264ZM209.137 116.08C216.529 116.08 222.969 116.922 228.458 118.605C234.02 120.288 238.338 122.703 241.412 125.85C244.485 128.997 246.022 132.693 246.022 136.938C246.022 141.256 244.485 144.988 241.412 148.135C238.338 151.282 234.02 153.697 228.458 155.38C222.969 157.064 216.529 157.905 209.137 157.905C201.818 157.905 195.378 157.064 189.816 155.38C184.327 153.697 180.046 151.282 176.972 148.135C173.898 144.988 172.361 141.256 172.361 136.938C172.361 132.693 173.898 128.997 176.972 125.85C180.046 122.703 184.327 120.288 189.816 118.605C195.378 116.922 201.818 116.08 209.137 116.08ZM209.137 127.607C204.673 127.607 200.794 127.973 197.501 128.704C194.207 129.436 191.719 130.497 190.036 131.888C188.352 133.205 187.511 134.889 187.511 136.938C187.511 138.987 188.352 140.707 190.036 142.097C191.719 143.488 194.207 144.549 197.501 145.281C200.794 146.013 204.673 146.379 209.137 146.379C213.748 146.379 217.663 146.013 220.883 145.281C224.103 144.549 226.555 143.488 228.238 142.097C229.995 140.707 230.873 138.987 230.873 136.938C230.873 134.889 229.995 133.205 228.238 131.888C226.555 130.497 224.103 129.436 220.883 128.704C217.663 127.973 213.748 127.607 209.137 127.607ZM314.301 120.91H326.047V135.62C326.047 141.914 325.498 148.062 324.4 154.063C323.302 159.991 321.583 165.517 319.241 170.64C316.972 175.763 314.081 180.337 310.568 184.362C307.055 188.314 302.92 191.461 298.163 193.803L289.381 182.056C293.699 180.08 297.395 177.446 300.469 174.152C303.616 170.859 306.214 167.127 308.263 162.955C310.312 158.784 311.812 154.392 312.764 149.782C313.788 145.098 314.301 140.377 314.301 135.62V120.91ZM317.155 120.91H328.901V135.62C328.901 140.231 329.34 144.769 330.218 149.233C331.17 153.697 332.597 157.942 334.5 161.967C336.476 165.919 338.927 169.469 341.855 172.616C344.782 175.763 348.295 178.361 352.394 180.41L343.502 192.046C338.964 189.704 335.012 186.631 331.646 182.825C328.352 178.946 325.644 174.518 323.522 169.542C321.4 164.492 319.79 159.113 318.692 153.404C317.667 147.623 317.155 141.695 317.155 135.62V120.91ZM356.346 113.116H371.056V214.77H356.346V113.116ZM367.872 152.197H385.766V164.272H367.872V152.197ZM457.772 113.116H472.372V173.494H457.772V113.116ZM468.31 137.048H485.875V149.013H468.31V137.048ZM406.286 177.885H472.372V213.672H406.286V177.885ZM458.211 189.192H420.667V202.146H458.211V189.192ZM396.076 158.125H404.639C411.299 158.125 417.227 158.052 422.423 157.905C427.692 157.759 432.559 157.466 437.024 157.027C441.561 156.588 446.172 155.929 450.856 155.051L452.173 166.688C447.489 167.566 442.769 168.261 438.012 168.773C433.328 169.212 428.278 169.505 422.862 169.652C417.52 169.798 411.445 169.871 404.639 169.871H396.076V158.125ZM395.857 118.166H442.293V149.123H410.457V164.602H396.076V138.255H427.912V129.692H395.857V118.166ZM297.067 221.896H311.668V323.88H297.067V221.896ZM256.889 229.032C262.085 229.032 266.695 230.532 270.721 233.533C274.746 236.46 277.893 240.668 280.161 246.157C282.503 251.573 283.674 257.977 283.674 265.368C283.674 272.833 282.503 279.31 280.161 284.799C277.893 290.215 274.746 294.423 270.721 297.424C266.695 300.351 262.085 301.815 256.889 301.815C251.766 301.815 247.192 300.351 243.166 297.424C239.141 294.423 235.958 290.215 233.616 284.799C231.347 279.31 230.213 272.833 230.213 265.368C230.213 257.977 231.347 251.573 233.616 246.157C235.958 240.668 239.141 236.46 243.166 233.533C247.192 230.532 251.766 229.032 256.889 229.032ZM256.889 242.315C254.4 242.315 252.205 243.193 250.302 244.95C248.399 246.706 246.899 249.304 245.801 252.744C244.776 256.111 244.264 260.319 244.264 265.368C244.264 270.345 244.776 274.59 245.801 278.103C246.899 281.542 248.399 284.14 250.302 285.897C252.205 287.653 254.4 288.532 256.889 288.532C259.45 288.532 261.682 287.653 263.585 285.897C265.488 284.14 266.952 281.542 267.976 278.103C269.074 274.59 269.623 270.345 269.623 265.368C269.623 260.319 269.074 256.111 267.976 252.744C266.952 249.304 265.488 246.706 263.585 244.95C261.682 243.193 259.45 242.315 256.889 242.315ZM337.786 230.679H402.116V242.315H337.786V230.679ZM328.345 299.619H420.339V311.475H328.345V299.619ZM360.84 264.71H375.55V305.547H360.84V264.71ZM396.847 230.679H411.557V240.339C411.557 244.584 411.484 249.085 411.337 253.842C411.264 258.599 410.935 263.868 410.349 269.65C409.837 275.431 408.886 281.908 407.495 289.08L392.895 287.544C394.944 277.371 396.115 268.515 396.408 260.977C396.7 253.366 396.847 246.487 396.847 240.339V230.679Z" fill="#FFA86A"/>
<path d="M455.91 375.916H526.168V410.606H455.91V375.916ZM511.897 387.442H470.181V399.079H511.897V387.442ZM456.459 313.562H525.509V349.13H456.459V313.562ZM511.128 324.869H470.84V337.713H511.128V324.869ZM445.152 357.473H537.146V369H445.152V357.473ZM483.794 346.715H498.284V361.864H483.794V346.715Z" fill="#FFA86A"/>
<path d="M494.554 477.131H586.548V488.658H494.554V477.131ZM505.752 513.468H576.229V525.214H505.752V513.468ZM505.752 495.464H520.352V517.2H505.752V495.464ZM540.551 428.28C547.943 428.28 554.383 429.122 559.872 430.805C565.434 432.488 569.752 434.903 572.826 438.05C575.9 441.197 577.436 444.893 577.436 449.138C577.436 453.456 575.9 457.188 572.826 460.335C569.752 463.482 565.434 465.897 559.872 467.581C554.383 469.264 547.943 470.106 540.551 470.106C533.233 470.106 526.792 469.264 521.23 467.581C515.741 465.897 511.46 463.482 508.386 460.335C505.312 457.188 503.776 453.456 503.776 449.138C503.776 444.893 505.312 441.197 508.386 438.05C511.46 434.903 515.741 432.488 521.23 430.805C526.792 429.122 533.233 428.28 540.551 428.28ZM540.551 439.807C536.087 439.807 532.208 440.173 528.915 440.905C525.621 441.636 523.133 442.698 521.45 444.088C519.767 445.406 518.925 447.089 518.925 449.138C518.925 451.187 519.767 452.907 521.45 454.298C523.133 455.688 525.621 456.749 528.915 457.481C532.208 458.213 536.087 458.579 540.551 458.579C545.162 458.579 549.077 458.213 552.297 457.481C555.517 456.749 557.969 455.688 559.652 454.298C561.409 452.907 562.287 451.187 562.287 449.138C562.287 447.089 561.409 445.406 559.652 444.088C557.969 442.698 555.517 441.636 552.297 440.905C549.077 440.173 545.162 439.807 540.551 439.807Z" fill="#FFA86A"/>
<path d="M789.416 545.852H804.016V647.836H789.416V545.852ZM749.237 552.988C754.433 552.988 759.044 554.488 763.069 557.488C767.094 560.416 770.241 564.624 772.51 570.113C774.852 575.529 776.023 581.932 776.023 589.324C776.023 596.789 774.852 603.266 772.51 608.755C770.241 614.17 767.094 618.379 763.069 621.379C759.044 624.307 754.433 625.77 749.237 625.77C744.114 625.77 739.54 624.307 735.515 621.379C731.49 618.379 728.306 614.17 725.964 608.755C723.696 603.266 722.561 596.789 722.561 589.324C722.561 581.932 723.696 575.529 725.964 570.113C728.306 564.624 731.49 560.416 735.515 557.488C739.54 554.488 744.114 552.988 749.237 552.988ZM749.237 566.271C746.749 566.271 744.553 567.149 742.651 568.905C740.748 570.662 739.247 573.26 738.15 576.7C737.125 580.066 736.613 584.274 736.613 589.324C736.613 594.301 737.125 598.545 738.15 602.058C739.247 605.498 740.748 608.096 742.651 609.852C744.553 611.609 746.749 612.487 749.237 612.487C751.799 612.487 754.031 611.609 755.934 609.852C757.836 608.096 759.3 605.498 760.325 602.058C761.423 598.545 761.971 594.301 761.971 589.324C761.971 584.274 761.423 580.066 760.325 576.7C759.3 573.26 757.836 570.662 755.934 568.905C754.031 567.149 751.799 566.271 749.237 566.271Z" fill="#FFA86A"/>
<path d="M677.114 496.672H691.056V555.513H677.114V496.672ZM665.148 520.274H681.286V532.13H665.148V520.274ZM655.708 498.538H669.32V554.744H655.708V498.538ZM622.116 559.794H691.056V597.228H622.116V559.794ZM676.785 571.211H636.496V585.701H676.785V571.211ZM607.954 502.6H621.676V516.432H634.63V502.6H648.133V551.121H607.954V502.6ZM621.676 527.629V539.595H634.63V527.629H621.676Z" fill="#FFA86A"/>
<path d="M853.526 551.89H864.613V555.732C864.613 560.928 863.808 565.905 862.198 570.662C860.661 575.419 858.21 579.591 854.843 583.177C851.55 586.763 847.232 589.507 841.889 591.41L834.644 580.871C839.108 579.261 842.694 577.139 845.402 574.504C848.183 571.87 850.232 568.942 851.55 565.722C852.867 562.429 853.526 559.099 853.526 555.732V551.89ZM857.148 551.89H867.687V555.732C867.687 559.099 868.272 562.465 869.443 565.832C870.614 569.125 872.481 572.162 875.042 574.943C877.604 577.724 880.97 579.993 885.142 581.75L879.104 592.508C873.761 590.459 869.48 587.495 866.26 583.616C863.04 579.81 860.698 575.492 859.234 570.662C857.844 565.759 857.148 560.782 857.148 555.732V551.89ZM890.521 551.89H901.059V555.732C901.059 560.489 900.328 565.283 898.864 570.113C897.473 574.943 895.168 579.334 891.948 583.286C888.801 587.312 884.52 590.385 879.104 592.508L873.176 581.75C877.347 579.847 880.714 577.432 883.275 574.504C885.837 571.577 887.667 568.503 888.764 565.283C889.935 561.99 890.521 558.806 890.521 555.732V551.89ZM894.034 551.89H905.011V555.732C905.011 559.318 905.634 562.758 906.878 566.051C908.122 569.345 910.134 572.272 912.915 574.834C915.696 577.395 919.356 579.408 923.893 580.871L916.648 591.41C911.305 589.58 906.951 586.909 903.584 583.396C900.291 579.883 897.876 575.748 896.339 570.991C894.802 566.234 894.034 561.148 894.034 555.732V551.89ZM878.994 514.675H903.035V526.531H878.994V514.675ZM857.478 496.233C862.601 496.233 867.175 497.294 871.2 499.416C875.225 501.539 878.409 504.429 880.751 508.089C883.092 511.748 884.263 515.956 884.263 520.713C884.263 525.397 883.092 529.569 880.751 533.228C878.409 536.887 875.225 539.778 871.2 541.9C867.175 544.023 862.601 545.084 857.478 545.084C852.428 545.084 847.854 544.023 843.755 541.9C839.73 539.778 836.547 536.887 834.205 533.228C831.863 529.569 830.692 525.397 830.692 520.713C830.692 515.956 831.863 511.748 834.205 508.089C836.547 504.429 839.73 501.539 843.755 499.416C847.854 497.294 852.428 496.233 857.478 496.233ZM857.478 508.308C855.063 508.308 852.867 508.821 850.891 509.845C848.915 510.797 847.378 512.187 846.28 514.017C845.183 515.846 844.634 518.078 844.634 520.713C844.634 523.201 845.183 525.397 846.28 527.3C847.378 529.129 848.915 530.557 850.891 531.581C852.867 532.533 855.063 533.008 857.478 533.008C859.966 533.008 862.162 532.533 864.064 531.581C866.04 530.557 867.577 529.129 868.675 527.3C869.773 525.397 870.322 523.201 870.322 520.713C870.322 518.078 869.773 515.846 868.675 514.017C867.577 512.187 866.04 510.797 864.064 509.845C862.162 508.821 859.966 508.308 857.478 508.308ZM899.852 491.183H914.562V548.048H899.852V491.183Z" fill="#FFA86A"/>
<path d="M1010.18 545.852H1024.89V647.836H1010.18V545.852ZM1021.7 583.506H1039.6V595.581H1021.7V583.506ZM949.141 611.389H957.704C963.485 611.389 968.901 611.316 973.951 611.17C979.001 610.95 983.904 610.621 988.661 610.182C993.418 609.669 998.285 608.974 1003.26 608.096L1004.69 620.172C999.566 621.05 994.516 621.745 989.539 622.257C984.636 622.77 979.586 623.099 974.39 623.245C969.194 623.392 963.632 623.465 957.704 623.465H949.141V611.389ZM949.141 555.293H996.565V567.039H963.741V617.098H949.141V555.293ZM1057.73 638.813C1055.36 638.813 1053.34 637.982 1051.65 636.318C1049.96 634.655 1049.13 632.628 1049.15 630.237C1049.13 627.898 1049.96 625.897 1051.65 624.233C1053.34 622.57 1055.36 621.738 1057.73 621.738C1060.02 621.738 1062 622.57 1063.69 624.233C1065.41 625.897 1066.28 627.898 1066.31 630.237C1066.28 631.822 1065.86 633.265 1065.06 634.564C1064.28 635.863 1063.24 636.903 1061.94 637.683C1060.67 638.436 1059.26 638.813 1057.73 638.813Z" fill="#FFA86A"/>
</svg>
