<svg width="76" height="318" viewBox="0 0 76 318" fill="none" xmlns="http://www.w3.org/2000/svg">
<path d="M12.2427 0.219999H14.9027V18.8H12.2427V0.219999ZM4.92266 1.52C5.86932 1.52 6.70932 1.79333 7.44266 2.34C8.17599 2.87333 8.74932 3.64 9.16266 4.64C9.58932 5.62667 9.80266 6.79333 9.80266 8.14C9.80266 9.5 9.58932 10.68 9.16266 11.68C8.74932 12.6667 8.17599 13.4333 7.44266 13.98C6.70932 14.5133 5.86932 14.78 4.92266 14.78C3.98932 14.78 3.15599 14.5133 2.42266 13.98C1.68932 13.4333 1.10932 12.6667 0.682656 11.68C0.269323 10.68 0.0626563 9.5 0.0626563 8.14C0.0626563 6.79333 0.269323 5.62667 0.682656 4.64C1.10932 3.64 1.68932 2.87333 2.42266 2.34C3.15599 1.79333 3.98932 1.52 4.92266 1.52ZM4.92266 3.94C4.46932 3.94 4.06932 4.1 3.72266 4.42C3.37599 4.74 3.10266 5.21333 2.90266 5.84C2.71599 6.45333 2.62266 7.22 2.62266 8.14C2.62266 9.04667 2.71599 9.82 2.90266 10.46C3.10266 11.0867 3.37599 11.56 3.72266 11.88C4.06932 12.2 4.46932 12.36 4.92266 12.36C5.38932 12.36 5.79599 12.2 6.14266 11.88C6.48932 11.56 6.75599 11.0867 6.94266 10.46C7.14266 9.82 7.24266 9.04667 7.24266 8.14C7.24266 7.22 7.14266 6.45333 6.94266 5.84C6.75599 5.21333 6.48932 4.74 6.14266 4.42C5.79599 4.1 5.38932 3.94 4.92266 3.94ZM34.802 0.26H37.462V9.5H34.802V0.26ZM36.402 3.8H39.902V5.96H36.402V3.8ZM25.242 10.22H37.462V15.3H27.902V17.52H25.262V13.38H34.842V12.28H25.242V10.22ZM25.262 16.5H38.002V18.58H25.262V16.5ZM27.942 0.779999C28.902 0.779999 29.7487 0.959999 30.482 1.32C31.2287 1.68 31.8154 2.17333 32.242 2.8C32.682 3.42667 32.902 4.15333 32.902 4.98C32.902 5.79333 32.682 6.52 32.242 7.16C31.8154 7.8 31.2287 8.3 30.482 8.66C29.7487 9.00667 28.902 9.18 27.942 9.18C27.0087 9.18 26.1687 9.00667 25.422 8.66C24.6887 8.3 24.102 7.8 23.662 7.16C23.2354 6.52 23.022 5.79333 23.022 4.98C23.022 4.15333 23.2354 3.42667 23.662 2.8C24.102 2.17333 24.6887 1.68 25.422 1.32C26.1687 0.959999 27.0087 0.779999 27.942 0.779999ZM27.962 2.92C27.5087 2.92 27.102 3.00667 26.742 3.18C26.382 3.34 26.0954 3.57333 25.882 3.88C25.682 4.17333 25.582 4.54 25.582 4.98C25.582 5.42 25.682 5.8 25.882 6.12C26.0954 6.42667 26.382 6.66 26.742 6.82C27.102 6.98 27.5087 7.06 27.962 7.06C28.4154 7.06 28.822 6.98 29.182 6.82C29.542 6.66 29.822 6.42667 30.022 6.12C30.222 5.8 30.322 5.42 30.322 4.98C30.322 4.54 30.222 4.17333 30.022 3.88C29.822 3.57333 29.542 3.34 29.182 3.18C28.822 3.00667 28.4154 2.92 27.962 2.92ZM48.7005 7.06H51.7405V9.2H48.7005V7.06ZM54.6605 0.239999H57.2005V18.76H54.6605V0.239999ZM50.9005 0.54H53.3805V17.94H50.9005V0.54ZM45.4605 1.54C46.2738 1.54 46.9805 1.81333 47.5805 2.36C48.1938 2.89333 48.6605 3.66667 48.9805 4.68C49.3138 5.68 49.4805 6.88 49.4805 8.28C49.4805 9.66667 49.3138 10.8667 48.9805 11.88C48.6605 12.8933 48.1938 13.6733 47.5805 14.22C46.9805 14.7533 46.2671 15.02 45.4405 15.02C44.6405 15.02 43.9338 14.7533 43.3205 14.22C42.7205 13.6733 42.2538 12.8933 41.9205 11.88C41.6005 10.8667 41.4405 9.66667 41.4405 8.28C41.4405 6.88 41.6005 5.68 41.9205 4.68C42.2538 3.66667 42.7205 2.89333 43.3205 2.36C43.9338 1.81333 44.6471 1.54 45.4605 1.54ZM45.4605 4.06C45.1271 4.06 44.8405 4.21333 44.6005 4.52C44.3605 4.82667 44.1738 5.29333 44.0405 5.92C43.9205 6.53333 43.8605 7.32 43.8605 8.28C43.8605 9.21333 43.9205 9.99333 44.0405 10.62C44.1738 11.2467 44.3605 11.72 44.6005 12.04C44.8405 12.3467 45.1271 12.5 45.4605 12.5C45.7938 12.5 46.0805 12.3467 46.3205 12.04C46.5738 11.72 46.7605 11.2467 46.8805 10.62C47.0005 9.99333 47.0605 9.21333 47.0605 8.28C47.0605 7.32 47.0005 6.53333 46.8805 5.92C46.7605 5.29333 46.5738 4.82667 46.3205 4.52C46.0805 4.21333 45.7938 4.06 45.4605 4.06ZM69.0389 6.04H73.9189V8.18H69.0389V6.04ZM63.9989 1.66H66.1389V4.36C66.1389 5.52 66.0389 6.64667 65.8389 7.74C65.6389 8.83333 65.3322 9.85333 64.9189 10.8C64.5056 11.7467 63.9789 12.58 63.3389 13.3C62.7122 14.02 61.9656 14.6 61.0989 15.04L59.4389 12.92C60.2256 12.5467 60.8989 12.06 61.4589 11.46C62.0322 10.86 62.5056 10.18 62.8789 9.42C63.2656 8.64667 63.5456 7.83333 63.7189 6.98C63.9056 6.11333 63.9989 5.24 63.9989 4.36V1.66ZM64.5389 1.66H66.6589V4.36C66.6589 5.22667 66.7456 6.08667 66.9189 6.94C67.0922 7.78 67.3522 8.56667 67.6989 9.3C68.0589 10.0333 68.5189 10.6867 69.0789 11.26C69.6389 11.82 70.3056 12.2733 71.0789 12.62L69.4789 14.74C68.6122 14.3133 67.8656 13.7533 67.2389 13.06C66.6122 12.3533 66.0989 11.5467 65.6989 10.64C65.3122 9.73333 65.0189 8.74667 64.8189 7.68C64.6322 6.61333 64.5389 5.50667 64.5389 4.36V1.66ZM72.5789 0.219999H75.2389V18.8H72.5789V0.219999ZM41.5208 60.26H44.1808V73.88H41.5208V60.26ZM43.4408 65.46H46.6408V67.66H43.4408V65.46ZM32.2408 76.32H44.8408V78.46H32.2408V76.32ZM32.2408 72.52H34.9208V76.78H32.2408V72.52ZM30.1408 61.58H32.7808V64.22H36.4208V61.58H39.0408V70.98H30.1408V61.58ZM32.7808 66.26V68.88H36.4208V66.26H32.7808ZM31.3408 91.82H43.0608V93.94H31.3408V91.82ZM29.6208 104.38H46.3808V106.54H29.6208V104.38ZM35.5408 98.02H38.2208V105.46H35.5408V98.02ZM42.1008 91.82H44.7808V93.58C44.7808 94.3533 44.7674 95.1733 44.7408 96.04C44.7274 96.9067 44.6674 97.8667 44.5608 98.92C44.4674 99.9733 44.2941 101.153 44.0408 102.46L41.3808 102.18C41.7541 100.327 41.9674 98.7133 42.0208 97.34C42.0741 95.9533 42.1008 94.7 42.1008 93.58V91.82ZM42.7208 120.26H45.4008V138.78H42.7208V120.26ZM31.9008 121.72H33.8408V124.84C33.8408 125.787 33.8008 126.74 33.7208 127.7C33.6408 128.66 33.4941 129.58 33.2808 130.46C33.0808 131.327 32.7874 132.12 32.4008 132.84C32.0274 133.56 31.5341 134.173 30.9208 134.68L29.2208 132.84C29.8074 132.373 30.2808 131.833 30.6408 131.22C31.0008 130.607 31.2674 129.947 31.4408 129.24C31.6274 128.533 31.7474 127.807 31.8008 127.06C31.8674 126.3 31.9008 125.56 31.9008 124.84V121.72ZM32.5208 121.72H34.4008V124.84C34.4008 125.547 34.4274 126.273 34.4808 127.02C34.5474 127.767 34.6741 128.507 34.8608 129.24C35.0474 129.96 35.3208 130.64 35.6808 131.28C36.0541 131.92 36.5408 132.487 37.1408 132.98L35.7008 134.94C35.0208 134.42 34.4674 133.78 34.0408 133.02C33.6274 132.26 33.3074 131.42 33.0808 130.5C32.8674 129.58 32.7208 128.633 32.6408 127.66C32.5608 126.687 32.5208 125.747 32.5208 124.84V121.72ZM36.9808 121.72H38.8608V124.84C38.8608 125.76 38.8208 126.707 38.7408 127.68C38.6741 128.653 38.5274 129.6 38.3008 130.52C38.0741 131.427 37.7541 132.26 37.3408 133.02C36.9274 133.78 36.3808 134.42 35.7008 134.94L34.2608 132.98C34.8608 132.487 35.3408 131.927 35.7008 131.3C36.0608 130.66 36.3341 129.98 36.5208 129.26C36.7074 128.527 36.8274 127.787 36.8808 127.04C36.9474 126.293 36.9808 125.56 36.9808 124.84V121.72ZM37.6008 121.72H39.5208V124.84C39.5208 125.573 39.5474 126.32 39.6008 127.08C39.6674 127.827 39.7941 128.553 39.9808 129.26C40.1674 129.967 40.4408 130.627 40.8008 131.24C41.1608 131.853 41.6341 132.387 42.2208 132.84L40.6008 134.76C39.9741 134.267 39.4608 133.66 39.0608 132.94C38.6608 132.207 38.3541 131.4 38.1408 130.52C37.9408 129.627 37.8008 128.7 37.7208 127.74C37.6408 126.767 37.6008 125.8 37.6008 124.84V121.72ZM41.4408 150.22H44.1208V168.74H41.4408V150.22ZM43.4408 157.32H46.7008V159.5H43.4408V157.32ZM36.5808 152.14H39.2008C39.2008 153.993 38.9341 155.747 38.4008 157.4C37.8808 159.053 37.0141 160.573 35.8008 161.96C34.6008 163.333 32.9741 164.533 30.9208 165.56L29.4208 163.54C31.0474 162.7 32.3874 161.753 33.4408 160.7C34.5074 159.647 35.2941 158.453 35.8008 157.12C36.3208 155.773 36.5808 154.273 36.5808 152.62V152.14ZM30.4408 152.14H37.9608V154.28H30.4408V152.14ZM43.4408 217.24H46.7008V219.44H43.4408V217.24ZM41.4408 210.22H44.1208V228.74H41.4408V210.22ZM30.1808 212H32.8208V223.52H30.1808V212ZM30.1808 222.02H31.7608C33.0808 222.02 34.4541 221.967 35.8808 221.86C37.3074 221.753 38.7674 221.553 40.2608 221.26L40.5408 223.42C38.9941 223.74 37.4874 223.96 36.0208 224.08C34.5541 224.187 33.1341 224.24 31.7608 224.24H30.1808V222.02ZM41.6408 240.26H44.3008V251.34H41.6408V240.26ZM43.3808 244.74H46.6408V246.92H43.3808V244.74ZM33.5408 252.12H35.5208V252.44C35.5208 253.333 35.3741 254.187 35.0808 255C34.8008 255.813 34.3541 256.527 33.7408 257.14C33.1274 257.753 32.3341 258.22 31.3608 258.54L30.1008 256.62C30.9141 256.367 31.5741 256.027 32.0808 255.6C32.5874 255.16 32.9541 254.667 33.1808 254.12C33.4208 253.56 33.5408 253 33.5408 252.44V252.12ZM34.2208 252.12H36.1208V252.44C36.1208 253 36.2274 253.56 36.4408 254.12C36.6541 254.667 36.9874 255.173 37.4408 255.64C37.9074 256.107 38.5141 256.487 39.2608 256.78L38.1808 258.72C37.2208 258.373 36.4474 257.867 35.8608 257.2C35.2874 256.547 34.8674 255.807 34.6008 254.98C34.3474 254.14 34.2208 253.293 34.2208 252.44V252.12ZM40.2608 252.12H42.1408V252.44C42.1408 253.28 42.0074 254.113 41.7408 254.94C41.4874 255.767 41.0674 256.513 40.4808 257.18C39.9074 257.86 39.1408 258.373 38.1808 258.72L37.1208 256.78C37.8674 256.473 38.4674 256.08 38.9208 255.6C39.3741 255.12 39.7074 254.607 39.9208 254.06C40.1474 253.5 40.2608 252.96 40.2608 252.44V252.12ZM40.8808 252.12H42.8808V252.44C42.8808 253.027 42.9941 253.6 43.2208 254.16C43.4608 254.707 43.8341 255.193 44.3408 255.62C44.8474 256.047 45.5008 256.38 46.3008 256.62L45.0608 258.54C44.0741 258.22 43.2741 257.76 42.6608 257.16C42.0474 256.56 41.5941 255.86 41.3008 255.06C41.0208 254.247 40.8808 253.373 40.8808 252.44V252.12ZM33.8208 247.02H36.4808V249.86H33.8208V247.02ZM29.8408 251L29.5408 248.94C30.6074 248.94 31.7674 248.933 33.0208 248.92C34.2874 248.893 35.5741 248.847 36.8808 248.78C38.2008 248.7 39.4674 248.58 40.6808 248.42L40.8808 250.24C39.6274 250.467 38.3474 250.633 37.0408 250.74C35.7341 250.847 34.4608 250.913 33.2208 250.94C31.9941 250.967 30.8674 250.987 29.8408 251ZM35.1408 240.7C36.0474 240.7 36.8408 240.853 37.5208 241.16C38.2141 241.453 38.7608 241.867 39.1608 242.4C39.5608 242.92 39.7608 243.533 39.7608 244.24C39.7608 244.933 39.5608 245.547 39.1608 246.08C38.7608 246.613 38.2141 247.027 37.5208 247.32C36.8408 247.613 36.0474 247.76 35.1408 247.76C34.2341 247.76 33.4341 247.613 32.7408 247.32C32.0474 247.027 31.5008 246.613 31.1008 246.08C30.7008 245.547 30.5008 244.933 30.5008 244.24C30.5008 243.533 30.7008 242.92 31.1008 242.4C31.5008 241.867 32.0474 241.453 32.7408 241.16C33.4341 240.853 34.2341 240.7 35.1408 240.7ZM35.1408 242.62C34.5008 242.62 33.9808 242.76 33.5808 243.04C33.1808 243.32 32.9808 243.72 32.9808 244.24C32.9808 244.573 33.0674 244.867 33.2408 245.12C33.4274 245.36 33.6808 245.547 34.0008 245.68C34.3341 245.8 34.7141 245.86 35.1408 245.86C35.5674 245.86 35.9408 245.8 36.2608 245.68C36.5808 245.547 36.8274 245.36 37.0008 245.12C37.1874 244.867 37.2808 244.573 37.2808 244.24C37.2808 243.72 37.0808 243.32 36.6808 243.04C36.2941 242.76 35.7808 242.62 35.1408 242.62ZM41.4408 270.22H44.1208V288.8H41.4408V270.22ZM43.5408 277.08H46.8008V279.28H43.5408V277.08ZM30.3208 282.16H31.8808C32.9341 282.16 33.9208 282.147 34.8408 282.12C35.7608 282.08 36.6541 282.02 37.5208 281.94C38.3874 281.847 39.2741 281.72 40.1808 281.56L40.4408 283.76C39.5074 283.92 38.5874 284.047 37.6808 284.14C36.7874 284.233 35.8674 284.293 34.9208 284.32C33.9741 284.347 32.9608 284.36 31.8808 284.36H30.3208V282.16ZM30.3208 271.94H38.9608V274.08H32.9808V283.2H30.3208V271.94ZM38.0044 317.156C37.5736 317.156 37.2042 317.005 36.8965 316.702C36.5887 316.399 36.4372 316.029 36.4419 315.594C36.4372 315.168 36.5887 314.803 36.8965 314.5C37.2042 314.197 37.5736 314.045 38.0044 314.045C38.4211 314.045 38.7833 314.197 39.0911 314.5C39.4036 314.803 39.5622 315.168 39.5669 315.594C39.5622 315.883 39.4864 316.145 39.3397 316.382C39.1976 316.619 39.0082 316.808 38.7715 316.95C38.5395 317.088 38.2838 317.156 38.0044 317.156Z" fill="white"/>
</svg>
