<svg width="5516" height="1724" viewBox="0 0 5516 1724" fill="none" xmlns="http://www.w3.org/2000/svg">
<path d="M2918.65 288.383H2926.69V329.566H2918.65V288.383ZM2924.46 304.106H2934.13V310.758H2924.46V304.106ZM2890.59 336.944H2928.69V343.415H2890.59V336.944ZM2890.59 325.454H2898.69V338.335H2890.59V325.454ZM2884.24 292.374H2892.22V300.357H2903.23V292.374H2911.15V320.797H2884.24V292.374ZM2892.22 306.525V314.447H2903.23V306.525H2892.22ZM3262.88 475.1H3298.32V481.51H3262.88V475.1ZM3257.68 513.078H3308.36V519.609H3257.68V513.078ZM3275.58 493.847H3283.69V516.343H3275.58V493.847ZM3295.42 475.1H3303.52V480.422C3303.52 482.76 3303.48 485.239 3303.4 487.86C3303.36 490.48 3303.18 493.383 3302.86 496.568C3302.57 499.753 3302.05 503.321 3301.28 507.272L3293.24 506.426C3294.37 500.822 3295.02 495.943 3295.18 491.791C3295.34 487.598 3295.42 483.808 3295.42 480.422V475.1ZM3664.81 651.383H3672.91V707.382H3664.81V651.383ZM3632.09 655.797H3637.96V665.231C3637.96 668.094 3637.83 670.977 3637.59 673.879C3637.35 676.782 3636.91 679.564 3636.26 682.225C3635.66 684.845 3634.77 687.244 3633.6 689.421C3632.47 691.598 3630.98 693.453 3629.13 694.985L3623.99 689.421C3625.76 688.01 3627.19 686.377 3628.28 684.523C3629.37 682.668 3630.17 680.673 3630.7 678.536C3631.26 676.399 3631.63 674.202 3631.79 671.944C3631.99 669.646 3632.09 667.409 3632.09 665.231V655.797ZM3633.96 655.797H3639.65V665.231C3639.65 667.368 3639.73 669.565 3639.89 671.823C3640.09 674.081 3640.48 676.318 3641.04 678.536C3641.6 680.713 3642.43 682.769 3643.52 684.704C3644.65 686.639 3646.12 688.353 3647.93 689.845L3643.58 695.771C3641.52 694.199 3639.85 692.264 3638.56 689.966C3637.31 687.668 3636.34 685.128 3635.66 682.346C3635.01 679.564 3634.57 676.701 3634.33 673.758C3634.09 670.815 3633.96 667.973 3633.96 665.231V655.797ZM3647.45 655.797H3653.13V665.231C3653.13 668.013 3653.01 670.876 3652.77 673.819C3652.57 676.762 3652.13 679.624 3651.44 682.406C3650.76 685.148 3649.79 687.668 3648.54 689.966C3647.29 692.264 3645.64 694.199 3643.58 695.771L3639.23 689.845C3641.04 688.353 3642.49 686.66 3643.58 684.765C3644.67 682.83 3645.49 680.773 3646.06 678.596C3646.62 676.379 3646.99 674.141 3647.15 671.884C3647.35 669.626 3647.45 667.409 3647.45 665.231V655.797ZM3649.32 655.797H3655.13V665.231C3655.13 667.449 3655.21 669.707 3655.37 672.005C3655.57 674.262 3655.96 676.46 3656.52 678.596C3657.09 680.733 3657.91 682.729 3659 684.583C3660.09 686.438 3661.52 688.051 3663.29 689.421L3658.4 695.227C3656.5 693.735 3654.95 691.901 3653.74 689.724C3652.53 687.506 3651.6 685.067 3650.96 682.406C3650.35 679.705 3649.93 676.903 3649.69 674C3649.45 671.057 3649.32 668.134 3649.32 665.231V655.797ZM4043.45 833.262H4051.55V889.261H4043.45V833.262ZM4049.5 854.73H4059.35V861.322H4049.5V854.73ZM4028.75 839.067H4036.68C4036.68 844.671 4035.87 849.973 4034.26 854.972C4032.68 859.971 4030.06 864.568 4026.4 868.76C4022.77 872.913 4017.85 876.541 4011.64 879.646L4007.1 873.538C4012.02 870.998 4016.07 868.136 4019.26 864.951C4022.48 861.766 4024.86 858.157 4026.4 854.126C4027.97 850.054 4028.75 845.518 4028.75 840.519V839.067ZM4010.19 839.067H4032.93V845.538H4010.19V839.067ZM4424.51 1035.49H4434.37V1042.14H4424.51V1035.49ZM4418.46 1014.26H4426.57V1070.26H4418.46V1014.26ZM4384.41 1019.64H4392.4V1054.48H4384.41V1019.64ZM4384.41 1049.94H4389.19C4393.18 1049.94 4397.34 1049.78 4401.65 1049.46C4405.96 1049.14 4410.38 1048.53 4414.89 1047.64L4415.74 1054.18C4411.06 1055.14 4406.51 1055.81 4402.07 1056.17C4397.64 1056.49 4393.35 1056.65 4389.19 1056.65H4384.41V1049.94ZM4801.58 1196.38H4809.62V1229.89H4801.58V1196.38ZM4806.84 1209.93H4816.7V1216.52H4806.84V1209.93ZM4777.09 1232.24H4783.08V1233.21C4783.08 1235.91 4782.63 1238.49 4781.74 1240.95C4780.9 1243.41 4779.55 1245.57 4777.69 1247.42C4775.84 1249.28 4773.44 1250.69 4770.5 1251.66L4766.69 1245.85C4769.15 1245.08 4771.14 1244.06 4772.67 1242.77C4774.21 1241.44 4775.31 1239.94 4776 1238.29C4776.73 1236.6 4777.09 1234.91 4777.09 1233.21V1232.24ZM4779.14 1232.24H4784.89V1233.21C4784.89 1234.91 4785.21 1236.6 4785.86 1238.29C4786.5 1239.94 4787.51 1241.48 4788.88 1242.89C4790.29 1244.3 4792.13 1245.45 4794.38 1246.33L4791.12 1252.2C4788.22 1251.15 4785.88 1249.62 4784.1 1247.6C4782.37 1245.63 4781.1 1243.39 4780.29 1240.89C4779.53 1238.35 4779.14 1235.79 4779.14 1233.21V1232.24ZM4797.41 1232.24H4803.09V1233.21C4803.09 1235.75 4802.69 1238.27 4801.88 1240.77C4801.12 1243.27 4799.85 1245.53 4798.07 1247.54C4796.34 1249.6 4794.02 1251.15 4791.12 1252.2L4787.91 1246.33C4790.17 1245.41 4791.99 1244.22 4793.36 1242.77C4794.73 1241.32 4795.73 1239.76 4796.38 1238.11C4797.07 1236.42 4797.41 1234.78 4797.41 1233.21V1232.24ZM4799.28 1232.24H4805.33V1233.21C4805.33 1234.99 4805.67 1236.72 4806.36 1238.41C4807.08 1240.07 4808.21 1241.54 4809.74 1242.83C4811.28 1244.12 4813.25 1245.13 4815.67 1245.85L4811.92 1251.66C4808.94 1250.69 4806.52 1249.3 4804.66 1247.48C4802.81 1245.67 4801.44 1243.55 4800.55 1241.13C4799.71 1238.67 4799.28 1236.03 4799.28 1233.21V1232.24ZM4777.93 1216.82H4785.98V1225.41H4777.93V1216.82ZM4765.9 1228.86L4764.99 1222.63C4768.22 1222.63 4771.73 1222.61 4775.52 1222.57C4779.35 1222.49 4783.24 1222.35 4787.19 1222.14C4791.18 1221.9 4795.01 1221.54 4798.68 1221.06L4799.28 1226.56C4795.49 1227.24 4791.62 1227.75 4787.67 1228.07C4783.72 1228.39 4779.87 1228.6 4776.12 1228.68C4772.41 1228.76 4769 1228.82 4765.9 1228.86ZM4781.93 1197.71C4784.67 1197.71 4787.07 1198.18 4789.12 1199.1C4791.22 1199.99 4792.87 1201.24 4794.08 1202.85C4795.29 1204.43 4795.9 1206.28 4795.9 1208.42C4795.9 1210.51 4795.29 1212.37 4794.08 1213.98C4792.87 1215.59 4791.22 1216.84 4789.12 1217.73C4787.07 1218.62 4784.67 1219.06 4781.93 1219.06C4779.18 1219.06 4776.77 1218.62 4774.67 1217.73C4772.57 1216.84 4770.92 1215.59 4769.71 1213.98C4768.5 1212.37 4767.9 1210.51 4767.9 1208.42C4767.9 1206.28 4768.5 1204.43 4769.71 1202.85C4770.92 1201.24 4772.57 1199.99 4774.67 1199.1C4776.77 1198.18 4779.18 1197.71 4781.93 1197.71ZM4781.93 1203.52C4779.99 1203.52 4778.42 1203.94 4777.21 1204.79C4776 1205.64 4775.4 1206.84 4775.4 1208.42C4775.4 1209.43 4775.66 1210.31 4776.18 1211.08C4776.75 1211.8 4777.51 1212.37 4778.48 1212.77C4779.49 1213.13 4780.64 1213.32 4781.93 1213.32C4783.22 1213.32 4784.35 1213.13 4785.31 1212.77C4786.28 1212.37 4787.03 1211.8 4787.55 1211.08C4788.11 1210.31 4788.4 1209.43 4788.4 1208.42C4788.4 1206.84 4787.79 1205.64 4786.58 1204.79C4785.41 1203.94 4783.86 1203.52 4781.93 1203.52ZM5182.22 1377.26H5190.32V1433.44H5182.22V1377.26ZM5188.57 1398H5198.43V1404.66H5188.57V1398ZM5148.6 1413.37H5153.31C5156.5 1413.37 5159.48 1413.32 5162.26 1413.24C5165.05 1413.12 5167.75 1412.94 5170.37 1412.7C5172.99 1412.42 5175.67 1412.03 5178.41 1411.55L5179.2 1418.2C5176.37 1418.69 5173.59 1419.07 5170.85 1419.35C5168.15 1419.63 5165.37 1419.82 5162.51 1419.9C5159.64 1419.98 5156.58 1420.02 5153.31 1420.02H5148.6V1413.37ZM5148.6 1382.46H5174.72V1388.93H5156.64V1416.51H5148.6V1382.46ZM5208.42 1428.47C5207.11 1428.47 5206 1428.01 5205.07 1427.1C5204.13 1426.18 5203.68 1425.07 5203.69 1423.75C5203.68 1422.46 5204.13 1421.36 5205.07 1420.44C5206 1419.52 5207.11 1419.07 5208.42 1419.07C5209.68 1419.07 5210.77 1419.52 5211.7 1420.44C5212.65 1421.36 5213.13 1422.46 5213.14 1423.75C5213.13 1424.62 5212.9 1425.42 5212.45 1426.13C5212.02 1426.85 5211.45 1427.42 5210.73 1427.85C5210.03 1428.26 5209.26 1428.47 5208.42 1428.47Z" fill="white"/>
<path d="M2561.12 169.262H2569.16V225.443H2561.12V169.262ZM2538.98 173.193C2541.85 173.193 2544.39 174.019 2546.6 175.672C2548.82 177.285 2550.55 179.603 2551.8 182.627C2553.09 185.61 2553.74 189.138 2553.74 193.21C2553.74 197.322 2553.09 200.89 2551.8 203.914C2550.55 206.897 2548.82 209.215 2546.6 210.868C2544.39 212.481 2541.85 213.287 2538.98 213.287C2536.16 213.287 2533.64 212.481 2531.42 210.868C2529.21 209.215 2527.45 206.897 2526.16 203.914C2524.91 200.89 2524.29 197.322 2524.29 193.21C2524.29 189.138 2524.91 185.61 2526.16 182.627C2527.45 179.603 2529.21 177.285 2531.42 175.672C2533.64 174.019 2536.16 173.193 2538.98 173.193ZM2538.98 180.51C2537.61 180.51 2536.4 180.994 2535.35 181.961C2534.31 182.929 2533.48 184.36 2532.88 186.255C2532.31 188.11 2532.03 190.428 2532.03 193.21C2532.03 195.951 2532.31 198.29 2532.88 200.225C2533.48 202.12 2534.31 203.551 2535.35 204.519C2536.4 205.486 2537.61 205.97 2538.98 205.97C2540.39 205.97 2541.62 205.486 2542.67 204.519C2543.72 203.551 2544.53 202.12 2545.09 200.225C2545.7 198.29 2546 195.951 2546 193.21C2546 190.428 2545.7 188.11 2545.09 186.255C2544.53 184.36 2543.72 182.929 2542.67 181.961C2541.62 180.994 2540.39 180.51 2538.98 180.51ZM2629.33 169.383H2637.37V197.322H2629.33V169.383ZM2634.17 180.087H2644.75V186.618H2634.17V180.087ZM2600.42 199.499H2637.37V214.86H2608.47V221.572H2600.48V209.054H2629.45V205.728H2600.42V199.499ZM2600.48 218.488H2639.01V224.777H2600.48V218.488ZM2608.59 170.955C2611.49 170.955 2614.05 171.499 2616.27 172.588C2618.53 173.676 2620.3 175.168 2621.59 177.063C2622.92 178.958 2623.59 181.155 2623.59 183.655C2623.59 186.114 2622.92 188.311 2621.59 190.247C2620.3 192.182 2618.53 193.694 2616.27 194.782C2614.05 195.83 2611.49 196.354 2608.59 196.354C2605.77 196.354 2603.23 195.83 2600.97 194.782C2598.75 193.694 2596.98 192.182 2595.65 190.247C2594.36 188.311 2593.71 186.114 2593.71 183.655C2593.71 181.155 2594.36 178.958 2595.65 177.063C2596.98 175.168 2598.75 173.676 2600.97 172.588C2603.23 171.499 2605.77 170.955 2608.59 170.955ZM2608.65 177.426C2607.28 177.426 2606.05 177.688 2604.96 178.212C2603.87 178.696 2603 179.401 2602.36 180.329C2601.75 181.216 2601.45 182.324 2601.45 183.655C2601.45 184.985 2601.75 186.134 2602.36 187.102C2603 188.029 2603.87 188.735 2604.96 189.218C2606.05 189.702 2607.28 189.944 2608.65 189.944C2610.02 189.944 2611.25 189.702 2612.34 189.218C2613.43 188.735 2614.27 188.029 2614.88 187.102C2615.48 186.134 2615.78 184.985 2615.78 183.655C2615.78 182.324 2615.48 181.216 2614.88 180.329C2614.27 179.401 2613.43 178.696 2612.34 178.212C2611.25 177.688 2610.02 177.426 2608.65 177.426ZM2671.36 189.944H2680.55V196.415H2671.36V189.944ZM2689.38 169.322H2697.06V225.322H2689.38V169.322ZM2678.01 170.229H2685.51V222.842H2678.01V170.229ZM2661.56 173.253C2664.02 173.253 2666.15 174.08 2667.97 175.733C2669.82 177.345 2671.23 179.684 2672.2 182.748C2673.21 185.771 2673.71 189.4 2673.71 193.633C2673.71 197.826 2673.21 201.454 2672.2 204.519C2671.23 207.583 2669.82 209.941 2667.97 211.594C2666.15 213.207 2664 214.013 2661.5 214.013C2659.08 214.013 2656.94 213.207 2655.09 211.594C2653.27 209.941 2651.86 207.583 2650.85 204.519C2649.89 201.454 2649.4 197.826 2649.4 193.633C2649.4 189.4 2649.89 185.771 2650.85 182.748C2651.86 179.684 2653.27 177.345 2655.09 175.733C2656.94 174.08 2659.1 173.253 2661.56 173.253ZM2661.56 180.873C2660.55 180.873 2659.68 181.337 2658.96 182.264C2658.23 183.191 2657.67 184.602 2657.26 186.497C2656.9 188.352 2656.72 190.73 2656.72 193.633C2656.72 196.455 2656.9 198.814 2657.26 200.709C2657.67 202.603 2658.23 204.035 2658.96 205.002C2659.68 205.93 2660.55 206.393 2661.56 206.393C2662.57 206.393 2663.43 205.93 2664.16 205.002C2664.92 204.035 2665.49 202.603 2665.85 200.709C2666.21 198.814 2666.4 196.455 2666.4 193.633C2666.4 190.73 2666.21 188.352 2665.85 186.497C2665.49 184.602 2664.92 183.191 2664.16 182.264C2663.43 181.337 2662.57 180.873 2661.56 180.873ZM2732.85 186.86H2747.61V193.331H2732.85V186.86ZM2717.61 173.616H2724.08V181.78C2724.08 185.288 2723.78 188.694 2723.18 192C2722.57 195.306 2721.65 198.39 2720.4 201.253C2719.15 204.115 2717.55 206.635 2715.62 208.812C2713.72 210.989 2711.47 212.743 2708.84 214.073L2703.83 207.663C2706.2 206.534 2708.24 205.063 2709.93 203.249C2711.67 201.434 2713.1 199.378 2714.23 197.08C2715.4 194.742 2716.24 192.282 2716.77 189.702C2717.33 187.082 2717.61 184.441 2717.61 181.78V173.616ZM2719.25 173.616H2725.66V181.78C2725.66 184.401 2725.92 187.001 2726.44 189.581C2726.97 192.121 2727.75 194.5 2728.8 196.717C2729.89 198.935 2731.28 200.91 2732.97 202.644C2734.67 204.337 2736.68 205.708 2739.02 206.756L2734.18 213.166C2731.56 211.876 2729.31 210.183 2727.41 208.087C2725.52 205.95 2723.96 203.511 2722.75 200.769C2721.58 198.028 2720.7 195.044 2720.09 191.819C2719.53 188.594 2719.25 185.247 2719.25 181.78V173.616ZM2743.56 169.262H2751.6V225.443H2743.56V169.262Z" fill="white"/>
</svg>
