<svg width="5109" height="1597" viewBox="0 0 5109 1597" fill="none" xmlns="http://www.w3.org/2000/svg">
<line x1="2718.32" y1="288.59" x2="3696.23" y2="980.282" stroke="white" stroke-width="1.49072"/>
<path d="M2745.12 267.064H2752.57V292.941H2745.12V267.064ZM2750.56 277.37H2759.46V283.475H2750.56V277.37ZM2730.34 269.025H2738.57C2738.57 273.618 2737.62 277.632 2735.72 281.067C2733.85 284.465 2731.1 287.265 2727.48 289.468C2723.86 291.671 2719.44 293.314 2714.21 294.397L2711.52 288.292C2715.93 287.47 2719.49 286.313 2722.22 284.819C2724.98 283.288 2727.02 281.552 2728.32 279.61C2729.67 277.632 2730.34 275.559 2730.34 273.393V269.025ZM2714.04 269.025H2735.04V274.906H2714.04V269.025ZM2718.35 295.013H2752.57V309.351H2725.8V315.568H2718.41V303.806H2745.24V300.838H2718.35V295.013ZM2718.41 312.6H2754.09V318.481H2718.41V312.6ZM2981.19 435.008H2988.64V487.041H2981.19V435.008ZM2986.96 454.668H2996.09V460.773H2986.96V454.668ZM2950.11 468.894H2954.42C2957.37 468.894 2960.13 468.857 2962.71 468.782C2965.28 468.707 2967.79 468.558 2970.21 468.334C2972.68 468.072 2975.18 467.736 2977.72 467.326L2978.39 473.319C2975.78 473.767 2973.2 474.121 2970.66 474.383C2968.16 474.607 2965.58 474.775 2962.93 474.887C2960.28 474.999 2957.44 475.055 2954.42 475.055H2950.11V468.894ZM2949.99 439.433H2973.85V459.54H2957.44V471.246H2950.11V453.659H2966.46V445.426H2949.99V439.433ZM3191.1 606.649C3193.75 606.649 3196.08 607.415 3198.1 608.945C3200.15 610.439 3201.76 612.586 3202.92 615.386C3204.11 618.15 3204.71 621.417 3204.71 625.188C3204.71 628.997 3204.11 632.301 3202.92 635.102C3201.76 637.865 3200.15 640.012 3198.1 641.543C3196.08 643.036 3193.75 643.783 3191.1 643.783C3188.45 643.783 3186.1 643.036 3184.04 641.543C3181.99 640.012 3180.36 637.865 3179.17 635.102C3178.01 632.301 3177.43 628.997 3177.43 625.188C3177.43 621.417 3178.01 618.15 3179.17 615.386C3180.36 612.586 3181.99 610.439 3184.04 608.945C3186.1 607.415 3188.45 606.649 3191.1 606.649ZM3191.1 613.426C3189.83 613.426 3188.69 613.874 3187.68 614.77C3186.71 615.667 3185.95 616.992 3185.39 618.747C3184.86 620.465 3184.6 622.612 3184.6 625.188C3184.6 627.727 3184.86 629.893 3185.39 631.685C3185.95 633.44 3186.71 634.766 3187.68 635.662C3188.69 636.558 3189.83 637.006 3191.1 637.006C3192.37 637.006 3193.49 636.558 3194.46 635.662C3195.43 634.766 3196.18 633.44 3196.7 631.685C3197.26 629.893 3197.54 627.727 3197.54 625.188C3197.54 622.612 3197.26 620.465 3196.7 618.747C3196.18 616.992 3195.43 615.667 3194.46 614.77C3193.49 613.874 3192.37 613.426 3191.1 613.426ZM3215.8 615.162H3224.93V621.267H3215.8V615.162ZM3215.8 630.341H3224.93V636.446H3215.8V630.341ZM3210.31 603.12H3217.82V654.985H3210.31V603.12ZM3457.41 771.12H3464.53V803.046H3457.41V771.12ZM3451.14 784.395H3459.37V790.388H3451.14V784.395ZM3446.71 771.793H3453.66V802.486H3446.71V771.793ZM3420.05 776.105H3445.26V781.818H3420.05V776.105ZM3432.71 783.442C3434.92 783.442 3436.86 783.835 3438.54 784.619C3440.22 785.365 3441.52 786.43 3442.46 787.811C3443.43 789.155 3443.91 790.724 3443.91 792.516C3443.91 794.271 3443.43 795.839 3442.46 797.221C3441.52 798.565 3440.22 799.629 3438.54 800.413C3436.86 801.16 3434.92 801.533 3432.71 801.533C3430.58 801.533 3428.66 801.16 3426.94 800.413C3425.26 799.629 3423.94 798.565 3422.97 797.221C3422 795.839 3421.51 794.271 3421.51 792.516C3421.51 790.724 3422 789.155 3422.97 787.811C3423.94 786.43 3425.26 785.365 3426.94 784.619C3428.66 783.835 3430.58 783.442 3432.71 783.442ZM3432.71 788.763C3431.37 788.763 3430.27 789.081 3429.41 789.715C3428.59 790.35 3428.18 791.284 3428.18 792.516C3428.18 793.711 3428.59 794.644 3429.41 795.316C3430.27 795.951 3431.37 796.269 3432.71 796.269C3434.06 796.269 3435.16 795.951 3436.02 795.316C3436.88 794.644 3437.31 793.711 3437.31 792.516C3437.31 791.284 3436.88 790.35 3436.02 789.715C3435.16 789.081 3434.06 788.763 3432.71 788.763ZM3429.02 771.457H3436.35V780.138H3429.02V771.457ZM3432.82 804.67H3438.43V805.678C3438.43 808.105 3438 810.439 3437.14 812.679C3436.32 814.882 3435.05 816.824 3433.33 818.504C3431.61 820.184 3429.39 821.454 3426.66 822.313L3423.19 816.88C3425.47 816.208 3427.3 815.293 3428.68 814.135C3430.1 812.941 3431.14 811.615 3431.82 810.159C3432.49 808.703 3432.82 807.209 3432.82 805.678V804.67ZM3434.73 804.67H3440.05V805.678C3440.05 807.209 3440.35 808.74 3440.95 810.271C3441.54 811.764 3442.48 813.127 3443.75 814.359C3445.02 815.592 3446.68 816.6 3448.73 817.384L3445.82 822.817C3443.13 821.883 3440.96 820.52 3439.32 818.728C3437.72 816.936 3436.54 814.92 3435.79 812.679C3435.08 810.401 3434.73 808.068 3434.73 805.678V804.67ZM3451.53 804.67H3456.85V805.678C3456.85 807.881 3456.48 810.14 3455.73 812.455C3454.99 814.733 3453.81 816.786 3452.2 818.616C3450.6 820.446 3448.47 821.846 3445.82 822.817L3442.85 817.384C3444.9 816.525 3446.57 815.461 3447.83 814.191C3449.1 812.885 3450.04 811.484 3450.64 809.991C3451.23 808.497 3451.53 807.06 3451.53 805.678V804.67ZM3453.32 804.67H3458.87V805.678C3458.87 807.284 3459.2 808.833 3459.88 810.327C3460.55 811.82 3461.59 813.146 3463.01 814.303C3464.47 815.424 3466.32 816.282 3468.56 816.88L3465.03 822.313C3462.3 821.454 3460.08 820.203 3458.36 818.56C3456.65 816.954 3455.38 815.05 3454.56 812.847C3453.73 810.644 3453.32 808.254 3453.32 805.678V804.67ZM3681.49 940.008H3689V992.041H3681.49V940.008ZM3687.37 959.22H3696.5V965.381H3687.37V959.22ZM3650.35 973.446H3654.72C3657.67 973.446 3660.43 973.408 3663.01 973.334C3665.59 973.222 3668.09 973.054 3670.51 972.83C3672.94 972.568 3675.42 972.214 3677.96 971.766L3678.69 977.927C3676.08 978.375 3673.5 978.729 3670.96 978.991C3668.46 979.252 3665.88 979.42 3663.23 979.495C3660.58 979.569 3657.74 979.607 3654.72 979.607H3650.35V973.446ZM3650.35 944.825H3674.55V950.818H3657.8V976.358H3650.35V944.825ZM3705.75 987.438C3704.55 987.438 3703.51 987.013 3702.65 986.165C3701.79 985.316 3701.36 984.282 3701.38 983.062C3701.36 981.868 3701.79 980.847 3702.65 979.999C3703.51 979.15 3704.55 978.726 3705.75 978.726C3706.92 978.726 3707.93 979.15 3708.8 979.999C3709.67 980.847 3710.12 981.868 3710.13 983.062C3710.12 983.871 3709.9 984.607 3709.49 985.27C3709.09 985.933 3708.56 986.463 3707.9 986.861C3707.25 987.245 3706.54 987.438 3705.75 987.438Z" fill="#00C8D1"/>
<path d="M2324.24 134.61H2357.07V140.547H2324.24V134.61ZM2319.43 168.944H2366.36V174.993H2319.43V168.944ZM2353.14 134.61H2360.59V140.771C2360.59 143.198 2360.56 145.663 2360.48 148.164C2360.44 150.666 2360.29 153.336 2360.03 156.174C2359.81 159.011 2359.36 162.223 2358.69 165.807L2351.24 165.135C2351.91 161.812 2352.36 158.75 2352.58 155.95C2352.85 153.149 2353 150.517 2353.03 148.052C2353.11 145.551 2353.14 143.124 2353.14 140.771V134.61ZM2376.72 143.852H2412.68V149.789H2376.72V143.852ZM2370.95 155.165H2417.89V161.102H2370.95V155.165ZM2376.72 131.698H2384.17V146.82H2376.72V131.698ZM2376.27 174.657H2412.96V180.65H2376.27V174.657ZM2376.27 165.191H2383.72V176.281H2376.27V165.191ZM2436.31 159.814H2483.25V165.527H2436.31V159.814ZM2456.08 154.829H2463.48V162.167H2456.08V154.829ZM2442.02 175.049H2477.98V180.874H2442.02V175.049ZM2442.02 168.048H2449.47V178.689H2442.02V168.048ZM2438.55 134.106H2480.84V139.707H2438.55V134.106ZM2459.78 141.107C2465.31 141.107 2469.58 141.798 2472.61 143.18C2475.63 144.524 2477.14 146.465 2477.14 149.004C2477.14 151.581 2475.63 153.56 2472.61 154.941C2469.58 156.286 2465.31 156.958 2459.78 156.958C2454.25 156.958 2449.98 156.286 2446.95 154.941C2443.93 153.56 2442.42 151.581 2442.42 149.004C2442.42 146.465 2443.93 144.524 2446.95 143.18C2449.98 141.798 2454.25 141.107 2459.78 141.107ZM2459.78 146.316C2456.42 146.316 2453.95 146.54 2452.39 146.988C2450.82 147.399 2450.03 148.09 2450.03 149.06C2450.03 149.994 2450.82 150.685 2452.39 151.133C2453.95 151.544 2456.42 151.749 2459.78 151.749C2463.18 151.749 2465.64 151.544 2467.17 151.133C2468.74 150.685 2469.52 149.994 2469.52 149.06C2469.52 148.09 2468.74 147.399 2467.17 146.988C2465.64 146.54 2463.18 146.316 2459.78 146.316ZM2456.08 129.681H2463.48V137.691H2456.08V129.681ZM2487.95 156.286H2534.83V162.223H2487.95V156.286ZM2507.61 148.78H2515.06V159.03H2507.61V148.78ZM2493.6 145.308H2529.67V151.301H2493.6V145.308ZM2493.6 132.37H2529.23V138.251H2501V148.108H2493.6V132.37ZM2493.44 174.881H2530.01V180.874H2493.44V174.881ZM2493.44 165.639H2500.89V176.729H2493.44V165.639ZM2562.88 130.578C2568.78 130.578 2573.38 131.343 2576.66 132.874C2579.98 134.405 2581.65 136.608 2581.65 139.483C2581.65 142.321 2579.98 144.505 2576.66 146.036C2573.38 147.567 2568.78 148.332 2562.88 148.332C2556.95 148.332 2552.32 147.567 2548.99 146.036C2545.71 144.505 2544.06 142.321 2544.06 139.483C2544.06 136.608 2545.71 134.405 2548.99 132.874C2552.32 131.343 2556.95 130.578 2562.88 130.578ZM2562.83 136.066C2560.36 136.066 2558.31 136.197 2556.67 136.458C2555.02 136.682 2553.79 137.056 2552.97 137.579C2552.19 138.064 2551.79 138.699 2551.79 139.483C2551.79 140.267 2552.19 140.921 2552.97 141.443C2553.79 141.929 2555.02 142.283 2556.67 142.507C2558.31 142.731 2560.36 142.843 2562.83 142.843C2565.33 142.843 2567.4 142.731 2569.04 142.507C2570.69 142.283 2571.9 141.929 2572.68 141.443C2573.47 140.921 2573.86 140.267 2573.86 139.483C2573.86 138.699 2573.47 138.064 2572.68 137.579C2571.9 137.056 2570.69 136.682 2569.04 136.458C2567.4 136.197 2565.33 136.066 2562.83 136.066ZM2539.36 150.741H2586.29V156.622H2539.36V150.741ZM2544.74 159.534H2580.58V172.808H2552.19V177.401H2544.79V167.655H2573.24V165.023H2544.74V159.534ZM2544.79 175.777H2581.98V181.434H2544.79V175.777Z" fill="#00C8D1"/>
</svg>
