<svg width="2306" height="79" viewBox="0 0 2306 79" fill="none" xmlns="http://www.w3.org/2000/svg">
<path d="M36.7447 0.933325C42.6958 0.933325 47.8381 1.56888 52.1714 2.83999C56.5047 4.05333 59.8558 5.84444 62.2247 8.21332C64.6514 10.5244 65.8647 13.2978 65.8647 16.5333C65.8647 19.7689 64.6514 22.5711 62.2247 24.94C59.8558 27.2511 56.5047 29.0422 52.1714 30.3133C47.8381 31.5844 42.6958 32.22 36.7447 32.22C30.9092 32.22 25.7958 31.5844 21.4047 30.3133C17.0136 29.0422 13.6336 27.2511 11.2647 24.94C8.89583 22.5711 7.71139 19.7689 7.71139 16.5333C7.71139 13.2978 8.89583 10.5244 11.2647 8.21332C13.6336 5.84444 17.0136 4.05333 21.4047 2.83999C25.7958 1.56888 30.9092 0.933325 36.7447 0.933325ZM36.7447 9.77332C33.1625 9.77332 30.0714 10.0333 27.4714 10.5533C24.8714 11.0155 22.9069 11.7378 21.5781 12.72C20.3069 13.7022 19.6714 14.9733 19.6714 16.5333C19.6714 18.0355 20.3069 19.3067 21.5781 20.3467C22.9069 21.3289 24.8714 22.08 27.4714 22.6C30.0714 23.0622 33.1625 23.2933 36.7447 23.2933C40.4425 23.2933 43.5625 23.0622 46.1047 22.6C48.6469 22.08 50.5825 21.3289 51.9114 20.3467C53.2403 19.3067 53.9047 18.0355 53.9047 16.5333C53.9047 14.9733 53.2403 13.7022 51.9114 12.72C50.5825 11.7378 48.6469 11.0155 46.1047 10.5533C43.5625 10.0333 40.4425 9.77332 36.7447 9.77332ZM8.92472 51.46H64.3914V78.8467H8.92472V51.46ZM53.1247 60.56H20.1914V69.7467H53.1247V60.56ZM0.431389 36.8133H73.0581V45.8267H0.431389V36.8133ZM116.471 0.933325C122.422 0.933325 127.565 1.56888 131.898 2.83999C136.231 4.05333 139.582 5.84444 141.951 8.21332C144.378 10.5244 145.591 13.2978 145.591 16.5333C145.591 19.7689 144.378 22.5711 141.951 24.94C139.582 27.2511 136.231 29.0422 131.898 30.3133C127.565 31.5844 122.422 32.22 116.471 32.22C110.636 32.22 105.522 31.5844 101.131 30.3133C96.7402 29.0422 93.3602 27.2511 90.9913 24.94C88.6224 22.5711 87.438 19.7689 87.438 16.5333C87.438 13.2978 88.6224 10.5244 90.9913 8.21332C93.3602 5.84444 96.7402 4.05333 101.131 2.83999C105.522 1.56888 110.636 0.933325 116.471 0.933325ZM116.471 9.77332C112.889 9.77332 109.798 10.0333 107.198 10.5533C104.598 11.0155 102.634 11.7378 101.305 12.72C100.034 13.7022 99.398 14.9733 99.398 16.5333C99.398 18.0355 100.034 19.3067 101.305 20.3467C102.634 21.3289 104.598 22.08 107.198 22.6C109.798 23.0622 112.889 23.2933 116.471 23.2933C120.169 23.2933 123.289 23.0622 125.831 22.6C128.374 22.08 130.309 21.3289 131.638 20.3467C132.967 19.3067 133.631 18.0355 133.631 16.5333C133.631 14.9733 132.967 13.7022 131.638 12.72C130.309 11.7378 128.374 11.0155 125.831 10.5533C123.289 10.0333 120.169 9.77332 116.471 9.77332ZM88.6513 51.46H144.118V78.8467H88.6513V51.46ZM132.851 60.56H99.918V69.7467H132.851V60.56ZM80.158 36.8133H152.785V45.8267H80.158V36.8133ZM196.198 0.933325C202.149 0.933325 207.291 1.56888 211.625 2.83999C215.958 4.05333 219.309 5.84444 221.678 8.21332C224.105 10.5244 225.318 13.2978 225.318 16.5333C225.318 19.7689 224.105 22.5711 221.678 24.94C219.309 27.2511 215.958 29.0422 211.625 30.3133C207.291 31.5844 202.149 32.22 196.198 32.22C190.362 32.22 185.249 31.5844 180.858 30.3133C176.467 29.0422 173.087 27.2511 170.718 24.94C168.349 22.5711 167.165 19.7689 167.165 16.5333C167.165 13.2978 168.349 10.5244 170.718 8.21332C173.087 5.84444 176.467 4.05333 180.858 2.83999C185.249 1.56888 190.362 0.933325 196.198 0.933325ZM196.198 9.77332C192.616 9.77332 189.525 10.0333 186.925 10.5533C184.325 11.0155 182.36 11.7378 181.031 12.72C179.76 13.7022 179.125 14.9733 179.125 16.5333C179.125 18.0355 179.76 19.3067 181.031 20.3467C182.36 21.3289 184.325 22.08 186.925 22.6C189.525 23.0622 192.616 23.2933 196.198 23.2933C199.896 23.2933 203.016 23.0622 205.558 22.6C208.1 22.08 210.036 21.3289 211.365 20.3467C212.693 19.3067 213.358 18.0355 213.358 16.5333C213.358 14.9733 212.693 13.7022 211.365 12.72C210.036 11.7378 208.1 11.0155 205.558 10.5533C203.016 10.0333 199.896 9.77332 196.198 9.77332ZM168.378 51.46H223.845V78.8467H168.378V51.46ZM212.578 60.56H179.645V69.7467H212.578V60.56ZM159.885 36.8133H232.511V45.8267H159.885V36.8133ZM275.924 0.933325C281.876 0.933325 287.018 1.56888 291.351 2.83999C295.684 4.05333 299.036 5.84444 301.404 8.21332C303.831 10.5244 305.044 13.2978 305.044 16.5333C305.044 19.7689 303.831 22.5711 301.404 24.94C299.036 27.2511 295.684 29.0422 291.351 30.3133C287.018 31.5844 281.876 32.22 275.924 32.22C270.089 32.22 264.976 31.5844 260.584 30.3133C256.193 29.0422 252.813 27.2511 250.444 24.94C248.076 22.5711 246.891 19.7689 246.891 16.5333C246.891 13.2978 248.076 10.5244 250.444 8.21332C252.813 5.84444 256.193 4.05333 260.584 2.83999C264.976 1.56888 270.089 0.933325 275.924 0.933325ZM275.924 9.77332C272.342 9.77332 269.251 10.0333 266.651 10.5533C264.051 11.0155 262.087 11.7378 260.758 12.72C259.487 13.7022 258.851 14.9733 258.851 16.5333C258.851 18.0355 259.487 19.3067 260.758 20.3467C262.087 21.3289 264.051 22.08 266.651 22.6C269.251 23.0622 272.342 23.2933 275.924 23.2933C279.622 23.2933 282.742 23.0622 285.284 22.6C287.827 22.08 289.762 21.3289 291.091 20.3467C292.42 19.3067 293.084 18.0355 293.084 16.5333C293.084 14.9733 292.42 13.7022 291.091 12.72C289.762 11.7378 287.827 11.0155 285.284 10.5533C282.742 10.0333 279.622 9.77332 275.924 9.77332ZM248.104 51.46H303.571V78.8467H248.104V51.46ZM292.304 60.56H259.371V69.7467H292.304V60.56ZM239.611 36.8133H312.238V45.8267H239.611V36.8133ZM355.651 0.933325C361.602 0.933325 366.744 1.56888 371.078 2.83999C375.411 4.05333 378.762 5.84444 381.131 8.21332C383.558 10.5244 384.771 13.2978 384.771 16.5333C384.771 19.7689 383.558 22.5711 381.131 24.94C378.762 27.2511 375.411 29.0422 371.078 30.3133C366.744 31.5844 361.602 32.22 355.651 32.22C349.815 32.22 344.702 31.5844 340.311 30.3133C335.92 29.0422 332.54 27.2511 330.171 24.94C327.802 22.5711 326.618 19.7689 326.618 16.5333C326.618 13.2978 327.802 10.5244 330.171 8.21332C332.54 5.84444 335.92 4.05333 340.311 2.83999C344.702 1.56888 349.815 0.933325 355.651 0.933325ZM355.651 9.77332C352.069 9.77332 348.978 10.0333 346.378 10.5533C343.778 11.0155 341.813 11.7378 340.484 12.72C339.213 13.7022 338.578 14.9733 338.578 16.5333C338.578 18.0355 339.213 19.3067 340.484 20.3467C341.813 21.3289 343.778 22.08 346.378 22.6C348.978 23.0622 352.069 23.2933 355.651 23.2933C359.349 23.2933 362.469 23.0622 365.011 22.6C367.553 22.08 369.489 21.3289 370.818 20.3467C372.147 19.3067 372.811 18.0355 372.811 16.5333C372.811 14.9733 372.147 13.7022 370.818 12.72C369.489 11.7378 367.553 11.0155 365.011 10.5533C362.469 10.0333 359.349 9.77332 355.651 9.77332ZM327.831 51.46H383.298V78.8467H327.831V51.46ZM372.031 60.56H339.098V69.7467H372.031V60.56ZM319.338 36.8133H391.964V45.8267H319.338V36.8133ZM435.378 0.933325C441.329 0.933325 446.471 1.56888 450.804 2.83999C455.138 4.05333 458.489 5.84444 460.858 8.21332C463.284 10.5244 464.498 13.2978 464.498 16.5333C464.498 19.7689 463.284 22.5711 460.858 24.94C458.489 27.2511 455.138 29.0422 450.804 30.3133C446.471 31.5844 441.329 32.22 435.378 32.22C429.542 32.22 424.429 31.5844 420.038 30.3133C415.646 29.0422 412.266 27.2511 409.898 24.94C407.529 22.5711 406.344 19.7689 406.344 16.5333C406.344 13.2978 407.529 10.5244 409.898 8.21332C412.266 5.84444 415.646 4.05333 420.038 2.83999C424.429 1.56888 429.542 0.933325 435.378 0.933325ZM435.378 9.77332C431.795 9.77332 428.704 10.0333 426.104 10.5533C423.504 11.0155 421.54 11.7378 420.211 12.72C418.94 13.7022 418.304 14.9733 418.304 16.5333C418.304 18.0355 418.94 19.3067 420.211 20.3467C421.54 21.3289 423.504 22.08 426.104 22.6C428.704 23.0622 431.795 23.2933 435.378 23.2933C439.075 23.2933 442.195 23.0622 444.738 22.6C447.28 22.08 449.215 21.3289 450.544 20.3467C451.873 19.3067 452.538 18.0355 452.538 16.5333C452.538 14.9733 451.873 13.7022 450.544 12.72C449.215 11.7378 447.28 11.0155 444.738 10.5533C442.195 10.0333 439.075 9.77332 435.378 9.77332ZM407.558 51.46H463.024V78.8467H407.558V51.46ZM451.758 60.56H418.824V69.7467H451.758V60.56ZM399.064 36.8133H471.691V45.8267H399.064V36.8133ZM515.104 0.933325C521.055 0.933325 526.197 1.56888 530.531 2.83999C534.864 4.05333 538.215 5.84444 540.584 8.21332C543.011 10.5244 544.224 13.2978 544.224 16.5333C544.224 19.7689 543.011 22.5711 540.584 24.94C538.215 27.2511 534.864 29.0422 530.531 30.3133C526.197 31.5844 521.055 32.22 515.104 32.22C509.269 32.22 504.155 31.5844 499.764 30.3133C495.373 29.0422 491.993 27.2511 489.624 24.94C487.255 22.5711 486.071 19.7689 486.071 16.5333C486.071 13.2978 487.255 10.5244 489.624 8.21332C491.993 5.84444 495.373 4.05333 499.764 2.83999C504.155 1.56888 509.269 0.933325 515.104 0.933325ZM515.104 9.77332C511.522 9.77332 508.431 10.0333 505.831 10.5533C503.231 11.0155 501.266 11.7378 499.937 12.72C498.666 13.7022 498.031 14.9733 498.031 16.5333C498.031 18.0355 498.666 19.3067 499.937 20.3467C501.266 21.3289 503.231 22.08 505.831 22.6C508.431 23.0622 511.522 23.2933 515.104 23.2933C518.802 23.2933 521.922 23.0622 524.464 22.6C527.006 22.08 528.942 21.3289 530.271 20.3467C531.6 19.3067 532.264 18.0355 532.264 16.5333C532.264 14.9733 531.6 13.7022 530.271 12.72C528.942 11.7378 527.006 11.0155 524.464 10.5533C521.922 10.0333 518.802 9.77332 515.104 9.77332ZM487.284 51.46H542.751V78.8467H487.284V51.46ZM531.484 60.56H498.551V69.7467H531.484V60.56ZM478.791 36.8133H551.417V45.8267H478.791V36.8133ZM594.831 0.933325C600.782 0.933325 605.924 1.56888 610.257 2.83999C614.591 4.05333 617.942 5.84444 620.311 8.21332C622.737 10.5244 623.951 13.2978 623.951 16.5333C623.951 19.7689 622.737 22.5711 620.311 24.94C617.942 27.2511 614.591 29.0422 610.257 30.3133C605.924 31.5844 600.782 32.22 594.831 32.22C588.995 32.22 583.882 31.5844 579.491 30.3133C575.1 29.0422 571.72 27.2511 569.351 24.94C566.982 22.5711 565.797 19.7689 565.797 16.5333C565.797 13.2978 566.982 10.5244 569.351 8.21332C571.72 5.84444 575.1 4.05333 579.491 2.83999C583.882 1.56888 588.995 0.933325 594.831 0.933325ZM594.831 9.77332C591.249 9.77332 588.157 10.0333 585.557 10.5533C582.957 11.0155 580.993 11.7378 579.664 12.72C578.393 13.7022 577.757 14.9733 577.757 16.5333C577.757 18.0355 578.393 19.3067 579.664 20.3467C580.993 21.3289 582.957 22.08 585.557 22.6C588.157 23.0622 591.249 23.2933 594.831 23.2933C598.529 23.2933 601.649 23.0622 604.191 22.6C606.733 22.08 608.669 21.3289 609.997 20.3467C611.326 19.3067 611.991 18.0355 611.991 16.5333C611.991 14.9733 611.326 13.7022 609.997 12.72C608.669 11.7378 606.733 11.0155 604.191 10.5533C601.649 10.0333 598.529 9.77332 594.831 9.77332ZM567.011 51.46H622.477V78.8467H567.011V51.46ZM611.211 60.56H578.277V69.7467H611.211V60.56ZM558.517 36.8133H631.144V45.8267H558.517V36.8133ZM674.557 0.933325C680.508 0.933325 685.651 1.56888 689.984 2.83999C694.317 4.05333 697.668 5.84444 700.037 8.21332C702.464 10.5244 703.677 13.2978 703.677 16.5333C703.677 19.7689 702.464 22.5711 700.037 24.94C697.668 27.2511 694.317 29.0422 689.984 30.3133C685.651 31.5844 680.508 32.22 674.557 32.22C668.722 32.22 663.608 31.5844 659.217 30.3133C654.826 29.0422 651.446 27.2511 649.077 24.94C646.708 22.5711 645.524 19.7689 645.524 16.5333C645.524 13.2978 646.708 10.5244 649.077 8.21332C651.446 5.84444 654.826 4.05333 659.217 2.83999C663.608 1.56888 668.722 0.933325 674.557 0.933325ZM674.557 9.77332C670.975 9.77332 667.884 10.0333 665.284 10.5533C662.684 11.0155 660.72 11.7378 659.391 12.72C658.12 13.7022 657.484 14.9733 657.484 16.5333C657.484 18.0355 658.12 19.3067 659.391 20.3467C660.72 21.3289 662.684 22.08 665.284 22.6C667.884 23.0622 670.975 23.2933 674.557 23.2933C678.255 23.2933 681.375 23.0622 683.917 22.6C686.46 22.08 688.395 21.3289 689.724 20.3467C691.053 19.3067 691.717 18.0355 691.717 16.5333C691.717 14.9733 691.053 13.7022 689.724 12.72C688.395 11.7378 686.46 11.0155 683.917 10.5533C681.375 10.0333 678.255 9.77332 674.557 9.77332ZM646.737 51.46H702.204V78.8467H646.737V51.46ZM690.937 60.56H658.004V69.7467H690.937V60.56ZM638.244 36.8133H710.871V45.8267H638.244V36.8133ZM754.284 0.933325C760.235 0.933325 765.377 1.56888 769.711 2.83999C774.044 4.05333 777.395 5.84444 779.764 8.21332C782.191 10.5244 783.404 13.2978 783.404 16.5333C783.404 19.7689 782.191 22.5711 779.764 24.94C777.395 27.2511 774.044 29.0422 769.711 30.3133C765.377 31.5844 760.235 32.22 754.284 32.22C748.448 32.22 743.335 31.5844 738.944 30.3133C734.553 29.0422 731.173 27.2511 728.804 24.94C726.435 22.5711 725.251 19.7689 725.251 16.5333C725.251 13.2978 726.435 10.5244 728.804 8.21332C731.173 5.84444 734.553 4.05333 738.944 2.83999C743.335 1.56888 748.448 0.933325 754.284 0.933325ZM754.284 9.77332C750.702 9.77332 747.611 10.0333 745.011 10.5533C742.411 11.0155 740.446 11.7378 739.117 12.72C737.846 13.7022 737.211 14.9733 737.211 16.5333C737.211 18.0355 737.846 19.3067 739.117 20.3467C740.446 21.3289 742.411 22.08 745.011 22.6C747.611 23.0622 750.702 23.2933 754.284 23.2933C757.982 23.2933 761.102 23.0622 763.644 22.6C766.186 22.08 768.122 21.3289 769.451 20.3467C770.779 19.3067 771.444 18.0355 771.444 16.5333C771.444 14.9733 770.779 13.7022 769.451 12.72C768.122 11.7378 766.186 11.0155 763.644 10.5533C761.102 10.0333 757.982 9.77332 754.284 9.77332ZM726.464 51.46H781.931V78.8467H726.464V51.46ZM770.664 60.56H737.731V69.7467H770.664V60.56ZM717.971 36.8133H790.597V45.8267H717.971V36.8133ZM834.01 0.933325C839.962 0.933325 845.104 1.56888 849.437 2.83999C853.77 4.05333 857.122 5.84444 859.49 8.21332C861.917 10.5244 863.13 13.2978 863.13 16.5333C863.13 19.7689 861.917 22.5711 859.49 24.94C857.122 27.2511 853.77 29.0422 849.437 30.3133C845.104 31.5844 839.962 32.22 834.01 32.22C828.175 32.22 823.062 31.5844 818.67 30.3133C814.279 29.0422 810.899 27.2511 808.53 24.94C806.162 22.5711 804.977 19.7689 804.977 16.5333C804.977 13.2978 806.162 10.5244 808.53 8.21332C810.899 5.84444 814.279 4.05333 818.67 2.83999C823.062 1.56888 828.175 0.933325 834.01 0.933325ZM834.01 9.77332C830.428 9.77332 827.337 10.0333 824.737 10.5533C822.137 11.0155 820.173 11.7378 818.844 12.72C817.573 13.7022 816.937 14.9733 816.937 16.5333C816.937 18.0355 817.573 19.3067 818.844 20.3467C820.173 21.3289 822.137 22.08 824.737 22.6C827.337 23.0622 830.428 23.2933 834.01 23.2933C837.708 23.2933 840.828 23.0622 843.37 22.6C845.913 22.08 847.848 21.3289 849.177 20.3467C850.506 19.3067 851.17 18.0355 851.17 16.5333C851.17 14.9733 850.506 13.7022 849.177 12.72C847.848 11.7378 845.913 11.0155 843.37 10.5533C840.828 10.0333 837.708 9.77332 834.01 9.77332ZM806.19 51.46H861.657V78.8467H806.19V51.46ZM850.39 60.56H817.457V69.7467H850.39V60.56ZM797.697 36.8133H870.324V45.8267H797.697V36.8133ZM913.737 0.933325C919.688 0.933325 924.83 1.56888 929.164 2.83999C933.497 4.05333 936.848 5.84444 939.217 8.21332C941.644 10.5244 942.857 13.2978 942.857 16.5333C942.857 19.7689 941.644 22.5711 939.217 24.94C936.848 27.2511 933.497 29.0422 929.164 30.3133C924.83 31.5844 919.688 32.22 913.737 32.22C907.901 32.22 902.788 31.5844 898.397 30.3133C894.006 29.0422 890.626 27.2511 888.257 24.94C885.888 22.5711 884.704 19.7689 884.704 16.5333C884.704 13.2978 885.888 10.5244 888.257 8.21332C890.626 5.84444 894.006 4.05333 898.397 2.83999C902.788 1.56888 907.901 0.933325 913.737 0.933325ZM913.737 9.77332C910.155 9.77332 907.064 10.0333 904.464 10.5533C901.864 11.0155 899.899 11.7378 898.57 12.72C897.299 13.7022 896.664 14.9733 896.664 16.5333C896.664 18.0355 897.299 19.3067 898.57 20.3467C899.899 21.3289 901.864 22.08 904.464 22.6C907.064 23.0622 910.155 23.2933 913.737 23.2933C917.435 23.2933 920.555 23.0622 923.097 22.6C925.639 22.08 927.575 21.3289 928.904 20.3467C930.233 19.3067 930.897 18.0355 930.897 16.5333C930.897 14.9733 930.233 13.7022 928.904 12.72C927.575 11.7378 925.639 11.0155 923.097 10.5533C920.555 10.0333 917.435 9.77332 913.737 9.77332ZM885.917 51.46H941.384V78.8467H885.917V51.46ZM930.117 60.56H897.184V69.7467H930.117V60.56ZM877.424 36.8133H950.05V45.8267H877.424V36.8133ZM993.464 0.933325C999.415 0.933325 1004.56 1.56888 1008.89 2.83999C1013.22 4.05333 1016.57 5.84444 1018.94 8.21332C1021.37 10.5244 1022.58 13.2978 1022.58 16.5333C1022.58 19.7689 1021.37 22.5711 1018.94 24.94C1016.57 27.2511 1013.22 29.0422 1008.89 30.3133C1004.56 31.5844 999.415 32.22 993.464 32.22C987.628 32.22 982.515 31.5844 978.124 30.3133C973.732 29.0422 970.352 27.2511 967.984 24.94C965.615 22.5711 964.43 19.7689 964.43 16.5333C964.43 13.2978 965.615 10.5244 967.984 8.21332C970.352 5.84444 973.732 4.05333 978.124 2.83999C982.515 1.56888 987.628 0.933325 993.464 0.933325ZM993.464 9.77332C989.881 9.77332 986.79 10.0333 984.19 10.5533C981.59 11.0155 979.626 11.7378 978.297 12.72C977.026 13.7022 976.39 14.9733 976.39 16.5333C976.39 18.0355 977.026 19.3067 978.297 20.3467C979.626 21.3289 981.59 22.08 984.19 22.6C986.79 23.0622 989.881 23.2933 993.464 23.2933C997.161 23.2933 1000.28 23.0622 1002.82 22.6C1005.37 22.08 1007.3 21.3289 1008.63 20.3467C1009.96 19.3067 1010.62 18.0355 1010.62 16.5333C1010.62 14.9733 1009.96 13.7022 1008.63 12.72C1007.3 11.7378 1005.37 11.0155 1002.82 10.5533C1000.28 10.0333 997.161 9.77332 993.464 9.77332ZM965.644 51.46H1021.11V78.8467H965.644V51.46ZM1009.84 60.56H976.91V69.7467H1009.84V60.56ZM957.15 36.8133H1029.78V45.8267H957.15V36.8133ZM1073.19 0.933325C1079.14 0.933325 1084.28 1.56888 1088.62 2.83999C1092.95 4.05333 1096.3 5.84444 1098.67 8.21332C1101.1 10.5244 1102.31 13.2978 1102.31 16.5333C1102.31 19.7689 1101.1 22.5711 1098.67 24.94C1096.3 27.2511 1092.95 29.0422 1088.62 30.3133C1084.28 31.5844 1079.14 32.22 1073.19 32.22C1067.35 32.22 1062.24 31.5844 1057.85 30.3133C1053.46 29.0422 1050.08 27.2511 1047.71 24.94C1045.34 22.5711 1044.16 19.7689 1044.16 16.5333C1044.16 13.2978 1045.34 10.5244 1047.71 8.21332C1050.08 5.84444 1053.46 4.05333 1057.85 2.83999C1062.24 1.56888 1067.35 0.933325 1073.19 0.933325ZM1073.19 9.77332C1069.61 9.77332 1066.52 10.0333 1063.92 10.5533C1061.32 11.0155 1059.35 11.7378 1058.02 12.72C1056.75 13.7022 1056.12 14.9733 1056.12 16.5333C1056.12 18.0355 1056.75 19.3067 1058.02 20.3467C1059.35 21.3289 1061.32 22.08 1063.92 22.6C1066.52 23.0622 1069.61 23.2933 1073.19 23.2933C1076.89 23.2933 1080.01 23.0622 1082.55 22.6C1085.09 22.08 1087.03 21.3289 1088.36 20.3467C1089.69 19.3067 1090.35 18.0355 1090.35 16.5333C1090.35 14.9733 1089.69 13.7022 1088.36 12.72C1087.03 11.7378 1085.09 11.0155 1082.55 10.5533C1080.01 10.0333 1076.89 9.77332 1073.19 9.77332ZM1045.37 51.46H1100.84V78.8467H1045.37V51.46ZM1089.57 60.56H1056.64V69.7467H1089.57V60.56ZM1036.88 36.8133H1109.5V45.8267H1036.88V36.8133ZM1152.92 0.933325C1158.87 0.933325 1164.01 1.56888 1168.34 2.83999C1172.68 4.05333 1176.03 5.84444 1178.4 8.21332C1180.82 10.5244 1182.04 13.2978 1182.04 16.5333C1182.04 19.7689 1180.82 22.5711 1178.4 24.94C1176.03 27.2511 1172.68 29.0422 1168.34 30.3133C1164.01 31.5844 1158.87 32.22 1152.92 32.22C1147.08 32.22 1141.97 31.5844 1137.58 30.3133C1133.19 29.0422 1129.81 27.2511 1127.44 24.94C1125.07 22.5711 1123.88 19.7689 1123.88 16.5333C1123.88 13.2978 1125.07 10.5244 1127.44 8.21332C1129.81 5.84444 1133.19 4.05333 1137.58 2.83999C1141.97 1.56888 1147.08 0.933325 1152.92 0.933325ZM1152.92 9.77332C1149.33 9.77332 1146.24 10.0333 1143.64 10.5533C1141.04 11.0155 1139.08 11.7378 1137.75 12.72C1136.48 13.7022 1135.84 14.9733 1135.84 16.5333C1135.84 18.0355 1136.48 19.3067 1137.75 20.3467C1139.08 21.3289 1141.04 22.08 1143.64 22.6C1146.24 23.0622 1149.33 23.2933 1152.92 23.2933C1156.61 23.2933 1159.73 23.0622 1162.28 22.6C1164.82 22.08 1166.75 21.3289 1168.08 20.3467C1169.41 19.3067 1170.08 18.0355 1170.08 16.5333C1170.08 14.9733 1169.41 13.7022 1168.08 12.72C1166.75 11.7378 1164.82 11.0155 1162.28 10.5533C1159.73 10.0333 1156.61 9.77332 1152.92 9.77332ZM1125.1 51.46H1180.56V78.8467H1125.1V51.46ZM1169.3 60.56H1136.36V69.7467H1169.3V60.56ZM1116.6 36.8133H1189.23V45.8267H1116.6V36.8133ZM1232.64 0.933325C1238.59 0.933325 1243.74 1.56888 1248.07 2.83999C1252.4 4.05333 1255.75 5.84444 1258.12 8.21332C1260.55 10.5244 1261.76 13.2978 1261.76 16.5333C1261.76 19.7689 1260.55 22.5711 1258.12 24.94C1255.75 27.2511 1252.4 29.0422 1248.07 30.3133C1243.74 31.5844 1238.59 32.22 1232.64 32.22C1226.81 32.22 1221.69 31.5844 1217.3 30.3133C1212.91 29.0422 1209.53 27.2511 1207.16 24.94C1204.79 22.5711 1203.61 19.7689 1203.61 16.5333C1203.61 13.2978 1204.79 10.5244 1207.16 8.21332C1209.53 5.84444 1212.91 4.05333 1217.3 2.83999C1221.69 1.56888 1226.81 0.933325 1232.64 0.933325ZM1232.64 9.77332C1229.06 9.77332 1225.97 10.0333 1223.37 10.5533C1220.77 11.0155 1218.81 11.7378 1217.48 12.72C1216.21 13.7022 1215.57 14.9733 1215.57 16.5333C1215.57 18.0355 1216.21 19.3067 1217.48 20.3467C1218.81 21.3289 1220.77 22.08 1223.37 22.6C1225.97 23.0622 1229.06 23.2933 1232.64 23.2933C1236.34 23.2933 1239.46 23.0622 1242 22.6C1244.55 22.08 1246.48 21.3289 1247.81 20.3467C1249.14 19.3067 1249.8 18.0355 1249.8 16.5333C1249.8 14.9733 1249.14 13.7022 1247.81 12.72C1246.48 11.7378 1244.55 11.0155 1242 10.5533C1239.46 10.0333 1236.34 9.77332 1232.64 9.77332ZM1204.82 51.46H1260.29V78.8467H1204.82V51.46ZM1249.02 60.56H1216.09V69.7467H1249.02V60.56ZM1196.33 36.8133H1268.96V45.8267H1196.33V36.8133ZM1312.37 0.933325C1318.32 0.933325 1323.46 1.56888 1327.8 2.83999C1332.13 4.05333 1335.48 5.84444 1337.85 8.21332C1340.28 10.5244 1341.49 13.2978 1341.49 16.5333C1341.49 19.7689 1340.28 22.5711 1337.85 24.94C1335.48 27.2511 1332.13 29.0422 1327.8 30.3133C1323.46 31.5844 1318.32 32.22 1312.37 32.22C1306.53 32.22 1301.42 31.5844 1297.03 30.3133C1292.64 29.0422 1289.26 27.2511 1286.89 24.94C1284.52 22.5711 1283.34 19.7689 1283.34 16.5333C1283.34 13.2978 1284.52 10.5244 1286.89 8.21332C1289.26 5.84444 1292.64 4.05333 1297.03 2.83999C1301.42 1.56888 1306.53 0.933325 1312.37 0.933325ZM1312.37 9.77332C1308.79 9.77332 1305.7 10.0333 1303.1 10.5533C1300.5 11.0155 1298.53 11.7378 1297.2 12.72C1295.93 13.7022 1295.3 14.9733 1295.3 16.5333C1295.3 18.0355 1295.93 19.3067 1297.2 20.3467C1298.53 21.3289 1300.5 22.08 1303.1 22.6C1305.7 23.0622 1308.79 23.2933 1312.37 23.2933C1316.07 23.2933 1319.19 23.0622 1321.73 22.6C1324.27 22.08 1326.21 21.3289 1327.54 20.3467C1328.87 19.3067 1329.53 18.0355 1329.53 16.5333C1329.53 14.9733 1328.87 13.7022 1327.54 12.72C1326.21 11.7378 1324.27 11.0155 1321.73 10.5533C1319.19 10.0333 1316.07 9.77332 1312.37 9.77332ZM1284.55 51.46H1340.02V78.8467H1284.55V51.46ZM1328.75 60.56H1295.82V69.7467H1328.75V60.56ZM1276.06 36.8133H1348.68V45.8267H1276.06V36.8133ZM1392.1 0.933325C1398.05 0.933325 1403.19 1.56888 1407.52 2.83999C1411.86 4.05333 1415.21 5.84444 1417.58 8.21332C1420 10.5244 1421.22 13.2978 1421.22 16.5333C1421.22 19.7689 1420 22.5711 1417.58 24.94C1415.21 27.2511 1411.86 29.0422 1407.52 30.3133C1403.19 31.5844 1398.05 32.22 1392.1 32.22C1386.26 32.22 1381.15 31.5844 1376.76 30.3133C1372.37 29.0422 1368.99 27.2511 1366.62 24.94C1364.25 22.5711 1363.06 19.7689 1363.06 16.5333C1363.06 13.2978 1364.25 10.5244 1366.62 8.21332C1368.99 5.84444 1372.37 4.05333 1376.76 2.83999C1381.15 1.56888 1386.26 0.933325 1392.1 0.933325ZM1392.1 9.77332C1388.51 9.77332 1385.42 10.0333 1382.82 10.5533C1380.22 11.0155 1378.26 11.7378 1376.93 12.72C1375.66 13.7022 1375.02 14.9733 1375.02 16.5333C1375.02 18.0355 1375.66 19.3067 1376.93 20.3467C1378.26 21.3289 1380.22 22.08 1382.82 22.6C1385.42 23.0622 1388.51 23.2933 1392.1 23.2933C1395.79 23.2933 1398.91 23.0622 1401.46 22.6C1404 22.08 1405.93 21.3289 1407.26 20.3467C1408.59 19.3067 1409.26 18.0355 1409.26 16.5333C1409.26 14.9733 1408.59 13.7022 1407.26 12.72C1405.93 11.7378 1404 11.0155 1401.46 10.5533C1398.91 10.0333 1395.79 9.77332 1392.1 9.77332ZM1364.28 51.46H1419.74V78.8467H1364.28V51.46ZM1408.48 60.56H1375.54V69.7467H1408.48V60.56ZM1355.78 36.8133H1428.41V45.8267H1355.78V36.8133ZM1471.82 0.933325C1477.77 0.933325 1482.92 1.56888 1487.25 2.83999C1491.58 4.05333 1494.93 5.84444 1497.3 8.21332C1499.73 10.5244 1500.94 13.2978 1500.94 16.5333C1500.94 19.7689 1499.73 22.5711 1497.3 24.94C1494.93 27.2511 1491.58 29.0422 1487.25 30.3133C1482.92 31.5844 1477.77 32.22 1471.82 32.22C1465.99 32.22 1460.87 31.5844 1456.48 30.3133C1452.09 29.0422 1448.71 27.2511 1446.34 24.94C1443.97 22.5711 1442.79 19.7689 1442.79 16.5333C1442.79 13.2978 1443.97 10.5244 1446.34 8.21332C1448.71 5.84444 1452.09 4.05333 1456.48 2.83999C1460.87 1.56888 1465.99 0.933325 1471.82 0.933325ZM1471.82 9.77332C1468.24 9.77332 1465.15 10.0333 1462.55 10.5533C1459.95 11.0155 1457.99 11.7378 1456.66 12.72C1455.39 13.7022 1454.75 14.9733 1454.75 16.5333C1454.75 18.0355 1455.39 19.3067 1456.66 20.3467C1457.99 21.3289 1459.95 22.08 1462.55 22.6C1465.15 23.0622 1468.24 23.2933 1471.82 23.2933C1475.52 23.2933 1478.64 23.0622 1481.18 22.6C1483.73 22.08 1485.66 21.3289 1486.99 20.3467C1488.32 19.3067 1488.98 18.0355 1488.98 16.5333C1488.98 14.9733 1488.32 13.7022 1486.99 12.72C1485.66 11.7378 1483.73 11.0155 1481.18 10.5533C1478.64 10.0333 1475.52 9.77332 1471.82 9.77332ZM1444 51.46H1499.47V78.8467H1444V51.46ZM1488.2 60.56H1455.27V69.7467H1488.2V60.56ZM1435.51 36.8133H1508.14V45.8267H1435.51V36.8133ZM1551.55 0.933325C1557.5 0.933325 1562.64 1.56888 1566.98 2.83999C1571.31 4.05333 1574.66 5.84444 1577.03 8.21332C1579.46 10.5244 1580.67 13.2978 1580.67 16.5333C1580.67 19.7689 1579.46 22.5711 1577.03 24.94C1574.66 27.2511 1571.31 29.0422 1566.98 30.3133C1562.64 31.5844 1557.5 32.22 1551.55 32.22C1545.71 32.22 1540.6 31.5844 1536.21 30.3133C1531.82 29.0422 1528.44 27.2511 1526.07 24.94C1523.7 22.5711 1522.52 19.7689 1522.52 16.5333C1522.52 13.2978 1523.7 10.5244 1526.07 8.21332C1528.44 5.84444 1531.82 4.05333 1536.21 2.83999C1540.6 1.56888 1545.71 0.933325 1551.55 0.933325ZM1551.55 9.77332C1547.97 9.77332 1544.88 10.0333 1542.28 10.5533C1539.68 11.0155 1537.71 11.7378 1536.38 12.72C1535.11 13.7022 1534.48 14.9733 1534.48 16.5333C1534.48 18.0355 1535.11 19.3067 1536.38 20.3467C1537.71 21.3289 1539.68 22.08 1542.28 22.6C1544.88 23.0622 1547.97 23.2933 1551.55 23.2933C1555.25 23.2933 1558.37 23.0622 1560.91 22.6C1563.45 22.08 1565.39 21.3289 1566.72 20.3467C1568.05 19.3067 1568.71 18.0355 1568.71 16.5333C1568.71 14.9733 1568.05 13.7022 1566.72 12.72C1565.39 11.7378 1563.45 11.0155 1560.91 10.5533C1558.37 10.0333 1555.25 9.77332 1551.55 9.77332ZM1523.73 51.46H1579.2V78.8467H1523.73V51.46ZM1567.93 60.56H1535V69.7467H1567.93V60.56ZM1515.24 36.8133H1587.86V45.8267H1515.24V36.8133ZM1631.28 0.933325C1637.23 0.933325 1642.37 1.56888 1646.7 2.83999C1651.04 4.05333 1654.39 5.84444 1656.76 8.21332C1659.18 10.5244 1660.4 13.2978 1660.4 16.5333C1660.4 19.7689 1659.18 22.5711 1656.76 24.94C1654.39 27.2511 1651.04 29.0422 1646.7 30.3133C1642.37 31.5844 1637.23 32.22 1631.28 32.22C1625.44 32.22 1620.33 31.5844 1615.94 30.3133C1611.54 29.0422 1608.16 27.2511 1605.8 24.94C1603.43 22.5711 1602.24 19.7689 1602.24 16.5333C1602.24 13.2978 1603.43 10.5244 1605.8 8.21332C1608.16 5.84444 1611.54 4.05333 1615.94 2.83999C1620.33 1.56888 1625.44 0.933325 1631.28 0.933325ZM1631.28 9.77332C1627.69 9.77332 1624.6 10.0333 1622 10.5533C1619.4 11.0155 1617.44 11.7378 1616.11 12.72C1614.84 13.7022 1614.2 14.9733 1614.2 16.5333C1614.2 18.0355 1614.84 19.3067 1616.11 20.3467C1617.44 21.3289 1619.4 22.08 1622 22.6C1624.6 23.0622 1627.69 23.2933 1631.28 23.2933C1634.97 23.2933 1638.09 23.0622 1640.64 22.6C1643.18 22.08 1645.11 21.3289 1646.44 20.3467C1647.77 19.3067 1648.44 18.0355 1648.44 16.5333C1648.44 14.9733 1647.77 13.7022 1646.44 12.72C1645.11 11.7378 1643.18 11.0155 1640.64 10.5533C1638.09 10.0333 1634.97 9.77332 1631.28 9.77332ZM1603.46 51.46H1658.92V78.8467H1603.46V51.46ZM1647.66 60.56H1614.72V69.7467H1647.66V60.56ZM1594.96 36.8133H1667.59V45.8267H1594.96V36.8133ZM1711 0.933325C1716.95 0.933325 1722.1 1.56888 1726.43 2.83999C1730.76 4.05333 1734.11 5.84444 1736.48 8.21332C1738.91 10.5244 1740.12 13.2978 1740.12 16.5333C1740.12 19.7689 1738.91 22.5711 1736.48 24.94C1734.11 27.2511 1730.76 29.0422 1726.43 30.3133C1722.1 31.5844 1716.95 32.22 1711 32.22C1705.17 32.22 1700.05 31.5844 1695.66 30.3133C1691.27 29.0422 1687.89 27.2511 1685.52 24.94C1683.15 22.5711 1681.97 19.7689 1681.97 16.5333C1681.97 13.2978 1683.15 10.5244 1685.52 8.21332C1687.89 5.84444 1691.27 4.05333 1695.66 2.83999C1700.05 1.56888 1705.17 0.933325 1711 0.933325ZM1711 9.77332C1707.42 9.77332 1704.33 10.0333 1701.73 10.5533C1699.13 11.0155 1697.16 11.7378 1695.84 12.72C1694.56 13.7022 1693.93 14.9733 1693.93 16.5333C1693.93 18.0355 1694.56 19.3067 1695.84 20.3467C1697.16 21.3289 1699.13 22.08 1701.73 22.6C1704.33 23.0622 1707.42 23.2933 1711 23.2933C1714.7 23.2933 1717.82 23.0622 1720.36 22.6C1722.9 22.08 1724.84 21.3289 1726.17 20.3467C1727.5 19.3067 1728.16 18.0355 1728.16 16.5333C1728.16 14.9733 1727.5 13.7022 1726.17 12.72C1724.84 11.7378 1722.9 11.0155 1720.36 10.5533C1717.82 10.0333 1714.7 9.77332 1711 9.77332ZM1683.18 51.46H1738.65V78.8467H1683.18V51.46ZM1727.38 60.56H1694.45V69.7467H1727.38V60.56ZM1674.69 36.8133H1747.32V45.8267H1674.69V36.8133ZM1790.73 0.933325C1796.68 0.933325 1801.82 1.56888 1806.16 2.83999C1810.49 4.05333 1813.84 5.84444 1816.21 8.21332C1818.64 10.5244 1819.85 13.2978 1819.85 16.5333C1819.85 19.7689 1818.64 22.5711 1816.21 24.94C1813.84 27.2511 1810.49 29.0422 1806.16 30.3133C1801.82 31.5844 1796.68 32.22 1790.73 32.22C1784.89 32.22 1779.78 31.5844 1775.39 30.3133C1771 29.0422 1767.62 27.2511 1765.25 24.94C1762.88 22.5711 1761.7 19.7689 1761.7 16.5333C1761.7 13.2978 1762.88 10.5244 1765.25 8.21332C1767.62 5.84444 1771 4.05333 1775.39 2.83999C1779.78 1.56888 1784.89 0.933325 1790.73 0.933325ZM1790.73 9.77332C1787.15 9.77332 1784.06 10.0333 1781.46 10.5533C1778.86 11.0155 1776.89 11.7378 1775.56 12.72C1774.29 13.7022 1773.66 14.9733 1773.66 16.5333C1773.66 18.0355 1774.29 19.3067 1775.56 20.3467C1776.89 21.3289 1778.86 22.08 1781.46 22.6C1784.06 23.0622 1787.15 23.2933 1790.73 23.2933C1794.43 23.2933 1797.55 23.0622 1800.09 22.6C1802.63 22.08 1804.57 21.3289 1805.9 20.3467C1807.22 19.3067 1807.89 18.0355 1807.89 16.5333C1807.89 14.9733 1807.22 13.7022 1805.9 12.72C1804.57 11.7378 1802.63 11.0155 1800.09 10.5533C1797.55 10.0333 1794.43 9.77332 1790.73 9.77332ZM1762.91 51.46H1818.38V78.8467H1762.91V51.46ZM1807.11 60.56H1774.18V69.7467H1807.11V60.56ZM1754.42 36.8133H1827.04V45.8267H1754.42V36.8133ZM1870.46 0.933325C1876.41 0.933325 1881.55 1.56888 1885.88 2.83999C1890.22 4.05333 1893.57 5.84444 1895.94 8.21332C1898.36 10.5244 1899.58 13.2978 1899.58 16.5333C1899.58 19.7689 1898.36 22.5711 1895.94 24.94C1893.57 27.2511 1890.22 29.0422 1885.88 30.3133C1881.55 31.5844 1876.41 32.22 1870.46 32.22C1864.62 32.22 1859.51 31.5844 1855.12 30.3133C1850.72 29.0422 1847.34 27.2511 1844.98 24.94C1842.61 22.5711 1841.42 19.7689 1841.42 16.5333C1841.42 13.2978 1842.61 10.5244 1844.98 8.21332C1847.34 5.84444 1850.72 4.05333 1855.12 2.83999C1859.51 1.56888 1864.62 0.933325 1870.46 0.933325ZM1870.46 9.77332C1866.87 9.77332 1863.78 10.0333 1861.18 10.5533C1858.58 11.0155 1856.62 11.7378 1855.29 12.72C1854.02 13.7022 1853.38 14.9733 1853.38 16.5333C1853.38 18.0355 1854.02 19.3067 1855.29 20.3467C1856.62 21.3289 1858.58 22.08 1861.18 22.6C1863.78 23.0622 1866.87 23.2933 1870.46 23.2933C1874.15 23.2933 1877.27 23.0622 1879.82 22.6C1882.36 22.08 1884.29 21.3289 1885.62 20.3467C1886.95 19.3067 1887.62 18.0355 1887.62 16.5333C1887.62 14.9733 1886.95 13.7022 1885.62 12.72C1884.29 11.7378 1882.36 11.0155 1879.82 10.5533C1877.27 10.0333 1874.15 9.77332 1870.46 9.77332ZM1842.64 51.46H1898.1V78.8467H1842.64V51.46ZM1886.84 60.56H1853.9V69.7467H1886.84V60.56ZM1834.14 36.8133H1906.77V45.8267H1834.14V36.8133ZM1950.18 0.933325C1956.13 0.933325 1961.28 1.56888 1965.61 2.83999C1969.94 4.05333 1973.29 5.84444 1975.66 8.21332C1978.09 10.5244 1979.3 13.2978 1979.3 16.5333C1979.3 19.7689 1978.09 22.5711 1975.66 24.94C1973.29 27.2511 1969.94 29.0422 1965.61 30.3133C1961.28 31.5844 1956.13 32.22 1950.18 32.22C1944.35 32.22 1939.23 31.5844 1934.84 30.3133C1930.45 29.0422 1927.07 27.2511 1924.7 24.94C1922.33 22.5711 1921.15 19.7689 1921.15 16.5333C1921.15 13.2978 1922.33 10.5244 1924.7 8.21332C1927.07 5.84444 1930.45 4.05333 1934.84 2.83999C1939.23 1.56888 1944.35 0.933325 1950.18 0.933325ZM1950.18 9.77332C1946.6 9.77332 1943.51 10.0333 1940.91 10.5533C1938.31 11.0155 1936.34 11.7378 1935.02 12.72C1933.74 13.7022 1933.11 14.9733 1933.11 16.5333C1933.11 18.0355 1933.74 19.3067 1935.02 20.3467C1936.34 21.3289 1938.31 22.08 1940.91 22.6C1943.51 23.0622 1946.6 23.2933 1950.18 23.2933C1953.88 23.2933 1957 23.0622 1959.54 22.6C1962.08 22.08 1964.02 21.3289 1965.35 20.3467C1966.68 19.3067 1967.34 18.0355 1967.34 16.5333C1967.34 14.9733 1966.68 13.7022 1965.35 12.72C1964.02 11.7378 1962.08 11.0155 1959.54 10.5533C1957 10.0333 1953.88 9.77332 1950.18 9.77332ZM1922.36 51.46H1977.83V78.8467H1922.36V51.46ZM1966.56 60.56H1933.63V69.7467H1966.56V60.56ZM1913.87 36.8133H1986.5V45.8267H1913.87V36.8133ZM2029.91 0.933325C2035.86 0.933325 2041 1.56888 2045.34 2.83999C2049.67 4.05333 2053.02 5.84444 2055.39 8.21332C2057.82 10.5244 2059.03 13.2978 2059.03 16.5333C2059.03 19.7689 2057.82 22.5711 2055.39 24.94C2053.02 27.2511 2049.67 29.0422 2045.34 30.3133C2041 31.5844 2035.86 32.22 2029.91 32.22C2024.07 32.22 2018.96 31.5844 2014.57 30.3133C2010.18 29.0422 2006.8 27.2511 2004.43 24.94C2002.06 22.5711 2000.88 19.7689 2000.88 16.5333C2000.88 13.2978 2002.06 10.5244 2004.43 8.21332C2006.8 5.84444 2010.18 4.05333 2014.57 2.83999C2018.96 1.56888 2024.07 0.933325 2029.91 0.933325ZM2029.91 9.77332C2026.33 9.77332 2023.24 10.0333 2020.64 10.5533C2018.04 11.0155 2016.07 11.7378 2014.74 12.72C2013.47 13.7022 2012.84 14.9733 2012.84 16.5333C2012.84 18.0355 2013.47 19.3067 2014.74 20.3467C2016.07 21.3289 2018.04 22.08 2020.64 22.6C2023.24 23.0622 2026.33 23.2933 2029.91 23.2933C2033.61 23.2933 2036.73 23.0622 2039.27 22.6C2041.81 22.08 2043.75 21.3289 2045.08 20.3467C2046.4 19.3067 2047.07 18.0355 2047.07 16.5333C2047.07 14.9733 2046.4 13.7022 2045.08 12.72C2043.75 11.7378 2041.81 11.0155 2039.27 10.5533C2036.73 10.0333 2033.61 9.77332 2029.91 9.77332ZM2002.09 51.46H2057.56V78.8467H2002.09V51.46ZM2046.29 60.56H2013.36V69.7467H2046.29V60.56ZM1993.6 36.8133H2066.22V45.8267H1993.6V36.8133ZM2109.64 0.933325C2115.59 0.933325 2120.73 1.56888 2125.06 2.83999C2129.4 4.05333 2132.75 5.84444 2135.12 8.21332C2137.54 10.5244 2138.76 13.2978 2138.76 16.5333C2138.76 19.7689 2137.54 22.5711 2135.12 24.94C2132.75 27.2511 2129.4 29.0422 2125.06 30.3133C2120.73 31.5844 2115.59 32.22 2109.64 32.22C2103.8 32.22 2098.69 31.5844 2094.3 30.3133C2089.9 29.0422 2086.52 27.2511 2084.16 24.94C2081.79 22.5711 2080.6 19.7689 2080.6 16.5333C2080.6 13.2978 2081.79 10.5244 2084.16 8.21332C2086.52 5.84444 2089.9 4.05333 2094.3 2.83999C2098.69 1.56888 2103.8 0.933325 2109.64 0.933325ZM2109.64 9.77332C2106.05 9.77332 2102.96 10.0333 2100.36 10.5533C2097.76 11.0155 2095.8 11.7378 2094.47 12.72C2093.2 13.7022 2092.56 14.9733 2092.56 16.5333C2092.56 18.0355 2093.2 19.3067 2094.47 20.3467C2095.8 21.3289 2097.76 22.08 2100.36 22.6C2102.96 23.0622 2106.05 23.2933 2109.64 23.2933C2113.33 23.2933 2116.45 23.0622 2119 22.6C2121.54 22.08 2123.47 21.3289 2124.8 20.3467C2126.13 19.3067 2126.8 18.0355 2126.8 16.5333C2126.8 14.9733 2126.13 13.7022 2124.8 12.72C2123.47 11.7378 2121.54 11.0155 2119 10.5533C2116.45 10.0333 2113.33 9.77332 2109.64 9.77332ZM2081.82 51.46H2137.28V78.8467H2081.82V51.46ZM2126.02 60.56H2093.08V69.7467H2126.02V60.56ZM2073.32 36.8133H2145.95V45.8267H2073.32V36.8133ZM2189.36 0.933325C2195.31 0.933325 2200.46 1.56888 2204.79 2.83999C2209.12 4.05333 2212.47 5.84444 2214.84 8.21332C2217.27 10.5244 2218.48 13.2978 2218.48 16.5333C2218.48 19.7689 2217.27 22.5711 2214.84 24.94C2212.47 27.2511 2209.12 29.0422 2204.79 30.3133C2200.46 31.5844 2195.31 32.22 2189.36 32.22C2183.53 32.22 2178.41 31.5844 2174.02 30.3133C2169.63 29.0422 2166.25 27.2511 2163.88 24.94C2161.51 22.5711 2160.33 19.7689 2160.33 16.5333C2160.33 13.2978 2161.51 10.5244 2163.88 8.21332C2166.25 5.84444 2169.63 4.05333 2174.02 2.83999C2178.41 1.56888 2183.53 0.933325 2189.36 0.933325ZM2189.36 9.77332C2185.78 9.77332 2182.69 10.0333 2180.09 10.5533C2177.49 11.0155 2175.52 11.7378 2174.2 12.72C2172.92 13.7022 2172.29 14.9733 2172.29 16.5333C2172.29 18.0355 2172.92 19.3067 2174.2 20.3467C2175.52 21.3289 2177.49 22.08 2180.09 22.6C2182.69 23.0622 2185.78 23.2933 2189.36 23.2933C2193.06 23.2933 2196.18 23.0622 2198.72 22.6C2201.26 22.08 2203.2 21.3289 2204.53 20.3467C2205.86 19.3067 2206.52 18.0355 2206.52 16.5333C2206.52 14.9733 2205.86 13.7022 2204.53 12.72C2203.2 11.7378 2201.26 11.0155 2198.72 10.5533C2196.18 10.0333 2193.06 9.77332 2189.36 9.77332ZM2161.54 51.46H2217.01V78.8467H2161.54V51.46ZM2205.74 60.56H2172.81V69.7467H2205.74V60.56ZM2153.05 36.8133H2225.68V45.8267H2153.05V36.8133ZM2269.09 0.933325C2275.04 0.933325 2280.18 1.56888 2284.52 2.83999C2288.85 4.05333 2292.2 5.84444 2294.57 8.21332C2297 10.5244 2298.21 13.2978 2298.21 16.5333C2298.21 19.7689 2297 22.5711 2294.57 24.94C2292.2 27.2511 2288.85 29.0422 2284.52 30.3133C2280.18 31.5844 2275.04 32.22 2269.09 32.22C2263.25 32.22 2258.14 31.5844 2253.75 30.3133C2249.36 29.0422 2245.98 27.2511 2243.61 24.94C2241.24 22.5711 2240.06 19.7689 2240.06 16.5333C2240.06 13.2978 2241.24 10.5244 2243.61 8.21332C2245.98 5.84444 2249.36 4.05333 2253.75 2.83999C2258.14 1.56888 2263.25 0.933325 2269.09 0.933325ZM2269.09 9.77332C2265.51 9.77332 2262.42 10.0333 2259.82 10.5533C2257.22 11.0155 2255.25 11.7378 2253.92 12.72C2252.65 13.7022 2252.02 14.9733 2252.02 16.5333C2252.02 18.0355 2252.65 19.3067 2253.92 20.3467C2255.25 21.3289 2257.22 22.08 2259.82 22.6C2262.42 23.0622 2265.51 23.2933 2269.09 23.2933C2272.79 23.2933 2275.91 23.0622 2278.45 22.6C2280.99 22.08 2282.93 21.3289 2284.26 20.3467C2285.58 19.3067 2286.25 18.0355 2286.25 16.5333C2286.25 14.9733 2285.58 13.7022 2284.26 12.72C2282.93 11.7378 2280.99 11.0155 2278.45 10.5533C2275.91 10.0333 2272.79 9.77332 2269.09 9.77332ZM2241.27 51.46H2296.74V78.8467H2241.27V51.46ZM2285.47 60.56H2252.54V69.7467H2285.47V60.56ZM2232.78 36.8133H2305.4V45.8267H2232.78V36.8133Z" fill="#F5AF73"/>
</svg>
