<svg width="213" height="135" viewBox="0 0 213 135" fill="none" xmlns="http://www.w3.org/2000/svg">
<path d="M54.2416 0.26H56.9016V9.5H54.2416V0.26ZM50.5416 3.92H55.2416V6.04H50.5416V3.92ZM46.5416 0.74C47.4749 0.74 48.3082 0.926666 49.0416 1.3C49.7749 1.66 50.3549 2.16 50.7816 2.8C51.2082 3.44 51.4216 4.18 51.4216 5.02C51.4216 5.84667 51.2082 6.58 50.7816 7.22C50.3549 7.86 49.7749 8.36667 49.0416 8.74C48.3082 9.1 47.4749 9.28 46.5416 9.28C45.6082 9.28 44.7682 9.1 44.0216 8.74C43.2882 8.36667 42.7082 7.86 42.2816 7.22C41.8549 6.58 41.6416 5.84667 41.6416 5.02C41.6416 4.18 41.8549 3.44 42.2816 2.8C42.7082 2.16 43.2882 1.66 44.0216 1.3C44.7682 0.926666 45.6082 0.74 46.5416 0.74ZM46.5416 2.9C46.0882 2.9 45.6816 2.98667 45.3216 3.16C44.9616 3.32 44.6816 3.56 44.4816 3.88C44.2816 4.18667 44.1816 4.56 44.1816 5C44.1816 5.45333 44.2816 5.84 44.4816 6.16C44.6816 6.48 44.9616 6.72667 45.3216 6.9C45.6816 7.06 46.0816 7.14 46.5216 7.14C46.9882 7.14 47.3949 7.06 47.7416 6.9C48.0882 6.72667 48.3616 6.48 48.5616 6.16C48.7616 5.84 48.8616 5.45333 48.8616 5C48.8616 4.56 48.7616 4.18667 48.5616 3.88C48.3616 3.56 48.0882 3.32 47.7416 3.16C47.3949 2.98667 46.9949 2.9 46.5416 2.9ZM44.6616 10.28H56.9016V15.34H47.3216V17.6H44.7016V13.42H54.2816V12.34H44.6616V10.28ZM44.7016 16.5H57.4416V18.58H44.7016V16.5ZM61.88 0.939999H73.6V3.02H61.88V0.939999ZM59.82 6.6H76.6V8.7H59.82V6.6ZM66.86 7.68H69.5V11.32H66.86V7.68ZM72 0.939999H74.62V2.2C74.62 2.86667 74.6 3.62667 74.56 4.48C74.52 5.33333 74.38 6.28667 74.14 7.34L71.52 7.1C71.76 6.04667 71.9 5.13333 71.94 4.36C71.98 3.57333 72 2.85333 72 2.2V0.939999ZM61.68 10.38H74.58V15.4H64.36V17.4H61.7V13.58H71.92V12.44H61.68V10.38ZM61.7 16.58H75.06V18.64H61.7V16.58ZM29.7219 29.7H46.4819V31.8H29.7219V29.7ZM31.7619 36.32H44.6019V38.46H31.7619V36.32ZM31.7619 33.04H34.4219V37H31.7619V33.04ZM38.1019 20.8C39.4485 20.8 40.6219 20.9533 41.6219 21.26C42.6352 21.5667 43.4219 22.0067 43.9819 22.58C44.5419 23.1533 44.8219 23.8267 44.8219 24.6C44.8219 25.3867 44.5419 26.0667 43.9819 26.64C43.4219 27.2133 42.6352 27.6533 41.6219 27.96C40.6219 28.2667 39.4485 28.42 38.1019 28.42C36.7685 28.42 35.5952 28.2667 34.5819 27.96C33.5819 27.6533 32.8019 27.2133 32.2419 26.64C31.6819 26.0667 31.4019 25.3867 31.4019 24.6C31.4019 23.8267 31.6819 23.1533 32.2419 22.58C32.8019 22.0067 33.5819 21.5667 34.5819 21.26C35.5952 20.9533 36.7685 20.8 38.1019 20.8ZM38.1019 22.9C37.2885 22.9 36.5819 22.9667 35.9819 23.1C35.3819 23.2333 34.9285 23.4267 34.6219 23.68C34.3152 23.92 34.1619 24.2267 34.1619 24.6C34.1619 24.9733 34.3152 25.2867 34.6219 25.54C34.9285 25.7933 35.3819 25.9867 35.9819 26.12C36.5819 26.2533 37.2885 26.32 38.1019 26.32C38.9419 26.32 39.6552 26.2533 40.2419 26.12C40.8285 25.9867 41.2752 25.7933 41.5819 25.54C41.9019 25.2867 42.0619 24.9733 42.0619 24.6C42.0619 24.2267 41.9019 23.92 41.5819 23.68C41.2752 23.4267 40.8285 23.2333 40.2419 23.1C39.6552 22.9667 38.9419 22.9 38.1019 22.9ZM57.2613 21.68H59.4013V24.36C59.4013 25.5067 59.3013 26.6267 59.1013 27.72C58.9013 28.8 58.5879 29.8067 58.1612 30.74C57.7479 31.6733 57.2213 32.5067 56.5813 33.24C55.9413 33.96 55.1879 34.5333 54.3213 34.96L52.7213 32.82C53.5079 32.46 54.1813 31.98 54.7413 31.38C55.3146 30.78 55.7879 30.1 56.1613 29.34C56.5346 28.58 56.8079 27.78 56.9813 26.94C57.1679 26.0867 57.2613 25.2267 57.2613 24.36V21.68ZM57.7813 21.68H59.9213V24.36C59.9213 25.2 60.0013 26.0267 60.1613 26.84C60.3346 27.6533 60.5946 28.4267 60.9413 29.16C61.3013 29.88 61.7479 30.5267 62.2812 31.1C62.8146 31.6733 63.4546 32.1467 64.2013 32.52L62.5813 34.64C61.7546 34.2133 61.0346 33.6533 60.4213 32.96C59.8213 32.2533 59.3279 31.4467 58.9413 30.54C58.5546 29.62 58.2613 28.64 58.0613 27.6C57.8746 26.5467 57.7813 25.4667 57.7813 24.36V21.68ZM64.9213 20.26H67.6013V38.78H64.9213V20.26ZM67.0213 27.38H70.2813V29.58H67.0213V27.38ZM83.3997 20.26H86.0597V31.26H83.3997V20.26ZM85.3197 24.62H88.5197V26.8H85.3197V24.62ZM74.0197 32.06H86.0597V38.58H74.0197V32.06ZM83.4797 34.12H76.6397V36.48H83.4797V34.12ZM72.1597 28.46H73.7197C74.933 28.46 76.013 28.4467 76.9597 28.42C77.9197 28.3933 78.8064 28.34 79.6197 28.26C80.4464 28.18 81.2864 28.06 82.1397 27.9L82.3797 30.02C81.5264 30.18 80.6664 30.3067 79.7997 30.4C78.9464 30.48 78.0264 30.5333 77.0397 30.56C76.0664 30.5867 74.9597 30.6 73.7197 30.6H72.1597V28.46ZM72.1197 21.18H80.5797V26.82H74.7797V29.64H72.1597V24.84H77.9597V23.28H72.1197V21.18ZM54.1216 40.22H56.7816V58.8H54.1216V40.22ZM46.8016 41.52C47.7482 41.52 48.5882 41.7933 49.3216 42.34C50.0549 42.8733 50.6282 43.64 51.0416 44.64C51.4682 45.6267 51.6816 46.7933 51.6816 48.14C51.6816 49.5 51.4682 50.68 51.0416 51.68C50.6282 52.6667 50.0549 53.4333 49.3216 53.98C48.5882 54.5133 47.7482 54.78 46.8016 54.78C45.8682 54.78 45.0349 54.5133 44.3016 53.98C43.5682 53.4333 42.9882 52.6667 42.5616 51.68C42.1482 50.68 41.9416 49.5 41.9416 48.14C41.9416 46.7933 42.1482 45.6267 42.5616 44.64C42.9882 43.64 43.5682 42.8733 44.3016 42.34C45.0349 41.7933 45.8682 41.52 46.8016 41.52ZM46.8016 43.94C46.3482 43.94 45.9482 44.1 45.6016 44.42C45.2549 44.74 44.9816 45.2133 44.7816 45.84C44.5949 46.4533 44.5016 47.22 44.5016 48.14C44.5016 49.0467 44.5949 49.82 44.7816 50.46C44.9816 51.0867 45.2549 51.56 45.6016 51.88C45.9482 52.2 46.3482 52.36 46.8016 52.36C47.2682 52.36 47.6749 52.2 48.0216 51.88C48.3682 51.56 48.6349 51.0867 48.8216 50.46C49.0216 49.82 49.1216 49.0467 49.1216 48.14C49.1216 47.22 49.0216 46.4533 48.8216 45.84C48.6349 45.2133 48.3682 44.74 48.0216 44.42C47.6749 44.1 47.2682 43.94 46.8016 43.94ZM61.54 41.82H73.26V43.94H61.54V41.82ZM59.82 54.38H76.58V56.54H59.82V54.38ZM65.74 48.02H68.42V55.46H65.74V48.02ZM72.3 41.82H74.98V43.58C74.98 44.3533 74.9667 45.1733 74.94 46.04C74.9267 46.9067 74.8667 47.8667 74.76 48.92C74.6667 49.9733 74.4933 51.1533 74.24 52.46L71.58 52.18C71.9533 50.3267 72.1667 48.7133 72.22 47.34C72.2733 45.9533 72.3 44.7 72.3 43.58V41.82Z" fill="white"/>
<path d="M83.0608 68.26H95.8608V74.58H83.0608V68.26ZM93.2608 70.36H85.6608V72.48H93.2608V70.36ZM83.1608 56.9H95.7408V63.38H83.1608V56.9ZM93.1208 58.96H85.7808V61.3H93.1208V58.96ZM81.1008 64.9H97.8608V67H81.1008V64.9ZM88.1408 62.94H90.7808V65.7H88.1408V62.94Z" fill="white"/>
<path d="M90.1008 86.7H106.861V88.8H90.1008V86.7ZM92.1408 93.32H104.981V95.46H92.1408V93.32ZM92.1408 90.04H94.8008V94H92.1408V90.04ZM98.4808 77.8C99.8274 77.8 101.001 77.9533 102.001 78.26C103.014 78.5667 103.801 79.0067 104.361 79.58C104.921 80.1533 105.201 80.8267 105.201 81.6C105.201 82.3867 104.921 83.0667 104.361 83.64C103.801 84.2133 103.014 84.6533 102.001 84.96C101.001 85.2667 99.8274 85.42 98.4808 85.42C97.1474 85.42 95.9741 85.2667 94.9608 84.96C93.9608 84.6533 93.1808 84.2133 92.6208 83.64C92.0608 83.0667 91.7808 82.3867 91.7808 81.6C91.7808 80.8267 92.0608 80.1533 92.6208 79.58C93.1808 79.0067 93.9608 78.5667 94.9608 78.26C95.9741 77.9533 97.1474 77.8 98.4808 77.8ZM98.4808 79.9C97.6674 79.9 96.9608 79.9667 96.3608 80.1C95.7608 80.2333 95.3074 80.4267 95.0008 80.68C94.6941 80.92 94.5408 81.2267 94.5408 81.6C94.5408 81.9733 94.6941 82.2867 95.0008 82.54C95.3074 82.7933 95.7608 82.9867 96.3608 83.12C96.9608 83.2533 97.6674 83.32 98.4808 83.32C99.3208 83.32 100.034 83.2533 100.621 83.12C101.207 82.9867 101.654 82.7933 101.961 82.54C102.281 82.2867 102.441 81.9733 102.441 81.6C102.441 81.2267 102.281 80.92 101.961 80.68C101.654 80.4267 101.207 80.2333 100.621 80.1C100.034 79.9667 99.3208 79.9 98.4808 79.9Z" fill="white"/>
<path d="M143.821 99.22H146.481V117.8H143.821V99.22ZM136.501 100.52C137.447 100.52 138.287 100.793 139.021 101.34C139.754 101.873 140.327 102.64 140.741 103.64C141.167 104.627 141.381 105.793 141.381 107.14C141.381 108.5 141.167 109.68 140.741 110.68C140.327 111.667 139.754 112.433 139.021 112.98C138.287 113.513 137.447 113.78 136.501 113.78C135.567 113.78 134.734 113.513 134.001 112.98C133.267 112.433 132.687 111.667 132.261 110.68C131.847 109.68 131.641 108.5 131.641 107.14C131.641 105.793 131.847 104.627 132.261 103.64C132.687 102.64 133.267 101.873 134.001 101.34C134.734 100.793 135.567 100.52 136.501 100.52ZM136.501 102.94C136.047 102.94 135.647 103.1 135.301 103.42C134.954 103.74 134.681 104.213 134.481 104.84C134.294 105.453 134.201 106.22 134.201 107.14C134.201 108.047 134.294 108.82 134.481 109.46C134.681 110.087 134.954 110.56 135.301 110.88C135.647 111.2 136.047 111.36 136.501 111.36C136.967 111.36 137.374 111.2 137.721 110.88C138.067 110.56 138.334 110.087 138.521 109.46C138.721 108.82 138.821 108.047 138.821 107.14C138.821 106.22 138.721 105.453 138.521 104.84C138.334 104.213 138.067 103.74 137.721 103.42C137.374 103.1 136.967 102.94 136.501 102.94Z" fill="white"/>
<path d="M123.361 90.26H125.901V100.98H123.361V90.26ZM121.181 94.56H124.121V96.72H121.181V94.56ZM119.461 90.6H121.941V100.84H119.461V90.6ZM113.341 101.76H125.901V108.58H113.341V101.76ZM123.301 103.84H115.961V106.48H123.301V103.84ZM110.761 91.34H113.261V93.86H115.621V91.34H118.081V100.18H110.761V91.34ZM113.261 95.9V98.08H115.621V95.9H113.261Z" fill="white"/>
<path d="M155.501 100.32H157.521V101.02C157.521 101.967 157.374 102.873 157.081 103.74C156.801 104.607 156.354 105.367 155.741 106.02C155.141 106.673 154.354 107.173 153.381 107.52L152.061 105.6C152.874 105.307 153.527 104.92 154.021 104.44C154.527 103.96 154.901 103.427 155.141 102.84C155.381 102.24 155.501 101.633 155.501 101.02V100.32ZM156.161 100.32H158.081V101.02C158.081 101.633 158.187 102.247 158.401 102.86C158.614 103.46 158.954 104.013 159.421 104.52C159.887 105.027 160.501 105.44 161.261 105.76L160.161 107.72C159.187 107.347 158.407 106.807 157.821 106.1C157.234 105.407 156.807 104.62 156.541 103.74C156.287 102.847 156.161 101.94 156.161 101.02V100.32ZM162.241 100.32H164.161V101.02C164.161 101.887 164.027 102.76 163.761 103.64C163.507 104.52 163.087 105.32 162.501 106.04C161.927 106.773 161.147 107.333 160.161 107.72L159.081 105.76C159.841 105.413 160.454 104.973 160.921 104.44C161.387 103.907 161.721 103.347 161.921 102.76C162.134 102.16 162.241 101.58 162.241 101.02V100.32ZM162.881 100.32H164.881V101.02C164.881 101.673 164.994 102.3 165.221 102.9C165.447 103.5 165.814 104.033 166.321 104.5C166.827 104.967 167.494 105.333 168.321 105.6L167.001 107.52C166.027 107.187 165.234 106.7 164.621 106.06C164.021 105.42 163.581 104.667 163.301 103.8C163.021 102.933 162.881 102.007 162.881 101.02V100.32ZM160.141 93.54H164.521V95.7H160.141V93.54ZM156.221 90.18C157.154 90.18 157.987 90.3733 158.721 90.76C159.454 91.1467 160.034 91.6733 160.461 92.34C160.887 93.0067 161.101 93.7733 161.101 94.64C161.101 95.4933 160.887 96.2533 160.461 96.92C160.034 97.5867 159.454 98.1133 158.721 98.5C157.987 98.8867 157.154 99.08 156.221 99.08C155.301 99.08 154.467 98.8867 153.721 98.5C152.987 98.1133 152.407 97.5867 151.981 96.92C151.554 96.2533 151.341 95.4933 151.341 94.64C151.341 93.7733 151.554 93.0067 151.981 92.34C152.407 91.6733 152.987 91.1467 153.721 90.76C154.467 90.3733 155.301 90.18 156.221 90.18ZM156.221 92.38C155.781 92.38 155.381 92.4733 155.021 92.66C154.661 92.8333 154.381 93.0867 154.181 93.42C153.981 93.7533 153.881 94.16 153.881 94.64C153.881 95.0933 153.981 95.4933 154.181 95.84C154.381 96.1733 154.661 96.4333 155.021 96.62C155.381 96.7933 155.781 96.88 156.221 96.88C156.674 96.88 157.074 96.7933 157.421 96.62C157.781 96.4333 158.061 96.1733 158.261 95.84C158.461 95.4933 158.561 95.0933 158.561 94.64C158.561 94.16 158.461 93.7533 158.261 93.42C158.061 93.0867 157.781 92.8333 157.421 92.66C157.074 92.4733 156.674 92.38 156.221 92.38ZM163.941 89.26H166.621V99.62H163.941V89.26Z" fill="white"/>
<path d="M184.04 99.22H186.72V117.8H184.04V99.22ZM186.14 106.08H189.4V108.28H186.14V106.08ZM172.92 111.16H174.48C175.534 111.16 176.52 111.147 177.44 111.12C178.36 111.08 179.254 111.02 180.12 110.94C180.987 110.847 181.874 110.72 182.78 110.56L183.04 112.76C182.107 112.92 181.187 113.047 180.28 113.14C179.387 113.233 178.467 113.293 177.52 113.32C176.574 113.347 175.56 113.36 174.48 113.36H172.92V111.16ZM172.92 100.94H181.56V103.08H175.58V112.2H172.92V100.94ZM192.704 116.156C192.273 116.156 191.903 116.005 191.596 115.702C191.288 115.399 191.136 115.029 191.141 114.594C191.136 114.168 191.288 113.803 191.596 113.5C191.903 113.197 192.273 113.045 192.704 113.045C193.12 113.045 193.483 113.197 193.79 113.5C194.103 113.803 194.261 114.168 194.266 114.594C194.261 114.883 194.186 115.145 194.039 115.382C193.897 115.619 193.707 115.808 193.471 115.95C193.239 116.088 192.983 116.156 192.704 116.156Z" fill="white"/>
</svg>
