<svg width="241" height="250" viewBox="0 0 241 250" fill="none" xmlns="http://www.w3.org/2000/svg">
<path d="M123.981 5.26H126.641V23.78H123.981V5.26ZM126.041 12.48H129.301V14.68H126.041V12.48ZM112.021 7.98H122.821V10.1H112.021V7.98ZM117.461 11.16C118.354 11.16 119.154 11.3533 119.861 11.74C120.567 12.1133 121.121 12.6267 121.521 13.28C121.934 13.9333 122.141 14.6933 122.141 15.56C122.141 16.4267 121.934 17.1933 121.521 17.86C121.121 18.5133 120.567 19.0333 119.861 19.42C119.167 19.7933 118.367 19.98 117.461 19.98C116.567 19.98 115.761 19.7933 115.041 19.42C114.334 19.0333 113.774 18.5133 113.361 17.86C112.961 17.1933 112.761 16.4267 112.761 15.56C112.761 14.6933 112.961 13.9333 113.361 13.28C113.774 12.6267 114.334 12.1133 115.041 11.74C115.761 11.3533 116.567 11.16 117.461 11.16ZM117.461 13.32C117.034 13.32 116.661 13.4067 116.341 13.58C116.021 13.7533 115.767 14.0067 115.581 14.34C115.394 14.6733 115.301 15.08 115.301 15.56C115.301 16.0267 115.394 16.4333 115.581 16.78C115.767 17.1133 116.021 17.3733 116.341 17.56C116.661 17.7333 117.034 17.82 117.461 17.82C117.874 17.82 118.241 17.7333 118.561 17.56C118.881 17.3733 119.134 17.1133 119.321 16.78C119.507 16.4333 119.601 16.0267 119.601 15.56C119.601 15.08 119.507 14.6733 119.321 14.34C119.134 14.0067 118.881 13.7533 118.561 13.58C118.241 13.4067 117.874 13.32 117.461 13.32ZM116.101 5.56H118.781V8.8H116.101V5.56Z" fill="#02C8D1"/>
<path d="M77.9408 42.24H81.2008V44.44H77.9408V42.24ZM75.9408 35.22H78.6208V53.74H75.9408V35.22ZM64.6808 37H67.3208V48.52H64.6808V37ZM64.6808 47.02H66.2608C67.5808 47.02 68.9541 46.9667 70.3808 46.86C71.8074 46.7533 73.2674 46.5533 74.7608 46.26L75.0408 48.42C73.4941 48.74 71.9874 48.96 70.5208 49.08C69.0541 49.1867 67.6341 49.24 66.2608 49.24H64.6808V47.02Z" fill="#02C8D1"/>
<path d="M171.04 35.22H173.72V53.8H171.04V35.22ZM173.14 42.08H176.4V44.28H173.14V42.08ZM159.92 47.16H161.48C162.534 47.16 163.52 47.1467 164.44 47.12C165.36 47.08 166.254 47.02 167.12 46.94C167.987 46.8467 168.874 46.72 169.78 46.56L170.04 48.76C169.107 48.92 168.187 49.0467 167.28 49.14C166.387 49.2333 165.467 49.2933 164.52 49.32C163.574 49.3467 162.56 49.36 161.48 49.36H159.92V47.16ZM159.92 36.94H168.56V39.08H162.58V48.2H159.92V36.94ZM179.704 52.1562C179.273 52.1562 178.903 52.0047 178.596 51.7017C178.288 51.3987 178.136 51.0294 178.141 50.5938C178.136 50.1676 178.288 49.803 178.596 49.5C178.903 49.197 179.273 49.0455 179.704 49.0455C180.12 49.0455 180.483 49.197 180.79 49.5C181.103 49.803 181.261 50.1676 181.266 50.5938C181.261 50.8826 181.186 51.1454 181.039 51.3821C180.897 51.6188 180.707 51.8082 180.471 51.9503C180.239 52.0876 179.983 52.1562 179.704 52.1562Z" fill="#02C8D1"/>
<path d="M192.501 94.32H194.521V95.02C194.521 95.9667 194.374 96.8733 194.081 97.74C193.801 98.6067 193.354 99.3667 192.741 100.02C192.141 100.673 191.354 101.173 190.381 101.52L189.061 99.6C189.874 99.3067 190.527 98.92 191.021 98.44C191.527 97.96 191.901 97.4267 192.141 96.84C192.381 96.24 192.501 95.6333 192.501 95.02V94.32ZM193.161 94.32H195.081V95.02C195.081 95.6333 195.187 96.2467 195.401 96.86C195.614 97.46 195.954 98.0133 196.421 98.52C196.887 99.0267 197.501 99.44 198.261 99.76L197.161 101.72C196.187 101.347 195.407 100.807 194.821 100.1C194.234 99.4067 193.807 98.62 193.541 97.74C193.287 96.8467 193.161 95.94 193.161 95.02V94.32ZM199.241 94.32H201.161V95.02C201.161 95.8867 201.027 96.76 200.761 97.64C200.507 98.52 200.087 99.32 199.501 100.04C198.927 100.773 198.147 101.333 197.161 101.72L196.081 99.76C196.841 99.4133 197.454 98.9733 197.921 98.44C198.387 97.9067 198.721 97.3467 198.921 96.76C199.134 96.16 199.241 95.58 199.241 95.02V94.32ZM199.881 94.32H201.881V95.02C201.881 95.6733 201.994 96.3 202.221 96.9C202.447 97.5 202.814 98.0333 203.321 98.5C203.827 98.9667 204.494 99.3333 205.321 99.6L204.001 101.52C203.027 101.187 202.234 100.7 201.621 100.06C201.021 99.42 200.581 98.6667 200.301 97.8C200.021 96.9333 199.881 96.0067 199.881 95.02V94.32ZM197.141 87.54H201.521V89.7H197.141V87.54ZM193.221 84.18C194.154 84.18 194.987 84.3733 195.721 84.76C196.454 85.1467 197.034 85.6733 197.461 86.34C197.887 87.0067 198.101 87.7733 198.101 88.64C198.101 89.4933 197.887 90.2533 197.461 90.92C197.034 91.5867 196.454 92.1133 195.721 92.5C194.987 92.8867 194.154 93.08 193.221 93.08C192.301 93.08 191.467 92.8867 190.721 92.5C189.987 92.1133 189.407 91.5867 188.981 90.92C188.554 90.2533 188.341 89.4933 188.341 88.64C188.341 87.7733 188.554 87.0067 188.981 86.34C189.407 85.6733 189.987 85.1467 190.721 84.76C191.467 84.3733 192.301 84.18 193.221 84.18ZM193.221 86.38C192.781 86.38 192.381 86.4733 192.021 86.66C191.661 86.8333 191.381 87.0867 191.181 87.42C190.981 87.7533 190.881 88.16 190.881 88.64C190.881 89.0933 190.981 89.4933 191.181 89.84C191.381 90.1733 191.661 90.4333 192.021 90.62C192.381 90.7933 192.781 90.88 193.221 90.88C193.674 90.88 194.074 90.7933 194.421 90.62C194.781 90.4333 195.061 90.1733 195.261 89.84C195.461 89.4933 195.561 89.0933 195.561 88.64C195.561 88.16 195.461 87.7533 195.261 87.42C195.061 87.0867 194.781 86.8333 194.421 86.66C194.074 86.4733 193.674 86.38 193.221 86.38ZM200.941 83.26H203.621V93.62H200.941V83.26Z" fill="#02C8D1"/>
<path d="M197.361 141.74H207.041V143.88H197.361V141.74ZM200.841 143.46H203.521V147.38H200.841V143.46ZM197.361 135.88H206.941V138H200.041V142.4H197.361V135.88ZM208.901 134.22H211.561V152.8H208.901V134.22ZM196.501 149.16L196.201 147C197.387 147 198.641 146.993 199.961 146.98C201.281 146.967 202.614 146.933 203.961 146.88C205.321 146.813 206.634 146.707 207.901 146.56L208.081 148.5C206.747 148.713 205.407 148.867 204.061 148.96C202.727 149.053 201.421 149.113 200.141 149.14C198.874 149.153 197.661 149.16 196.501 149.16Z" fill="#02C8D1"/>
<path d="M189.821 187.22H192.481V205.8H189.821V187.22ZM182.501 188.52C183.447 188.52 184.287 188.793 185.021 189.34C185.754 189.873 186.327 190.64 186.741 191.64C187.167 192.627 187.381 193.793 187.381 195.14C187.381 196.5 187.167 197.68 186.741 198.68C186.327 199.667 185.754 200.433 185.021 200.98C184.287 201.513 183.447 201.78 182.501 201.78C181.567 201.78 180.734 201.513 180.001 200.98C179.267 200.433 178.687 199.667 178.261 198.68C177.847 197.68 177.641 196.5 177.641 195.14C177.641 193.793 177.847 192.627 178.261 191.64C178.687 190.64 179.267 189.873 180.001 189.34C180.734 188.793 181.567 188.52 182.501 188.52ZM182.501 190.94C182.047 190.94 181.647 191.1 181.301 191.42C180.954 191.74 180.681 192.213 180.481 192.84C180.294 193.453 180.201 194.22 180.201 195.14C180.201 196.047 180.294 196.82 180.481 197.46C180.681 198.087 180.954 198.56 181.301 198.88C181.647 199.2 182.047 199.36 182.501 199.36C182.967 199.36 183.374 199.2 183.721 198.88C184.067 198.56 184.334 198.087 184.521 197.46C184.721 196.82 184.821 196.047 184.821 195.14C184.821 194.22 184.721 193.453 184.521 192.84C184.334 192.213 184.067 191.74 183.721 191.42C183.374 191.1 182.967 190.94 182.501 190.94Z" fill="#02C8D1"/>
<path d="M57.9608 187.3H60.2808V187.86C60.2808 188.5 60.1741 189.12 59.9608 189.72C59.7608 190.32 59.4541 190.88 59.0408 191.4C58.6274 191.907 58.1208 192.367 57.5208 192.78C56.9341 193.18 56.2541 193.52 55.4808 193.8C54.7074 194.08 53.8474 194.28 52.9008 194.4L51.9208 192.34C52.7474 192.233 53.4808 192.073 54.1208 191.86C54.7741 191.633 55.3408 191.373 55.8208 191.08C56.3008 190.773 56.7008 190.447 57.0208 190.1C57.3408 189.753 57.5741 189.387 57.7208 189C57.8808 188.613 57.9608 188.233 57.9608 187.86V187.3ZM58.7408 187.3H61.0408V187.86C61.0408 188.233 61.1141 188.613 61.2608 189C61.4208 189.387 61.6608 189.753 61.9808 190.1C62.3008 190.447 62.7008 190.773 63.1808 191.08C63.6741 191.373 64.2408 191.633 64.8808 191.86C65.5208 192.073 66.2541 192.233 67.0808 192.34L66.1008 194.4C65.1541 194.28 64.2941 194.08 63.5208 193.8C62.7474 193.52 62.0608 193.18 61.4608 192.78C60.8741 192.367 60.3741 191.907 59.9608 191.4C59.5608 190.88 59.2541 190.32 59.0408 189.72C58.8408 189.12 58.7408 188.5 58.7408 187.86V187.3ZM58.1008 197H60.7608V203.78H58.1008V197ZM51.1208 195.46H67.8808V197.6H51.1208V195.46ZM52.6008 186.2H66.3408V188.3H52.6008V186.2Z" fill="#02C8D1"/>
<path d="M28.1208 144.6H44.8808V146.74H28.1208V144.6ZM35.1008 146H37.7608V152.78H35.1008V146ZM36.4608 134.88C37.7808 134.88 38.9408 135.053 39.9408 135.4C40.9541 135.733 41.7408 136.213 42.3008 136.84C42.8608 137.467 43.1408 138.2 43.1408 139.04C43.1408 139.893 42.8608 140.633 42.3008 141.26C41.7408 141.873 40.9541 142.353 39.9408 142.7C38.9408 143.033 37.7808 143.2 36.4608 143.2C35.1408 143.2 33.9741 143.033 32.9608 142.7C31.9608 142.353 31.1741 141.873 30.6008 141.26C30.0408 140.633 29.7608 139.893 29.7608 139.04C29.7608 138.2 30.0408 137.467 30.6008 136.84C31.1741 136.213 31.9608 135.733 32.9608 135.4C33.9741 135.053 35.1408 134.88 36.4608 134.88ZM36.4408 136.98C35.6408 136.98 34.9408 137.06 34.3408 137.22C33.7541 137.38 33.3008 137.613 32.9808 137.92C32.6608 138.213 32.5008 138.587 32.5008 139.04C32.5008 139.48 32.6608 139.853 32.9808 140.16C33.3008 140.467 33.7541 140.7 34.3408 140.86C34.9408 141.007 35.6408 141.08 36.4408 141.08C37.2674 141.08 37.9741 141.007 38.5608 140.86C39.1474 140.7 39.6008 140.467 39.9208 140.16C40.2541 139.853 40.4208 139.48 40.4208 139.04C40.4208 138.587 40.2541 138.213 39.9208 137.92C39.6008 137.613 39.1474 137.38 38.5608 137.22C37.9741 137.06 37.2674 136.98 36.4408 136.98Z" fill="#02C8D1"/>
<path d="M40.0808 84.48C41.0408 84.48 41.9074 84.6733 42.6808 85.06C43.4541 85.4467 44.0608 85.9867 44.5008 86.68C44.9408 87.36 45.1608 88.1467 45.1608 89.04C45.1608 89.92 44.9408 90.7067 44.5008 91.4C44.0608 92.0933 43.4541 92.6333 42.6808 93.02C41.9074 93.4067 41.0408 93.6 40.0808 93.6C39.1074 93.6 38.2341 93.4067 37.4608 93.02C36.6874 92.6333 36.0741 92.0933 35.6208 91.4C35.1808 90.7067 34.9608 89.92 34.9608 89.04C34.9608 88.1467 35.1808 87.36 35.6208 86.68C36.0741 85.9867 36.6874 85.4467 37.4608 85.06C38.2341 84.6733 39.1074 84.48 40.0808 84.48ZM40.0808 86.76C39.6008 86.76 39.1674 86.8533 38.7808 87.04C38.4074 87.2133 38.1074 87.4733 37.8808 87.82C37.6674 88.1533 37.5608 88.56 37.5608 89.04C37.5608 89.52 37.6674 89.9333 37.8808 90.28C38.1074 90.6267 38.4074 90.8933 38.7808 91.08C39.1674 91.2533 39.6008 91.34 40.0808 91.34C40.5474 91.34 40.9674 91.2533 41.3408 91.08C41.7141 90.8933 42.0074 90.6267 42.2208 90.28C42.4474 89.9333 42.5608 89.52 42.5608 89.04C42.5608 88.56 42.4474 88.1533 42.2208 87.82C42.0074 87.4733 41.7141 87.2133 41.3408 87.04C40.9674 86.8533 40.5474 86.76 40.0808 86.76ZM46.9008 83.22H49.5608V101.8H46.9008V83.22ZM34.5008 98.06L34.2008 95.9C35.2808 95.9 36.4741 95.8933 37.7808 95.88C39.1008 95.8533 40.4541 95.8 41.8408 95.72C43.2408 95.6267 44.5941 95.4867 45.9008 95.3L46.0808 97.22C44.7474 97.4867 43.3941 97.68 42.0208 97.8C40.6474 97.9067 39.3208 97.98 38.0408 98.02C36.7608 98.0467 35.5808 98.06 34.5008 98.06Z" fill="#02C8D1"/>
<path d="M126.021 208.26H128.681V217.5H126.021V208.26ZM127.621 211.8H131.121V213.96H127.621V211.8ZM116.461 218.22H128.681V223.3H119.121V225.52H116.481V221.38H126.061V220.28H116.461V218.22ZM116.481 224.5H129.221V226.58H116.481V224.5ZM119.161 208.78C120.121 208.78 120.967 208.96 121.701 209.32C122.447 209.68 123.034 210.173 123.461 210.8C123.901 211.427 124.121 212.153 124.121 212.98C124.121 213.793 123.901 214.52 123.461 215.16C123.034 215.8 122.447 216.3 121.701 216.66C120.967 217.007 120.121 217.18 119.161 217.18C118.227 217.18 117.387 217.007 116.641 216.66C115.907 216.3 115.321 215.8 114.881 215.16C114.454 214.52 114.241 213.793 114.241 212.98C114.241 212.153 114.454 211.427 114.881 210.8C115.321 210.173 115.907 209.68 116.641 209.32C117.387 208.96 118.227 208.78 119.161 208.78ZM119.181 210.92C118.727 210.92 118.321 211.007 117.961 211.18C117.601 211.34 117.314 211.573 117.101 211.88C116.901 212.173 116.801 212.54 116.801 212.98C116.801 213.42 116.901 213.8 117.101 214.12C117.314 214.427 117.601 214.66 117.961 214.82C118.321 214.98 118.727 215.06 119.181 215.06C119.634 215.06 120.041 214.98 120.401 214.82C120.761 214.66 121.041 214.427 121.241 214.12C121.441 213.8 121.541 213.42 121.541 212.98C121.541 212.54 121.441 212.173 121.241 211.88C121.041 211.573 120.761 211.34 120.401 211.18C120.041 211.007 119.634 210.92 119.181 210.92Z" fill="#02C8D1"/>
</svg>
