<svg width="241" height="250" viewBox="0 0 241 250" fill="none" xmlns="http://www.w3.org/2000/svg">
<path d="M123.981 5.26H126.641V23.78H123.981V5.26ZM126.041 12.48H129.301V14.68H126.041V12.48ZM112.021 7.98H122.821V10.1H112.021V7.98ZM117.461 11.16C118.354 11.16 119.154 11.3533 119.861 11.74C120.567 12.1133 121.121 12.6267 121.521 13.28C121.934 13.9333 122.141 14.6933 122.141 15.56C122.141 16.4267 121.934 17.1933 121.521 17.86C121.121 18.5133 120.567 19.0333 119.861 19.42C119.167 19.7933 118.367 19.98 117.461 19.98C116.567 19.98 115.761 19.7933 115.041 19.42C114.334 19.0333 113.774 18.5133 113.361 17.86C112.961 17.1933 112.761 16.4267 112.761 15.56C112.761 14.6933 112.961 13.9333 113.361 13.28C113.774 12.6267 114.334 12.1133 115.041 11.74C115.761 11.3533 116.567 11.16 117.461 11.16ZM117.461 13.32C117.034 13.32 116.661 13.4067 116.341 13.58C116.021 13.7533 115.767 14.0067 115.581 14.34C115.394 14.6733 115.301 15.08 115.301 15.56C115.301 16.0267 115.394 16.4333 115.581 16.78C115.767 17.1133 116.021 17.3733 116.341 17.56C116.661 17.7333 117.034 17.82 117.461 17.82C117.874 17.82 118.241 17.7333 118.561 17.56C118.881 17.3733 119.134 17.1133 119.321 16.78C119.507 16.4333 119.601 16.0267 119.601 15.56C119.601 15.08 119.507 14.6733 119.321 14.34C119.134 14.0067 118.881 13.7533 118.561 13.58C118.241 13.4067 117.874 13.32 117.461 13.32ZM116.101 5.56H118.781V8.8H116.101V5.56Z" fill="#02C8D1"/>
<path d="M71.3298 86.24H86.4138V88.166H71.3298V86.24ZM77.6118 87.5H80.0058V93.602H77.6118V87.5ZM78.8358 77.492C80.0238 77.492 81.0678 77.648 81.9678 77.96C82.8798 78.26 83.5878 78.692 84.0918 79.256C84.5958 79.82 84.8478 80.48 84.8478 81.236C84.8478 82.004 84.5958 82.67 84.0918 83.234C83.5878 83.786 82.8798 84.218 81.9678 84.53C81.0678 84.83 80.0238 84.98 78.8358 84.98C77.6478 84.98 76.5978 84.83 75.6858 84.53C74.7858 84.218 74.0778 83.786 73.5618 83.234C73.0578 82.67 72.8058 82.004 72.8058 81.236C72.8058 80.48 73.0578 79.82 73.5618 79.256C74.0778 78.692 74.7858 78.26 75.6858 77.96C76.5978 77.648 77.6478 77.492 78.8358 77.492ZM78.8178 79.382C78.0978 79.382 77.4678 79.454 76.9278 79.598C76.3998 79.742 75.9918 79.952 75.7038 80.228C75.4158 80.492 75.2718 80.828 75.2718 81.236C75.2718 81.632 75.4158 81.968 75.7038 82.244C75.9918 82.52 76.3998 82.73 76.9278 82.874C77.4678 83.006 78.0978 83.072 78.8178 83.072C79.5618 83.072 80.1978 83.006 80.7258 82.874C81.2538 82.73 81.6618 82.52 81.9498 82.244C82.2498 81.968 82.3998 81.632 82.3998 81.236C82.3998 80.828 82.2498 80.492 81.9498 80.228C81.6618 79.952 81.2538 79.742 80.7258 79.598C80.1978 79.454 79.5618 79.382 78.8178 79.382ZM94.0444 78.77H96.1324V79.274C96.1324 79.85 96.0364 80.408 95.8444 80.948C95.6644 81.488 95.3884 81.992 95.0164 82.46C94.6444 82.916 94.1884 83.33 93.6484 83.702C93.1204 84.062 92.5084 84.368 91.8124 84.62C91.1164 84.872 90.3424 85.052 89.4904 85.16L88.6084 83.306C89.3524 83.21 90.0124 83.066 90.5884 82.874C91.1764 82.67 91.6864 82.436 92.1184 82.172C92.5504 81.896 92.9104 81.602 93.1984 81.29C93.4864 80.978 93.6964 80.648 93.8284 80.3C93.9724 79.952 94.0444 79.61 94.0444 79.274V78.77ZM94.7464 78.77H96.8164V79.274C96.8164 79.61 96.8824 79.952 97.0144 80.3C97.1584 80.648 97.3744 80.978 97.6624 81.29C97.9504 81.602 98.3104 81.896 98.7424 82.172C99.1864 82.436 99.6964 82.67 100.272 82.874C100.848 83.066 101.508 83.21 102.252 83.306L101.37 85.16C100.518 85.052 99.7444 84.872 99.0484 84.62C98.3524 84.368 97.7344 84.062 97.1944 83.702C96.6664 83.33 96.2164 82.916 95.8444 82.46C95.4844 81.992 95.2084 81.488 95.0164 80.948C94.8364 80.408 94.7464 79.85 94.7464 79.274V78.77ZM94.1704 87.5H96.5644V93.602H94.1704V87.5ZM87.8884 86.114H102.972V88.04H87.8884V86.114ZM89.2204 77.78H101.586V79.67H89.2204V77.78ZM115.157 76.934H117.551V85.25H115.157V76.934ZM116.597 80.12H119.747V82.064H116.597V80.12ZM106.553 85.898H117.551V90.47H108.947V92.468H106.571V88.742H115.193V87.752H106.553V85.898ZM106.571 91.55H118.037V93.422H106.571V91.55ZM108.983 77.402C109.847 77.402 110.609 77.564 111.269 77.888C111.941 78.212 112.469 78.656 112.853 79.22C113.249 79.784 113.447 80.438 113.447 81.182C113.447 81.914 113.249 82.568 112.853 83.144C112.469 83.72 111.941 84.17 111.269 84.494C110.609 84.806 109.847 84.962 108.983 84.962C108.143 84.962 107.387 84.806 106.715 84.494C106.055 84.17 105.527 83.72 105.131 83.144C104.747 82.568 104.555 81.914 104.555 81.182C104.555 80.438 104.747 79.784 105.131 79.22C105.527 78.656 106.055 78.212 106.715 77.888C107.387 77.564 108.143 77.402 108.983 77.402ZM109.001 79.328C108.593 79.328 108.227 79.406 107.903 79.562C107.579 79.706 107.321 79.916 107.129 80.192C106.949 80.456 106.859 80.786 106.859 81.182C106.859 81.578 106.949 81.92 107.129 82.208C107.321 82.484 107.579 82.694 107.903 82.838C108.227 82.982 108.593 83.054 109.001 83.054C109.409 83.054 109.775 82.982 110.099 82.838C110.423 82.694 110.675 82.484 110.855 82.208C111.035 81.92 111.125 81.578 111.125 81.182C111.125 80.786 111.035 80.456 110.855 80.192C110.675 79.916 110.423 79.706 110.099 79.562C109.775 79.406 109.409 79.328 109.001 79.328ZM137.458 76.916H139.726V93.584H137.458V76.916ZM135.28 83.342H138.052V85.268H135.28V83.342ZM133.732 77.204H135.964V92.81H133.732V77.204ZM126.118 78.77H128.512V88.4H126.118V78.77ZM126.118 87.482H127.27C128.074 87.482 128.938 87.458 129.862 87.41C130.798 87.35 131.782 87.218 132.814 87.014L133.03 89.066C131.95 89.258 130.93 89.384 129.97 89.444C129.01 89.504 128.11 89.534 127.27 89.534H126.118V87.482ZM142.029 86.51H157.113V88.4H142.029V86.51ZM148.311 87.464H150.705V93.602H148.311V87.464ZM143.739 77.564H146.115V79.454H152.973V77.564H155.331V84.926H143.739V77.564ZM146.115 81.326V83.036H152.973V81.326H146.115ZM160.442 81.416H171.998V83.324H160.442V81.416ZM158.588 85.052H173.672V86.96H158.588V85.052ZM160.442 77.51H162.836V82.37H160.442V77.51ZM160.298 91.316H172.088V93.242H160.298V91.316ZM160.298 88.274H162.692V91.838H160.298V88.274ZM68.3421 107.24C69.5781 107.24 70.6461 107.372 71.5461 107.636C72.4461 107.888 73.1421 108.26 73.6341 108.752C74.1381 109.232 74.3901 109.808 74.3901 110.48C74.3901 111.152 74.1381 111.734 73.6341 112.226C73.1421 112.706 72.4461 113.078 71.5461 113.342C70.6461 113.606 69.5781 113.738 68.3421 113.738C67.1301 113.738 66.0681 113.606 65.1561 113.342C64.2441 113.078 63.5421 112.706 63.0501 112.226C62.5581 111.734 62.3121 111.152 62.3121 110.48C62.3121 109.808 62.5581 109.232 63.0501 108.752C63.5421 108.26 64.2441 107.888 65.1561 107.636C66.0681 107.372 67.1301 107.24 68.3421 107.24ZM68.3421 109.076C67.5981 109.076 66.9561 109.13 66.4161 109.238C65.8761 109.334 65.4681 109.484 65.1921 109.688C64.9281 109.892 64.7961 110.156 64.7961 110.48C64.7961 110.792 64.9281 111.056 65.1921 111.272C65.4681 111.476 65.8761 111.632 66.4161 111.74C66.9561 111.836 67.5981 111.884 68.3421 111.884C69.1101 111.884 69.7581 111.836 70.2861 111.74C70.8141 111.632 71.2161 111.476 71.4921 111.272C71.7681 111.056 71.9061 110.792 71.9061 110.48C71.9061 110.156 71.7681 109.892 71.4921 109.688C71.2161 109.484 70.8141 109.334 70.2861 109.238C69.7581 109.13 69.1101 109.076 68.3421 109.076ZM62.5641 117.734H74.0841V123.422H62.5641V117.734ZM71.7441 119.624H64.9041V121.532H71.7441V119.624ZM60.8001 114.692H75.8841V116.564H60.8001V114.692ZM78.0607 108.572H85.2607V110.48H78.0607V108.572ZM80.2207 113.342H82.5607V119.012H80.2207V113.342ZM84.2887 108.572H86.6647V109.94C86.6647 110.744 86.6407 111.662 86.5927 112.694C86.5567 113.726 86.4247 114.938 86.1967 116.33L83.8567 116.132C84.0727 114.8 84.1987 113.636 84.2347 112.64C84.2707 111.632 84.2887 110.732 84.2887 109.94V108.572ZM88.0867 106.916H90.4627V123.584H88.0867V106.916ZM89.7787 113.612H92.7127V115.592H89.7787V113.612ZM77.4487 120.236L77.2327 118.292C78.2047 118.292 79.2607 118.286 80.4007 118.274C81.5527 118.25 82.7167 118.208 83.8927 118.148C85.0807 118.076 86.2267 117.974 87.3307 117.842L87.4387 119.588C86.3107 119.768 85.1587 119.906 83.9827 120.002C82.8187 120.098 81.6787 120.164 80.5627 120.2C79.4467 120.224 78.4087 120.236 77.4487 120.236ZM110.784 108.968H113.646V110.912H110.784V108.968ZM110.784 112.586H113.646V114.548H110.784V112.586ZM103.026 107.834C103.89 107.834 104.664 108.008 105.348 108.356C106.032 108.704 106.572 109.184 106.968 109.796C107.364 110.396 107.562 111.092 107.562 111.884C107.562 112.664 107.364 113.36 106.968 113.972C106.572 114.572 106.032 115.046 105.348 115.394C104.664 115.742 103.89 115.916 103.026 115.916C102.174 115.916 101.406 115.742 100.722 115.394C100.038 115.046 99.4981 114.572 99.1021 113.972C98.7061 113.36 98.5081 112.664 98.5081 111.884C98.5081 111.092 98.7061 110.396 99.1021 109.796C99.4981 109.184 100.038 108.704 100.722 108.356C101.406 108.008 102.174 107.834 103.026 107.834ZM103.026 109.832C102.618 109.832 102.246 109.916 101.91 110.084C101.574 110.24 101.31 110.474 101.118 110.786C100.938 111.086 100.848 111.452 100.848 111.884C100.848 112.304 100.938 112.67 101.118 112.982C101.31 113.282 101.574 113.51 101.91 113.666C102.246 113.822 102.618 113.9 103.026 113.9C103.458 113.9 103.836 113.822 104.16 113.666C104.484 113.51 104.742 113.282 104.934 112.982C105.126 112.67 105.222 112.304 105.222 111.884C105.222 111.452 105.126 111.086 104.934 110.786C104.742 110.474 104.484 110.24 104.16 110.084C103.836 109.916 103.458 109.832 103.026 109.832ZM109.11 106.934H111.504V116.654H109.11V106.934ZM106.068 116.996C107.22 116.996 108.216 117.128 109.056 117.392C109.908 117.656 110.562 118.034 111.018 118.526C111.474 119.018 111.702 119.612 111.702 120.308C111.702 120.992 111.474 121.58 111.018 122.072C110.562 122.564 109.908 122.942 109.056 123.206C108.216 123.47 107.22 123.602 106.068 123.602C104.916 123.602 103.914 123.47 103.062 123.206C102.222 122.942 101.568 122.564 101.1 122.072C100.644 121.58 100.416 120.992 100.416 120.308C100.416 119.612 100.644 119.018 101.1 118.526C101.568 118.034 102.222 117.656 103.062 117.392C103.914 117.128 104.916 116.996 106.068 116.996ZM106.068 118.886C105.36 118.886 104.766 118.94 104.286 119.048C103.806 119.144 103.44 119.294 103.188 119.498C102.936 119.702 102.81 119.972 102.81 120.308C102.81 120.62 102.936 120.884 103.188 121.1C103.44 121.316 103.806 121.478 104.286 121.586C104.766 121.682 105.36 121.73 106.068 121.73C106.776 121.73 107.37 121.682 107.85 121.586C108.342 121.478 108.708 121.316 108.948 121.1C109.2 120.884 109.326 120.62 109.326 120.308C109.326 119.972 109.2 119.702 108.948 119.498C108.708 119.294 108.342 119.144 107.85 119.048C107.37 118.94 106.776 118.886 106.068 118.886ZM126.389 106.898H128.783V123.62H126.389V106.898ZM119.801 108.068C120.653 108.068 121.409 108.314 122.069 108.806C122.729 109.286 123.245 109.976 123.617 110.876C124.001 111.764 124.193 112.814 124.193 114.026C124.193 115.25 124.001 116.312 123.617 117.212C123.245 118.1 122.729 118.79 122.069 119.282C121.409 119.762 120.653 120.002 119.801 120.002C118.961 120.002 118.211 119.762 117.551 119.282C116.891 118.79 116.369 118.1 115.985 117.212C115.613 116.312 115.427 115.25 115.427 114.026C115.427 112.814 115.613 111.764 115.985 110.876C116.369 109.976 116.891 109.286 117.551 108.806C118.211 108.314 118.961 108.068 119.801 108.068ZM119.801 110.246C119.393 110.246 119.033 110.39 118.721 110.678C118.409 110.966 118.163 111.392 117.983 111.956C117.815 112.508 117.731 113.198 117.731 114.026C117.731 114.842 117.815 115.538 117.983 116.114C118.163 116.678 118.409 117.104 118.721 117.392C119.033 117.68 119.393 117.824 119.801 117.824C120.221 117.824 120.587 117.68 120.899 117.392C121.211 117.104 121.451 116.678 121.619 116.114C121.799 115.538 121.889 114.842 121.889 114.026C121.889 113.198 121.799 112.508 121.619 111.956C121.451 111.392 121.211 110.966 120.899 110.678C120.587 110.39 120.221 110.246 119.801 110.246ZM137.764 107.69H148.294V109.598H137.764V107.69ZM135.982 113.864H151.084V115.754H135.982V113.864ZM140.986 115.088H143.344V119.372H140.986V115.088ZM146.944 107.69H149.32V109.13C149.32 109.898 149.296 110.738 149.248 111.65C149.212 112.55 149.068 113.588 148.816 114.764L146.458 114.53C146.698 113.39 146.836 112.394 146.872 111.542C146.92 110.69 146.944 109.886 146.944 109.13V107.69ZM137.548 121.388H149.77V123.314H137.548V121.388ZM137.548 117.842H139.942V121.748H137.548V117.842ZM144.982 115.088H147.34V119.372H144.982V115.088ZM161.955 110.588H164.997V112.496H161.955V110.588ZM161.919 113.918H164.961V115.808H161.919V113.918ZM152.577 108.41H161.739V110.3H152.577V108.41ZM157.257 110.876C158.025 110.876 158.703 111.008 159.291 111.272C159.879 111.536 160.341 111.902 160.677 112.37C161.013 112.838 161.181 113.378 161.181 113.99C161.181 114.602 161.013 115.148 160.677 115.628C160.341 116.096 159.879 116.462 159.291 116.726C158.703 116.99 158.025 117.122 157.257 117.122C156.501 117.122 155.829 116.99 155.241 116.726C154.653 116.462 154.191 116.096 153.855 115.628C153.519 115.148 153.351 114.602 153.351 113.99C153.351 113.378 153.519 112.838 153.855 112.37C154.191 111.902 154.653 111.536 155.241 111.272C155.829 111.008 156.501 110.876 157.257 110.876ZM157.257 112.658C156.753 112.658 156.345 112.772 156.033 113C155.733 113.228 155.583 113.564 155.583 114.008C155.583 114.44 155.733 114.77 156.033 114.998C156.345 115.226 156.753 115.34 157.257 115.34C157.761 115.34 158.169 115.226 158.481 114.998C158.793 114.77 158.949 114.44 158.949 114.008C158.949 113.564 158.793 113.228 158.481 113C158.169 112.772 157.761 112.658 157.257 112.658ZM156.069 106.79H158.481V109.724H156.069V106.79ZM164.079 106.916H166.491V117.554H164.079V106.916ZM160.839 117.752C162.015 117.752 163.029 117.866 163.881 118.094C164.733 118.322 165.387 118.658 165.843 119.102C166.311 119.534 166.545 120.056 166.545 120.668C166.545 121.28 166.311 121.802 165.843 122.234C165.387 122.678 164.733 123.014 163.881 123.242C163.029 123.482 162.015 123.602 160.839 123.602C159.675 123.602 158.667 123.482 157.815 123.242C156.963 123.014 156.303 122.678 155.835 122.234C155.367 121.802 155.133 121.28 155.133 120.668C155.133 120.056 155.367 119.534 155.835 119.102C156.303 118.658 156.963 118.322 157.815 118.094C158.667 117.866 159.675 117.752 160.839 117.752ZM160.857 119.57C159.825 119.57 159.033 119.66 158.481 119.84C157.941 120.008 157.671 120.284 157.671 120.668C157.671 121.052 157.941 121.334 158.481 121.514C159.033 121.694 159.825 121.784 160.857 121.784C161.865 121.784 162.645 121.694 163.197 121.514C163.749 121.334 164.025 121.052 164.025 120.668C164.025 120.284 163.749 120.008 163.197 119.84C162.645 119.66 161.865 119.57 160.857 119.57ZM176.641 107.15C178.537 107.15 180.013 107.396 181.069 107.888C182.137 108.38 182.671 109.088 182.671 110.012C182.671 110.924 182.137 111.626 181.069 112.118C180.013 112.61 178.537 112.856 176.641 112.856C174.733 112.856 173.245 112.61 172.177 112.118C171.121 111.626 170.593 110.924 170.593 110.012C170.593 109.088 171.121 108.38 172.177 107.888C173.245 107.396 174.733 107.15 176.641 107.15ZM176.623 108.914C175.831 108.914 175.171 108.956 174.643 109.04C174.115 109.112 173.719 109.232 173.455 109.4C173.203 109.556 173.077 109.76 173.077 110.012C173.077 110.264 173.203 110.474 173.455 110.642C173.719 110.798 174.115 110.912 174.643 110.984C175.171 111.056 175.831 111.092 176.623 111.092C177.427 111.092 178.093 111.056 178.621 110.984C179.149 110.912 179.539 110.798 179.791 110.642C180.043 110.474 180.169 110.264 180.169 110.012C180.169 109.76 180.043 109.556 179.791 109.4C179.539 109.232 179.149 109.112 178.621 109.04C178.093 108.956 177.427 108.914 176.623 108.914ZM169.081 113.63H184.165V115.52H169.081V113.63ZM170.809 116.456H182.329V120.722H173.203V122.198H170.827V119.066H179.971V118.22H170.809V116.456ZM170.827 121.676H182.779V123.494H170.827V121.676ZM74.4805 136.898H76.8745V153.62H74.4805V136.898ZM67.8925 138.068C68.7445 138.068 69.5005 138.314 70.1605 138.806C70.8205 139.286 71.3365 139.976 71.7085 140.876C72.0925 141.764 72.2845 142.814 72.2845 144.026C72.2845 145.25 72.0925 146.312 71.7085 147.212C71.3365 148.1 70.8205 148.79 70.1605 149.282C69.5005 149.762 68.7445 150.002 67.8925 150.002C67.0525 150.002 66.3025 149.762 65.6425 149.282C64.9825 148.79 64.4605 148.1 64.0765 147.212C63.7045 146.312 63.5185 145.25 63.5185 144.026C63.5185 142.814 63.7045 141.764 64.0765 140.876C64.4605 139.976 64.9825 139.286 65.6425 138.806C66.3025 138.314 67.0525 138.068 67.8925 138.068ZM67.8925 140.246C67.4845 140.246 67.1245 140.39 66.8125 140.678C66.5005 140.966 66.2545 141.392 66.0745 141.956C65.9065 142.508 65.8225 143.198 65.8225 144.026C65.8225 144.842 65.9065 145.538 66.0745 146.114C66.2545 146.678 66.5005 147.104 66.8125 147.392C67.1245 147.68 67.4845 147.824 67.8925 147.824C68.3125 147.824 68.6785 147.68 68.9905 147.392C69.3025 147.104 69.5425 146.678 69.7105 146.114C69.8905 145.538 69.9805 144.842 69.9805 144.026C69.9805 143.198 69.8905 142.508 69.7105 141.956C69.5425 141.392 69.3025 140.966 68.9905 140.678C68.6785 140.39 68.3125 140.246 67.8925 140.246ZM81.3371 137.456H92.9651V142.424H83.7851V144.944H81.3551V140.624H90.5351V139.346H81.3371V137.456ZM81.3551 143.792H93.3611V145.682H81.3551V143.792ZM79.6091 146.906H94.6931V148.814H79.6091V146.906ZM85.9271 147.608H88.3031V153.62H85.9271V147.608ZM104.016 140.678H108.588V142.604H104.016V140.678ZM104.016 145.196H108.588V147.104H104.016V145.196ZM96.7797 138.374H104.718V149.534H96.7797V138.374ZM102.36 140.264H99.1377V147.662H102.36V140.264ZM107.76 136.898H110.154V153.62H107.76V136.898ZM117.659 137.978H125.615V145.34H117.659V137.978ZM123.257 139.886H120.017V143.432H123.257V139.886ZM127.901 136.934H130.295V146.258H127.901V136.934ZM129.647 140.534H132.509V142.496H129.647V140.534ZM123.653 147.932H125.687V148.328C125.687 148.964 125.555 149.57 125.291 150.146C125.027 150.722 124.631 151.244 124.103 151.712C123.587 152.168 122.939 152.552 122.159 152.864C121.391 153.188 120.503 153.416 119.495 153.548L118.631 151.73C119.507 151.622 120.257 151.454 120.881 151.226C121.517 150.998 122.039 150.728 122.447 150.416C122.855 150.104 123.155 149.768 123.347 149.408C123.551 149.036 123.653 148.676 123.653 148.328V147.932ZM124.193 147.932H126.209V148.328C126.209 148.676 126.311 149.03 126.515 149.39C126.719 149.738 127.025 150.074 127.433 150.398C127.853 150.71 128.375 150.986 128.999 151.226C129.623 151.466 130.361 151.64 131.213 151.748L130.367 153.566C129.359 153.434 128.471 153.206 127.703 152.882C126.935 152.558 126.287 152.162 125.759 151.694C125.243 151.226 124.853 150.704 124.589 150.128C124.325 149.552 124.193 148.952 124.193 148.328V147.932ZM119.351 147.032H130.511V148.922H119.351V147.032ZM133.75 146.51H148.834V148.4H133.75V146.51ZM140.032 147.464H142.426V153.602H140.032V147.464ZM135.46 137.564H137.836V139.454H144.694V137.564H147.052V144.926H135.46V137.564ZM137.836 141.326V143.036H144.694V141.326H137.836ZM157.454 147.896H159.47V148.31C159.47 148.958 159.332 149.57 159.056 150.146C158.792 150.722 158.396 151.244 157.868 151.712C157.34 152.18 156.686 152.564 155.906 152.864C155.126 153.176 154.226 153.404 153.206 153.548L152.378 151.73C153.254 151.634 154.01 151.472 154.646 151.244C155.294 151.004 155.822 150.728 156.23 150.416C156.65 150.092 156.956 149.75 157.148 149.39C157.352 149.03 157.454 148.67 157.454 148.31V147.896ZM157.922 147.896H159.938V148.31C159.938 148.682 160.034 149.048 160.226 149.408C160.43 149.768 160.736 150.11 161.144 150.434C161.564 150.746 162.092 151.016 162.728 151.244C163.376 151.472 164.138 151.634 165.014 151.73L164.186 153.548C163.166 153.404 162.266 153.176 161.486 152.864C160.706 152.564 160.052 152.186 159.524 151.73C158.996 151.262 158.594 150.74 158.318 150.164C158.054 149.588 157.922 148.97 157.922 148.31V147.896ZM153.152 147.068H164.312V148.976H153.152V147.068ZM161.756 136.916H164.15V146.384H161.756V136.916ZM151.244 143.576H152.684C153.812 143.576 154.814 143.564 155.69 143.54C156.566 143.516 157.388 143.474 158.156 143.414C158.924 143.342 159.698 143.234 160.478 143.09L160.658 144.998C159.878 145.142 159.092 145.25 158.3 145.322C157.52 145.394 156.674 145.448 155.762 145.484C154.85 145.508 153.824 145.52 152.684 145.52H151.244V143.576ZM151.244 138.032H159.164V139.94H153.62V144.89H151.244V138.032ZM178.423 136.898H180.817V153.62H178.423V136.898ZM175.615 141.92H179.899V143.846H175.615V141.92ZM175.615 145.358H179.899V147.302H175.615V145.358ZM170.719 141.254H172.573V142.118C172.573 142.994 172.477 143.858 172.285 144.71C172.105 145.562 171.823 146.366 171.439 147.122C171.067 147.878 170.593 148.55 170.017 149.138C169.453 149.726 168.793 150.188 168.037 150.524L166.759 148.67C167.431 148.37 168.013 147.98 168.505 147.5C169.009 147.008 169.423 146.468 169.747 145.88C170.071 145.28 170.311 144.662 170.467 144.026C170.635 143.378 170.719 142.742 170.719 142.118V141.254ZM171.223 141.254H173.095V142.118C173.095 142.718 173.173 143.33 173.329 143.954C173.497 144.566 173.743 145.16 174.067 145.736C174.391 146.3 174.799 146.816 175.291 147.284C175.795 147.752 176.383 148.142 177.055 148.454L175.795 150.29C175.027 149.954 174.355 149.504 173.779 148.94C173.215 148.376 172.741 147.728 172.357 146.996C171.985 146.264 171.703 145.484 171.511 144.656C171.319 143.816 171.223 142.97 171.223 142.118V141.254ZM167.317 139.634H176.407V141.524H167.317V139.634ZM170.701 137.312H173.095V140.624H170.701V137.312ZM99.5338 177.05H101.334V177.608C101.334 178.448 101.202 179.246 100.938 180.002C100.674 180.758 100.266 181.424 99.7138 182C99.1738 182.588 98.4658 183.038 97.5898 183.35L96.4378 181.604C97.1698 181.352 97.7638 181.016 98.2198 180.596C98.6758 180.176 99.0058 179.708 99.2098 179.192C99.4258 178.664 99.5338 178.136 99.5338 177.608V177.05ZM100.128 177.05H101.838V177.608C101.838 178.136 101.934 178.67 102.126 179.21C102.33 179.738 102.636 180.224 103.044 180.668C103.464 181.112 104.016 181.472 104.7 181.748L103.728 183.53C102.852 183.194 102.15 182.714 101.622 182.09C101.094 181.478 100.71 180.782 100.47 180.002C100.242 179.21 100.128 178.412 100.128 177.608V177.05ZM105.6 177.05H107.31V177.608C107.31 178.376 107.19 179.15 106.95 179.93C106.722 180.71 106.344 181.418 105.816 182.054C105.3 182.69 104.604 183.182 103.728 183.53L102.756 181.748C103.428 181.448 103.974 181.07 104.394 180.614C104.814 180.146 105.12 179.654 105.312 179.138C105.504 178.61 105.6 178.1 105.6 177.608V177.05ZM106.158 177.05H107.958V177.608C107.958 178.172 108.06 178.718 108.264 179.246C108.48 179.774 108.816 180.242 109.272 180.65C109.728 181.058 110.322 181.376 111.054 181.604L109.902 183.35C109.026 183.05 108.312 182.612 107.76 182.036C107.208 181.472 106.8 180.812 106.536 180.056C106.284 179.288 106.158 178.472 106.158 177.608V177.05ZM107.238 166.934H109.632V176.366H107.238V166.934ZM100.56 167.78C101.424 167.78 102.198 167.954 102.882 168.302C103.566 168.638 104.106 169.106 104.502 169.706C104.898 170.306 105.096 170.996 105.096 171.776C105.096 172.556 104.898 173.246 104.502 173.846C104.106 174.446 103.566 174.92 102.882 175.268C102.198 175.604 101.424 175.772 100.56 175.772C99.6958 175.772 98.9218 175.604 98.2378 175.268C97.5538 174.92 97.0138 174.446 96.6178 173.846C96.2218 173.246 96.0238 172.556 96.0238 171.776C96.0238 170.996 96.2218 170.306 96.6178 169.706C97.0138 169.106 97.5538 168.638 98.2378 168.302C98.9218 167.954 99.6958 167.78 100.56 167.78ZM100.56 169.76C100.152 169.76 99.7798 169.844 99.4438 170.012C99.1078 170.168 98.8438 170.396 98.6518 170.696C98.4598 170.984 98.3638 171.344 98.3638 171.776C98.3638 172.196 98.4598 172.562 98.6518 172.874C98.8438 173.174 99.1078 173.402 99.4438 173.558C99.7798 173.714 100.152 173.792 100.56 173.792C100.98 173.792 101.352 173.714 101.676 173.558C102.012 173.402 102.276 173.174 102.468 172.874C102.66 172.562 102.756 172.196 102.756 171.776C102.756 171.344 102.66 170.984 102.468 170.696C102.276 170.396 102.012 170.168 101.676 170.012C101.352 169.844 100.98 169.76 100.56 169.76ZM116.29 176.888H118.108V177.518C118.108 178.37 117.976 179.186 117.712 179.966C117.46 180.746 117.058 181.43 116.506 182.018C115.966 182.606 115.258 183.056 114.382 183.368L113.194 181.64C113.926 181.376 114.514 181.028 114.958 180.596C115.414 180.164 115.75 179.684 115.966 179.156C116.182 178.616 116.29 178.07 116.29 177.518V176.888ZM116.884 176.888H118.612V177.518C118.612 178.07 118.708 178.622 118.9 179.174C119.092 179.714 119.398 180.212 119.818 180.668C120.238 181.124 120.79 181.496 121.474 181.784L120.484 183.548C119.608 183.212 118.906 182.726 118.378 182.09C117.85 181.466 117.466 180.758 117.226 179.966C116.998 179.162 116.884 178.346 116.884 177.518V176.888ZM122.356 176.888H124.084V177.518C124.084 178.298 123.964 179.084 123.724 179.876C123.496 180.668 123.118 181.388 122.59 182.036C122.074 182.696 121.372 183.2 120.484 183.548L119.512 181.784C120.196 181.472 120.748 181.076 121.168 180.596C121.588 180.116 121.888 179.612 122.068 179.084C122.26 178.544 122.356 178.022 122.356 177.518V176.888ZM122.932 176.888H124.732V177.518C124.732 178.106 124.834 178.67 125.038 179.21C125.242 179.75 125.572 180.23 126.028 180.65C126.484 181.07 127.084 181.4 127.828 181.64L126.64 183.368C125.764 183.068 125.05 182.63 124.498 182.054C123.958 181.478 123.562 180.8 123.31 180.02C123.058 179.24 122.932 178.406 122.932 177.518V176.888ZM120.466 170.786H124.408V172.73H120.466V170.786ZM116.938 167.762C117.778 167.762 118.528 167.936 119.188 168.284C119.848 168.632 120.37 169.106 120.754 169.706C121.138 170.306 121.33 170.996 121.33 171.776C121.33 172.544 121.138 173.228 120.754 173.828C120.37 174.428 119.848 174.902 119.188 175.25C118.528 175.598 117.778 175.772 116.938 175.772C116.11 175.772 115.36 175.598 114.688 175.25C114.028 174.902 113.506 174.428 113.122 173.828C112.738 173.228 112.546 172.544 112.546 171.776C112.546 170.996 112.738 170.306 113.122 169.706C113.506 169.106 114.028 168.632 114.688 168.284C115.36 167.936 116.11 167.762 116.938 167.762ZM116.938 169.742C116.542 169.742 116.182 169.826 115.858 169.994C115.534 170.15 115.282 170.378 115.102 170.678C114.922 170.978 114.832 171.344 114.832 171.776C114.832 172.184 114.922 172.544 115.102 172.856C115.282 173.156 115.534 173.39 115.858 173.558C116.182 173.714 116.542 173.792 116.938 173.792C117.346 173.792 117.706 173.714 118.018 173.558C118.342 173.39 118.594 173.156 118.774 172.856C118.954 172.544 119.044 172.184 119.044 171.776C119.044 171.344 118.954 170.978 118.774 170.678C118.594 170.378 118.342 170.15 118.018 169.994C117.706 169.826 117.346 169.742 116.938 169.742ZM123.886 166.934H126.298V176.258H123.886V166.934ZM139.545 166.898H141.957V183.62H139.545V166.898ZM141.435 173.072H144.369V175.052H141.435V173.072ZM129.537 177.644H130.941C131.889 177.644 132.777 177.632 133.605 177.608C134.433 177.572 135.237 177.518 136.017 177.446C136.797 177.362 137.595 177.248 138.411 177.104L138.645 179.084C137.805 179.228 136.977 179.342 136.161 179.426C135.357 179.51 134.529 179.564 133.677 179.588C132.825 179.612 131.913 179.624 130.941 179.624H129.537V177.644ZM129.537 168.446H137.313V170.372H131.931V178.58H129.537V168.446ZM147.342 182.141C146.954 182.141 146.622 182.004 146.345 181.732C146.068 181.459 145.931 181.126 145.936 180.734C145.931 180.351 146.068 180.023 146.345 179.75C146.622 179.477 146.954 179.341 147.342 179.341C147.717 179.341 148.043 179.477 148.32 179.75C148.601 180.023 148.744 180.351 148.748 180.734C148.744 180.994 148.676 181.231 148.544 181.444C148.416 181.657 148.245 181.827 148.032 181.955C147.823 182.079 147.593 182.141 147.342 182.141Z" fill="white"/>
<path d="M77.9408 42.24H81.2008V44.44H77.9408V42.24ZM75.9408 35.22H78.6208V53.74H75.9408V35.22ZM64.6808 37H67.3208V48.52H64.6808V37ZM64.6808 47.02H66.2608C67.5808 47.02 68.9541 46.9667 70.3808 46.86C71.8074 46.7533 73.2674 46.5533 74.7608 46.26L75.0408 48.42C73.4941 48.74 71.9874 48.96 70.5208 49.08C69.0541 49.1867 67.6341 49.24 66.2608 49.24H64.6808V47.02Z" fill="#02C8D1"/>
<path d="M171.04 35.22H173.72V53.8H171.04V35.22ZM173.14 42.08H176.4V44.28H173.14V42.08ZM159.92 47.16H161.48C162.534 47.16 163.52 47.1467 164.44 47.12C165.36 47.08 166.254 47.02 167.12 46.94C167.987 46.8467 168.874 46.72 169.78 46.56L170.04 48.76C169.107 48.92 168.187 49.0467 167.28 49.14C166.387 49.2333 165.467 49.2933 164.52 49.32C163.574 49.3467 162.56 49.36 161.48 49.36H159.92V47.16ZM159.92 36.94H168.56V39.08H162.58V48.2H159.92V36.94ZM179.704 52.1562C179.273 52.1562 178.903 52.0047 178.596 51.7017C178.288 51.3987 178.136 51.0294 178.141 50.5938C178.136 50.1676 178.288 49.803 178.596 49.5C178.903 49.197 179.273 49.0455 179.704 49.0455C180.12 49.0455 180.483 49.197 180.79 49.5C181.103 49.803 181.261 50.1676 181.266 50.5938C181.261 50.8826 181.186 51.1454 181.039 51.3821C180.897 51.6188 180.707 51.8082 180.471 51.9503C180.239 52.0876 179.983 52.1562 179.704 52.1562Z" fill="#02C8D1"/>
<path d="M192.501 94.32H194.521V95.02C194.521 95.9667 194.374 96.8733 194.081 97.74C193.801 98.6067 193.354 99.3667 192.741 100.02C192.141 100.673 191.354 101.173 190.381 101.52L189.061 99.6C189.874 99.3067 190.527 98.92 191.021 98.44C191.527 97.96 191.901 97.4267 192.141 96.84C192.381 96.24 192.501 95.6333 192.501 95.02V94.32ZM193.161 94.32H195.081V95.02C195.081 95.6333 195.187 96.2467 195.401 96.86C195.614 97.46 195.954 98.0133 196.421 98.52C196.887 99.0267 197.501 99.44 198.261 99.76L197.161 101.72C196.187 101.347 195.407 100.807 194.821 100.1C194.234 99.4067 193.807 98.62 193.541 97.74C193.287 96.8467 193.161 95.94 193.161 95.02V94.32ZM199.241 94.32H201.161V95.02C201.161 95.8867 201.027 96.76 200.761 97.64C200.507 98.52 200.087 99.32 199.501 100.04C198.927 100.773 198.147 101.333 197.161 101.72L196.081 99.76C196.841 99.4133 197.454 98.9733 197.921 98.44C198.387 97.9067 198.721 97.3467 198.921 96.76C199.134 96.16 199.241 95.58 199.241 95.02V94.32ZM199.881 94.32H201.881V95.02C201.881 95.6733 201.994 96.3 202.221 96.9C202.447 97.5 202.814 98.0333 203.321 98.5C203.827 98.9667 204.494 99.3333 205.321 99.6L204.001 101.52C203.027 101.187 202.234 100.7 201.621 100.06C201.021 99.42 200.581 98.6667 200.301 97.8C200.021 96.9333 199.881 96.0067 199.881 95.02V94.32ZM197.141 87.54H201.521V89.7H197.141V87.54ZM193.221 84.18C194.154 84.18 194.987 84.3733 195.721 84.76C196.454 85.1467 197.034 85.6733 197.461 86.34C197.887 87.0067 198.101 87.7733 198.101 88.64C198.101 89.4933 197.887 90.2533 197.461 90.92C197.034 91.5867 196.454 92.1133 195.721 92.5C194.987 92.8867 194.154 93.08 193.221 93.08C192.301 93.08 191.467 92.8867 190.721 92.5C189.987 92.1133 189.407 91.5867 188.981 90.92C188.554 90.2533 188.341 89.4933 188.341 88.64C188.341 87.7733 188.554 87.0067 188.981 86.34C189.407 85.6733 189.987 85.1467 190.721 84.76C191.467 84.3733 192.301 84.18 193.221 84.18ZM193.221 86.38C192.781 86.38 192.381 86.4733 192.021 86.66C191.661 86.8333 191.381 87.0867 191.181 87.42C190.981 87.7533 190.881 88.16 190.881 88.64C190.881 89.0933 190.981 89.4933 191.181 89.84C191.381 90.1733 191.661 90.4333 192.021 90.62C192.381 90.7933 192.781 90.88 193.221 90.88C193.674 90.88 194.074 90.7933 194.421 90.62C194.781 90.4333 195.061 90.1733 195.261 89.84C195.461 89.4933 195.561 89.0933 195.561 88.64C195.561 88.16 195.461 87.7533 195.261 87.42C195.061 87.0867 194.781 86.8333 194.421 86.66C194.074 86.4733 193.674 86.38 193.221 86.38ZM200.941 83.26H203.621V93.62H200.941V83.26Z" fill="#02C8D1"/>
<path d="M197.361 141.74H207.041V143.88H197.361V141.74ZM200.841 143.46H203.521V147.38H200.841V143.46ZM197.361 135.88H206.941V138H200.041V142.4H197.361V135.88ZM208.901 134.22H211.561V152.8H208.901V134.22ZM196.501 149.16L196.201 147C197.387 147 198.641 146.993 199.961 146.98C201.281 146.967 202.614 146.933 203.961 146.88C205.321 146.813 206.634 146.707 207.901 146.56L208.081 148.5C206.747 148.713 205.407 148.867 204.061 148.96C202.727 149.053 201.421 149.113 200.141 149.14C198.874 149.153 197.661 149.16 196.501 149.16Z" fill="#02C8D1"/>
<path d="M189.821 187.22H192.481V205.8H189.821V187.22ZM182.501 188.52C183.447 188.52 184.287 188.793 185.021 189.34C185.754 189.873 186.327 190.64 186.741 191.64C187.167 192.627 187.381 193.793 187.381 195.14C187.381 196.5 187.167 197.68 186.741 198.68C186.327 199.667 185.754 200.433 185.021 200.98C184.287 201.513 183.447 201.78 182.501 201.78C181.567 201.78 180.734 201.513 180.001 200.98C179.267 200.433 178.687 199.667 178.261 198.68C177.847 197.68 177.641 196.5 177.641 195.14C177.641 193.793 177.847 192.627 178.261 191.64C178.687 190.64 179.267 189.873 180.001 189.34C180.734 188.793 181.567 188.52 182.501 188.52ZM182.501 190.94C182.047 190.94 181.647 191.1 181.301 191.42C180.954 191.74 180.681 192.213 180.481 192.84C180.294 193.453 180.201 194.22 180.201 195.14C180.201 196.047 180.294 196.82 180.481 197.46C180.681 198.087 180.954 198.56 181.301 198.88C181.647 199.2 182.047 199.36 182.501 199.36C182.967 199.36 183.374 199.2 183.721 198.88C184.067 198.56 184.334 198.087 184.521 197.46C184.721 196.82 184.821 196.047 184.821 195.14C184.821 194.22 184.721 193.453 184.521 192.84C184.334 192.213 184.067 191.74 183.721 191.42C183.374 191.1 182.967 190.94 182.501 190.94Z" fill="#02C8D1"/>
<path d="M57.9608 187.3H60.2808V187.86C60.2808 188.5 60.1741 189.12 59.9608 189.72C59.7608 190.32 59.4541 190.88 59.0408 191.4C58.6274 191.907 58.1208 192.367 57.5208 192.78C56.9341 193.18 56.2541 193.52 55.4808 193.8C54.7074 194.08 53.8474 194.28 52.9008 194.4L51.9208 192.34C52.7474 192.233 53.4808 192.073 54.1208 191.86C54.7741 191.633 55.3408 191.373 55.8208 191.08C56.3008 190.773 56.7008 190.447 57.0208 190.1C57.3408 189.753 57.5741 189.387 57.7208 189C57.8808 188.613 57.9608 188.233 57.9608 187.86V187.3ZM58.7408 187.3H61.0408V187.86C61.0408 188.233 61.1141 188.613 61.2608 189C61.4208 189.387 61.6608 189.753 61.9808 190.1C62.3008 190.447 62.7008 190.773 63.1808 191.08C63.6741 191.373 64.2408 191.633 64.8808 191.86C65.5208 192.073 66.2541 192.233 67.0808 192.34L66.1008 194.4C65.1541 194.28 64.2941 194.08 63.5208 193.8C62.7474 193.52 62.0608 193.18 61.4608 192.78C60.8741 192.367 60.3741 191.907 59.9608 191.4C59.5608 190.88 59.2541 190.32 59.0408 189.72C58.8408 189.12 58.7408 188.5 58.7408 187.86V187.3ZM58.1008 197H60.7608V203.78H58.1008V197ZM51.1208 195.46H67.8808V197.6H51.1208V195.46ZM52.6008 186.2H66.3408V188.3H52.6008V186.2Z" fill="#02C8D1"/>
<path d="M28.1208 144.6H44.8808V146.74H28.1208V144.6ZM35.1008 146H37.7608V152.78H35.1008V146ZM36.4608 134.88C37.7808 134.88 38.9408 135.053 39.9408 135.4C40.9541 135.733 41.7408 136.213 42.3008 136.84C42.8608 137.467 43.1408 138.2 43.1408 139.04C43.1408 139.893 42.8608 140.633 42.3008 141.26C41.7408 141.873 40.9541 142.353 39.9408 142.7C38.9408 143.033 37.7808 143.2 36.4608 143.2C35.1408 143.2 33.9741 143.033 32.9608 142.7C31.9608 142.353 31.1741 141.873 30.6008 141.26C30.0408 140.633 29.7608 139.893 29.7608 139.04C29.7608 138.2 30.0408 137.467 30.6008 136.84C31.1741 136.213 31.9608 135.733 32.9608 135.4C33.9741 135.053 35.1408 134.88 36.4608 134.88ZM36.4408 136.98C35.6408 136.98 34.9408 137.06 34.3408 137.22C33.7541 137.38 33.3008 137.613 32.9808 137.92C32.6608 138.213 32.5008 138.587 32.5008 139.04C32.5008 139.48 32.6608 139.853 32.9808 140.16C33.3008 140.467 33.7541 140.7 34.3408 140.86C34.9408 141.007 35.6408 141.08 36.4408 141.08C37.2674 141.08 37.9741 141.007 38.5608 140.86C39.1474 140.7 39.6008 140.467 39.9208 140.16C40.2541 139.853 40.4208 139.48 40.4208 139.04C40.4208 138.587 40.2541 138.213 39.9208 137.92C39.6008 137.613 39.1474 137.38 38.5608 137.22C37.9741 137.06 37.2674 136.98 36.4408 136.98Z" fill="#02C8D1"/>
<path d="M40.0808 84.48C41.0408 84.48 41.9074 84.6733 42.6808 85.06C43.4541 85.4467 44.0608 85.9867 44.5008 86.68C44.9408 87.36 45.1608 88.1467 45.1608 89.04C45.1608 89.92 44.9408 90.7067 44.5008 91.4C44.0608 92.0933 43.4541 92.6333 42.6808 93.02C41.9074 93.4067 41.0408 93.6 40.0808 93.6C39.1074 93.6 38.2341 93.4067 37.4608 93.02C36.6874 92.6333 36.0741 92.0933 35.6208 91.4C35.1808 90.7067 34.9608 89.92 34.9608 89.04C34.9608 88.1467 35.1808 87.36 35.6208 86.68C36.0741 85.9867 36.6874 85.4467 37.4608 85.06C38.2341 84.6733 39.1074 84.48 40.0808 84.48ZM40.0808 86.76C39.6008 86.76 39.1674 86.8533 38.7808 87.04C38.4074 87.2133 38.1074 87.4733 37.8808 87.82C37.6674 88.1533 37.5608 88.56 37.5608 89.04C37.5608 89.52 37.6674 89.9333 37.8808 90.28C38.1074 90.6267 38.4074 90.8933 38.7808 91.08C39.1674 91.2533 39.6008 91.34 40.0808 91.34C40.5474 91.34 40.9674 91.2533 41.3408 91.08C41.7141 90.8933 42.0074 90.6267 42.2208 90.28C42.4474 89.9333 42.5608 89.52 42.5608 89.04C42.5608 88.56 42.4474 88.1533 42.2208 87.82C42.0074 87.4733 41.7141 87.2133 41.3408 87.04C40.9674 86.8533 40.5474 86.76 40.0808 86.76ZM46.9008 83.22H49.5608V101.8H46.9008V83.22ZM34.5008 98.06L34.2008 95.9C35.2808 95.9 36.4741 95.8933 37.7808 95.88C39.1008 95.8533 40.4541 95.8 41.8408 95.72C43.2408 95.6267 44.5941 95.4867 45.9008 95.3L46.0808 97.22C44.7474 97.4867 43.3941 97.68 42.0208 97.8C40.6474 97.9067 39.3208 97.98 38.0408 98.02C36.7608 98.0467 35.5808 98.06 34.5008 98.06Z" fill="#02C8D1"/>
<path d="M126.021 208.26H128.681V217.5H126.021V208.26ZM127.621 211.8H131.121V213.96H127.621V211.8ZM116.461 218.22H128.681V223.3H119.121V225.52H116.481V221.38H126.061V220.28H116.461V218.22ZM116.481 224.5H129.221V226.58H116.481V224.5ZM119.161 208.78C120.121 208.78 120.967 208.96 121.701 209.32C122.447 209.68 123.034 210.173 123.461 210.8C123.901 211.427 124.121 212.153 124.121 212.98C124.121 213.793 123.901 214.52 123.461 215.16C123.034 215.8 122.447 216.3 121.701 216.66C120.967 217.007 120.121 217.18 119.161 217.18C118.227 217.18 117.387 217.007 116.641 216.66C115.907 216.3 115.321 215.8 114.881 215.16C114.454 214.52 114.241 213.793 114.241 212.98C114.241 212.153 114.454 211.427 114.881 210.8C115.321 210.173 115.907 209.68 116.641 209.32C117.387 208.96 118.227 208.78 119.161 208.78ZM119.181 210.92C118.727 210.92 118.321 211.007 117.961 211.18C117.601 211.34 117.314 211.573 117.101 211.88C116.901 212.173 116.801 212.54 116.801 212.98C116.801 213.42 116.901 213.8 117.101 214.12C117.314 214.427 117.601 214.66 117.961 214.82C118.321 214.98 118.727 215.06 119.181 215.06C119.634 215.06 120.041 214.98 120.401 214.82C120.761 214.66 121.041 214.427 121.241 214.12C121.441 213.8 121.541 213.42 121.541 212.98C121.541 212.54 121.441 212.173 121.241 211.88C121.041 211.573 120.761 211.34 120.401 211.18C120.041 211.007 119.634 210.92 119.181 210.92Z" fill="#02C8D1"/>
</svg>
