<svg width="131" height="87" viewBox="0 0 131 87" fill="none" xmlns="http://www.w3.org/2000/svg">
<path d="M32.1439 40.26H34.8239V58.78H32.1439V40.26ZM34.2439 47.14H37.5039V49.34H34.2439V47.14ZM20.8839 41.7H23.5239V46.22H27.2439V41.7H29.8839V54.48H20.8839V41.7ZM23.5239 48.28V52.36H27.2439V48.28H23.5239ZM50.5423 40.22H53.2223V58.8H50.5423V40.22ZM52.6423 47.08H55.9023V49.28H52.6423V47.08ZM39.4223 52.16H40.9823C42.0357 52.16 43.0223 52.1467 43.9423 52.12C44.8623 52.08 45.7557 52.02 46.6223 51.94C47.489 51.8467 48.3757 51.72 49.2823 51.56L49.5423 53.76C48.609 53.92 47.689 54.0467 46.7823 54.14C45.889 54.2333 44.969 54.2933 44.0223 54.32C43.0757 54.3467 42.0623 54.36 40.9823 54.36H39.4223V52.16ZM39.4223 41.94H48.0623V44.08H42.0823V53.2H39.4223V41.94ZM69.9408 40.26H72.6008V58.78H69.9408V40.26ZM66.3808 47.34H71.2408V49.5H66.3808V47.34ZM63.8808 42.16H66.5008C66.5008 43.56 66.3674 44.9 66.1008 46.18C65.8474 47.4467 65.4141 48.6467 64.8008 49.78C64.1874 50.9133 63.3474 51.9667 62.2808 52.94C61.2274 53.9 59.9008 54.78 58.3008 55.58L56.9008 53.52C58.2074 52.8667 59.3008 52.16 60.1808 51.4C61.0741 50.64 61.7941 49.82 62.3408 48.94C62.8874 48.06 63.2808 47.1 63.5208 46.06C63.7608 45.0067 63.8808 43.8667 63.8808 42.64V42.16ZM57.7808 42.16H65.2808V44.28H57.7808V42.16ZM82.5192 50.66H85.1792V53.48H82.5192V50.66ZM75.4992 49.06H92.2592V51.18H75.4992V49.06ZM77.3592 52.74H90.2392V58.78H87.5792V54.84H77.3592V52.74ZM77.6392 40.72H80.2592V42.34H87.4992V40.72H90.1392V47.86H77.6392V40.72ZM80.2592 44.34V45.78H87.4992V44.34H80.2592ZM99.8777 41.48C100.838 41.48 101.704 41.6733 102.478 42.06C103.251 42.4467 103.858 42.9867 104.298 43.68C104.738 44.36 104.958 45.1467 104.958 46.04C104.958 46.92 104.738 47.7067 104.298 48.4C103.858 49.0933 103.251 49.6333 102.478 50.02C101.704 50.4067 100.838 50.6 99.8777 50.6C98.9043 50.6 98.031 50.4067 97.2577 50.02C96.4843 49.6333 95.871 49.0933 95.4177 48.4C94.9777 47.7067 94.7577 46.92 94.7577 46.04C94.7577 45.1467 94.9777 44.36 95.4177 43.68C95.871 42.9867 96.4843 42.4467 97.2577 42.06C98.031 41.6733 98.9043 41.48 99.8777 41.48ZM99.8777 43.76C99.3977 43.76 98.9643 43.8533 98.5777 44.04C98.2043 44.2133 97.9043 44.4733 97.6777 44.82C97.4643 45.1533 97.3577 45.56 97.3577 46.04C97.3577 46.52 97.4643 46.9333 97.6777 47.28C97.9043 47.6267 98.2043 47.8933 98.5777 48.08C98.9643 48.2533 99.3977 48.34 99.8777 48.34C100.344 48.34 100.764 48.2533 101.138 48.08C101.511 47.8933 101.804 47.6267 102.018 47.28C102.244 46.9333 102.358 46.52 102.358 46.04C102.358 45.56 102.244 45.1533 102.018 44.82C101.804 44.4733 101.511 44.2133 101.138 44.04C100.764 43.8533 100.344 43.76 99.8777 43.76ZM106.698 40.22H109.358V58.8H106.698V40.22ZM94.2977 55.06L93.9977 52.9C95.0777 52.9 96.271 52.8933 97.5777 52.88C98.8977 52.8533 100.251 52.8 101.638 52.72C103.038 52.6267 104.391 52.4867 105.698 52.3L105.878 54.22C104.544 54.4867 103.191 54.68 101.818 54.8C100.444 54.9067 99.1177 54.98 97.8377 55.02C96.5577 55.0467 95.3777 55.06 94.2977 55.06Z" fill="white"/>
<path d="M23.7817 67.02H26.4017V77.78H23.7817V67.02ZM23.7817 77.1H25.0817C26.1884 77.1 27.2351 77.0667 28.2217 77C29.2217 76.9333 30.2551 76.7933 31.3217 76.58L31.6617 78.8C30.5551 79.0267 29.4751 79.1733 28.4217 79.24C27.3684 79.3067 26.2551 79.34 25.0817 79.34H23.7817V77.1ZM36.4817 65.24H39.0217V83.76H36.4817V65.24ZM28.9217 71.1H33.1617V73.24H28.9217V71.1ZM32.5617 65.56H35.0417V82.94H32.5617V65.56ZM58.2611 65.22H60.9411V83.8H58.2611V65.22ZM60.3611 72.08H63.6211V74.28H60.3611V72.08ZM47.1411 77.16H48.7011C49.7544 77.16 50.7411 77.1467 51.6611 77.12C52.5811 77.08 53.4744 77.02 54.3411 76.94C55.2078 76.8467 56.0944 76.72 57.0011 76.56L57.2611 78.76C56.3278 78.92 55.4078 79.0467 54.5011 79.14C53.6078 79.2333 52.6878 79.2933 51.7411 79.32C50.7944 79.3467 49.7811 79.36 48.7011 79.36H47.1411V77.16ZM47.1411 66.94H55.7811V69.08H49.8011V78.2H47.1411V66.94ZM82.5405 65.22H85.2205V83.8H82.5405V65.22ZM70.8005 77.32H72.4405C73.5338 77.32 74.5671 77.3067 75.5405 77.28C76.5138 77.24 77.4671 77.18 78.4005 77.1C79.3338 77.0067 80.2871 76.8733 81.2605 76.7L81.5405 78.84C80.0471 79.1067 78.5738 79.2867 77.1205 79.38C75.6805 79.46 74.1205 79.5 72.4405 79.5H70.8005V77.32ZM70.7605 66.8H79.5005V73.98H73.5005V78.14H70.8005V71.88H76.8005V68.94H70.7605V66.8ZM93.1598 73.56H109.92V75.48H93.1598V73.56ZM95.0398 76.42H107.94V80.82H97.6998V82.4H95.0598V79.14H105.32V78.22H95.0398V76.42ZM95.0598 81.82H108.46V83.62H95.0598V81.82ZM95.1998 65.56H107.88V69.94H97.8598V71.44H95.2398V68.26H105.26V67.36H95.1998V65.56ZM95.2398 70.9H108.22V72.7H95.2398V70.9Z" fill="white"/>
<line x1="21.25" y1="63" x2="21.25" y2="87" stroke="white" stroke-width="0.5"/>
<line x1="42.25" y1="63" x2="42.25" y2="87" stroke="white" stroke-width="0.5"/>
<line x1="45.25" y1="63" x2="45.25" y2="87" stroke="white" stroke-width="0.5"/>
<line x1="69.25" y1="63" x2="69.25" y2="87" stroke="white" stroke-width="0.5"/>
<line x1="92.25" y1="63" x2="92.25" y2="87" stroke="white" stroke-width="0.5"/>
<line x1="66.25" y1="63" x2="66.25" y2="87" stroke="white" stroke-width="0.5"/>
<line x1="88.25" y1="63" x2="88.25" y2="87" stroke="white" stroke-width="0.5"/>
<line x1="112.25" y1="63" x2="112.25" y2="87" stroke="white" stroke-width="0.5"/>
<line x1="21" y1="86.75" x2="42" y2="86.75" stroke="white" stroke-width="0.5"/>
<line x1="45" y1="86.75" x2="66" y2="86.75" stroke="white" stroke-width="0.5"/>
<line x1="69" y1="86.75" x2="88" y2="86.75" stroke="white" stroke-width="0.5"/>
<line x1="92" y1="86.75" x2="112" y2="86.75" stroke="white" stroke-width="0.5"/>
<path d="M11.5 43.0002C14.1667 38.2218 28.6 28.665 65 28.665C101.4 28.665 115.833 38.2218 118.5 43.0002" stroke="white" stroke-width="0.5"/>
</svg>
