<svg width="590" height="379" viewBox="0 0 590 379" fill="none" xmlns="http://www.w3.org/2000/svg">
<line x1="62" y1="205.666" x2="529" y2="205.666" stroke="#046284" stroke-width="3"/>
<line y1="-1.5" x2="463.669" y2="-1.5" transform="matrix(0.993003 0.118092 -0.273333 0.961919 65 179.788)" stroke="#02C8D1" stroke-width="3"/>
<line y1="-1.5" x2="452.971" y2="-1.5" transform="matrix(0.97087 0.239606 -0.527899 0.849307 76 152.899)" stroke="#F5AF73" stroke-width="3"/>
<line y1="-1.5" x2="435.964" y2="-1.5" transform="matrix(0.933114 0.359582 -0.714497 0.699638 92 128.784)" stroke="#02A4AF" stroke-width="3"/>
<line y1="-1.5" x2="422.422" y2="-1.5" transform="matrix(0.872186 0.489175 -0.727008 0.686628 111 101.592)" stroke="#E3C392" stroke-width="3"/>
<line y1="-1.5" x2="401.767" y2="-1.5" transform="matrix(0.777525 0.628852 -0.836549 0.547892 139 80.8404)" stroke="#046284" stroke-width="3"/>
<line y1="-1.5" x2="381.014" y2="-1.5" transform="matrix(0.661555 0.749897 -0.920239 0.391357 169 64.5756)" stroke="#02C8D1" stroke-width="3"/>
<line y1="-1.5" x2="360.6" y2="-1.5" transform="matrix(0.508383 0.861131 -0.974242 0.225505 204 52.0051)" stroke="#F5AF73" stroke-width="3"/>
<line y1="-1.5" x2="343.711" y2="-1.5" transform="matrix(0.32588 0.945411 -0.997676 0.0681417 239 44.5827)" stroke="#02A4AF" stroke-width="3"/>
<line y1="-1.5" x2="337.071" y2="-1.5" transform="matrix(0.107716 0.994182 -0.998357 0.0572977 277 39)" stroke="#E3C392" stroke-width="3"/>
<line y1="-1.5" x2="340.849" y2="-1.5" transform="matrix(-0.109443 0.993993 -0.998304 -0.0582246 314 39.2984)" stroke="#046284" stroke-width="3"/>
<line y1="-1.5" x2="348.09" y2="-1.5" transform="matrix(-0.321098 0.947046 -0.978186 -0.207729 352 42.7769)" stroke="#02C8D1" stroke-width="3"/>
<line y1="-1.5" x2="360.709" y2="-1.5" transform="matrix(-0.509489 0.860477 -0.927787 -0.37311 388 52.1878)" stroke="#F5AF73" stroke-width="3"/>
<line y1="-1.5" x2="375.466" y2="-1.5" transform="matrix(-0.658379 0.752687 -0.843327 -0.537401 419 65.7918)" stroke="#02A4AF" stroke-width="3"/>
<line y1="-1.5" x2="392.181" y2="-1.5" transform="matrix(-0.779391 0.626538 -0.71581 -0.698295 449 84.7169)" stroke="#E3C392" stroke-width="3"/>
<line y1="-1.5" x2="424.536" y2="-1.5" transform="matrix(-0.873733 0.486406 -0.72445 -0.689328 481 101.832)" stroke="#046284" stroke-width="3"/>
<line y1="-1.5" x2="441.468" y2="-1.5" transform="matrix(-0.931926 0.362649 -0.552042 -0.833816 501 125.252)" stroke="#02C8D1" stroke-width="3"/>
<line y1="-1.5" x2="453.031" y2="-1.5" transform="matrix(-0.971032 0.23895 -0.303915 -0.952699 516 151.037)" stroke="#F5AF73" stroke-width="3"/>
<line y1="-1.5" x2="457.343" y2="-1.5" transform="matrix(-0.992646 0.121055 -0.0189396 -0.999821 523 177.308)" stroke="#02A4AF" stroke-width="3"/>
<path d="M97.4219 31.0508H93.1445V24.8203H97.4219V31.0508ZM111.387 26.8516H79.2383V23.3555H111.387V26.8516ZM95.2734 29.8008C97.8255 29.8008 100.013 30.0482 101.836 30.543C103.672 31.0247 105.072 31.7409 106.035 32.6914C107.012 33.6419 107.5 34.7878 107.5 36.1289C107.5 37.457 107.012 38.5898 106.035 39.5273C105.072 40.4648 103.672 41.181 101.836 41.6758C100.013 42.1706 97.8255 42.418 95.2734 42.418C92.7083 42.418 90.5078 42.1706 88.6719 41.6758C86.8359 41.181 85.4232 40.4648 84.4336 39.5273C83.457 38.5898 82.9688 37.457 82.9688 36.1289C82.9688 34.7878 83.457 33.6419 84.4336 32.6914C85.4102 31.7409 86.8164 31.0247 88.6523 30.543C90.5013 30.0482 92.7083 29.8008 95.2734 29.8008ZM95.2734 33.1016C93.5547 33.1016 92.1094 33.2188 90.9375 33.4531C89.7786 33.6875 88.8997 34.026 88.3008 34.4688C87.7018 34.9115 87.4023 35.4648 87.4023 36.1289C87.4023 36.7539 87.7018 37.2943 88.3008 37.75C88.8997 38.1927 89.7852 38.5378 90.957 38.7852C92.1289 39.0195 93.5677 39.1367 95.2734 39.1367C96.9531 39.1367 98.3854 39.0195 99.5703 38.7852C100.755 38.5378 101.647 38.1927 102.246 37.75C102.845 37.2943 103.145 36.7539 103.145 36.1289C103.145 35.4648 102.845 34.9115 102.246 34.4688C101.647 34.026 100.762 33.6875 99.5898 33.4531C98.418 33.2188 96.9792 33.1016 95.2734 33.1016ZM96.1914 11.3047C96.1914 13.1016 95.6185 14.7422 94.4727 16.2266C93.3398 17.6979 91.7188 18.9154 89.6094 19.8789C87.513 20.8424 85.0586 21.4674 82.2461 21.7539L80.7812 18.3359C83.112 18.1016 85.1497 17.6393 86.8945 16.9492C88.6523 16.2591 90 15.4193 90.9375 14.4297C91.875 13.4271 92.3438 12.3854 92.3438 11.3047V10.3281H96.1914V11.3047ZM98.2227 11.3047C98.2227 12.3854 98.6849 13.4271 99.6094 14.4297C100.547 15.4193 101.901 16.2591 103.672 16.9492C105.443 17.6393 107.513 18.1016 109.883 18.3359L108.34 21.7539C105.566 21.4674 103.118 20.8424 100.996 19.8789C98.8737 18.9154 97.2331 17.6979 96.0742 16.2266C94.9154 14.7422 94.3359 13.1016 94.3359 11.3047V10.3281H98.2227V11.3047ZM108.496 12.1836H82.1484V8.72656H108.496V12.1836ZM140.469 12.2617H117.773V8.78516H140.469V12.2617ZM146.074 24.5664H113.809V21.0898H146.074V24.5664ZM132.031 31.2852H127.695V23.4922H132.031V31.2852ZM142.109 11.4805C142.109 13.5508 142.044 15.4258 141.914 17.1055C141.797 18.7721 141.491 20.6667 140.996 22.7891L136.699 22.3008C137.025 20.8685 137.266 19.5208 137.422 18.2578C137.578 16.9948 137.676 15.8945 137.715 14.957C137.754 14.0065 137.773 12.8477 137.773 11.4805V8.78516H142.109V11.4805ZM142.207 42.4375H137.852V33.5508H117.051V30.0938H142.207V42.4375ZM177.754 33.0039H173.398V7.20312H177.754V33.0039ZM178.75 41.8125H154.395V38.2578H178.75V41.8125ZM158.77 40.0938H154.395V30.543H158.77V40.0938ZM160.684 12.6133C160.684 14.944 160.293 17.138 159.512 19.1953C158.73 21.2526 157.585 23.056 156.074 24.6055C154.577 26.1549 152.773 27.3138 150.664 28.082L148.379 24.6836C150.241 24.0195 151.823 23.069 153.125 21.832C154.44 20.582 155.423 19.1628 156.074 17.5742C156.725 15.9727 157.051 14.319 157.051 12.6133V9.15625H160.684V12.6133ZM161.543 12.6133C161.543 14.2669 161.862 15.849 162.5 17.3594C163.138 18.8568 164.095 20.1914 165.371 21.3633C166.66 22.5221 168.21 23.4076 170.02 24.0195L167.773 27.4766C165.677 26.7344 163.893 25.6341 162.422 24.1758C160.951 22.7174 159.831 20.9987 159.062 19.0195C158.294 17.0404 157.91 14.9049 157.91 12.6133V9.15625H161.543V12.6133ZM195.898 33.8438H191.543V28.082H195.898V33.8438ZM210.859 42.4375H206.484V7.16406H210.859V42.4375ZM215.82 25.3477H209.414V21.7539H215.82V25.3477ZM182.52 32.6719C186.855 32.6849 190.82 32.6263 194.414 32.4961C198.008 32.3659 201.406 32.0794 204.609 31.6367L204.902 34.8398C202.559 35.2565 200.124 35.569 197.598 35.7773C195.085 35.9727 192.715 36.1029 190.488 36.168C188.262 36.2331 185.807 36.2656 183.125 36.2656L182.52 32.6719ZM204.199 14.6641H183.164V11.2266H204.199V14.6641ZM193.77 16.2852C195.423 16.2852 196.895 16.5651 198.184 17.125C199.486 17.6719 200.501 18.4466 201.23 19.4492C201.96 20.4388 202.324 21.5846 202.324 22.8867C202.324 24.1758 201.96 25.3151 201.23 26.3047C200.501 27.2943 199.486 28.069 198.184 28.6289C196.895 29.1758 195.423 29.4492 193.77 29.4492C192.09 29.4492 190.599 29.1758 189.297 28.6289C187.995 28.069 186.986 27.3008 186.27 26.3242C185.553 25.3346 185.195 24.1888 185.195 22.8867C185.195 21.5846 185.553 20.4388 186.27 19.4492C186.986 18.4466 187.995 17.6719 189.297 17.125C190.599 16.5651 192.09 16.2852 193.77 16.2852ZM193.77 19.6055C192.884 19.6055 192.103 19.7357 191.426 19.9961C190.749 20.2565 190.221 20.6341 189.844 21.1289C189.479 21.6237 189.297 22.2096 189.297 22.8867C189.297 23.5508 189.479 24.1302 189.844 24.625C190.208 25.1198 190.729 25.4909 191.406 25.7383C192.096 25.9857 192.884 26.1094 193.77 26.1094C194.642 26.1094 195.41 25.9857 196.074 25.7383C196.751 25.4909 197.272 25.1198 197.637 24.625C198.001 24.1302 198.184 23.5508 198.184 22.8867C198.184 22.2096 198.001 21.6237 197.637 21.1289C197.272 20.6341 196.751 20.2565 196.074 19.9961C195.41 19.7357 194.642 19.6055 193.77 19.6055ZM195.898 13.6875H191.543V7.32031H195.898V13.6875ZM238.008 23.9609H231.797V20.4648H238.008V23.9609ZM247.969 42.4375H243.789V7.16406H247.969V42.4375ZM240.703 40.7773H236.582V7.76953H240.703V40.7773ZM225.488 9.83984C227.051 9.83984 228.411 10.3477 229.57 11.3633C230.729 12.3789 231.628 13.8372 232.266 15.7383C232.904 17.6393 233.223 19.8724 233.223 22.4375C233.223 24.9896 232.904 27.2227 232.266 29.1367C231.628 31.0378 230.729 32.5026 229.57 33.5312C228.411 34.5599 227.051 35.0742 225.488 35.0742C223.952 35.0742 222.604 34.5599 221.445 33.5312C220.299 32.5026 219.408 31.0378 218.77 29.1367C218.145 27.2227 217.832 24.9896 217.832 22.4375C217.832 19.8594 218.145 17.6263 218.77 15.7383C219.408 13.8372 220.306 12.3789 221.465 11.3633C222.624 10.3477 223.965 9.83984 225.488 9.83984ZM225.488 13.9414C224.733 13.9414 224.082 14.2669 223.535 14.918C222.988 15.569 222.572 16.5326 222.285 17.8086C222.012 19.0716 221.875 20.6146 221.875 22.4375C221.875 24.2474 222.012 25.7904 222.285 27.0664C222.572 28.3294 222.988 29.2865 223.535 29.9375C224.095 30.5885 224.746 30.9141 225.488 30.9141C226.257 30.9141 226.914 30.5885 227.461 29.9375C228.021 29.2865 228.451 28.3294 228.75 27.0664C229.049 25.7904 229.199 24.2474 229.199 22.4375C229.199 20.6146 229.049 19.0716 228.75 17.8086C228.451 16.5326 228.021 15.569 227.461 14.918C226.914 14.2669 226.257 13.9414 225.488 13.9414ZM279.531 22.0859H269.961V18.5898H279.531V22.0859ZM264.238 15.6406C264.238 18.5052 263.861 21.2331 263.105 23.8242C262.35 26.4023 261.237 28.6875 259.766 30.6797C258.294 32.6719 256.53 34.1953 254.473 35.25L251.719 31.7148C253.594 30.8424 255.208 29.5664 256.562 27.8867C257.917 26.207 258.945 24.3125 259.648 22.2031C260.352 20.0807 260.703 17.8932 260.703 15.6406V9.99609H264.238V15.6406ZM265.117 15.6406C265.117 17.8802 265.456 20.0221 266.133 22.0664C266.823 24.1107 267.826 25.9271 269.141 27.5156C270.469 29.1042 272.044 30.3086 273.867 31.1289L271.25 34.6055C269.193 33.5898 267.441 32.1315 265.996 30.2305C264.564 28.3164 263.477 26.1159 262.734 23.6289C261.992 21.1419 261.621 18.4792 261.621 15.6406V9.99609H265.117V15.6406ZM281.66 42.5352H277.363V7.16406H281.66V42.5352ZM325.723 42.4375H321.406V7.16406H325.723V42.4375ZM323.438 24.5078H313.926V20.9531H323.438V24.5078ZM314.082 10.9141C314.082 14.599 313.587 17.9583 312.598 20.9922C311.621 24.013 309.961 26.806 307.617 29.3711C305.273 31.9232 302.142 34.1758 298.223 36.1289L295.957 32.7109C299.29 31.0703 301.973 29.2148 304.004 27.1445C306.048 25.0742 307.526 22.7695 308.438 20.2305C309.362 17.6784 309.824 14.8203 309.824 11.6562V10.9141H314.082ZM312.09 14.3516H297.578V10.9141H312.09V14.3516ZM348.926 32.3203H344.648V26.6758H348.926V32.3203ZM362.91 27.6133H330.762V24.1562H362.91V27.6133ZM358.984 42.4375H354.629V34.5078H334.316V31.0117H358.984V42.4375ZM339.199 11.5391H354.434V8.02344H358.75V21.5195H334.922V8.02344H339.199V11.5391ZM354.434 18.082V14.7617H339.199V18.082H354.434ZM397.48 28.8828H365.332V25.4062H397.48V28.8828ZM393.848 41.8125H369.297V38.2578H393.848V41.8125ZM373.652 39.3711H369.297V31.4805H373.652V39.3711ZM381.406 8.31641C383.945 8.30339 386.172 8.58333 388.086 9.15625C390 9.72917 391.478 10.556 392.52 11.6367C393.561 12.7174 394.082 13.9935 394.082 15.4648C394.082 16.9362 393.561 18.2122 392.52 19.293C391.478 20.3607 390 21.1875 388.086 21.7734C386.172 22.3594 383.945 22.6589 381.406 22.6719C378.828 22.6589 376.582 22.3594 374.668 21.7734C372.754 21.1875 371.27 20.3607 370.215 19.293C369.173 18.2122 368.652 16.9362 368.652 15.4648C368.652 13.9935 369.173 12.7174 370.215 11.6367C371.27 10.556 372.754 9.72917 374.668 9.15625C376.582 8.58333 378.828 8.30339 381.406 8.31641ZM381.406 11.7539C379.688 11.7539 378.21 11.8971 376.973 12.1836C375.736 12.4701 374.792 12.8932 374.141 13.4531C373.49 14.013 373.164 14.6836 373.164 15.4648C373.164 16.2331 373.483 16.8971 374.121 17.457C374.772 18.0039 375.716 18.4206 376.953 18.707C378.19 18.9935 379.674 19.1367 381.406 19.1367C383.112 19.1367 384.577 18.9935 385.801 18.707C387.038 18.4206 387.982 18.0039 388.633 17.457C389.297 16.8971 389.629 16.2331 389.629 15.4648C389.629 14.6836 389.297 14.013 388.633 13.4531C387.982 12.8932 387.038 12.4701 385.801 12.1836C384.577 11.8971 383.112 11.7539 381.406 11.7539ZM429.746 22.9062H423.418V19.332H429.746V22.9062ZM419.59 16.6172C419.59 19.2734 419.29 21.8125 418.691 24.2344C418.105 26.6432 417.207 28.8047 415.996 30.7188C414.785 32.6198 413.294 34.1107 411.523 35.1914L408.848 31.9688C410.488 30.9661 411.862 29.651 412.969 28.0234C414.076 26.3958 414.896 24.612 415.43 22.6719C415.977 20.7318 416.25 18.7135 416.25 16.6172V10.3086H419.59V16.6172ZM420.449 16.4414C420.449 18.4596 420.684 20.3867 421.152 22.2227C421.634 24.0456 422.376 25.7318 423.379 27.2812C424.395 28.8307 425.664 30.0872 427.188 31.0508L424.805 34.4102C423.047 33.3555 421.602 31.8906 420.469 30.0156C419.336 28.1406 418.503 26.0573 417.969 23.7656C417.435 21.474 417.168 19.0326 417.168 16.4414V10.3086H420.449V16.4414ZM439.883 42.4375H435.703V7.16406H439.883V42.4375ZM432.52 40.7773H428.457V7.76953H432.52V40.7773ZM455.703 12.3789C455.703 14.7096 455.326 16.8841 454.57 18.9023C453.815 20.9206 452.708 22.6784 451.25 24.1758C449.805 25.6602 448.034 26.7799 445.938 27.5352L443.594 24.1172C445.443 23.4661 447.005 22.5482 448.281 21.3633C449.57 20.1654 450.534 18.7982 451.172 17.2617C451.823 15.7122 452.148 14.0846 452.148 12.3789V9.01953H455.703V12.3789ZM456.484 12.7891C456.484 14.2865 456.803 15.7188 457.441 17.0859C458.092 18.4531 459.036 19.6641 460.273 20.7188C461.523 21.7734 463.027 22.5872 464.785 23.1602L462.461 26.5391C460.469 25.862 458.757 24.8464 457.324 23.4922C455.892 22.125 454.805 20.5234 454.062 18.6875C453.333 16.8516 452.969 14.8854 452.969 12.7891V9.01953H456.484V12.7891ZM471.836 28.2773H467.5V7.16406H471.836V28.2773ZM476.777 19.3516H470.605V15.7383H476.777V19.3516ZM460.352 29.0586C462.773 29.0586 464.87 29.319 466.641 29.8398C468.424 30.3607 469.792 31.1224 470.742 32.125C471.693 33.1146 472.168 34.3125 472.168 35.7188C472.168 37.125 471.693 38.3294 470.742 39.332C469.792 40.3477 468.431 41.1159 466.66 41.6367C464.889 42.1576 462.786 42.418 460.352 42.418C457.917 42.418 455.794 42.1576 453.984 41.6367C452.188 41.1159 450.801 40.3477 449.824 39.332C448.861 38.3294 448.379 37.125 448.379 35.7188C448.379 34.3125 448.861 33.1146 449.824 32.125C450.801 31.1224 452.188 30.3607 453.984 29.8398C455.794 29.319 457.917 29.0586 460.352 29.0586ZM460.352 32.4766C458.75 32.4766 457.376 32.6003 456.23 32.8477C455.098 33.0951 454.232 33.4661 453.633 33.9609C453.047 34.4427 452.754 35.0286 452.754 35.7188C452.754 36.4349 453.047 37.0404 453.633 37.5352C454.232 38.0169 455.091 38.3815 456.211 38.6289C457.344 38.8763 458.724 39.0065 460.352 39.0195C461.992 39.0065 463.372 38.8763 464.492 38.6289C465.612 38.3815 466.458 38.0169 467.031 37.5352C467.604 37.0404 467.891 36.4349 467.891 35.7188C467.891 35.0156 467.598 34.4232 467.012 33.9414C466.439 33.4596 465.586 33.0951 464.453 32.8477C463.32 32.6003 461.953 32.4766 460.352 32.4766ZM507.93 42.5352H503.535V7.16406H507.93V42.5352ZM488.906 9.74219C490.677 9.74219 492.259 10.2565 493.652 11.2852C495.046 12.3008 496.133 13.7526 496.914 15.6406C497.695 17.5156 498.086 19.7031 498.086 22.2031C498.086 24.7161 497.695 26.9167 496.914 28.8047C496.133 30.6797 495.046 32.1315 493.652 33.1602C492.259 34.1888 490.677 34.7031 488.906 34.7031C487.122 34.7031 485.534 34.1888 484.141 33.1602C482.747 32.1315 481.654 30.6797 480.859 28.8047C480.078 26.9167 479.688 24.7161 479.688 22.2031C479.688 19.7031 480.078 17.5156 480.859 15.6406C481.654 13.7526 482.747 12.3008 484.141 11.2852C485.534 10.2565 487.122 9.74219 488.906 9.74219ZM488.906 13.6484C487.917 13.6354 487.038 13.974 486.27 14.6641C485.514 15.3411 484.928 16.3242 484.512 17.6133C484.095 18.9023 483.887 20.4323 483.887 22.2031C483.887 23.974 484.095 25.5104 484.512 26.8125C484.928 28.1016 485.514 29.0846 486.27 29.7617C487.038 30.4258 487.917 30.7578 488.906 30.7578C489.896 30.7578 490.768 30.4258 491.523 29.7617C492.279 29.0846 492.865 28.1016 493.281 26.8125C493.698 25.5104 493.906 23.974 493.906 22.2031C493.906 20.4323 493.698 18.9023 493.281 17.6133C492.865 16.3242 492.279 15.3411 491.523 14.6641C490.781 13.974 489.909 13.6354 488.906 13.6484ZM98.1445 64.7227C98.1445 66.7799 97.7604 68.707 96.9922 70.5039C96.224 72.3008 95.0911 73.8568 93.5938 75.1719C92.1094 76.487 90.3255 77.4701 88.2422 78.1211L86.1133 74.7031C87.9232 74.1823 89.4661 73.4141 90.7422 72.3984C92.0312 71.3828 93.0078 70.2174 93.6719 68.9023C94.3359 67.5742 94.668 66.181 94.668 64.7227V63.375H98.1445V64.7227ZM98.9648 64.7227C98.9648 66.0378 99.2839 67.2943 99.9219 68.4922C100.573 69.6901 101.53 70.7513 102.793 71.6758C104.056 72.6003 105.586 73.3099 107.383 73.8047L105.391 77.2422C103.294 76.6432 101.491 75.7253 99.9805 74.4883C98.4831 73.2513 97.3503 71.793 96.582 70.1133C95.8138 68.4206 95.4297 66.6237 95.4297 64.7227V63.375H98.9648V64.7227ZM106.367 64.5664H87.2656V61.0898H106.367V64.5664ZM99.0234 62.3984H94.668V57.0078H99.0234V62.3984ZM114.141 78.5898H109.805V57.1641H114.141V78.5898ZM119.082 69.3516H112.91V65.8164H119.082V69.3516ZM102.656 79.293C105.091 79.293 107.194 79.5534 108.965 80.0742C110.749 80.5951 112.109 81.3503 113.047 82.3398C113.997 83.3164 114.473 84.4948 114.473 85.875C114.473 87.2422 113.997 88.4141 113.047 89.3906C112.109 90.3672 110.755 91.1094 108.984 91.6172C107.227 92.125 105.117 92.3789 102.656 92.3789C100.182 92.3789 98.0469 92.125 96.25 91.6172C94.4661 91.1094 93.0924 90.3672 92.1289 89.3906C91.1654 88.4141 90.6836 87.2422 90.6836 85.875C90.6836 84.4948 91.1654 83.3164 92.1289 82.3398C93.0924 81.3503 94.4727 80.5951 96.2695 80.0742C98.0664 79.5534 100.195 79.293 102.656 79.293ZM102.656 82.6719C101.016 82.6719 99.6289 82.7891 98.4961 83.0234C97.3633 83.2448 96.5039 83.5964 95.918 84.0781C95.3451 84.5599 95.0586 85.1589 95.0586 85.875C95.0586 86.5651 95.3451 87.1576 95.918 87.6523C96.5039 88.1341 97.3633 88.4987 98.4961 88.7461C99.6289 88.9805 101.016 89.0977 102.656 89.0977C104.284 89.0977 105.658 88.9805 106.777 88.7461C107.91 88.4987 108.763 88.1341 109.336 87.6523C109.909 87.1576 110.195 86.5651 110.195 85.875C110.195 85.1589 109.909 84.5599 109.336 84.0781C108.763 83.5964 107.917 83.2448 106.797 83.0234C105.677 82.7891 104.297 82.6719 102.656 82.6719ZM153.145 88.2188H120.879V84.6445H153.145V88.2188ZM139.16 85.7383H134.805V76.5586H139.16V85.7383ZM138.359 63.3555C138.359 65.7773 137.741 68.0039 136.504 70.0352C135.267 72.0664 133.555 73.7721 131.367 75.1523C129.193 76.5195 126.732 77.4701 123.984 78.0039L122.266 74.5664C124.609 74.1628 126.725 73.401 128.613 72.2812C130.514 71.1615 131.999 69.8203 133.066 68.2578C134.134 66.6953 134.668 65.0612 134.668 63.3555V61.7734H138.359V63.3555ZM139.199 63.3555C139.199 65.0872 139.74 66.7214 140.82 68.2578C141.901 69.7943 143.405 71.1094 145.332 72.2031C147.259 73.2839 149.427 74.013 151.836 74.3906L150.117 77.8086C147.344 77.3008 144.85 76.3763 142.637 75.0352C140.436 73.681 138.711 72.0013 137.461 69.9961C136.211 67.9909 135.586 65.7773 135.586 63.3555V61.7734H139.199V63.3555ZM150.332 63.5703H123.535V60.0352H150.332V63.5703ZM176.445 75.3086H158.047V71.8125H176.445V75.3086ZM169.297 82.3594H164.961V74.6055H169.297V82.3594ZM176.27 63.8438H162.344V72.9844H158.047V60.3867H176.27V63.8438ZM184.824 92.5352H180.527V57.1641H184.824V92.5352ZM155.586 81.7148C159.844 81.7279 163.874 81.6758 167.676 81.5586C171.478 81.4414 175.052 81.2005 178.398 80.8359L178.73 84.0195C176.322 84.3841 173.828 84.6576 171.25 84.8398C168.685 85.0221 166.23 85.1393 163.887 85.1914C161.556 85.2435 158.971 85.2695 156.133 85.2695L155.586 81.7148ZM218.613 70.582H194.121V67.1641H218.613V70.582ZM222.246 78.1211H189.98V74.6836H222.246V78.1211ZM198.457 68.8828H194.121V58.4531H198.457V68.8828ZM218.828 91.6367H193.828V88.1211H218.828V91.6367ZM198.203 89.1172H193.828V81.2656H198.203V89.1172ZM244.121 58.2969C245.892 58.2969 247.487 58.6419 248.906 59.332C250.326 60.0091 251.432 60.9531 252.227 62.1641C253.034 63.375 253.438 64.7422 253.438 66.2656C253.438 67.7891 253.034 69.1562 252.227 70.3672C251.432 71.5781 250.326 72.5286 248.906 73.2188C247.487 73.8958 245.892 74.2344 244.121 74.2344C242.337 74.2344 240.729 73.8958 239.297 73.2188C237.878 72.5286 236.764 71.5781 235.957 70.3672C235.15 69.1562 234.746 67.7891 234.746 66.2656C234.746 64.7422 235.15 63.375 235.957 62.1641C236.764 60.9531 237.878 60.0091 239.297 59.332C240.729 58.6419 242.337 58.2969 244.121 58.2969ZM244.121 61.8711C243.132 61.8711 242.246 62.0534 241.465 62.418C240.684 62.7695 240.072 63.2839 239.629 63.9609C239.199 64.625 238.984 65.3932 238.984 66.2656C238.984 67.151 239.199 67.9323 239.629 68.6094C240.072 69.2865 240.684 69.8073 241.465 70.1719C242.246 70.5234 243.132 70.7057 244.121 70.7188C245.111 70.7057 245.99 70.5234 246.758 70.1719C247.539 69.8073 248.151 69.2865 248.594 68.6094C249.036 67.9323 249.258 67.151 249.258 66.2656C249.258 65.3932 249.036 64.625 248.594 63.9609C248.151 63.2839 247.539 62.7695 246.758 62.418C245.99 62.0534 245.111 61.8711 244.121 61.8711ZM263.496 75.0156H259.141V57.1641H263.496V75.0156ZM263.496 85.7773H244.395V90.4258H240.156V82.5742H259.16V79.9375H240.078V76.5391H263.496V85.7773ZM264.551 92.0273H240.156V88.6094H264.551V92.0273ZM289.18 73.9609H282.969V70.4648H289.18V73.9609ZM299.141 92.4375H294.961V57.1641H299.141V92.4375ZM291.875 90.7773H287.754V57.7695H291.875V90.7773ZM276.66 59.8398C278.223 59.8398 279.583 60.3477 280.742 61.3633C281.901 62.3789 282.799 63.8372 283.438 65.7383C284.076 67.6393 284.395 69.8724 284.395 72.4375C284.395 74.9896 284.076 77.2227 283.438 79.1367C282.799 81.0378 281.901 82.5026 280.742 83.5312C279.583 84.5599 278.223 85.0742 276.66 85.0742C275.124 85.0742 273.776 84.5599 272.617 83.5312C271.471 82.5026 270.579 81.0378 269.941 79.1367C269.316 77.2227 269.004 74.9896 269.004 72.4375C269.004 69.8594 269.316 67.6263 269.941 65.7383C270.579 63.8372 271.478 62.3789 272.637 61.3633C273.796 60.3477 275.137 59.8398 276.66 59.8398ZM276.66 63.9414C275.905 63.9414 275.254 64.2669 274.707 64.918C274.16 65.569 273.743 66.5326 273.457 67.8086C273.184 69.0716 273.047 70.6146 273.047 72.4375C273.047 74.2474 273.184 75.7904 273.457 77.0664C273.743 78.3294 274.16 79.2865 274.707 79.9375C275.267 80.5885 275.918 80.9141 276.66 80.9141C277.428 80.9141 278.086 80.5885 278.633 79.9375C279.193 79.2865 279.622 78.3294 279.922 77.0664C280.221 75.7904 280.371 74.2474 280.371 72.4375C280.371 70.6146 280.221 69.0716 279.922 67.8086C279.622 66.5326 279.193 65.569 278.633 64.918C278.086 64.2669 277.428 63.9414 276.66 63.9414ZM342.266 92.4375H337.871V57.1641H342.266V92.4375ZM331.738 60.9141C331.738 64.599 331.204 67.9779 330.137 71.0508C329.082 74.1107 327.344 76.9297 324.922 79.5078C322.5 82.0729 319.29 84.306 315.293 86.207L312.988 82.7305C316.387 81.1159 319.147 79.2799 321.27 77.2227C323.392 75.1654 324.948 72.8542 325.938 70.2891C326.927 67.724 327.422 64.8464 327.422 61.6562V60.9141H331.738ZM329.375 64.3516H314.785V60.9141H329.375V64.3516ZM373.438 68.1797H363.262V64.6445H373.438V68.1797ZM373.438 79.1562H363.262V75.6602H373.438V79.1562ZM356.992 59.7422C358.737 59.7422 360.286 60.2565 361.641 61.2852C363.008 62.3008 364.076 63.7526 364.844 65.6406C365.625 67.5156 366.016 69.7031 366.016 72.2031C366.016 74.7161 365.625 76.9167 364.844 78.8047C364.076 80.6797 363.008 82.1315 361.641 83.1602C360.286 84.1888 358.737 84.7031 356.992 84.7031C355.234 84.7031 353.672 84.1953 352.305 83.1797C350.938 82.151 349.863 80.6927 349.082 78.8047C348.314 76.9167 347.93 74.7161 347.93 72.2031C347.93 69.7031 348.314 67.5156 349.082 65.6406C349.863 63.7526 350.938 62.3008 352.305 61.2852C353.672 60.2565 355.234 59.7422 356.992 59.7422ZM356.992 63.6484C356.029 63.6354 355.169 63.974 354.414 64.6641C353.672 65.3542 353.099 66.3438 352.695 67.6328C352.292 68.9089 352.09 70.4323 352.09 72.2031C352.09 73.974 352.292 75.5104 352.695 76.8125C353.099 78.1016 353.672 79.0846 354.414 79.7617C355.169 80.4258 356.029 80.7578 356.992 80.7578C357.956 80.7578 358.809 80.4258 359.551 79.7617C360.306 79.0846 360.885 78.1016 361.289 76.8125C361.693 75.5104 361.895 73.974 361.895 72.2031C361.895 70.4193 361.693 68.8893 361.289 67.6133C360.885 66.3242 360.312 65.3411 359.57 64.6641C358.841 63.974 357.982 63.6354 356.992 63.6484ZM376.934 92.5352H372.637V57.1641H376.934V92.5352ZM408.652 66.2656H391.387V62.7891H408.652V66.2656ZM400.059 68.1211C401.556 68.1211 402.884 68.4727 404.043 69.1758C405.215 69.8659 406.133 70.8359 406.797 72.0859C407.461 73.3359 407.793 74.7617 407.793 76.3633C407.793 77.9648 407.461 79.3971 406.797 80.6602C406.133 81.9102 405.215 82.8932 404.043 83.6094C402.884 84.3255 401.556 84.6836 400.059 84.6836C398.587 84.6836 397.266 84.3255 396.094 83.6094C394.935 82.8932 394.023 81.9036 393.359 80.6406C392.695 79.3776 392.363 77.9518 392.363 76.3633C392.363 74.7878 392.695 73.3685 393.359 72.1055C394.023 70.8424 394.935 69.8659 396.094 69.1758C397.266 68.4727 398.587 68.1211 400.059 68.1211ZM400.059 71.7344C399.316 71.7214 398.652 71.9102 398.066 72.3008C397.48 72.6914 397.025 73.2383 396.699 73.9414C396.374 74.6315 396.211 75.4388 396.211 76.3633C396.211 77.2878 396.374 78.1016 396.699 78.8047C397.038 79.5078 397.493 80.0417 398.066 80.4062C398.652 80.7708 399.316 80.9531 400.059 80.9531C400.814 80.9531 401.484 80.7708 402.07 80.4062C402.656 80.0417 403.118 79.5078 403.457 78.8047C403.796 78.1016 403.965 77.2878 403.965 76.3633C403.965 75.4388 403.796 74.6315 403.457 73.9414C403.118 73.2383 402.656 72.6914 402.07 72.3008C401.484 71.9102 400.814 71.7214 400.059 71.7344ZM421.797 92.4375H417.656V57.1641H421.797V92.4375ZM419.023 75.1914H412.832V71.6953H419.023V75.1914ZM414.219 90.8555H410.137V57.9258H414.219V90.8555ZM402.207 64.957H397.93V58.1797H402.207V64.957ZM454.004 78.4727H449.648V57.2031H454.004V78.4727ZM458.77 69.7031H452.402V66.1484H458.77V69.7031ZM437.188 80.6797C437.188 82.3724 436.882 83.9674 436.27 85.4648C435.671 86.9492 434.779 88.2643 433.594 89.4102C432.409 90.556 430.944 91.4349 429.199 92.0469L427.07 88.8242C428.568 88.3555 429.824 87.7044 430.84 86.8711C431.855 86.0247 432.617 85.0742 433.125 84.0195C433.633 82.9648 433.887 81.8516 433.887 80.6797V79.957H437.188V80.6797ZM438.105 80.6797C438.105 81.7995 438.327 82.8997 438.77 83.9805C439.225 85.0612 439.915 86.0573 440.84 86.9688C441.764 87.8672 442.91 88.5898 444.277 89.1367L442.461 92.3594C440.742 91.7083 439.316 90.7773 438.184 89.5664C437.064 88.3555 436.243 86.9818 435.723 85.4453C435.202 83.9089 434.941 82.3203 434.941 80.6797V79.957H438.105V80.6797ZM450.039 80.6797C450.039 82.2943 449.766 83.8698 449.219 85.4062C448.685 86.9297 447.852 88.3099 446.719 89.5469C445.586 90.7839 444.167 91.7214 442.461 92.3594L440.703 89.1367C442.057 88.5638 443.197 87.8216 444.121 86.9102C445.046 85.9987 445.729 85.0026 446.172 83.9219C446.628 82.8411 446.855 81.7604 446.855 80.6797V79.957H450.039V80.6797ZM451.113 80.6797C451.113 81.8646 451.361 82.9909 451.855 84.0586C452.363 85.1263 453.132 86.0768 454.16 86.9102C455.189 87.7305 456.458 88.3685 457.969 88.8242L455.84 92.0469C454.069 91.4479 452.585 90.5885 451.387 89.4688C450.202 88.349 449.31 87.0404 448.711 85.543C448.125 84.0456 447.832 82.4245 447.832 80.6797V79.957H451.113V80.6797ZM438.926 75.6406H434.57V70.1328H438.926V75.6406ZM425.938 74.0781C428.88 74.0651 431.439 74.0391 433.613 74C435.801 73.9479 438.132 73.8503 440.605 73.707C443.092 73.5638 445.417 73.3294 447.578 73.0039L447.949 76.0508C444.694 76.6237 441.289 77.0013 437.734 77.1836C434.18 77.3659 430.41 77.457 426.426 77.457L425.938 74.0781ZM436.68 58.1602C438.385 58.1602 439.909 58.4401 441.25 59C442.604 59.5469 443.652 60.3281 444.395 61.3438C445.15 62.3594 445.527 63.5247 445.527 64.8398C445.527 66.1159 445.15 67.2552 444.395 68.2578C443.639 69.2604 442.591 70.0482 441.25 70.6211C439.909 71.181 438.385 71.4609 436.68 71.4609C434.961 71.4609 433.431 71.181 432.09 70.6211C430.749 70.0482 429.707 69.2604 428.965 68.2578C428.223 67.2552 427.852 66.1159 427.852 64.8398C427.852 63.5247 428.223 62.3594 428.965 61.3438C429.707 60.3281 430.749 59.5469 432.09 59C433.431 58.4401 434.961 58.1602 436.68 58.1602ZM436.68 61.3633C435.729 61.3633 434.889 61.5 434.16 61.7734C433.431 62.0469 432.871 62.4505 432.48 62.9844C432.103 63.5052 431.914 64.1237 431.914 64.8398C431.914 65.5169 432.103 66.1224 432.48 66.6562C432.871 67.1771 433.431 67.5807 434.16 67.8672C434.889 68.1536 435.729 68.2969 436.68 68.2969C437.617 68.2969 438.444 68.1536 439.16 67.8672C439.889 67.5807 440.449 67.1771 440.84 66.6562C441.243 66.1224 441.445 65.5169 441.445 64.8398C441.445 64.1237 441.243 63.5052 440.84 62.9844C440.449 62.4505 439.889 62.0469 439.16 61.7734C438.444 61.5 437.617 61.3633 436.68 61.3633ZM488.242 92.5352H483.906V57.1641H488.242V92.5352ZM493.691 74.1367H487.266V70.5625H493.691V74.1367ZM464.941 80.2695C468.21 80.2826 471.081 80.2044 473.555 80.0352C476.042 79.8659 478.548 79.5534 481.074 79.0977L481.562 82.7695C479.01 83.2253 476.478 83.5247 473.965 83.668C471.465 83.8112 468.457 83.8763 464.941 83.8633H462.031V80.2695H464.941ZM478.555 64.0391H466.367V82.0273H462.031V60.5039H478.555V64.0391ZM499.453 89.3125C498.906 89.3125 498.398 89.1758 497.93 88.9023C497.461 88.6159 497.09 88.2448 496.816 87.7891C496.556 87.3203 496.426 86.8125 496.426 86.2656C496.426 85.7318 496.556 85.237 496.816 84.7812C497.09 84.3125 497.461 83.9479 497.93 83.6875C498.398 83.4141 498.906 83.2773 499.453 83.2773C499.974 83.2773 500.469 83.4141 500.938 83.6875C501.406 83.9479 501.777 84.3125 502.051 84.7812C502.324 85.237 502.461 85.7318 502.461 86.2656C502.461 86.8125 502.324 87.3203 502.051 87.7891C501.777 88.2448 501.406 88.6159 500.938 88.9023C500.469 89.1758 499.974 89.3125 499.453 89.3125Z" fill="white"/>
</svg>
