<svg width="4513" height="1411" viewBox="0 0 4513 1411" fill="none" xmlns="http://www.w3.org/2000/svg">
<line x1="2401.12" y1="254.936" x2="3264.99" y2="865.964" stroke="white" stroke-width="1.31687"/>
<path d="M2424.8 236.538H2431.38V259.397H2424.8V236.538ZM2429.6 245.642H2437.46V251.035H2429.6V245.642ZM2411.73 238.27H2419.01C2419.01 242.327 2418.17 245.873 2416.48 248.907C2414.83 251.909 2412.41 254.383 2409.21 256.329C2406.01 258.275 2402.1 259.726 2397.48 260.683L2395.11 255.29C2399 254.564 2402.15 253.542 2404.56 252.222C2407 250.87 2408.8 249.336 2409.95 247.621C2411.14 245.873 2411.73 244.042 2411.73 242.129V238.27ZM2397.34 238.27H2415.89V243.465H2397.34V238.27ZM2401.15 261.227H2431.38V273.893H2407.73V279.385H2401.2V268.995H2424.9V266.373H2401.15V261.227ZM2401.2 276.763H2432.71V281.958H2401.2V276.763ZM2633.33 384.489H2639.91V430.453H2633.33V384.489ZM2638.43 401.855H2646.49V407.248H2638.43V401.855ZM2605.87 414.422H2609.68C2612.29 414.422 2614.73 414.389 2617.01 414.323C2619.28 414.257 2621.49 414.125 2623.64 413.928C2625.81 413.697 2628.02 413.4 2630.27 413.037L2630.86 418.331C2628.55 418.727 2626.27 419.04 2624.03 419.271C2621.82 419.469 2619.55 419.617 2617.2 419.716C2614.86 419.815 2612.35 419.865 2609.68 419.865H2605.87V414.422ZM2605.77 388.397H2626.85V406.16H2612.35V416.5H2605.87V400.964H2620.32V393.691H2605.77V388.397ZM2818.76 536.705C2821.1 536.705 2823.17 537.381 2824.95 538.733C2826.76 540.053 2828.18 541.949 2829.2 544.423C2830.26 546.864 2830.79 549.75 2830.79 553.082C2830.79 556.446 2830.26 559.365 2829.2 561.839C2828.18 564.28 2826.76 566.177 2824.95 567.529C2823.17 568.848 2821.1 569.508 2818.76 569.508C2816.42 569.508 2814.34 568.848 2812.53 567.529C2810.71 566.177 2809.28 564.28 2808.22 561.839C2807.2 559.365 2806.69 556.446 2806.69 553.082C2806.69 549.75 2807.2 546.864 2808.22 544.423C2809.28 541.949 2810.71 540.053 2812.53 538.733C2814.34 537.381 2816.42 536.705 2818.76 536.705ZM2818.76 542.691C2817.64 542.691 2816.64 543.087 2815.74 543.879C2814.89 544.67 2814.21 545.841 2813.72 547.392C2813.25 548.909 2813.02 550.806 2813.02 553.082C2813.02 555.325 2813.25 557.238 2813.72 558.821C2814.21 560.371 2814.89 561.542 2815.74 562.334C2816.64 563.125 2817.64 563.521 2818.76 563.521C2819.88 563.521 2820.87 563.125 2821.73 562.334C2822.59 561.542 2823.25 560.371 2823.71 558.821C2824.21 557.238 2824.45 555.325 2824.45 553.082C2824.45 550.806 2824.21 548.909 2823.71 547.392C2823.25 545.841 2822.59 544.67 2821.73 543.879C2820.87 543.087 2819.88 542.691 2818.76 542.691ZM2840.58 544.225H2848.65V549.618H2840.58V544.225ZM2840.58 557.633H2848.65V563.026H2840.58V557.633ZM2835.73 533.587H2842.36V579.403H2835.73V533.587ZM3054.02 681.587H3060.3V709.79H3054.02V681.587ZM3048.48 693.314H3055.75V698.608H3048.48V693.314ZM3044.57 682.181H3050.7V709.295H3044.57V682.181ZM3021.02 685.991H3043.28V691.038H3021.02V685.991ZM3032.2 692.472C3034.15 692.472 3035.86 692.819 3037.35 693.512C3038.83 694.171 3039.98 695.111 3040.81 696.332C3041.67 697.519 3042.09 698.905 3042.09 700.488C3042.09 702.038 3041.67 703.423 3040.81 704.644C3039.98 705.831 3038.83 706.771 3037.35 707.464C3035.86 708.124 3034.15 708.454 3032.2 708.454C3030.32 708.454 3028.62 708.124 3027.1 707.464C3025.62 706.771 3024.45 705.831 3023.59 704.644C3022.73 703.423 3022.3 702.038 3022.3 700.488C3022.3 698.905 3022.73 697.519 3023.59 696.332C3024.45 695.111 3025.62 694.171 3027.1 693.512C3028.62 692.819 3030.32 692.472 3032.2 692.472ZM3032.2 697.173C3031.01 697.173 3030.04 697.453 3029.28 698.014C3028.55 698.575 3028.19 699.399 3028.19 700.488C3028.19 701.543 3028.55 702.368 3029.28 702.962C3030.04 703.522 3031.01 703.803 3032.2 703.803C3033.39 703.803 3034.36 703.522 3035.12 702.962C3035.88 702.368 3036.26 701.543 3036.26 700.488C3036.26 699.399 3035.88 698.575 3035.12 698.014C3034.36 697.453 3033.39 697.173 3032.2 697.173ZM3028.93 681.884H3035.42V689.553H3028.93V681.884ZM3032.3 711.224H3037.25V712.115C3037.25 714.259 3036.87 716.321 3036.11 718.3C3035.38 720.246 3034.26 721.961 3032.74 723.445C3031.23 724.93 3029.26 726.051 3026.86 726.81L3023.79 722.01C3025.8 721.417 3027.42 720.609 3028.64 719.586C3029.89 718.531 3030.81 717.36 3031.41 716.073C3032 714.787 3032.3 713.467 3032.3 712.115V711.224ZM3033.98 711.224H3038.68V712.115C3038.68 713.467 3038.94 714.82 3039.47 716.172C3040 717.492 3040.82 718.695 3041.95 719.784C3043.07 720.872 3044.54 721.763 3046.35 722.456L3043.78 727.255C3041.4 726.43 3039.49 725.226 3038.04 723.643C3036.62 722.06 3035.58 720.279 3034.92 718.3C3034.29 716.288 3033.98 714.226 3033.98 712.115V711.224ZM3048.82 711.224H3053.52V712.115C3053.52 714.061 3053.19 716.057 3052.53 718.102C3051.87 720.114 3050.84 721.928 3049.42 723.544C3048 725.161 3046.12 726.397 3043.78 727.255L3041.15 722.456C3042.97 721.697 3044.44 720.757 3045.56 719.636C3046.68 718.481 3047.5 717.244 3048.03 715.925C3048.56 714.605 3048.82 713.335 3048.82 712.115V711.224ZM3050.41 711.224H3055.31V712.115C3055.31 713.533 3055.6 714.902 3056.2 716.222C3056.79 717.541 3057.71 718.712 3058.97 719.734C3060.25 720.724 3061.89 721.483 3063.86 722.01L3060.75 726.81C3058.34 726.051 3056.38 724.946 3054.86 723.495C3053.34 722.076 3052.22 720.394 3051.5 718.448C3050.77 716.502 3050.41 714.391 3050.41 712.115V711.224ZM3251.97 829.489H3258.6V875.453H3251.97V829.489ZM3257.16 846.459H3265.23V851.902H3257.16V846.459ZM3224.46 859.026H3228.32C3230.92 859.026 3233.36 858.994 3235.64 858.928C3237.91 858.829 3240.12 858.68 3242.27 858.482C3244.41 858.251 3246.61 857.938 3248.85 857.542L3249.49 862.985C3247.18 863.38 3244.91 863.694 3242.66 863.925C3240.45 864.156 3238.18 864.304 3235.84 864.37C3233.49 864.436 3230.99 864.469 3228.32 864.469H3224.46V859.026ZM3224.46 833.744H3245.83V839.038H3231.04V861.599H3224.46V833.744ZM3273.4 871.387C3272.33 871.387 3271.42 871.012 3270.66 870.262C3269.9 869.512 3269.52 868.599 3269.53 867.521C3269.52 866.467 3269.9 865.565 3270.66 864.815C3271.42 864.066 3272.33 863.691 3273.4 863.691C3274.43 863.691 3275.33 864.066 3276.09 864.815C3276.86 865.565 3277.25 866.467 3277.26 867.521C3277.25 868.236 3277.06 868.886 3276.7 869.471C3276.35 870.057 3275.88 870.526 3275.3 870.877C3274.72 871.217 3274.09 871.387 3273.4 871.387Z" fill="#00C8D1"/>
</svg>
