<svg width="1427" height="269" viewBox="0 0 1427 269" fill="none" xmlns="http://www.w3.org/2000/svg">
<path d="M365.933 24.7079H375.88V31.4642H365.933V24.7079ZM365.933 37.2821H375.88V44.1009H365.933V37.2821ZM338.971 20.7667C341.974 20.7667 344.664 21.3715 347.041 22.5809C349.418 23.7904 351.295 25.4586 352.671 27.5856C354.047 29.6709 354.735 32.0898 354.735 34.8423C354.735 37.5532 354.047 39.9721 352.671 42.0991C351.295 44.1843 349.418 45.8317 347.041 47.0412C344.664 48.2506 341.974 48.8553 338.971 48.8553C336.01 48.8553 333.341 48.2506 330.963 47.0412C328.586 45.8317 326.709 44.1843 325.333 42.0991C323.957 39.9721 323.269 37.5532 323.269 34.8423C323.269 32.0898 323.957 29.6709 325.333 27.5856C326.709 25.4586 328.586 23.7904 330.963 22.5809C333.341 21.3715 336.01 20.7667 338.971 20.7667ZM338.971 27.7107C337.553 27.7107 336.26 28.0026 335.092 28.5865C333.924 29.1287 333.007 29.9419 332.34 31.0263C331.714 32.0689 331.401 33.3409 331.401 34.8423C331.401 36.302 331.714 37.574 332.34 38.6584C333.007 39.701 333.924 40.4934 335.092 41.0356C336.26 41.5778 337.553 41.8488 338.971 41.8488C340.472 41.8488 341.786 41.5778 342.912 41.0356C344.038 40.4934 344.935 39.701 345.602 38.6584C346.269 37.574 346.603 36.302 346.603 34.8423C346.603 33.3409 346.269 32.0689 345.602 31.0263C344.935 29.9419 344.038 29.1287 342.912 28.5865C341.786 28.0026 340.472 27.7107 338.971 27.7107ZM360.115 17.6388H368.436V51.4202H360.115V17.6388ZM349.543 52.6088C353.547 52.6088 357.008 53.0676 359.928 53.9851C362.889 54.9026 365.162 56.2164 366.747 57.9263C368.331 59.6362 369.124 61.7006 369.124 64.1195C369.124 66.4967 368.331 68.5403 366.747 70.2502C365.162 71.9602 362.889 73.2739 359.928 74.1914C357.008 75.1089 353.547 75.5677 349.543 75.5677C345.539 75.5677 342.057 75.1089 339.096 74.1914C336.176 73.2739 333.904 71.9602 332.277 70.2502C330.692 68.5403 329.9 66.4967 329.9 64.1195C329.9 61.7006 330.692 59.6362 332.277 57.9263C333.904 56.2164 336.176 54.9026 339.096 53.9851C342.057 53.0676 345.539 52.6088 349.543 52.6088ZM349.543 59.1774C347.082 59.1774 345.018 59.3651 343.35 59.7405C341.682 60.0741 340.41 60.5954 339.534 61.3044C338.658 62.0134 338.22 62.9518 338.22 64.1195C338.22 65.2039 338.658 66.1214 339.534 66.8721C340.41 67.6228 341.682 68.1858 343.35 68.5612C345.018 68.8948 347.082 69.0616 349.543 69.0616C352.004 69.0616 354.068 68.8948 355.736 68.5612C357.446 68.1858 358.718 67.6228 359.552 66.8721C360.428 66.1214 360.866 65.2039 360.866 64.1195C360.866 62.9518 360.428 62.0134 359.552 61.3044C358.718 60.5954 357.446 60.0741 355.736 59.7405C354.068 59.3651 352.004 59.1774 349.543 59.1774ZM423.482 24.7079H433.429V31.4642H423.482V24.7079ZM423.482 37.2821H433.429V44.1009H423.482V37.2821ZM396.519 20.7667C399.522 20.7667 402.212 21.3715 404.589 22.5809C406.967 23.7904 408.843 25.4586 410.22 27.5856C411.596 29.6709 412.284 32.0898 412.284 34.8423C412.284 37.5532 411.596 39.9721 410.22 42.0991C408.843 44.1843 406.967 45.8317 404.589 47.0412C402.212 48.2506 399.522 48.8553 396.519 48.8553C393.558 48.8553 390.889 48.2506 388.512 47.0412C386.135 45.8317 384.258 44.1843 382.882 42.0991C381.505 39.9721 380.817 37.5532 380.817 34.8423C380.817 32.0898 381.505 29.6709 382.882 27.5856C384.258 25.4586 386.135 23.7904 388.512 22.5809C390.889 21.3715 393.558 20.7667 396.519 20.7667ZM396.519 27.7107C395.101 27.7107 393.809 28.0026 392.641 28.5865C391.473 29.1287 390.555 29.9419 389.888 31.0263C389.263 32.0689 388.95 33.3409 388.95 34.8423C388.95 36.302 389.263 37.574 389.888 38.6584C390.555 39.701 391.473 40.4934 392.641 41.0356C393.809 41.5778 395.101 41.8488 396.519 41.8488C398.021 41.8488 399.334 41.5778 400.461 41.0356C401.587 40.4934 402.483 39.701 403.151 38.6584C403.818 37.574 404.151 36.302 404.151 34.8423C404.151 33.3409 403.818 32.0689 403.151 31.0263C402.483 29.9419 401.587 29.1287 400.461 28.5865C399.334 28.0026 398.021 27.7107 396.519 27.7107ZM417.664 17.6388H425.984V51.4202H417.664V17.6388ZM407.092 52.6088C411.095 52.6088 414.557 53.0676 417.476 53.9851C420.437 54.9026 422.71 56.2164 424.295 57.9263C425.88 59.6362 426.672 61.7006 426.672 64.1195C426.672 66.4967 425.88 68.5403 424.295 70.2502C422.71 71.9602 420.437 73.2739 417.476 74.1914C414.557 75.1089 411.095 75.5677 407.092 75.5677C403.088 75.5677 399.606 75.1089 396.644 74.1914C393.725 73.2739 391.452 71.9602 389.826 70.2502C388.241 68.5403 387.448 66.4967 387.448 64.1195C387.448 61.7006 388.241 59.6362 389.826 57.9263C391.452 56.2164 393.725 54.9026 396.644 53.9851C399.606 53.0676 403.088 52.6088 407.092 52.6088ZM407.092 59.1774C404.631 59.1774 402.567 59.3651 400.898 59.7405C399.23 60.0741 397.958 60.5954 397.082 61.3044C396.207 62.0134 395.769 62.9518 395.769 64.1195C395.769 65.2039 396.207 66.1214 397.082 66.8721C397.958 67.6228 399.23 68.1858 400.898 68.5612C402.567 68.8948 404.631 69.0616 407.092 69.0616C409.552 69.0616 411.617 68.8948 413.285 68.5612C414.995 68.1858 416.267 67.6228 417.101 66.8721C417.977 66.1214 418.415 65.2039 418.415 64.1195C418.415 62.9518 417.977 62.0134 417.101 61.3044C416.267 60.5954 414.995 60.0741 413.285 59.7405C411.617 59.3651 409.552 59.1774 407.092 59.1774ZM481.031 24.7079H490.977V31.4642H481.031V24.7079ZM481.031 37.2821H490.977V44.1009H481.031V37.2821ZM454.068 20.7667C457.071 20.7667 459.761 21.3715 462.138 22.5809C464.515 23.7904 466.392 25.4586 467.768 27.5856C469.144 29.6709 469.833 32.0898 469.833 34.8423C469.833 37.5532 469.144 39.9721 467.768 42.0991C466.392 44.1843 464.515 45.8317 462.138 47.0412C459.761 48.2506 457.071 48.8553 454.068 48.8553C451.107 48.8553 448.438 48.2506 446.061 47.0412C443.683 45.8317 441.807 44.1843 440.43 42.0991C439.054 39.9721 438.366 37.5532 438.366 34.8423C438.366 32.0898 439.054 29.6709 440.43 27.5856C441.807 25.4586 443.683 23.7904 446.061 22.5809C448.438 21.3715 451.107 20.7667 454.068 20.7667ZM454.068 27.7107C452.65 27.7107 451.357 28.0026 450.189 28.5865C449.022 29.1287 448.104 29.9419 447.437 31.0263C446.811 32.0689 446.498 33.3409 446.498 34.8423C446.498 36.302 446.811 37.574 447.437 38.6584C448.104 39.701 449.022 40.4934 450.189 41.0356C451.357 41.5778 452.65 41.8488 454.068 41.8488C455.569 41.8488 456.883 41.5778 458.009 41.0356C459.135 40.4934 460.032 39.701 460.699 38.6584C461.366 37.574 461.7 36.302 461.7 34.8423C461.7 33.3409 461.366 32.0689 460.699 31.0263C460.032 29.9419 459.135 29.1287 458.009 28.5865C456.883 28.0026 455.569 27.7107 454.068 27.7107ZM475.213 17.6388H483.533V51.4202H475.213V17.6388ZM464.64 52.6088C468.644 52.6088 472.106 53.0676 475.025 53.9851C477.986 54.9026 480.259 56.2164 481.844 57.9263C483.429 59.6362 484.221 61.7006 484.221 64.1195C484.221 66.4967 483.429 68.5403 481.844 70.2502C480.259 71.9602 477.986 73.2739 475.025 74.1914C472.106 75.1089 468.644 75.5677 464.64 75.5677C460.637 75.5677 457.154 75.1089 454.193 74.1914C451.274 73.2739 449.001 71.9602 447.374 70.2502C445.789 68.5403 444.997 66.4967 444.997 64.1195C444.997 61.7006 445.789 59.6362 447.374 57.9263C449.001 56.2164 451.274 54.9026 454.193 53.9851C457.154 53.0676 460.637 52.6088 464.64 52.6088ZM464.64 59.1774C462.18 59.1774 460.115 59.3651 458.447 59.7405C456.779 60.0741 455.507 60.5954 454.631 61.3044C453.755 62.0134 453.317 62.9518 453.317 64.1195C453.317 65.2039 453.755 66.1214 454.631 66.8721C455.507 67.6228 456.779 68.1858 458.447 68.5612C460.115 68.8948 462.18 69.0616 464.64 69.0616C467.101 69.0616 469.165 68.8948 470.834 68.5612C472.543 68.1858 473.815 67.6228 474.65 66.8721C475.525 66.1214 475.963 65.2039 475.963 64.1195C475.963 62.9518 475.525 62.0134 474.65 61.3044C473.815 60.5954 472.543 60.0741 470.834 59.7405C469.165 59.3651 467.101 59.1774 464.64 59.1774ZM538.579 24.7079H548.526V31.4642H538.579V24.7079ZM538.579 37.2821H548.526V44.1009H538.579V37.2821ZM511.617 20.7667C514.619 20.7667 517.309 21.3715 519.687 22.5809C522.064 23.7904 523.941 25.4586 525.317 27.5856C526.693 29.6709 527.381 32.0898 527.381 34.8423C527.381 37.5532 526.693 39.9721 525.317 42.0991C523.941 44.1843 522.064 45.8317 519.687 47.0412C517.309 48.2506 514.619 48.8553 511.617 48.8553C508.655 48.8553 505.986 48.2506 503.609 47.0412C501.232 45.8317 499.355 44.1843 497.979 42.0991C496.603 39.9721 495.914 37.5532 495.914 34.8423C495.914 32.0898 496.603 29.6709 497.979 27.5856C499.355 25.4586 501.232 23.7904 503.609 22.5809C505.986 21.3715 508.655 20.7667 511.617 20.7667ZM511.617 27.7107C510.199 27.7107 508.906 28.0026 507.738 28.5865C506.57 29.1287 505.653 29.9419 504.985 31.0263C504.36 32.0689 504.047 33.3409 504.047 34.8423C504.047 36.302 504.36 37.574 504.985 38.6584C505.653 39.701 506.57 40.4934 507.738 41.0356C508.906 41.5778 510.199 41.8488 511.617 41.8488C513.118 41.8488 514.432 41.5778 515.558 41.0356C516.684 40.4934 517.58 39.701 518.248 38.6584C518.915 37.574 519.249 36.302 519.249 34.8423C519.249 33.3409 518.915 32.0689 518.248 31.0263C517.58 29.9419 516.684 29.1287 515.558 28.5865C514.432 28.0026 513.118 27.7107 511.617 27.7107ZM532.761 17.6388H541.081V51.4202H532.761V17.6388ZM522.189 52.6088C526.193 52.6088 529.654 53.0676 532.574 53.9851C535.535 54.9026 537.808 56.2164 539.392 57.9263C540.977 59.6362 541.77 61.7006 541.77 64.1195C541.77 66.4967 540.977 68.5403 539.392 70.2502C537.808 71.9602 535.535 73.2739 532.574 74.1914C529.654 75.1089 526.193 75.5677 522.189 75.5677C518.185 75.5677 514.703 75.1089 511.742 74.1914C508.822 73.2739 506.549 71.9602 504.923 70.2502C503.338 68.5403 502.546 66.4967 502.546 64.1195C502.546 61.7006 503.338 59.6362 504.923 57.9263C506.549 56.2164 508.822 54.9026 511.742 53.9851C514.703 53.0676 518.185 52.6088 522.189 52.6088ZM522.189 59.1774C519.728 59.1774 517.664 59.3651 515.996 59.7405C514.327 60.0741 513.055 60.5954 512.18 61.3044C511.304 62.0134 510.866 62.9518 510.866 64.1195C510.866 65.2039 511.304 66.1214 512.18 66.8721C513.055 67.6228 514.327 68.1858 515.996 68.5612C517.664 68.8948 519.728 69.0616 522.189 69.0616C524.65 69.0616 526.714 68.8948 528.382 68.5612C530.092 68.1858 531.364 67.6228 532.198 66.8721C533.074 66.1214 533.512 65.2039 533.512 64.1195C533.512 62.9518 533.074 62.0134 532.198 61.3044C531.364 60.5954 530.092 60.0741 528.382 59.7405C526.714 59.3651 524.65 59.1774 522.189 59.1774ZM596.128 24.7079H606.074V31.4642H596.128V24.7079ZM596.128 37.2821H606.074V44.1009H596.128V37.2821ZM569.165 20.7667C572.168 20.7667 574.858 21.3715 577.235 22.5809C579.612 23.7904 581.489 25.4586 582.865 27.5856C584.242 29.6709 584.93 32.0898 584.93 34.8423C584.93 37.5532 584.242 39.9721 582.865 42.0991C581.489 44.1843 579.612 45.8317 577.235 47.0412C574.858 48.2506 572.168 48.8553 569.165 48.8553C566.204 48.8553 563.535 48.2506 561.158 47.0412C558.781 45.8317 556.904 44.1843 555.527 42.0991C554.151 39.9721 553.463 37.5532 553.463 34.8423C553.463 32.0898 554.151 29.6709 555.527 27.5856C556.904 25.4586 558.781 23.7904 561.158 22.5809C563.535 21.3715 566.204 20.7667 569.165 20.7667ZM569.165 27.7107C567.747 27.7107 566.454 28.0026 565.287 28.5865C564.119 29.1287 563.201 29.9419 562.534 31.0263C561.908 32.0689 561.596 33.3409 561.596 34.8423C561.596 36.302 561.908 37.574 562.534 38.6584C563.201 39.701 564.119 40.4934 565.287 41.0356C566.454 41.5778 567.747 41.8488 569.165 41.8488C570.667 41.8488 571.98 41.5778 573.106 41.0356C574.232 40.4934 575.129 39.701 575.796 38.6584C576.464 37.574 576.797 36.302 576.797 34.8423C576.797 33.3409 576.464 32.0689 575.796 31.0263C575.129 29.9419 574.232 29.1287 573.106 28.5865C571.98 28.0026 570.667 27.7107 569.165 27.7107ZM590.31 17.6388H598.63V51.4202H590.31V17.6388ZM579.737 52.6088C583.741 52.6088 587.203 53.0676 590.122 53.9851C593.083 54.9026 595.356 56.2164 596.941 57.9263C598.526 59.6362 599.318 61.7006 599.318 64.1195C599.318 66.4967 598.526 68.5403 596.941 70.2502C595.356 71.9602 593.083 73.2739 590.122 74.1914C587.203 75.1089 583.741 75.5677 579.737 75.5677C575.734 75.5677 572.251 75.1089 569.29 74.1914C566.371 73.2739 564.098 71.9602 562.471 70.2502C560.887 68.5403 560.094 66.4967 560.094 64.1195C560.094 61.7006 560.887 59.6362 562.471 57.9263C564.098 56.2164 566.371 54.9026 569.29 53.9851C572.251 53.0676 575.734 52.6088 579.737 52.6088ZM579.737 59.1774C577.277 59.1774 575.212 59.3651 573.544 59.7405C571.876 60.0741 570.604 60.5954 569.728 61.3044C568.852 62.0134 568.414 62.9518 568.414 64.1195C568.414 65.2039 568.852 66.1214 569.728 66.8721C570.604 67.6228 571.876 68.1858 573.544 68.5612C575.212 68.8948 577.277 69.0616 579.737 69.0616C582.198 69.0616 584.263 68.8948 585.931 68.5612C587.641 68.1858 588.913 67.6228 589.747 66.8721C590.623 66.1214 591.061 65.2039 591.061 64.1195C591.061 62.9518 590.623 62.0134 589.747 61.3044C588.913 60.5954 587.641 60.0741 585.931 59.7405C584.263 59.3651 582.198 59.1774 579.737 59.1774ZM653.676 24.7079H663.623V31.4642H653.676V24.7079ZM653.676 37.2821H663.623V44.1009H653.676V37.2821ZM626.714 20.7667C629.717 20.7667 632.407 21.3715 634.784 22.5809C637.161 23.7904 639.038 25.4586 640.414 27.5856C641.79 29.6709 642.478 32.0898 642.478 34.8423C642.478 37.5532 641.79 39.9721 640.414 42.0991C639.038 44.1843 637.161 45.8317 634.784 47.0412C632.407 48.2506 629.717 48.8553 626.714 48.8553C623.753 48.8553 621.084 48.2506 618.706 47.0412C616.329 45.8317 614.452 44.1843 613.076 42.0991C611.7 39.9721 611.012 37.5532 611.012 34.8423C611.012 32.0898 611.7 29.6709 613.076 27.5856C614.452 25.4586 616.329 23.7904 618.706 22.5809C621.084 21.3715 623.753 20.7667 626.714 20.7667ZM626.714 27.7107C625.296 27.7107 624.003 28.0026 622.835 28.5865C621.667 29.1287 620.75 29.9419 620.083 31.0263C619.457 32.0689 619.144 33.3409 619.144 34.8423C619.144 36.302 619.457 37.574 620.083 38.6584C620.75 39.701 621.667 40.4934 622.835 41.0356C624.003 41.5778 625.296 41.8488 626.714 41.8488C628.215 41.8488 629.529 41.5778 630.655 41.0356C631.781 40.4934 632.678 39.701 633.345 38.6584C634.012 37.574 634.346 36.302 634.346 34.8423C634.346 33.3409 634.012 32.0689 633.345 31.0263C632.678 29.9419 631.781 29.1287 630.655 28.5865C629.529 28.0026 628.215 27.7107 626.714 27.7107ZM647.858 17.6388H656.179V51.4202H647.858V17.6388ZM637.286 52.6088C641.29 52.6088 644.751 53.0676 647.671 53.9851C650.632 54.9026 652.905 56.2164 654.49 57.9263C656.074 59.6362 656.867 61.7006 656.867 64.1195C656.867 66.4967 656.074 68.5403 654.49 70.2502C652.905 71.9602 650.632 73.2739 647.671 74.1914C644.751 75.1089 641.29 75.5677 637.286 75.5677C633.282 75.5677 629.8 75.1089 626.839 74.1914C623.92 73.2739 621.647 71.9602 620.02 70.2502C618.435 68.5403 617.643 66.4967 617.643 64.1195C617.643 61.7006 618.435 59.6362 620.02 57.9263C621.647 56.2164 623.92 54.9026 626.839 53.9851C629.8 53.0676 633.282 52.6088 637.286 52.6088ZM637.286 59.1774C634.825 59.1774 632.761 59.3651 631.093 59.7405C629.425 60.0741 628.153 60.5954 627.277 61.3044C626.401 62.0134 625.963 62.9518 625.963 64.1195C625.963 65.2039 626.401 66.1214 627.277 66.8721C628.153 67.6228 629.425 68.1858 631.093 68.5612C632.761 68.8948 634.825 69.0616 637.286 69.0616C639.747 69.0616 641.811 68.8948 643.479 68.5612C645.189 68.1858 646.461 67.6228 647.295 66.8721C648.171 66.1214 648.609 65.2039 648.609 64.1195C648.609 62.9518 648.171 62.0134 647.295 61.3044C646.461 60.5954 645.189 60.0741 643.479 59.7405C641.811 59.3651 639.747 59.1774 637.286 59.1774ZM711.225 24.7079H721.172V31.4642H711.225V24.7079ZM711.225 37.2821H721.172V44.1009H711.225V37.2821ZM684.262 20.7667C687.265 20.7667 689.955 21.3715 692.332 22.5809C694.71 23.7904 696.586 25.4586 697.963 27.5856C699.339 29.6709 700.027 32.0898 700.027 34.8423C700.027 37.5532 699.339 39.9721 697.963 42.0991C696.586 44.1843 694.71 45.8317 692.332 47.0412C689.955 48.2506 687.265 48.8553 684.262 48.8553C681.301 48.8553 678.632 48.2506 676.255 47.0412C673.878 45.8317 672.001 44.1843 670.625 42.0991C669.248 39.9721 668.56 37.5532 668.56 34.8423C668.56 32.0898 669.248 29.6709 670.625 27.5856C672.001 25.4586 673.878 23.7904 676.255 22.5809C678.632 21.3715 681.301 20.7667 684.262 20.7667ZM684.262 27.7107C682.844 27.7107 681.552 28.0026 680.384 28.5865C679.216 29.1287 678.299 29.9419 677.631 31.0263C677.006 32.0689 676.693 33.3409 676.693 34.8423C676.693 36.302 677.006 37.574 677.631 38.6584C678.299 39.701 679.216 40.4934 680.384 41.0356C681.552 41.5778 682.844 41.8488 684.262 41.8488C685.764 41.8488 687.077 41.5778 688.204 41.0356C689.33 40.4934 690.226 39.701 690.894 38.6584C691.561 37.574 691.894 36.302 691.894 34.8423C691.894 33.3409 691.561 32.0689 690.894 31.0263C690.226 29.9419 689.33 29.1287 688.204 28.5865C687.077 28.0026 685.764 27.7107 684.262 27.7107ZM705.407 17.6388H713.727V51.4202H705.407V17.6388ZM694.835 52.6088C698.838 52.6088 702.3 53.0676 705.219 53.9851C708.18 54.9026 710.453 56.2164 712.038 57.9263C713.623 59.6362 714.415 61.7006 714.415 64.1195C714.415 66.4967 713.623 68.5403 712.038 70.2502C710.453 71.9602 708.18 73.2739 705.219 74.1914C702.3 75.1089 698.838 75.5677 694.835 75.5677C690.831 75.5677 687.349 75.1089 684.387 74.1914C681.468 73.2739 679.195 71.9602 677.569 70.2502C675.984 68.5403 675.191 66.4967 675.191 64.1195C675.191 61.7006 675.984 59.6362 677.569 57.9263C679.195 56.2164 681.468 54.9026 684.387 53.9851C687.349 53.0676 690.831 52.6088 694.835 52.6088ZM694.835 59.1774C692.374 59.1774 690.31 59.3651 688.641 59.7405C686.973 60.0741 685.701 60.5954 684.825 61.3044C683.95 62.0134 683.512 62.9518 683.512 64.1195C683.512 65.2039 683.95 66.1214 684.825 66.8721C685.701 67.6228 686.973 68.1858 688.641 68.5612C690.31 68.8948 692.374 69.0616 694.835 69.0616C697.295 69.0616 699.36 68.8948 701.028 68.5612C702.738 68.1858 704.01 67.6228 704.844 66.8721C705.72 66.1214 706.158 65.2039 706.158 64.1195C706.158 62.9518 705.72 62.0134 704.844 61.3044C704.01 60.5954 702.738 60.0741 701.028 59.7405C699.36 59.3651 697.295 59.1774 694.835 59.1774ZM768.774 24.7079H778.72V31.4642H768.774V24.7079ZM768.774 37.2821H778.72V44.1009H768.774V37.2821ZM741.811 20.7667C744.814 20.7667 747.504 21.3715 749.881 22.5809C752.258 23.7904 754.135 25.4586 755.511 27.5856C756.887 29.6709 757.576 32.0898 757.576 34.8423C757.576 37.5532 756.887 39.9721 755.511 42.0991C754.135 44.1843 752.258 45.8317 749.881 47.0412C747.504 48.2506 744.814 48.8553 741.811 48.8553C738.85 48.8553 736.181 48.2506 733.804 47.0412C731.426 45.8317 729.55 44.1843 728.173 42.0991C726.797 39.9721 726.109 37.5532 726.109 34.8423C726.109 32.0898 726.797 29.6709 728.173 27.5856C729.55 25.4586 731.426 23.7904 733.804 22.5809C736.181 21.3715 738.85 20.7667 741.811 20.7667ZM741.811 27.7107C740.393 27.7107 739.1 28.0026 737.932 28.5865C736.765 29.1287 735.847 29.9419 735.18 31.0263C734.554 32.0689 734.241 33.3409 734.241 34.8423C734.241 36.302 734.554 37.574 735.18 38.6584C735.847 39.701 736.765 40.4934 737.932 41.0356C739.1 41.5778 740.393 41.8488 741.811 41.8488C743.312 41.8488 744.626 41.5778 745.752 41.0356C746.878 40.4934 747.775 39.701 748.442 38.6584C749.109 37.574 749.443 36.302 749.443 34.8423C749.443 33.3409 749.109 32.0689 748.442 31.0263C747.775 29.9419 746.878 29.1287 745.752 28.5865C744.626 28.0026 743.312 27.7107 741.811 27.7107ZM762.956 17.6388H771.276V51.4202H762.956V17.6388ZM752.383 52.6088C756.387 52.6088 759.849 53.0676 762.768 53.9851C765.729 54.9026 768.002 56.2164 769.587 57.9263C771.172 59.6362 771.964 61.7006 771.964 64.1195C771.964 66.4967 771.172 68.5403 769.587 70.2502C768.002 71.9602 765.729 73.2739 762.768 74.1914C759.849 75.1089 756.387 75.5677 752.383 75.5677C748.38 75.5677 744.897 75.1089 741.936 74.1914C739.017 73.2739 736.744 71.9602 735.117 70.2502C733.532 68.5403 732.74 66.4967 732.74 64.1195C732.74 61.7006 733.532 59.6362 735.117 57.9263C736.744 56.2164 739.017 54.9026 741.936 53.9851C744.897 53.0676 748.38 52.6088 752.383 52.6088ZM752.383 59.1774C749.923 59.1774 747.858 59.3651 746.19 59.7405C744.522 60.0741 743.25 60.5954 742.374 61.3044C741.498 62.0134 741.06 62.9518 741.06 64.1195C741.06 65.2039 741.498 66.1214 742.374 66.8721C743.25 67.6228 744.522 68.1858 746.19 68.5612C747.858 68.8948 749.923 69.0616 752.383 69.0616C754.844 69.0616 756.908 68.8948 758.577 68.5612C760.286 68.1858 761.558 67.6228 762.393 66.8721C763.268 66.1214 763.706 65.2039 763.706 64.1195C763.706 62.9518 763.268 62.0134 762.393 61.3044C761.558 60.5954 760.286 60.0741 758.577 59.7405C756.908 59.3651 754.844 59.1774 752.383 59.1774ZM826.322 24.7079H836.269V31.4642H826.322V24.7079ZM826.322 37.2821H836.269V44.1009H826.322V37.2821ZM799.36 20.7667C802.362 20.7667 805.052 21.3715 807.43 22.5809C809.807 23.7904 811.684 25.4586 813.06 27.5856C814.436 29.6709 815.124 32.0898 815.124 34.8423C815.124 37.5532 814.436 39.9721 813.06 42.0991C811.684 44.1843 809.807 45.8317 807.43 47.0412C805.052 48.2506 802.362 48.8553 799.36 48.8553C796.399 48.8553 793.729 48.2506 791.352 47.0412C788.975 45.8317 787.098 44.1843 785.722 42.0991C784.346 39.9721 783.658 37.5532 783.658 34.8423C783.658 32.0898 784.346 29.6709 785.722 27.5856C787.098 25.4586 788.975 23.7904 791.352 22.5809C793.729 21.3715 796.399 20.7667 799.36 20.7667ZM799.36 27.7107C797.942 27.7107 796.649 28.0026 795.481 28.5865C794.313 29.1287 793.396 29.9419 792.728 31.0263C792.103 32.0689 791.79 33.3409 791.79 34.8423C791.79 36.302 792.103 37.574 792.728 38.6584C793.396 39.701 794.313 40.4934 795.481 41.0356C796.649 41.5778 797.942 41.8488 799.36 41.8488C800.861 41.8488 802.175 41.5778 803.301 41.0356C804.427 40.4934 805.323 39.701 805.991 38.6584C806.658 37.574 806.992 36.302 806.992 34.8423C806.992 33.3409 806.658 32.0689 805.991 31.0263C805.323 29.9419 804.427 29.1287 803.301 28.5865C802.175 28.0026 800.861 27.7107 799.36 27.7107ZM820.504 17.6388H828.824V51.4202H820.504V17.6388ZM809.932 52.6088C813.936 52.6088 817.397 53.0676 820.317 53.9851C823.278 54.9026 825.551 56.2164 827.135 57.9263C828.72 59.6362 829.513 61.7006 829.513 64.1195C829.513 66.4967 828.72 68.5403 827.135 70.2502C825.551 71.9602 823.278 73.2739 820.317 74.1914C817.397 75.1089 813.936 75.5677 809.932 75.5677C805.928 75.5677 802.446 75.1089 799.485 74.1914C796.565 73.2739 794.292 71.9602 792.666 70.2502C791.081 68.5403 790.289 66.4967 790.289 64.1195C790.289 61.7006 791.081 59.6362 792.666 57.9263C794.292 56.2164 796.565 54.9026 799.485 53.9851C802.446 53.0676 805.928 52.6088 809.932 52.6088ZM809.932 59.1774C807.471 59.1774 805.407 59.3651 803.739 59.7405C802.07 60.0741 800.798 60.5954 799.923 61.3044C799.047 62.0134 798.609 62.9518 798.609 64.1195C798.609 65.2039 799.047 66.1214 799.923 66.8721C800.798 67.6228 802.07 68.1858 803.739 68.5612C805.407 68.8948 807.471 69.0616 809.932 69.0616C812.393 69.0616 814.457 68.8948 816.125 68.5612C817.835 68.1858 819.107 67.6228 819.941 66.8721C820.817 66.1214 821.255 65.2039 821.255 64.1195C821.255 62.9518 820.817 62.0134 819.941 61.3044C819.107 60.5954 817.835 60.0741 816.125 59.7405C814.457 59.3651 812.393 59.1774 809.932 59.1774ZM883.871 24.7079H893.818V31.4642H883.871V24.7079ZM883.871 37.2821H893.818V44.1009H883.871V37.2821ZM856.908 20.7667C859.911 20.7667 862.601 21.3715 864.978 22.5809C867.355 23.7904 869.232 25.4586 870.608 27.5856C871.985 29.6709 872.673 32.0898 872.673 34.8423C872.673 37.5532 871.985 39.9721 870.608 42.0991C869.232 44.1843 867.355 45.8317 864.978 47.0412C862.601 48.2506 859.911 48.8553 856.908 48.8553C853.947 48.8553 851.278 48.2506 848.901 47.0412C846.524 45.8317 844.647 44.1843 843.271 42.0991C841.894 39.9721 841.206 37.5532 841.206 34.8423C841.206 32.0898 841.894 29.6709 843.271 27.5856C844.647 25.4586 846.524 23.7904 848.901 22.5809C851.278 21.3715 853.947 20.7667 856.908 20.7667ZM856.908 27.7107C855.49 27.7107 854.197 28.0026 853.03 28.5865C851.862 29.1287 850.944 29.9419 850.277 31.0263C849.651 32.0689 849.339 33.3409 849.339 34.8423C849.339 36.302 849.651 37.574 850.277 38.6584C850.944 39.701 851.862 40.4934 853.03 41.0356C854.197 41.5778 855.49 41.8488 856.908 41.8488C858.41 41.8488 859.723 41.5778 860.849 41.0356C861.975 40.4934 862.872 39.701 863.539 38.6584C864.207 37.574 864.54 36.302 864.54 34.8423C864.54 33.3409 864.207 32.0689 863.539 31.0263C862.872 29.9419 861.975 29.1287 860.849 28.5865C859.723 28.0026 858.41 27.7107 856.908 27.7107ZM878.053 17.6388H886.373V51.4202H878.053V17.6388ZM867.481 52.6088C871.484 52.6088 874.946 53.0676 877.865 53.9851C880.826 54.9026 883.099 56.2164 884.684 57.9263C886.269 59.6362 887.061 61.7006 887.061 64.1195C887.061 66.4967 886.269 68.5403 884.684 70.2502C883.099 71.9602 880.826 73.2739 877.865 74.1914C874.946 75.1089 871.484 75.5677 867.481 75.5677C863.477 75.5677 859.994 75.1089 857.033 74.1914C854.114 73.2739 851.841 71.9602 850.214 70.2502C848.63 68.5403 847.837 66.4967 847.837 64.1195C847.837 61.7006 848.63 59.6362 850.214 57.9263C851.841 56.2164 854.114 54.9026 857.033 53.9851C859.994 53.0676 863.477 52.6088 867.481 52.6088ZM867.481 59.1774C865.02 59.1774 862.955 59.3651 861.287 59.7405C859.619 60.0741 858.347 60.5954 857.471 61.3044C856.595 62.0134 856.157 62.9518 856.157 64.1195C856.157 65.2039 856.595 66.1214 857.471 66.8721C858.347 67.6228 859.619 68.1858 861.287 68.5612C862.955 68.8948 865.02 69.0616 867.481 69.0616C869.941 69.0616 872.006 68.8948 873.674 68.5612C875.384 68.1858 876.656 67.6228 877.49 66.8721C878.366 66.1214 878.804 65.2039 878.804 64.1195C878.804 62.9518 878.366 62.0134 877.49 61.3044C876.656 60.5954 875.384 60.0741 873.674 59.7405C872.006 59.3651 869.941 59.1774 867.481 59.1774ZM941.419 24.7079H951.366V31.4642H941.419V24.7079ZM941.419 37.2821H951.366V44.1009H941.419V37.2821ZM914.457 20.7667C917.46 20.7667 920.15 21.3715 922.527 22.5809C924.904 23.7904 926.781 25.4586 928.157 27.5856C929.533 29.6709 930.221 32.0898 930.221 34.8423C930.221 37.5532 929.533 39.9721 928.157 42.0991C926.781 44.1843 924.904 45.8317 922.527 47.0412C920.15 48.2506 917.46 48.8553 914.457 48.8553C911.496 48.8553 908.827 48.2506 906.449 47.0412C904.072 45.8317 902.195 44.1843 900.819 42.0991C899.443 39.9721 898.755 37.5532 898.755 34.8423C898.755 32.0898 899.443 29.6709 900.819 27.5856C902.195 25.4586 904.072 23.7904 906.449 22.5809C908.827 21.3715 911.496 20.7667 914.457 20.7667ZM914.457 27.7107C913.039 27.7107 911.746 28.0026 910.578 28.5865C909.41 29.1287 908.493 29.9419 907.826 31.0263C907.2 32.0689 906.887 33.3409 906.887 34.8423C906.887 36.302 907.2 37.574 907.826 38.6584C908.493 39.701 909.41 40.4934 910.578 41.0356C911.746 41.5778 913.039 41.8488 914.457 41.8488C915.958 41.8488 917.272 41.5778 918.398 41.0356C919.524 40.4934 920.421 39.701 921.088 38.6584C921.755 37.574 922.089 36.302 922.089 34.8423C922.089 33.3409 921.755 32.0689 921.088 31.0263C920.421 29.9419 919.524 29.1287 918.398 28.5865C917.272 28.0026 915.958 27.7107 914.457 27.7107ZM935.601 17.6388H943.922V51.4202H935.601V17.6388ZM925.029 52.6088C929.033 52.6088 932.494 53.0676 935.414 53.9851C938.375 54.9026 940.648 56.2164 942.233 57.9263C943.817 59.6362 944.61 61.7006 944.61 64.1195C944.61 66.4967 943.817 68.5403 942.233 70.2502C940.648 71.9602 938.375 73.2739 935.414 74.1914C932.494 75.1089 929.033 75.5677 925.029 75.5677C921.025 75.5677 917.543 75.1089 914.582 74.1914C911.663 73.2739 909.39 71.9602 907.763 70.2502C906.178 68.5403 905.386 66.4967 905.386 64.1195C905.386 61.7006 906.178 59.6362 907.763 57.9263C909.39 56.2164 911.663 54.9026 914.582 53.9851C917.543 53.0676 921.025 52.6088 925.029 52.6088ZM925.029 59.1774C922.568 59.1774 920.504 59.3651 918.836 59.7405C917.168 60.0741 915.896 60.5954 915.02 61.3044C914.144 62.0134 913.706 62.9518 913.706 64.1195C913.706 65.2039 914.144 66.1214 915.02 66.8721C915.896 67.6228 917.168 68.1858 918.836 68.5612C920.504 68.8948 922.568 69.0616 925.029 69.0616C927.49 69.0616 929.554 68.8948 931.222 68.5612C932.932 68.1858 934.204 67.6228 935.038 66.8721C935.914 66.1214 936.352 65.2039 936.352 64.1195C936.352 62.9518 935.914 62.0134 935.038 61.3044C934.204 60.5954 932.932 60.0741 931.222 59.7405C929.554 59.3651 927.49 59.1774 925.029 59.1774ZM998.968 24.7079H1008.91V31.4642H998.968V24.7079ZM998.968 37.2821H1008.91V44.1009H998.968V37.2821ZM972.005 20.7667C975.008 20.7667 977.698 21.3715 980.075 22.5809C982.453 23.7904 984.329 25.4586 985.706 27.5856C987.082 29.6709 987.77 32.0898 987.77 34.8423C987.77 37.5532 987.082 39.9721 985.706 42.0991C984.329 44.1843 982.453 45.8317 980.075 47.0412C977.698 48.2506 975.008 48.8553 972.005 48.8553C969.044 48.8553 966.375 48.2506 963.998 47.0412C961.621 45.8317 959.744 44.1843 958.368 42.0991C956.991 39.9721 956.303 37.5532 956.303 34.8423C956.303 32.0898 956.991 29.6709 958.368 27.5856C959.744 25.4586 961.621 23.7904 963.998 22.5809C966.375 21.3715 969.044 20.7667 972.005 20.7667ZM972.005 27.7107C970.587 27.7107 969.295 28.0026 968.127 28.5865C966.959 29.1287 966.041 29.9419 965.374 31.0263C964.749 32.0689 964.436 33.3409 964.436 34.8423C964.436 36.302 964.749 37.574 965.374 38.6584C966.041 39.701 966.959 40.4934 968.127 41.0356C969.295 41.5778 970.587 41.8488 972.005 41.8488C973.507 41.8488 974.82 41.5778 975.947 41.0356C977.073 40.4934 977.969 39.701 978.637 38.6584C979.304 37.574 979.637 36.302 979.637 34.8423C979.637 33.3409 979.304 32.0689 978.637 31.0263C977.969 29.9419 977.073 29.1287 975.947 28.5865C974.82 28.0026 973.507 27.7107 972.005 27.7107ZM993.15 17.6388H1001.47V51.4202H993.15V17.6388ZM982.578 52.6088C986.581 52.6088 990.043 53.0676 992.962 53.9851C995.923 54.9026 998.196 56.2164 999.781 57.9263C1001.37 59.6362 1002.16 61.7006 1002.16 64.1195C1002.16 66.4967 1001.37 68.5403 999.781 70.2502C998.196 71.9602 995.923 73.2739 992.962 74.1914C990.043 75.1089 986.581 75.5677 982.578 75.5677C978.574 75.5677 975.092 75.1089 972.13 74.1914C969.211 73.2739 966.938 71.9602 965.312 70.2502C963.727 68.5403 962.934 66.4967 962.934 64.1195C962.934 61.7006 963.727 59.6362 965.312 57.9263C966.938 56.2164 969.211 54.9026 972.13 53.9851C975.092 53.0676 978.574 52.6088 982.578 52.6088ZM982.578 59.1774C980.117 59.1774 978.053 59.3651 976.384 59.7405C974.716 60.0741 973.444 60.5954 972.568 61.3044C971.693 62.0134 971.255 62.9518 971.255 64.1195C971.255 65.2039 971.693 66.1214 972.568 66.8721C973.444 67.6228 974.716 68.1858 976.384 68.5612C978.053 68.8948 980.117 69.0616 982.578 69.0616C985.038 69.0616 987.103 68.8948 988.771 68.5612C990.481 68.1858 991.753 67.6228 992.587 66.8721C993.463 66.1214 993.901 65.2039 993.901 64.1195C993.901 62.9518 993.463 62.0134 992.587 61.3044C991.753 60.5954 990.481 60.0741 988.771 59.7405C987.103 59.3651 985.038 59.1774 982.578 59.1774ZM1056.52 24.7079H1066.46V31.4642H1056.52V24.7079ZM1056.52 37.2821H1066.46V44.1009H1056.52V37.2821ZM1029.55 20.7667C1032.56 20.7667 1035.25 21.3715 1037.62 22.5809C1040 23.7904 1041.88 25.4586 1043.25 27.5856C1044.63 29.6709 1045.32 32.0898 1045.32 34.8423C1045.32 37.5532 1044.63 39.9721 1043.25 42.0991C1041.88 44.1843 1040 45.8317 1037.62 47.0412C1035.25 48.2506 1032.56 48.8553 1029.55 48.8553C1026.59 48.8553 1023.92 48.2506 1021.55 47.0412C1019.17 45.8317 1017.29 44.1843 1015.92 42.0991C1014.54 39.9721 1013.85 37.5532 1013.85 34.8423C1013.85 32.0898 1014.54 29.6709 1015.92 27.5856C1017.29 25.4586 1019.17 23.7904 1021.55 22.5809C1023.92 21.3715 1026.59 20.7667 1029.55 20.7667ZM1029.55 27.7107C1028.14 27.7107 1026.84 28.0026 1025.68 28.5865C1024.51 29.1287 1023.59 29.9419 1022.92 31.0263C1022.3 32.0689 1021.98 33.3409 1021.98 34.8423C1021.98 36.302 1022.3 37.574 1022.92 38.6584C1023.59 39.701 1024.51 40.4934 1025.68 41.0356C1026.84 41.5778 1028.14 41.8488 1029.55 41.8488C1031.06 41.8488 1032.37 41.5778 1033.5 41.0356C1034.62 40.4934 1035.52 39.701 1036.19 38.6584C1036.85 37.574 1037.19 36.302 1037.19 34.8423C1037.19 33.3409 1036.85 32.0689 1036.19 31.0263C1035.52 29.9419 1034.62 29.1287 1033.5 28.5865C1032.37 28.0026 1031.06 27.7107 1029.55 27.7107ZM1050.7 17.6388H1059.02V51.4202H1050.7V17.6388ZM1040.13 52.6088C1044.13 52.6088 1047.59 53.0676 1050.51 53.9851C1053.47 54.9026 1055.75 56.2164 1057.33 57.9263C1058.91 59.6362 1059.71 61.7006 1059.71 64.1195C1059.71 66.4967 1058.91 68.5403 1057.33 70.2502C1055.75 71.9602 1053.47 73.2739 1050.51 74.1914C1047.59 75.1089 1044.13 75.5677 1040.13 75.5677C1036.12 75.5677 1032.64 75.1089 1029.68 74.1914C1026.76 73.2739 1024.49 71.9602 1022.86 70.2502C1021.28 68.5403 1020.48 66.4967 1020.48 64.1195C1020.48 61.7006 1021.28 59.6362 1022.86 57.9263C1024.49 56.2164 1026.76 54.9026 1029.68 53.9851C1032.64 53.0676 1036.12 52.6088 1040.13 52.6088ZM1040.13 59.1774C1037.67 59.1774 1035.6 59.3651 1033.93 59.7405C1032.26 60.0741 1030.99 60.5954 1030.12 61.3044C1029.24 62.0134 1028.8 62.9518 1028.8 64.1195C1028.8 65.2039 1029.24 66.1214 1030.12 66.8721C1030.99 67.6228 1032.26 68.1858 1033.93 68.5612C1035.6 68.8948 1037.67 69.0616 1040.13 69.0616C1042.59 69.0616 1044.65 68.8948 1046.32 68.5612C1048.03 68.1858 1049.3 67.6228 1050.14 66.8721C1051.01 66.1214 1051.45 65.2039 1051.45 64.1195C1051.45 62.9518 1051.01 62.0134 1050.14 61.3044C1049.3 60.5954 1048.03 60.0741 1046.32 59.7405C1044.65 59.3651 1042.59 59.1774 1040.13 59.1774Z" fill="#02C8D1"/>
<path d="M534.842 68.4984H544.788V75.2547H534.842V68.4984ZM534.842 81.0726H544.788V87.8915H534.842V81.0726ZM507.879 64.5573C510.882 64.5573 513.572 65.162 515.949 66.3715C518.326 67.5809 520.203 69.2491 521.579 71.3761C522.955 73.4614 523.644 75.8803 523.644 78.6329C523.644 81.3437 522.955 83.7626 521.579 85.8896C520.203 87.9749 518.326 89.6222 515.949 90.8317C513.572 92.0411 510.882 92.6459 507.879 92.6459C504.918 92.6459 502.249 92.0411 499.872 90.8317C497.494 89.6222 495.618 87.9749 494.241 85.8896C492.865 83.7626 492.177 81.3437 492.177 78.6329C492.177 75.8803 492.865 73.4614 494.241 71.3761C495.618 69.2491 497.494 67.5809 499.872 66.3715C502.249 65.162 504.918 64.5573 507.879 64.5573ZM507.879 71.5012C506.461 71.5012 505.168 71.7932 504 72.377C502.833 72.9192 501.915 73.7325 501.248 74.8168C500.622 75.8594 500.309 77.1315 500.309 78.6329C500.309 80.0925 500.622 81.3646 501.248 82.4489C501.915 83.4915 502.833 84.2839 504 84.8261C505.168 85.3683 506.461 85.6394 507.879 85.6394C509.38 85.6394 510.694 85.3683 511.82 84.8261C512.946 84.2839 513.843 83.4915 514.51 82.4489C515.177 81.3646 515.511 80.0925 515.511 78.6329C515.511 77.1315 515.177 75.8594 514.51 74.8168C513.843 73.7325 512.946 72.9192 511.82 72.377C510.694 71.7932 509.38 71.5012 507.879 71.5012ZM529.024 61.4294H537.344V95.2108H529.024V61.4294ZM518.451 96.3994C522.455 96.3994 525.917 96.8581 528.836 97.7756C531.797 98.6932 534.07 100.007 535.655 101.717C537.24 103.427 538.032 105.491 538.032 107.91C538.032 110.287 537.24 112.331 535.655 114.041C534.07 115.751 531.797 117.064 528.836 117.982C525.917 118.899 522.455 119.358 518.451 119.358C514.448 119.358 510.965 118.899 508.004 117.982C505.085 117.064 502.812 115.751 501.185 114.041C499.6 112.331 498.808 110.287 498.808 107.91C498.808 105.491 499.6 103.427 501.185 101.717C502.812 100.007 505.085 98.6932 508.004 97.7756C510.965 96.8581 514.448 96.3994 518.451 96.3994ZM518.451 102.968C515.991 102.968 513.926 103.156 512.258 103.531C510.59 103.865 509.318 104.386 508.442 105.095C507.566 105.804 507.128 106.742 507.128 107.91C507.128 108.994 507.566 109.912 508.442 110.663C509.318 111.413 510.59 111.976 512.258 112.352C513.926 112.685 515.991 112.852 518.451 112.852C520.912 112.852 522.976 112.685 524.645 112.352C526.354 111.976 527.626 111.413 528.461 110.663C529.336 109.912 529.774 108.994 529.774 107.91C529.774 106.742 529.336 105.804 528.461 105.095C527.626 104.386 526.354 103.865 524.645 103.531C522.976 103.156 520.912 102.968 518.451 102.968ZM592.39 68.4984H602.337V75.2547H592.39V68.4984ZM592.39 81.0726H602.337V87.8915H592.39V81.0726ZM565.428 64.5573C568.43 64.5573 571.12 65.162 573.498 66.3715C575.875 67.5809 577.752 69.2491 579.128 71.3761C580.504 73.4614 581.192 75.8803 581.192 78.6329C581.192 81.3437 580.504 83.7626 579.128 85.8896C577.752 87.9749 575.875 89.6222 573.498 90.8317C571.12 92.0411 568.43 92.6459 565.428 92.6459C562.466 92.6459 559.797 92.0411 557.42 90.8317C555.043 89.6222 553.166 87.9749 551.79 85.8896C550.414 83.7626 549.725 81.3437 549.725 78.6329C549.725 75.8803 550.414 73.4614 551.79 71.3761C553.166 69.2491 555.043 67.5809 557.42 66.3715C559.797 65.162 562.466 64.5573 565.428 64.5573ZM565.428 71.5012C564.01 71.5012 562.717 71.7932 561.549 72.377C560.381 72.9192 559.464 73.7325 558.796 74.8168C558.171 75.8594 557.858 77.1315 557.858 78.6329C557.858 80.0925 558.171 81.3646 558.796 82.4489C559.464 83.4915 560.381 84.2839 561.549 84.8261C562.717 85.3683 564.01 85.6394 565.428 85.6394C566.929 85.6394 568.243 85.3683 569.369 84.8261C570.495 84.2839 571.391 83.4915 572.059 82.4489C572.726 81.3646 573.06 80.0925 573.06 78.6329C573.06 77.1315 572.726 75.8594 572.059 74.8168C571.391 73.7325 570.495 72.9192 569.369 72.377C568.243 71.7932 566.929 71.5012 565.428 71.5012ZM586.572 61.4294H594.892V95.2108H586.572V61.4294ZM576 96.3994C580.004 96.3994 583.465 96.8581 586.385 97.7756C589.346 98.6932 591.619 100.007 593.203 101.717C594.788 103.427 595.581 105.491 595.581 107.91C595.581 110.287 594.788 112.331 593.203 114.041C591.619 115.751 589.346 117.064 586.385 117.982C583.465 118.899 580.004 119.358 576 119.358C571.996 119.358 568.514 118.899 565.553 117.982C562.633 117.064 560.36 115.751 558.734 114.041C557.149 112.331 556.357 110.287 556.357 107.91C556.357 105.491 557.149 103.427 558.734 101.717C560.36 100.007 562.633 98.6932 565.553 97.7756C568.514 96.8581 571.996 96.3994 576 96.3994ZM576 102.968C573.539 102.968 571.475 103.156 569.807 103.531C568.138 103.865 566.866 104.386 565.991 105.095C565.115 105.804 564.677 106.742 564.677 107.91C564.677 108.994 565.115 109.912 565.991 110.663C566.866 111.413 568.138 111.976 569.807 112.352C571.475 112.685 573.539 112.852 576 112.852C578.461 112.852 580.525 112.685 582.193 112.352C583.903 111.976 585.175 111.413 586.009 110.663C586.885 109.912 587.323 108.994 587.323 107.91C587.323 106.742 586.885 105.804 586.009 105.095C585.175 104.386 583.903 103.865 582.193 103.531C580.525 103.156 578.461 102.968 576 102.968ZM649.939 68.4984H659.885V75.2547H649.939V68.4984ZM649.939 81.0726H659.885V87.8915H649.939V81.0726ZM622.976 64.5573C625.979 64.5573 628.669 65.162 631.046 66.3715C633.423 67.5809 635.3 69.2491 636.676 71.3761C638.053 73.4614 638.741 75.8803 638.741 78.6329C638.741 81.3437 638.053 83.7626 636.676 85.8896C635.3 87.9749 633.423 89.6222 631.046 90.8317C628.669 92.0411 625.979 92.6459 622.976 92.6459C620.015 92.6459 617.346 92.0411 614.969 90.8317C612.592 89.6222 610.715 87.9749 609.338 85.8896C607.962 83.7626 607.274 81.3437 607.274 78.6329C607.274 75.8803 607.962 73.4614 609.338 71.3761C610.715 69.2491 612.592 67.5809 614.969 66.3715C617.346 65.162 620.015 64.5573 622.976 64.5573ZM622.976 71.5012C621.558 71.5012 620.265 71.7932 619.098 72.377C617.93 72.9192 617.012 73.7325 616.345 74.8168C615.719 75.8594 615.407 77.1315 615.407 78.6329C615.407 80.0925 615.719 81.3646 616.345 82.4489C617.012 83.4915 617.93 84.2839 619.098 84.8261C620.265 85.3683 621.558 85.6394 622.976 85.6394C624.478 85.6394 625.791 85.3683 626.917 84.8261C628.043 84.2839 628.94 83.4915 629.607 82.4489C630.275 81.3646 630.608 80.0925 630.608 78.6329C630.608 77.1315 630.275 75.8594 629.607 74.8168C628.94 73.7325 628.043 72.9192 626.917 72.377C625.791 71.7932 624.478 71.5012 622.976 71.5012ZM644.121 61.4294H652.441V95.2108H644.121V61.4294ZM633.548 96.3994C637.552 96.3994 641.014 96.8581 643.933 97.7756C646.894 98.6932 649.167 100.007 650.752 101.717C652.337 103.427 653.129 105.491 653.129 107.91C653.129 110.287 652.337 112.331 650.752 114.041C649.167 115.751 646.894 117.064 643.933 117.982C641.014 118.899 637.552 119.358 633.548 119.358C629.545 119.358 626.062 118.899 623.101 117.982C620.182 117.064 617.909 115.751 616.282 114.041C614.698 112.331 613.905 110.287 613.905 107.91C613.905 105.491 614.698 103.427 616.282 101.717C617.909 100.007 620.182 98.6932 623.101 97.7756C626.062 96.8581 629.545 96.3994 633.548 96.3994ZM633.548 102.968C631.088 102.968 629.023 103.156 627.355 103.531C625.687 103.865 624.415 104.386 623.539 105.095C622.663 105.804 622.225 106.742 622.225 107.91C622.225 108.994 622.663 109.912 623.539 110.663C624.415 111.413 625.687 111.976 627.355 112.352C629.023 112.685 631.088 112.852 633.548 112.852C636.009 112.852 638.074 112.685 639.742 112.352C641.452 111.976 642.724 111.413 643.558 110.663C644.434 109.912 644.872 108.994 644.872 107.91C644.872 106.742 644.434 105.804 643.558 105.095C642.724 104.386 641.452 103.865 639.742 103.531C638.074 103.156 636.009 102.968 633.548 102.968ZM707.487 68.4984H717.434V75.2547H707.487V68.4984ZM707.487 81.0726H717.434V87.8915H707.487V81.0726ZM680.525 64.5573C683.528 64.5573 686.218 65.162 688.595 66.3715C690.972 67.5809 692.849 69.2491 694.225 71.3761C695.601 73.4614 696.289 75.8803 696.289 78.6329C696.289 81.3437 695.601 83.7626 694.225 85.8896C692.849 87.9749 690.972 89.6222 688.595 90.8317C686.218 92.0411 683.528 92.6459 680.525 92.6459C677.564 92.6459 674.895 92.0411 672.517 90.8317C670.14 89.6222 668.263 87.9749 666.887 85.8896C665.511 83.7626 664.823 81.3437 664.823 78.6329C664.823 75.8803 665.511 73.4614 666.887 71.3761C668.263 69.2491 670.14 67.5809 672.517 66.3715C674.895 65.162 677.564 64.5573 680.525 64.5573ZM680.525 71.5012C679.107 71.5012 677.814 71.7932 676.646 72.377C675.478 72.9192 674.561 73.7325 673.894 74.8168C673.268 75.8594 672.955 77.1315 672.955 78.6329C672.955 80.0925 673.268 81.3646 673.894 82.4489C674.561 83.4915 675.478 84.2839 676.646 84.8261C677.814 85.3683 679.107 85.6394 680.525 85.6394C682.026 85.6394 683.34 85.3683 684.466 84.8261C685.592 84.2839 686.489 83.4915 687.156 82.4489C687.823 81.3646 688.157 80.0925 688.157 78.6329C688.157 77.1315 687.823 75.8594 687.156 74.8168C686.489 73.7325 685.592 72.9192 684.466 72.377C683.34 71.7932 682.026 71.5012 680.525 71.5012ZM701.669 61.4294H709.99V95.2108H701.669V61.4294ZM691.097 96.3994C695.101 96.3994 698.562 96.8581 701.482 97.7756C704.443 98.6932 706.716 100.007 708.301 101.717C709.885 103.427 710.678 105.491 710.678 107.91C710.678 110.287 709.885 112.331 708.301 114.041C706.716 115.751 704.443 117.064 701.482 117.982C698.562 118.899 695.101 119.358 691.097 119.358C687.093 119.358 683.611 118.899 680.65 117.982C677.731 117.064 675.458 115.751 673.831 114.041C672.246 112.331 671.454 110.287 671.454 107.91C671.454 105.491 672.246 103.427 673.831 101.717C675.458 100.007 677.731 98.6932 680.65 97.7756C683.611 96.8581 687.093 96.3994 691.097 96.3994ZM691.097 102.968C688.636 102.968 686.572 103.156 684.904 103.531C683.236 103.865 681.964 104.386 681.088 105.095C680.212 105.804 679.774 106.742 679.774 107.91C679.774 108.994 680.212 109.912 681.088 110.663C681.964 111.413 683.236 111.976 684.904 112.352C686.572 112.685 688.636 112.852 691.097 112.852C693.558 112.852 695.622 112.685 697.29 112.352C699 111.976 700.272 111.413 701.106 110.663C701.982 109.912 702.42 108.994 702.42 107.91C702.42 106.742 701.982 105.804 701.106 105.095C700.272 104.386 699 103.865 697.29 103.531C695.622 103.156 693.558 102.968 691.097 102.968ZM765.036 68.4984H774.983V75.2547H765.036V68.4984ZM765.036 81.0726H774.983V87.8915H765.036V81.0726ZM738.073 64.5573C741.076 64.5573 743.766 65.162 746.143 66.3715C748.521 67.5809 750.397 69.2491 751.774 71.3761C753.15 73.4614 753.838 75.8803 753.838 78.6329C753.838 81.3437 753.15 83.7626 751.774 85.8896C750.397 87.9749 748.521 89.6222 746.143 90.8317C743.766 92.0411 741.076 92.6459 738.073 92.6459C735.112 92.6459 732.443 92.0411 730.066 90.8317C727.689 89.6222 725.812 87.9749 724.436 85.8896C723.059 83.7626 722.371 81.3437 722.371 78.6329C722.371 75.8803 723.059 73.4614 724.436 71.3761C725.812 69.2491 727.689 67.5809 730.066 66.3715C732.443 65.162 735.112 64.5573 738.073 64.5573ZM738.073 71.5012C736.655 71.5012 735.363 71.7932 734.195 72.377C733.027 72.9192 732.109 73.7325 731.442 74.8168C730.817 75.8594 730.504 77.1315 730.504 78.6329C730.504 80.0925 730.817 81.3646 731.442 82.4489C732.109 83.4915 733.027 84.2839 734.195 84.8261C735.363 85.3683 736.655 85.6394 738.073 85.6394C739.575 85.6394 740.888 85.3683 742.015 84.8261C743.141 84.2839 744.037 83.4915 744.705 82.4489C745.372 81.3646 745.705 80.0925 745.705 78.6329C745.705 77.1315 745.372 75.8594 744.705 74.8168C744.037 73.7325 743.141 72.9192 742.015 72.377C740.888 71.7932 739.575 71.5012 738.073 71.5012ZM759.218 61.4294H767.538V95.2108H759.218V61.4294ZM748.646 96.3994C752.649 96.3994 756.111 96.8581 759.03 97.7756C761.991 98.6932 764.264 100.007 765.849 101.717C767.434 103.427 768.226 105.491 768.226 107.91C768.226 110.287 767.434 112.331 765.849 114.041C764.264 115.751 761.991 117.064 759.03 117.982C756.111 118.899 752.649 119.358 748.646 119.358C744.642 119.358 741.16 118.899 738.198 117.982C735.279 117.064 733.006 115.751 731.38 114.041C729.795 112.331 729.002 110.287 729.002 107.91C729.002 105.491 729.795 103.427 731.38 101.717C733.006 100.007 735.279 98.6932 738.198 97.7756C741.16 96.8581 744.642 96.3994 748.646 96.3994ZM748.646 102.968C746.185 102.968 744.121 103.156 742.452 103.531C740.784 103.865 739.512 104.386 738.636 105.095C737.761 105.804 737.323 106.742 737.323 107.91C737.323 108.994 737.761 109.912 738.636 110.663C739.512 111.413 740.784 111.976 742.452 112.352C744.121 112.685 746.185 112.852 748.646 112.852C751.106 112.852 753.171 112.685 754.839 112.352C756.549 111.976 757.821 111.413 758.655 110.663C759.531 109.912 759.969 108.994 759.969 107.91C759.969 106.742 759.531 105.804 758.655 105.095C757.821 104.386 756.549 103.865 754.839 103.531C753.171 103.156 751.106 102.968 748.646 102.968ZM822.585 68.4984H832.531V75.2547H822.585V68.4984ZM822.585 81.0726H832.531V87.8915H822.585V81.0726ZM795.622 64.5573C798.625 64.5573 801.315 65.162 803.692 66.3715C806.069 67.5809 807.946 69.2491 809.322 71.3761C810.698 73.4614 811.387 75.8803 811.387 78.6329C811.387 81.3437 810.698 83.7626 809.322 85.8896C807.946 87.9749 806.069 89.6222 803.692 90.8317C801.315 92.0411 798.625 92.6459 795.622 92.6459C792.661 92.6459 789.992 92.0411 787.615 90.8317C785.237 89.6222 783.361 87.9749 781.984 85.8896C780.608 83.7626 779.92 81.3437 779.92 78.6329C779.92 75.8803 780.608 73.4614 781.984 71.3761C783.361 69.2491 785.237 67.5809 787.615 66.3715C789.992 65.162 792.661 64.5573 795.622 64.5573ZM795.622 71.5012C794.204 71.5012 792.911 71.7932 791.743 72.377C790.576 72.9192 789.658 73.7325 788.991 74.8168C788.365 75.8594 788.052 77.1315 788.052 78.6329C788.052 80.0925 788.365 81.3646 788.991 82.4489C789.658 83.4915 790.576 84.2839 791.743 84.8261C792.911 85.3683 794.204 85.6394 795.622 85.6394C797.123 85.6394 798.437 85.3683 799.563 84.8261C800.689 84.2839 801.586 83.4915 802.253 82.4489C802.92 81.3646 803.254 80.0925 803.254 78.6329C803.254 77.1315 802.92 75.8594 802.253 74.8168C801.586 73.7325 800.689 72.9192 799.563 72.377C798.437 71.7932 797.123 71.5012 795.622 71.5012ZM816.767 61.4294H825.087V95.2108H816.767V61.4294ZM806.194 96.3994C810.198 96.3994 813.66 96.8581 816.579 97.7756C819.54 98.6932 821.813 100.007 823.398 101.717C824.983 103.427 825.775 105.491 825.775 107.91C825.775 110.287 824.983 112.331 823.398 114.041C821.813 115.751 819.54 117.064 816.579 117.982C813.66 118.899 810.198 119.358 806.194 119.358C802.191 119.358 798.708 118.899 795.747 117.982C792.828 117.064 790.555 115.751 788.928 114.041C787.343 112.331 786.551 110.287 786.551 107.91C786.551 105.491 787.343 103.427 788.928 101.717C790.555 100.007 792.828 98.6932 795.747 97.7756C798.708 96.8581 802.191 96.3994 806.194 96.3994ZM806.194 102.968C803.734 102.968 801.669 103.156 800.001 103.531C798.333 103.865 797.061 104.386 796.185 105.095C795.309 105.804 794.871 106.742 794.871 107.91C794.871 108.994 795.309 109.912 796.185 110.663C797.061 111.413 798.333 111.976 800.001 112.352C801.669 112.685 803.734 112.852 806.194 112.852C808.655 112.852 810.719 112.685 812.388 112.352C814.097 111.976 815.369 111.413 816.204 110.663C817.079 109.912 817.517 108.994 817.517 107.91C817.517 106.742 817.079 105.804 816.204 105.095C815.369 104.386 814.097 103.865 812.388 103.531C810.719 103.156 808.655 102.968 806.194 102.968ZM880.133 68.4984H890.08V75.2547H880.133V68.4984ZM880.133 81.0726H890.08V87.8915H880.133V81.0726ZM853.171 64.5573C856.173 64.5573 858.863 65.162 861.241 66.3715C863.618 67.5809 865.495 69.2491 866.871 71.3761C868.247 73.4614 868.935 75.8803 868.935 78.6329C868.935 81.3437 868.247 83.7626 866.871 85.8896C865.495 87.9749 863.618 89.6222 861.241 90.8317C858.863 92.0411 856.173 92.6459 853.171 92.6459C850.21 92.6459 847.54 92.0411 845.163 90.8317C842.786 89.6222 840.909 87.9749 839.533 85.8896C838.157 83.7626 837.468 81.3437 837.468 78.6329C837.468 75.8803 838.157 73.4614 839.533 71.3761C840.909 69.2491 842.786 67.5809 845.163 66.3715C847.54 65.162 850.21 64.5573 853.171 64.5573ZM853.171 71.5012C851.753 71.5012 850.46 71.7932 849.292 72.377C848.124 72.9192 847.207 73.7325 846.539 74.8168C845.914 75.8594 845.601 77.1315 845.601 78.6329C845.601 80.0925 845.914 81.3646 846.539 82.4489C847.207 83.4915 848.124 84.2839 849.292 84.8261C850.46 85.3683 851.753 85.6394 853.171 85.6394C854.672 85.6394 855.986 85.3683 857.112 84.8261C858.238 84.2839 859.134 83.4915 859.802 82.4489C860.469 81.3646 860.803 80.0925 860.803 78.6329C860.803 77.1315 860.469 75.8594 859.802 74.8168C859.134 73.7325 858.238 72.9192 857.112 72.377C855.986 71.7932 854.672 71.5012 853.171 71.5012ZM874.315 61.4294H882.635V95.2108H874.315V61.4294ZM863.743 96.3994C867.747 96.3994 871.208 96.8581 874.128 97.7756C877.089 98.6932 879.362 100.007 880.946 101.717C882.531 103.427 883.324 105.491 883.324 107.91C883.324 110.287 882.531 112.331 880.946 114.041C879.362 115.751 877.089 117.064 874.128 117.982C871.208 118.899 867.747 119.358 863.743 119.358C859.739 119.358 856.257 118.899 853.296 117.982C850.376 117.064 848.103 115.751 846.477 114.041C844.892 112.331 844.1 110.287 844.1 107.91C844.1 105.491 844.892 103.427 846.477 101.717C848.103 100.007 850.376 98.6932 853.296 97.7756C856.257 96.8581 859.739 96.3994 863.743 96.3994ZM863.743 102.968C861.282 102.968 859.218 103.156 857.55 103.531C855.881 103.865 854.609 104.386 853.734 105.095C852.858 105.804 852.42 106.742 852.42 107.91C852.42 108.994 852.858 109.912 853.734 110.663C854.609 111.413 855.881 111.976 857.55 112.352C859.218 112.685 861.282 112.852 863.743 112.852C866.204 112.852 868.268 112.685 869.936 112.352C871.646 111.976 872.918 111.413 873.752 110.663C874.628 109.912 875.066 108.994 875.066 107.91C875.066 106.742 874.628 105.804 873.752 105.095C872.918 104.386 871.646 103.865 869.936 103.531C868.268 103.156 866.204 102.968 863.743 102.968ZM937.682 68.4984H947.628V75.2547H937.682V68.4984ZM937.682 81.0726H947.628V87.8915H937.682V81.0726ZM910.719 64.5573C913.722 64.5573 916.412 65.162 918.789 66.3715C921.166 67.5809 923.043 69.2491 924.419 71.3761C925.796 73.4614 926.484 75.8803 926.484 78.6329C926.484 81.3437 925.796 83.7626 924.419 85.8896C923.043 87.9749 921.166 89.6222 918.789 90.8317C916.412 92.0411 913.722 92.6459 910.719 92.6459C907.758 92.6459 905.089 92.0411 902.712 90.8317C900.335 89.6222 898.458 87.9749 897.081 85.8896C895.705 83.7626 895.017 81.3437 895.017 78.6329C895.017 75.8803 895.705 73.4614 897.081 71.3761C898.458 69.2491 900.335 67.5809 902.712 66.3715C905.089 65.162 907.758 64.5573 910.719 64.5573ZM910.719 71.5012C909.301 71.5012 908.008 71.7932 906.841 72.377C905.673 72.9192 904.755 73.7325 904.088 74.8168C903.462 75.8594 903.15 77.1315 903.15 78.6329C903.15 80.0925 903.462 81.3646 904.088 82.4489C904.755 83.4915 905.673 84.2839 906.841 84.8261C908.008 85.3683 909.301 85.6394 910.719 85.6394C912.221 85.6394 913.534 85.3683 914.66 84.8261C915.786 84.2839 916.683 83.4915 917.35 82.4489C918.018 81.3646 918.351 80.0925 918.351 78.6329C918.351 77.1315 918.018 75.8594 917.35 74.8168C916.683 73.7325 915.786 72.9192 914.66 72.377C913.534 71.7932 912.221 71.5012 910.719 71.5012ZM931.864 61.4294H940.184V95.2108H931.864V61.4294ZM921.291 96.3994C925.295 96.3994 928.757 96.8581 931.676 97.7756C934.637 98.6932 936.91 100.007 938.495 101.717C940.08 103.427 940.872 105.491 940.872 107.91C940.872 110.287 940.08 112.331 938.495 114.041C936.91 115.751 934.637 117.064 931.676 117.982C928.757 118.899 925.295 119.358 921.291 119.358C917.288 119.358 913.805 118.899 910.844 117.982C907.925 117.064 905.652 115.751 904.025 114.041C902.441 112.331 901.648 110.287 901.648 107.91C901.648 105.491 902.441 103.427 904.025 101.717C905.652 100.007 907.925 98.6932 910.844 97.7756C913.805 96.8581 917.288 96.3994 921.291 96.3994ZM921.291 102.968C918.831 102.968 916.766 103.156 915.098 103.531C913.43 103.865 912.158 104.386 911.282 105.095C910.406 105.804 909.968 106.742 909.968 107.91C909.968 108.994 910.406 109.912 911.282 110.663C912.158 111.413 913.43 111.976 915.098 112.352C916.766 112.685 918.831 112.852 921.291 112.852C923.752 112.852 925.817 112.685 927.485 112.352C929.195 111.976 930.467 111.413 931.301 110.663C932.177 109.912 932.615 108.994 932.615 107.91C932.615 106.742 932.177 105.804 931.301 105.095C930.467 104.386 929.195 103.865 927.485 103.531C925.817 103.156 923.752 102.968 921.291 102.968ZM995.23 68.4984H1005.18V75.2547H995.23V68.4984ZM995.23 81.0726H1005.18V87.8915H995.23V81.0726ZM968.268 64.5573C971.271 64.5573 973.961 65.162 976.338 66.3715C978.715 67.5809 980.592 69.2491 981.968 71.3761C983.344 73.4614 984.032 75.8803 984.032 78.6329C984.032 81.3437 983.344 83.7626 981.968 85.8896C980.592 87.9749 978.715 89.6222 976.338 90.8317C973.961 92.0411 971.271 92.6459 968.268 92.6459C965.307 92.6459 962.638 92.0411 960.26 90.8317C957.883 89.6222 956.006 87.9749 954.63 85.8896C953.254 83.7626 952.566 81.3437 952.566 78.6329C952.566 75.8803 953.254 73.4614 954.63 71.3761C956.006 69.2491 957.883 67.5809 960.26 66.3715C962.638 65.162 965.307 64.5573 968.268 64.5573ZM968.268 71.5012C966.85 71.5012 965.557 71.7932 964.389 72.377C963.221 72.9192 962.304 73.7325 961.637 74.8168C961.011 75.8594 960.698 77.1315 960.698 78.6329C960.698 80.0925 961.011 81.3646 961.637 82.4489C962.304 83.4915 963.221 84.2839 964.389 84.8261C965.557 85.3683 966.85 85.6394 968.268 85.6394C969.769 85.6394 971.083 85.3683 972.209 84.8261C973.335 84.2839 974.232 83.4915 974.899 82.4489C975.566 81.3646 975.9 80.0925 975.9 78.6329C975.9 77.1315 975.566 75.8594 974.899 74.8168C974.232 73.7325 973.335 72.9192 972.209 72.377C971.083 71.7932 969.769 71.5012 968.268 71.5012ZM989.412 61.4294H997.733V95.2108H989.412V61.4294ZM978.84 96.3994C982.844 96.3994 986.305 96.8581 989.225 97.7756C992.186 98.6932 994.459 100.007 996.044 101.717C997.628 103.427 998.421 105.491 998.421 107.91C998.421 110.287 997.628 112.331 996.044 114.041C994.459 115.751 992.186 117.064 989.225 117.982C986.305 118.899 982.844 119.358 978.84 119.358C974.836 119.358 971.354 118.899 968.393 117.982C965.474 117.064 963.201 115.751 961.574 114.041C959.989 112.331 959.197 110.287 959.197 107.91C959.197 105.491 959.989 103.427 961.574 101.717C963.201 100.007 965.474 98.6932 968.393 97.7756C971.354 96.8581 974.836 96.3994 978.84 96.3994ZM978.84 102.968C976.38 102.968 974.315 103.156 972.647 103.531C970.979 103.865 969.707 104.386 968.831 105.095C967.955 105.804 967.517 106.742 967.517 107.91C967.517 108.994 967.955 109.912 968.831 110.663C969.707 111.413 970.979 111.976 972.647 112.352C974.315 112.685 976.38 112.852 978.84 112.852C981.301 112.852 983.365 112.685 985.033 112.352C986.743 111.976 988.015 111.413 988.849 110.663C989.725 109.912 990.163 108.994 990.163 107.91C990.163 106.742 989.725 105.804 988.849 105.095C988.015 104.386 986.743 103.865 985.033 103.531C983.365 103.156 981.301 102.968 978.84 102.968ZM1052.78 68.4984H1062.73V75.2547H1052.78V68.4984ZM1052.78 81.0726H1062.73V87.8915H1052.78V81.0726ZM1025.82 64.5573C1028.82 64.5573 1031.51 65.162 1033.89 66.3715C1036.26 67.5809 1038.14 69.2491 1039.52 71.3761C1040.89 73.4614 1041.58 75.8803 1041.58 78.6329C1041.58 81.3437 1040.89 83.7626 1039.52 85.8896C1038.14 87.9749 1036.26 89.6222 1033.89 90.8317C1031.51 92.0411 1028.82 92.6459 1025.82 92.6459C1022.86 92.6459 1020.19 92.0411 1017.81 90.8317C1015.43 89.6222 1013.56 87.9749 1012.18 85.8896C1010.8 83.7626 1010.11 81.3437 1010.11 78.6329C1010.11 75.8803 1010.8 73.4614 1012.18 71.3761C1013.56 69.2491 1015.43 67.5809 1017.81 66.3715C1020.19 65.162 1022.86 64.5573 1025.82 64.5573ZM1025.82 71.5012C1024.4 71.5012 1023.11 71.7932 1021.94 72.377C1020.77 72.9192 1019.85 73.7325 1019.19 74.8168C1018.56 75.8594 1018.25 77.1315 1018.25 78.6329C1018.25 80.0925 1018.56 81.3646 1019.19 82.4489C1019.85 83.4915 1020.77 84.2839 1021.94 84.8261C1023.11 85.3683 1024.4 85.6394 1025.82 85.6394C1027.32 85.6394 1028.63 85.3683 1029.76 84.8261C1030.88 84.2839 1031.78 83.4915 1032.45 82.4489C1033.11 81.3646 1033.45 80.0925 1033.45 78.6329C1033.45 77.1315 1033.11 75.8594 1032.45 74.8168C1031.78 73.7325 1030.88 72.9192 1029.76 72.377C1028.63 71.7932 1027.32 71.5012 1025.82 71.5012ZM1046.96 61.4294H1055.28V95.2108H1046.96V61.4294ZM1036.39 96.3994C1040.39 96.3994 1043.85 96.8581 1046.77 97.7756C1049.73 98.6932 1052.01 100.007 1053.59 101.717C1055.18 103.427 1055.97 105.491 1055.97 107.91C1055.97 110.287 1055.18 112.331 1053.59 114.041C1052.01 115.751 1049.73 117.064 1046.77 117.982C1043.85 118.899 1040.39 119.358 1036.39 119.358C1032.39 119.358 1028.9 118.899 1025.94 117.982C1023.02 117.064 1020.75 115.751 1019.12 114.041C1017.54 112.331 1016.75 110.287 1016.75 107.91C1016.75 105.491 1017.54 103.427 1019.12 101.717C1020.75 100.007 1023.02 98.6932 1025.94 97.7756C1028.9 96.8581 1032.39 96.3994 1036.39 96.3994ZM1036.39 102.968C1033.93 102.968 1031.86 103.156 1030.2 103.531C1028.53 103.865 1027.26 104.386 1026.38 105.095C1025.5 105.804 1025.07 106.742 1025.07 107.91C1025.07 108.994 1025.5 109.912 1026.38 110.663C1027.26 111.413 1028.53 111.976 1030.2 112.352C1031.86 112.685 1033.93 112.852 1036.39 112.852C1038.85 112.852 1040.91 112.685 1042.58 112.352C1044.29 111.976 1045.56 111.413 1046.4 110.663C1047.27 109.912 1047.71 108.994 1047.71 107.91C1047.71 106.742 1047.27 105.804 1046.4 105.095C1045.56 104.386 1044.29 103.865 1042.58 103.531C1040.91 103.156 1038.85 102.968 1036.39 102.968ZM1110.33 68.4984H1120.27V75.2547H1110.33V68.4984ZM1110.33 81.0726H1120.27V87.8915H1110.33V81.0726ZM1083.36 64.5573C1086.37 64.5573 1089.06 65.162 1091.43 66.3715C1093.81 67.5809 1095.69 69.2491 1097.07 71.3761C1098.44 73.4614 1099.13 75.8803 1099.13 78.6329C1099.13 81.3437 1098.44 83.7626 1097.07 85.8896C1095.69 87.9749 1093.81 89.6222 1091.43 90.8317C1089.06 92.0411 1086.37 92.6459 1083.36 92.6459C1080.4 92.6459 1077.73 92.0411 1075.36 90.8317C1072.98 89.6222 1071.1 87.9749 1069.73 85.8896C1068.35 83.7626 1067.66 81.3437 1067.66 78.6329C1067.66 75.8803 1068.35 73.4614 1069.73 71.3761C1071.1 69.2491 1072.98 67.5809 1075.36 66.3715C1077.73 65.162 1080.4 64.5573 1083.36 64.5573ZM1083.36 71.5012C1081.95 71.5012 1080.65 71.7932 1079.49 72.377C1078.32 72.9192 1077.4 73.7325 1076.73 74.8168C1076.11 75.8594 1075.8 77.1315 1075.8 78.6329C1075.8 80.0925 1076.11 81.3646 1076.73 82.4489C1077.4 83.4915 1078.32 84.2839 1079.49 84.8261C1080.65 85.3683 1081.95 85.6394 1083.36 85.6394C1084.87 85.6394 1086.18 85.3683 1087.31 84.8261C1088.43 84.2839 1089.33 83.4915 1090 82.4489C1090.66 81.3646 1091 80.0925 1091 78.6329C1091 77.1315 1090.66 75.8594 1090 74.8168C1089.33 73.7325 1088.43 72.9192 1087.31 72.377C1086.18 71.7932 1084.87 71.5012 1083.36 71.5012ZM1104.51 61.4294H1112.83V95.2108H1104.51V61.4294ZM1093.94 96.3994C1097.94 96.3994 1101.4 96.8581 1104.32 97.7756C1107.28 98.6932 1109.56 100.007 1111.14 101.717C1112.73 103.427 1113.52 105.491 1113.52 107.91C1113.52 110.287 1112.73 112.331 1111.14 114.041C1109.56 115.751 1107.28 117.064 1104.32 117.982C1101.4 118.899 1097.94 119.358 1093.94 119.358C1089.93 119.358 1086.45 118.899 1083.49 117.982C1080.57 117.064 1078.3 115.751 1076.67 114.041C1075.09 112.331 1074.29 110.287 1074.29 107.91C1074.29 105.491 1075.09 103.427 1076.67 101.717C1078.3 100.007 1080.57 98.6932 1083.49 97.7756C1086.45 96.8581 1089.93 96.3994 1093.94 96.3994ZM1093.94 102.968C1091.48 102.968 1089.41 103.156 1087.74 103.531C1086.08 103.865 1084.8 104.386 1083.93 105.095C1083.05 105.804 1082.61 106.742 1082.61 107.91C1082.61 108.994 1083.05 109.912 1083.93 110.663C1084.8 111.413 1086.08 111.976 1087.74 112.352C1089.41 112.685 1091.48 112.852 1093.94 112.852C1096.4 112.852 1098.46 112.685 1100.13 112.352C1101.84 111.976 1103.11 111.413 1103.95 110.663C1104.82 109.912 1105.26 108.994 1105.26 107.91C1105.26 106.742 1104.82 105.804 1103.95 105.095C1103.11 104.386 1101.84 103.865 1100.13 103.531C1098.46 103.156 1096.4 102.968 1093.94 102.968ZM1167.88 68.4984H1177.82V75.2547H1167.88V68.4984ZM1167.88 81.0726H1177.82V87.8915H1167.88V81.0726ZM1140.91 64.5573C1143.92 64.5573 1146.61 65.162 1148.98 66.3715C1151.36 67.5809 1153.24 69.2491 1154.61 71.3761C1155.99 73.4614 1156.68 75.8803 1156.68 78.6329C1156.68 81.3437 1155.99 83.7626 1154.61 85.8896C1153.24 87.9749 1151.36 89.6222 1148.98 90.8317C1146.61 92.0411 1143.92 92.6459 1140.91 92.6459C1137.95 92.6459 1135.28 92.0411 1132.91 90.8317C1130.53 89.6222 1128.65 87.9749 1127.28 85.8896C1125.9 83.7626 1125.21 81.3437 1125.21 78.6329C1125.21 75.8803 1125.9 73.4614 1127.28 71.3761C1128.65 69.2491 1130.53 67.5809 1132.91 66.3715C1135.28 65.162 1137.95 64.5573 1140.91 64.5573ZM1140.91 71.5012C1139.5 71.5012 1138.2 71.7932 1137.03 72.377C1135.87 72.9192 1134.95 73.7325 1134.28 74.8168C1133.66 75.8594 1133.34 77.1315 1133.34 78.6329C1133.34 80.0925 1133.66 81.3646 1134.28 82.4489C1134.95 83.4915 1135.87 84.2839 1137.03 84.8261C1138.2 85.3683 1139.5 85.6394 1140.91 85.6394C1142.41 85.6394 1143.73 85.3683 1144.85 84.8261C1145.98 84.2839 1146.88 83.4915 1147.54 82.4489C1148.21 81.3646 1148.55 80.0925 1148.55 78.6329C1148.55 77.1315 1148.21 75.8594 1147.54 74.8168C1146.88 73.7325 1145.98 72.9192 1144.85 72.377C1143.73 71.7932 1142.41 71.5012 1140.91 71.5012ZM1162.06 61.4294H1170.38V95.2108H1162.06V61.4294ZM1151.49 96.3994C1155.49 96.3994 1158.95 96.8581 1161.87 97.7756C1164.83 98.6932 1167.1 100.007 1168.69 101.717C1170.27 103.427 1171.07 105.491 1171.07 107.91C1171.07 110.287 1170.27 112.331 1168.69 114.041C1167.1 115.751 1164.83 117.064 1161.87 117.982C1158.95 118.899 1155.49 119.358 1151.49 119.358C1147.48 119.358 1144 118.899 1141.04 117.982C1138.12 117.064 1135.85 115.751 1134.22 114.041C1132.64 112.331 1131.84 110.287 1131.84 107.91C1131.84 105.491 1132.64 103.427 1134.22 101.717C1135.85 100.007 1138.12 98.6932 1141.04 97.7756C1144 96.8581 1147.48 96.3994 1151.49 96.3994ZM1151.49 102.968C1149.03 102.968 1146.96 103.156 1145.29 103.531C1143.62 103.865 1142.35 104.386 1141.48 105.095C1140.6 105.804 1140.16 106.742 1140.16 107.91C1140.16 108.994 1140.6 109.912 1141.48 110.663C1142.35 111.413 1143.62 111.976 1145.29 112.352C1146.96 112.685 1149.03 112.852 1151.49 112.852C1153.95 112.852 1156.01 112.685 1157.68 112.352C1159.39 111.976 1160.66 111.413 1161.5 110.663C1162.37 109.912 1162.81 108.994 1162.81 107.91C1162.81 106.742 1162.37 105.804 1161.5 105.095C1160.66 104.386 1159.39 103.865 1157.68 103.531C1156.01 103.156 1153.95 102.968 1151.49 102.968ZM1225.42 68.4984H1235.37V75.2547H1225.42V68.4984ZM1225.42 81.0726H1235.37V87.8915H1225.42V81.0726ZM1198.46 64.5573C1201.47 64.5573 1204.16 65.162 1206.53 66.3715C1208.91 67.5809 1210.79 69.2491 1212.16 71.3761C1213.54 73.4614 1214.23 75.8803 1214.23 78.6329C1214.23 81.3437 1213.54 83.7626 1212.16 85.8896C1210.79 87.9749 1208.91 89.6222 1206.53 90.8317C1204.16 92.0411 1201.47 92.6459 1198.46 92.6459C1195.5 92.6459 1192.83 92.0411 1190.45 90.8317C1188.08 89.6222 1186.2 87.9749 1184.82 85.8896C1183.45 83.7626 1182.76 81.3437 1182.76 78.6329C1182.76 75.8803 1183.45 73.4614 1184.82 71.3761C1186.2 69.2491 1188.08 67.5809 1190.45 66.3715C1192.83 65.162 1195.5 64.5573 1198.46 64.5573ZM1198.46 71.5012C1197.04 71.5012 1195.75 71.7932 1194.58 72.377C1193.42 72.9192 1192.5 73.7325 1191.83 74.8168C1191.21 75.8594 1190.89 77.1315 1190.89 78.6329C1190.89 80.0925 1191.21 81.3646 1191.83 82.4489C1192.5 83.4915 1193.42 84.2839 1194.58 84.8261C1195.75 85.3683 1197.04 85.6394 1198.46 85.6394C1199.96 85.6394 1201.28 85.3683 1202.4 84.8261C1203.53 84.2839 1204.43 83.4915 1205.09 82.4489C1205.76 81.3646 1206.09 80.0925 1206.09 78.6329C1206.09 77.1315 1205.76 75.8594 1205.09 74.8168C1204.43 73.7325 1203.53 72.9192 1202.4 72.377C1201.28 71.7932 1199.96 71.5012 1198.46 71.5012ZM1219.61 61.4294H1227.93V95.2108H1219.61V61.4294ZM1209.03 96.3994C1213.04 96.3994 1216.5 96.8581 1219.42 97.7756C1222.38 98.6932 1224.65 100.007 1226.24 101.717C1227.82 103.427 1228.62 105.491 1228.62 107.91C1228.62 110.287 1227.82 112.331 1226.24 114.041C1224.65 115.751 1222.38 117.064 1219.42 117.982C1216.5 118.899 1213.04 119.358 1209.03 119.358C1205.03 119.358 1201.55 118.899 1198.59 117.982C1195.67 117.064 1193.4 115.751 1191.77 114.041C1190.18 112.331 1189.39 110.287 1189.39 107.91C1189.39 105.491 1190.18 103.427 1191.77 101.717C1193.4 100.007 1195.67 98.6932 1198.59 97.7756C1201.55 96.8581 1205.03 96.3994 1209.03 96.3994ZM1209.03 102.968C1206.57 102.968 1204.51 103.156 1202.84 103.531C1201.17 103.865 1199.9 104.386 1199.03 105.095C1198.15 105.804 1197.71 106.742 1197.71 107.91C1197.71 108.994 1198.15 109.912 1199.03 110.663C1199.9 111.413 1201.17 111.976 1202.84 112.352C1204.51 112.685 1206.57 112.852 1209.03 112.852C1211.5 112.852 1213.56 112.685 1215.23 112.352C1216.94 111.976 1218.21 111.413 1219.04 110.663C1219.92 109.912 1220.36 108.994 1220.36 107.91C1220.36 106.742 1219.92 105.804 1219.04 105.095C1218.21 104.386 1216.94 103.865 1215.23 103.531C1213.56 103.156 1211.5 102.968 1209.03 102.968Z" fill="#02C8D1"/>
<path d="M234.562 181.103H244.509V187.86H234.562V181.103ZM234.562 193.678H244.509V200.496H234.562V193.678ZM207.6 177.162C210.602 177.162 213.292 177.767 215.67 178.976C218.047 180.186 219.924 181.854 221.3 183.981C222.676 186.066 223.364 188.485 223.364 191.238C223.364 193.949 222.676 196.368 221.3 198.495C219.924 200.58 218.047 202.227 215.67 203.437C213.292 204.646 210.602 205.251 207.6 205.251C204.639 205.251 201.969 204.646 199.592 203.437C197.215 202.227 195.338 200.58 193.962 198.495C192.586 196.368 191.898 193.949 191.898 191.238C191.898 188.485 192.586 186.066 193.962 183.981C195.338 181.854 197.215 180.186 199.592 178.976C201.969 177.767 204.639 177.162 207.6 177.162ZM207.6 184.106C206.182 184.106 204.889 184.398 203.721 184.982C202.553 185.524 201.636 186.337 200.968 187.422C200.343 188.464 200.03 189.736 200.03 191.238C200.03 192.698 200.343 193.97 200.968 195.054C201.636 196.097 202.553 196.889 203.721 197.431C204.889 197.973 206.182 198.244 207.6 198.244C209.101 198.244 210.415 197.973 211.541 197.431C212.667 196.889 213.564 196.097 214.231 195.054C214.898 193.97 215.232 192.698 215.232 191.238C215.232 189.736 214.898 188.464 214.231 187.422C213.564 186.337 212.667 185.524 211.541 184.982C210.415 184.398 209.101 184.106 207.6 184.106ZM228.744 174.034H237.065V207.816H228.744V174.034ZM218.172 209.004C222.176 209.004 225.637 209.463 228.557 210.381C231.518 211.298 233.791 212.612 235.375 214.322C236.96 216.032 237.753 218.096 237.753 220.515C237.753 222.892 236.96 224.936 235.375 226.646C233.791 228.356 231.518 229.669 228.557 230.587C225.637 231.504 222.176 231.963 218.172 231.963C214.168 231.963 210.686 231.504 207.725 230.587C204.805 229.669 202.532 228.356 200.906 226.646C199.321 224.936 198.529 222.892 198.529 220.515C198.529 218.096 199.321 216.032 200.906 214.322C202.532 212.612 204.805 211.298 207.725 210.381C210.686 209.463 214.168 209.004 218.172 209.004ZM218.172 215.573C215.711 215.573 213.647 215.761 211.979 216.136C210.311 216.47 209.038 216.991 208.163 217.7C207.287 218.409 206.849 219.347 206.849 220.515C206.849 221.599 207.287 222.517 208.163 223.268C209.038 224.018 210.311 224.581 211.979 224.957C213.647 225.29 215.711 225.457 218.172 225.457C220.633 225.457 222.697 225.29 224.365 224.957C226.075 224.581 227.347 224.018 228.181 223.268C229.057 222.517 229.495 221.599 229.495 220.515C229.495 219.347 229.057 218.409 228.181 217.7C227.347 216.991 226.075 216.47 224.365 216.136C222.697 215.761 220.633 215.573 218.172 215.573ZM292.111 181.103H302.058V187.86H292.111V181.103ZM292.111 193.678H302.058V200.496H292.111V193.678ZM265.148 177.162C268.151 177.162 270.841 177.767 273.218 178.976C275.595 180.186 277.472 181.854 278.848 183.981C280.225 186.066 280.913 188.485 280.913 191.238C280.913 193.949 280.225 196.368 278.848 198.495C277.472 200.58 275.595 202.227 273.218 203.437C270.841 204.646 268.151 205.251 265.148 205.251C262.187 205.251 259.518 204.646 257.141 203.437C254.764 202.227 252.887 200.58 251.511 198.495C250.134 196.368 249.446 193.949 249.446 191.238C249.446 188.485 250.134 186.066 251.511 183.981C252.887 181.854 254.764 180.186 257.141 178.976C259.518 177.767 262.187 177.162 265.148 177.162ZM265.148 184.106C263.73 184.106 262.437 184.398 261.27 184.982C260.102 185.524 259.184 186.337 258.517 187.422C257.892 188.464 257.579 189.736 257.579 191.238C257.579 192.698 257.892 193.97 258.517 195.054C259.184 196.097 260.102 196.889 261.27 197.431C262.437 197.973 263.73 198.244 265.148 198.244C266.65 198.244 267.963 197.973 269.089 197.431C270.215 196.889 271.112 196.097 271.779 195.054C272.447 193.97 272.78 192.698 272.78 191.238C272.78 189.736 272.447 188.464 271.779 187.422C271.112 186.337 270.215 185.524 269.089 184.982C267.963 184.398 266.65 184.106 265.148 184.106ZM286.293 174.034H294.613V207.816H286.293V174.034ZM275.721 209.004C279.724 209.004 283.186 209.463 286.105 210.381C289.066 211.298 291.339 212.612 292.924 214.322C294.509 216.032 295.301 218.096 295.301 220.515C295.301 222.892 294.509 224.936 292.924 226.646C291.339 228.356 289.066 229.669 286.105 230.587C283.186 231.504 279.724 231.963 275.721 231.963C271.717 231.963 268.234 231.504 265.273 230.587C262.354 229.669 260.081 228.356 258.455 226.646C256.87 224.936 256.077 222.892 256.077 220.515C256.077 218.096 256.87 216.032 258.455 214.322C260.081 212.612 262.354 211.298 265.273 210.381C268.234 209.463 271.717 209.004 275.721 209.004ZM275.721 215.573C273.26 215.573 271.196 215.761 269.527 216.136C267.859 216.47 266.587 216.991 265.711 217.7C264.835 218.409 264.398 219.347 264.398 220.515C264.398 221.599 264.835 222.517 265.711 223.268C266.587 224.018 267.859 224.581 269.527 224.957C271.196 225.29 273.26 225.457 275.721 225.457C278.181 225.457 280.246 225.29 281.914 224.957C283.624 224.581 284.896 224.018 285.73 223.268C286.606 222.517 287.044 221.599 287.044 220.515C287.044 219.347 286.606 218.409 285.73 217.7C284.896 216.991 283.624 216.47 281.914 216.136C280.246 215.761 278.181 215.573 275.721 215.573ZM349.659 181.103H359.606V187.86H349.659V181.103ZM349.659 193.678H359.606V200.496H349.659V193.678ZM322.697 177.162C325.7 177.162 328.39 177.767 330.767 178.976C333.144 180.186 335.021 181.854 336.397 183.981C337.773 186.066 338.462 188.485 338.462 191.238C338.462 193.949 337.773 196.368 336.397 198.495C335.021 200.58 333.144 202.227 330.767 203.437C328.39 204.646 325.7 205.251 322.697 205.251C319.736 205.251 317.067 204.646 314.689 203.437C312.312 202.227 310.435 200.58 309.059 198.495C307.683 196.368 306.995 193.949 306.995 191.238C306.995 188.485 307.683 186.066 309.059 183.981C310.435 181.854 312.312 180.186 314.689 178.976C317.067 177.767 319.736 177.162 322.697 177.162ZM322.697 184.106C321.279 184.106 319.986 184.398 318.818 184.982C317.651 185.524 316.733 186.337 316.066 187.422C315.44 188.464 315.127 189.736 315.127 191.238C315.127 192.698 315.44 193.97 316.066 195.054C316.733 196.097 317.651 196.889 318.818 197.431C319.986 197.973 321.279 198.244 322.697 198.244C324.198 198.244 325.512 197.973 326.638 197.431C327.764 196.889 328.661 196.097 329.328 195.054C329.995 193.97 330.329 192.698 330.329 191.238C330.329 189.736 329.995 188.464 329.328 187.422C328.661 186.337 327.764 185.524 326.638 184.982C325.512 184.398 324.198 184.106 322.697 184.106ZM343.842 174.034H352.162V207.816H343.842V174.034ZM333.269 209.004C337.273 209.004 340.734 209.463 343.654 210.381C346.615 211.298 348.888 212.612 350.473 214.322C352.057 216.032 352.85 218.096 352.85 220.515C352.85 222.892 352.057 224.936 350.473 226.646C348.888 228.356 346.615 229.669 343.654 230.587C340.734 231.504 337.273 231.963 333.269 231.963C329.265 231.963 325.783 231.504 322.822 230.587C319.903 229.669 317.63 228.356 316.003 226.646C314.418 224.936 313.626 222.892 313.626 220.515C313.626 218.096 314.418 216.032 316.003 214.322C317.63 212.612 319.903 211.298 322.822 210.381C325.783 209.463 329.265 209.004 333.269 209.004ZM333.269 215.573C330.809 215.573 328.744 215.761 327.076 216.136C325.408 216.47 324.136 216.991 323.26 217.7C322.384 218.409 321.946 219.347 321.946 220.515C321.946 221.599 322.384 222.517 323.26 223.268C324.136 224.018 325.408 224.581 327.076 224.957C328.744 225.29 330.809 225.457 333.269 225.457C335.73 225.457 337.794 225.29 339.462 224.957C341.172 224.581 342.444 224.018 343.278 223.268C344.154 222.517 344.592 221.599 344.592 220.515C344.592 219.347 344.154 218.409 343.278 217.7C342.444 216.991 341.172 216.47 339.462 216.136C337.794 215.761 335.73 215.573 333.269 215.573ZM407.208 181.103H417.155V187.86H407.208V181.103ZM407.208 193.678H417.155V200.496H407.208V193.678ZM380.245 177.162C383.248 177.162 385.938 177.767 388.315 178.976C390.693 180.186 392.569 181.854 393.946 183.981C395.322 186.066 396.01 188.485 396.01 191.238C396.01 193.949 395.322 196.368 393.946 198.495C392.569 200.58 390.693 202.227 388.315 203.437C385.938 204.646 383.248 205.251 380.245 205.251C377.284 205.251 374.615 204.646 372.238 203.437C369.861 202.227 367.984 200.58 366.608 198.495C365.232 196.368 364.543 193.949 364.543 191.238C364.543 188.485 365.232 186.066 366.608 183.981C367.984 181.854 369.861 180.186 372.238 178.976C374.615 177.767 377.284 177.162 380.245 177.162ZM380.245 184.106C378.827 184.106 377.535 184.398 376.367 184.982C375.199 185.524 374.282 186.337 373.614 187.422C372.989 188.464 372.676 189.736 372.676 191.238C372.676 192.698 372.989 193.97 373.614 195.054C374.282 196.097 375.199 196.889 376.367 197.431C377.535 197.973 378.827 198.244 380.245 198.244C381.747 198.244 383.061 197.973 384.187 197.431C385.313 196.889 386.209 196.097 386.877 195.054C387.544 193.97 387.878 192.698 387.878 191.238C387.878 189.736 387.544 188.464 386.877 187.422C386.209 186.337 385.313 185.524 384.187 184.982C383.061 184.398 381.747 184.106 380.245 184.106ZM401.39 174.034H409.71V207.816H401.39V174.034ZM390.818 209.004C394.822 209.004 398.283 209.463 401.202 210.381C404.164 211.298 406.436 212.612 408.021 214.322C409.606 216.032 410.399 218.096 410.399 220.515C410.399 222.892 409.606 224.936 408.021 226.646C406.436 228.356 404.164 229.669 401.202 230.587C398.283 231.504 394.822 231.963 390.818 231.963C386.814 231.963 383.332 231.504 380.371 230.587C377.451 229.669 375.178 228.356 373.552 226.646C371.967 224.936 371.175 222.892 371.175 220.515C371.175 218.096 371.967 216.032 373.552 214.322C375.178 212.612 377.451 211.298 380.371 210.381C383.332 209.463 386.814 209.004 390.818 209.004ZM390.818 215.573C388.357 215.573 386.293 215.761 384.625 216.136C382.956 216.47 381.684 216.991 380.808 217.7C379.933 218.409 379.495 219.347 379.495 220.515C379.495 221.599 379.933 222.517 380.808 223.268C381.684 224.018 382.956 224.581 384.625 224.957C386.293 225.29 388.357 225.457 390.818 225.457C393.278 225.457 395.343 225.29 397.011 224.957C398.721 224.581 399.993 224.018 400.827 223.268C401.703 222.517 402.141 221.599 402.141 220.515C402.141 219.347 401.703 218.409 400.827 217.7C399.993 216.991 398.721 216.47 397.011 216.136C395.343 215.761 393.278 215.573 390.818 215.573ZM464.757 181.103H474.703V187.86H464.757V181.103ZM464.757 193.678H474.703V200.496H464.757V193.678ZM437.794 177.162C440.797 177.162 443.487 177.767 445.864 178.976C448.241 180.186 450.118 181.854 451.494 183.981C452.871 186.066 453.559 188.485 453.559 191.238C453.559 193.949 452.871 196.368 451.494 198.495C450.118 200.58 448.241 202.227 445.864 203.437C443.487 204.646 440.797 205.251 437.794 205.251C434.833 205.251 432.164 204.646 429.787 203.437C427.409 202.227 425.533 200.58 424.156 198.495C422.78 196.368 422.092 193.949 422.092 191.238C422.092 188.485 422.78 186.066 424.156 183.981C425.533 181.854 427.409 180.186 429.787 178.976C432.164 177.767 434.833 177.162 437.794 177.162ZM437.794 184.106C436.376 184.106 435.083 184.398 433.915 184.982C432.748 185.524 431.83 186.337 431.163 187.422C430.537 188.464 430.225 189.736 430.225 191.238C430.225 192.698 430.537 193.97 431.163 195.054C431.83 196.097 432.748 196.889 433.915 197.431C435.083 197.973 436.376 198.244 437.794 198.244C439.295 198.244 440.609 197.973 441.735 197.431C442.861 196.889 443.758 196.097 444.425 195.054C445.093 193.97 445.426 192.698 445.426 191.238C445.426 189.736 445.093 188.464 444.425 187.422C443.758 186.337 442.861 185.524 441.735 184.982C440.609 184.398 439.295 184.106 437.794 184.106ZM458.939 174.034H467.259V207.816H458.939V174.034ZM448.366 209.004C452.37 209.004 455.832 209.463 458.751 210.381C461.712 211.298 463.985 212.612 465.57 214.322C467.155 216.032 467.947 218.096 467.947 220.515C467.947 222.892 467.155 224.936 465.57 226.646C463.985 228.356 461.712 229.669 458.751 230.587C455.832 231.504 452.37 231.963 448.366 231.963C444.363 231.963 440.88 231.504 437.919 230.587C435 229.669 432.727 228.356 431.1 226.646C429.516 224.936 428.723 222.892 428.723 220.515C428.723 218.096 429.516 216.032 431.1 214.322C432.727 212.612 435 211.298 437.919 210.381C440.88 209.463 444.363 209.004 448.366 209.004ZM448.366 215.573C445.906 215.573 443.841 215.761 442.173 216.136C440.505 216.47 439.233 216.991 438.357 217.7C437.481 218.409 437.043 219.347 437.043 220.515C437.043 221.599 437.481 222.517 438.357 223.268C439.233 224.018 440.505 224.581 442.173 224.957C443.841 225.29 445.906 225.457 448.366 225.457C450.827 225.457 452.891 225.29 454.56 224.957C456.27 224.581 457.542 224.018 458.376 223.268C459.252 222.517 459.689 221.599 459.689 220.515C459.689 219.347 459.252 218.409 458.376 217.7C457.542 216.991 456.27 216.47 454.56 216.136C452.891 215.761 450.827 215.573 448.366 215.573ZM522.305 181.103H532.252V187.86H522.305V181.103ZM522.305 193.678H532.252V200.496H522.305V193.678ZM495.343 177.162C498.345 177.162 501.035 177.767 503.413 178.976C505.79 180.186 507.667 181.854 509.043 183.981C510.419 186.066 511.107 188.485 511.107 191.238C511.107 193.949 510.419 196.368 509.043 198.495C507.667 200.58 505.79 202.227 503.413 203.437C501.035 204.646 498.345 205.251 495.343 205.251C492.382 205.251 489.712 204.646 487.335 203.437C484.958 202.227 483.081 200.58 481.705 198.495C480.329 196.368 479.641 193.949 479.641 191.238C479.641 188.485 480.329 186.066 481.705 183.981C483.081 181.854 484.958 180.186 487.335 178.976C489.712 177.767 492.382 177.162 495.343 177.162ZM495.343 184.106C493.925 184.106 492.632 184.398 491.464 184.982C490.296 185.524 489.379 186.337 488.712 187.422C488.086 188.464 487.773 189.736 487.773 191.238C487.773 192.698 488.086 193.97 488.712 195.054C489.379 196.097 490.296 196.889 491.464 197.431C492.632 197.973 493.925 198.244 495.343 198.244C496.844 198.244 498.158 197.973 499.284 197.431C500.41 196.889 501.307 196.097 501.974 195.054C502.641 193.97 502.975 192.698 502.975 191.238C502.975 189.736 502.641 188.464 501.974 187.422C501.307 186.337 500.41 185.524 499.284 184.982C498.158 184.398 496.844 184.106 495.343 184.106ZM516.487 174.034H524.808V207.816H516.487V174.034ZM505.915 209.004C509.919 209.004 513.38 209.463 516.3 210.381C519.261 211.298 521.534 212.612 523.118 214.322C524.703 216.032 525.496 218.096 525.496 220.515C525.496 222.892 524.703 224.936 523.118 226.646C521.534 228.356 519.261 229.669 516.3 230.587C513.38 231.504 509.919 231.963 505.915 231.963C501.911 231.963 498.429 231.504 495.468 230.587C492.548 229.669 490.275 228.356 488.649 226.646C487.064 224.936 486.272 222.892 486.272 220.515C486.272 218.096 487.064 216.032 488.649 214.322C490.275 212.612 492.548 211.298 495.468 210.381C498.429 209.463 501.911 209.004 505.915 209.004ZM505.915 215.573C503.454 215.573 501.39 215.761 499.722 216.136C498.054 216.47 496.782 216.991 495.906 217.7C495.03 218.409 494.592 219.347 494.592 220.515C494.592 221.599 495.03 222.517 495.906 223.268C496.782 224.018 498.054 224.581 499.722 224.957C501.39 225.29 503.454 225.457 505.915 225.457C508.376 225.457 510.44 225.29 512.108 224.957C513.818 224.581 515.09 224.018 515.924 223.268C516.8 222.517 517.238 221.599 517.238 220.515C517.238 219.347 516.8 218.409 515.924 217.7C515.09 216.991 513.818 216.47 512.108 216.136C510.44 215.761 508.376 215.573 505.915 215.573ZM579.854 181.103H589.801V187.86H579.854V181.103ZM579.854 193.678H589.801V200.496H579.854V193.678ZM552.891 177.162C555.894 177.162 558.584 177.767 560.961 178.976C563.338 180.186 565.215 181.854 566.592 183.981C567.968 186.066 568.656 188.485 568.656 191.238C568.656 193.949 567.968 196.368 566.592 198.495C565.215 200.58 563.338 202.227 560.961 203.437C558.584 204.646 555.894 205.251 552.891 205.251C549.93 205.251 547.261 204.646 544.884 203.437C542.507 202.227 540.63 200.58 539.254 198.495C537.877 196.368 537.189 193.949 537.189 191.238C537.189 188.485 537.877 186.066 539.254 183.981C540.63 181.854 542.507 180.186 544.884 178.976C547.261 177.767 549.93 177.162 552.891 177.162ZM552.891 184.106C551.473 184.106 550.18 184.398 549.013 184.982C547.845 185.524 546.927 186.337 546.26 187.422C545.635 188.464 545.322 189.736 545.322 191.238C545.322 192.698 545.635 193.97 546.26 195.054C546.927 196.097 547.845 196.889 549.013 197.431C550.18 197.973 551.473 198.244 552.891 198.244C554.393 198.244 555.706 197.973 556.832 197.431C557.958 196.889 558.855 196.097 559.522 195.054C560.19 193.97 560.523 192.698 560.523 191.238C560.523 189.736 560.19 188.464 559.522 187.422C558.855 186.337 557.958 185.524 556.832 184.982C555.706 184.398 554.393 184.106 552.891 184.106ZM574.036 174.034H582.356V207.816H574.036V174.034ZM563.464 209.004C567.467 209.004 570.929 209.463 573.848 210.381C576.809 211.298 579.082 212.612 580.667 214.322C582.252 216.032 583.044 218.096 583.044 220.515C583.044 222.892 582.252 224.936 580.667 226.646C579.082 228.356 576.809 229.669 573.848 230.587C570.929 231.504 567.467 231.963 563.464 231.963C559.46 231.963 555.977 231.504 553.016 230.587C550.097 229.669 547.824 228.356 546.198 226.646C544.613 224.936 543.82 222.892 543.82 220.515C543.82 218.096 544.613 216.032 546.198 214.322C547.824 212.612 550.097 211.298 553.016 210.381C555.977 209.463 559.46 209.004 563.464 209.004ZM563.464 215.573C561.003 215.573 558.939 215.761 557.27 216.136C555.602 216.47 554.33 216.991 553.454 217.7C552.578 218.409 552.141 219.347 552.141 220.515C552.141 221.599 552.578 222.517 553.454 223.268C554.33 224.018 555.602 224.581 557.27 224.957C558.939 225.29 561.003 225.457 563.464 225.457C565.924 225.457 567.989 225.29 569.657 224.957C571.367 224.581 572.639 224.018 573.473 223.268C574.349 222.517 574.787 221.599 574.787 220.515C574.787 219.347 574.349 218.409 573.473 217.7C572.639 216.991 571.367 216.47 569.657 216.136C567.989 215.761 565.924 215.573 563.464 215.573ZM637.402 181.103H647.349V187.86H637.402V181.103ZM637.402 193.678H647.349V200.496H637.402V193.678ZM610.44 177.162C613.443 177.162 616.133 177.767 618.51 178.976C620.887 180.186 622.764 181.854 624.14 183.981C625.516 186.066 626.205 188.485 626.205 191.238C626.205 193.949 625.516 196.368 624.14 198.495C622.764 200.58 620.887 202.227 618.51 203.437C616.133 204.646 613.443 205.251 610.44 205.251C607.479 205.251 604.81 204.646 602.432 203.437C600.055 202.227 598.178 200.58 596.802 198.495C595.426 196.368 594.738 193.949 594.738 191.238C594.738 188.485 595.426 186.066 596.802 183.981C598.178 181.854 600.055 180.186 602.432 178.976C604.81 177.767 607.479 177.162 610.44 177.162ZM610.44 184.106C609.022 184.106 607.729 184.398 606.561 184.982C605.394 185.524 604.476 186.337 603.809 187.422C603.183 188.464 602.87 189.736 602.87 191.238C602.87 192.698 603.183 193.97 603.809 195.054C604.476 196.097 605.394 196.889 606.561 197.431C607.729 197.973 609.022 198.244 610.44 198.244C611.941 198.244 613.255 197.973 614.381 197.431C615.507 196.889 616.404 196.097 617.071 195.054C617.738 193.97 618.072 192.698 618.072 191.238C618.072 189.736 617.738 188.464 617.071 187.422C616.404 186.337 615.507 185.524 614.381 184.982C613.255 184.398 611.941 184.106 610.44 184.106ZM631.585 174.034H639.905V207.816H631.585V174.034ZM621.012 209.004C625.016 209.004 628.477 209.463 631.397 210.381C634.358 211.298 636.631 212.612 638.216 214.322C639.8 216.032 640.593 218.096 640.593 220.515C640.593 222.892 639.8 224.936 638.216 226.646C636.631 228.356 634.358 229.669 631.397 230.587C628.477 231.504 625.016 231.963 621.012 231.963C617.008 231.963 613.526 231.504 610.565 230.587C607.646 229.669 605.373 228.356 603.746 226.646C602.161 224.936 601.369 222.892 601.369 220.515C601.369 218.096 602.161 216.032 603.746 214.322C605.373 212.612 607.646 211.298 610.565 210.381C613.526 209.463 617.008 209.004 621.012 209.004ZM621.012 215.573C618.552 215.573 616.487 215.761 614.819 216.136C613.151 216.47 611.879 216.991 611.003 217.7C610.127 218.409 609.689 219.347 609.689 220.515C609.689 221.599 610.127 222.517 611.003 223.268C611.879 224.018 613.151 224.581 614.819 224.957C616.487 225.29 618.552 225.457 621.012 225.457C623.473 225.457 625.537 225.29 627.205 224.957C628.915 224.581 630.187 224.018 631.022 223.268C631.897 222.517 632.335 221.599 632.335 220.515C632.335 219.347 631.897 218.409 631.022 217.7C630.187 216.991 628.915 216.47 627.205 216.136C625.537 215.761 623.473 215.573 621.012 215.573ZM694.951 181.103H704.898V187.86H694.951V181.103ZM694.951 193.678H704.898V200.496H694.951V193.678ZM667.989 177.162C670.991 177.162 673.681 177.767 676.059 178.976C678.436 180.186 680.312 181.854 681.689 183.981C683.065 186.066 683.753 188.485 683.753 191.238C683.753 193.949 683.065 196.368 681.689 198.495C680.312 200.58 678.436 202.227 676.059 203.437C673.681 204.646 670.991 205.251 667.989 205.251C665.027 205.251 662.358 204.646 659.981 203.437C657.604 202.227 655.727 200.58 654.351 198.495C652.975 196.368 652.286 193.949 652.286 191.238C652.286 188.485 652.975 186.066 654.351 183.981C655.727 181.854 657.604 180.186 659.981 178.976C662.358 177.767 665.027 177.162 667.989 177.162ZM667.989 184.106C666.571 184.106 665.278 184.398 664.11 184.982C662.942 185.524 662.025 186.337 661.357 187.422C660.732 188.464 660.419 189.736 660.419 191.238C660.419 192.698 660.732 193.97 661.357 195.054C662.025 196.097 662.942 196.889 664.11 197.431C665.278 197.973 666.571 198.244 667.989 198.244C669.49 198.244 670.804 197.973 671.93 197.431C673.056 196.889 673.952 196.097 674.62 195.054C675.287 193.97 675.621 192.698 675.621 191.238C675.621 189.736 675.287 188.464 674.62 187.422C673.952 186.337 673.056 185.524 671.93 184.982C670.804 184.398 669.49 184.106 667.989 184.106ZM689.133 174.034H697.453V207.816H689.133V174.034ZM678.561 209.004C682.565 209.004 686.026 209.463 688.945 210.381C691.907 211.298 694.18 212.612 695.764 214.322C697.349 216.032 698.142 218.096 698.142 220.515C698.142 222.892 697.349 224.936 695.764 226.646C694.18 228.356 691.907 229.669 688.945 230.587C686.026 231.504 682.565 231.963 678.561 231.963C674.557 231.963 671.075 231.504 668.114 230.587C665.194 229.669 662.921 228.356 661.295 226.646C659.71 224.936 658.918 222.892 658.918 220.515C658.918 218.096 659.71 216.032 661.295 214.322C662.921 212.612 665.194 211.298 668.114 210.381C671.075 209.463 674.557 209.004 678.561 209.004ZM678.561 215.573C676.1 215.573 674.036 215.761 672.368 216.136C670.699 216.47 669.427 216.991 668.552 217.7C667.676 218.409 667.238 219.347 667.238 220.515C667.238 221.599 667.676 222.517 668.552 223.268C669.427 224.018 670.699 224.581 672.368 224.957C674.036 225.29 676.1 225.457 678.561 225.457C681.021 225.457 683.086 225.29 684.754 224.957C686.464 224.581 687.736 224.018 688.57 223.268C689.446 222.517 689.884 221.599 689.884 220.515C689.884 219.347 689.446 218.409 688.57 217.7C687.736 216.991 686.464 216.47 684.754 216.136C683.086 215.761 681.021 215.573 678.561 215.573ZM752.5 181.103H762.446V187.86H752.5V181.103ZM752.5 193.678H762.446V200.496H752.5V193.678ZM725.537 177.162C728.54 177.162 731.23 177.767 733.607 178.976C735.984 180.186 737.861 181.854 739.237 183.981C740.614 186.066 741.302 188.485 741.302 191.238C741.302 193.949 740.614 196.368 739.237 198.495C737.861 200.58 735.984 202.227 733.607 203.437C731.23 204.646 728.54 205.251 725.537 205.251C722.576 205.251 719.907 204.646 717.53 203.437C715.152 202.227 713.276 200.58 711.899 198.495C710.523 196.368 709.835 193.949 709.835 191.238C709.835 188.485 710.523 186.066 711.899 183.981C713.276 181.854 715.152 180.186 717.53 178.976C719.907 177.767 722.576 177.162 725.537 177.162ZM725.537 184.106C724.119 184.106 722.826 184.398 721.658 184.982C720.491 185.524 719.573 186.337 718.906 187.422C718.28 188.464 717.968 189.736 717.968 191.238C717.968 192.698 718.28 193.97 718.906 195.054C719.573 196.097 720.491 196.889 721.658 197.431C722.826 197.973 724.119 198.244 725.537 198.244C727.038 198.244 728.352 197.973 729.478 197.431C730.604 196.889 731.501 196.097 732.168 195.054C732.836 193.97 733.169 192.698 733.169 191.238C733.169 189.736 732.836 188.464 732.168 187.422C731.501 186.337 730.604 185.524 729.478 184.982C728.352 184.398 727.038 184.106 725.537 184.106ZM746.682 174.034H755.002V207.816H746.682V174.034ZM736.109 209.004C740.113 209.004 743.575 209.463 746.494 210.381C749.455 211.298 751.728 212.612 753.313 214.322C754.898 216.032 755.69 218.096 755.69 220.515C755.69 222.892 754.898 224.936 753.313 226.646C751.728 228.356 749.455 229.669 746.494 230.587C743.575 231.504 740.113 231.963 736.109 231.963C732.106 231.963 728.623 231.504 725.662 230.587C722.743 229.669 720.47 228.356 718.843 226.646C717.259 224.936 716.466 222.892 716.466 220.515C716.466 218.096 717.259 216.032 718.843 214.322C720.47 212.612 722.743 211.298 725.662 210.381C728.623 209.463 732.106 209.004 736.109 209.004ZM736.109 215.573C733.649 215.573 731.584 215.761 729.916 216.136C728.248 216.47 726.976 216.991 726.1 217.7C725.224 218.409 724.786 219.347 724.786 220.515C724.786 221.599 725.224 222.517 726.1 223.268C726.976 224.018 728.248 224.581 729.916 224.957C731.584 225.29 733.649 225.457 736.109 225.457C738.57 225.457 740.634 225.29 742.303 224.957C744.013 224.581 745.285 224.018 746.119 223.268C746.995 222.517 747.432 221.599 747.432 220.515C747.432 219.347 746.995 218.409 746.119 217.7C745.285 216.991 744.013 216.47 742.303 216.136C740.634 215.761 738.57 215.573 736.109 215.573ZM810.048 181.103H819.995V187.86H810.048V181.103ZM810.048 193.678H819.995V200.496H810.048V193.678ZM783.086 177.162C786.088 177.162 788.778 177.767 791.156 178.976C793.533 180.186 795.41 181.854 796.786 183.981C798.162 186.066 798.85 188.485 798.85 191.238C798.85 193.949 798.162 196.368 796.786 198.495C795.41 200.58 793.533 202.227 791.156 203.437C788.778 204.646 786.088 205.251 783.086 205.251C780.125 205.251 777.455 204.646 775.078 203.437C772.701 202.227 770.824 200.58 769.448 198.495C768.072 196.368 767.384 193.949 767.384 191.238C767.384 188.485 768.072 186.066 769.448 183.981C770.824 181.854 772.701 180.186 775.078 178.976C777.455 177.767 780.125 177.162 783.086 177.162ZM783.086 184.106C781.668 184.106 780.375 184.398 779.207 184.982C778.039 185.524 777.122 186.337 776.455 187.422C775.829 188.464 775.516 189.736 775.516 191.238C775.516 192.698 775.829 193.97 776.455 195.054C777.122 196.097 778.039 196.889 779.207 197.431C780.375 197.973 781.668 198.244 783.086 198.244C784.587 198.244 785.901 197.973 787.027 197.431C788.153 196.889 789.05 196.097 789.717 195.054C790.384 193.97 790.718 192.698 790.718 191.238C790.718 189.736 790.384 188.464 789.717 187.422C789.05 186.337 788.153 185.524 787.027 184.982C785.901 184.398 784.587 184.106 783.086 184.106ZM804.23 174.034H812.551V207.816H804.23V174.034ZM793.658 209.004C797.662 209.004 801.123 209.463 804.043 210.381C807.004 211.298 809.277 212.612 810.862 214.322C812.446 216.032 813.239 218.096 813.239 220.515C813.239 222.892 812.446 224.936 810.862 226.646C809.277 228.356 807.004 229.669 804.043 230.587C801.123 231.504 797.662 231.963 793.658 231.963C789.654 231.963 786.172 231.504 783.211 230.587C780.291 229.669 778.018 228.356 776.392 226.646C774.807 224.936 774.015 222.892 774.015 220.515C774.015 218.096 774.807 216.032 776.392 214.322C778.018 212.612 780.291 211.298 783.211 210.381C786.172 209.463 789.654 209.004 793.658 209.004ZM793.658 215.573C791.197 215.573 789.133 215.761 787.465 216.136C785.797 216.47 784.525 216.991 783.649 217.7C782.773 218.409 782.335 219.347 782.335 220.515C782.335 221.599 782.773 222.517 783.649 223.268C784.525 224.018 785.797 224.581 787.465 224.957C789.133 225.29 791.197 225.457 793.658 225.457C796.119 225.457 798.183 225.29 799.851 224.957C801.561 224.581 802.833 224.018 803.667 223.268C804.543 222.517 804.981 221.599 804.981 220.515C804.981 219.347 804.543 218.409 803.667 217.7C802.833 216.991 801.561 216.47 799.851 216.136C798.183 215.761 796.119 215.573 793.658 215.573ZM867.597 181.103H877.544V187.86H867.597V181.103ZM867.597 193.678H877.544V200.496H867.597V193.678ZM840.634 177.162C843.637 177.162 846.327 177.767 848.704 178.976C851.081 180.186 852.958 181.854 854.335 183.981C855.711 186.066 856.399 188.485 856.399 191.238C856.399 193.949 855.711 196.368 854.335 198.495C852.958 200.58 851.081 202.227 848.704 203.437C846.327 204.646 843.637 205.251 840.634 205.251C837.673 205.251 835.004 204.646 832.627 203.437C830.25 202.227 828.373 200.58 826.997 198.495C825.62 196.368 824.932 193.949 824.932 191.238C824.932 188.485 825.62 186.066 826.997 183.981C828.373 181.854 830.25 180.186 832.627 178.976C835.004 177.767 837.673 177.162 840.634 177.162ZM840.634 184.106C839.216 184.106 837.923 184.398 836.756 184.982C835.588 185.524 834.67 186.337 834.003 187.422C833.378 188.464 833.065 189.736 833.065 191.238C833.065 192.698 833.378 193.97 834.003 195.054C834.67 196.097 835.588 196.889 836.756 197.431C837.923 197.973 839.216 198.244 840.634 198.244C842.136 198.244 843.449 197.973 844.575 197.431C845.701 196.889 846.598 196.097 847.265 195.054C847.933 193.97 848.266 192.698 848.266 191.238C848.266 189.736 847.933 188.464 847.265 187.422C846.598 186.337 845.701 185.524 844.575 184.982C843.449 184.398 842.136 184.106 840.634 184.106ZM861.779 174.034H870.099V207.816H861.779V174.034ZM851.207 209.004C855.21 209.004 858.672 209.463 861.591 210.381C864.552 211.298 866.825 212.612 868.41 214.322C869.995 216.032 870.787 218.096 870.787 220.515C870.787 222.892 869.995 224.936 868.41 226.646C866.825 228.356 864.552 229.669 861.591 230.587C858.672 231.504 855.21 231.963 851.207 231.963C847.203 231.963 843.72 231.504 840.759 230.587C837.84 229.669 835.567 228.356 833.941 226.646C832.356 224.936 831.563 222.892 831.563 220.515C831.563 218.096 832.356 216.032 833.941 214.322C835.567 212.612 837.84 211.298 840.759 210.381C843.72 209.463 847.203 209.004 851.207 209.004ZM851.207 215.573C848.746 215.573 846.682 215.761 845.013 216.136C843.345 216.47 842.073 216.991 841.197 217.7C840.321 218.409 839.884 219.347 839.884 220.515C839.884 221.599 840.321 222.517 841.197 223.268C842.073 224.018 843.345 224.581 845.013 224.957C846.682 225.29 848.746 225.457 851.207 225.457C853.667 225.457 855.732 225.29 857.4 224.957C859.11 224.581 860.382 224.018 861.216 223.268C862.092 222.517 862.53 221.599 862.53 220.515C862.53 219.347 862.092 218.409 861.216 217.7C860.382 216.991 859.11 216.47 857.4 216.136C855.732 215.761 853.667 215.573 851.207 215.573ZM925.145 181.103H935.092V187.86H925.145V181.103ZM925.145 193.678H935.092V200.496H925.145V193.678ZM898.183 177.162C901.186 177.162 903.876 177.767 906.253 178.976C908.63 180.186 910.507 181.854 911.883 183.981C913.259 186.066 913.948 188.485 913.948 191.238C913.948 193.949 913.259 196.368 911.883 198.495C910.507 200.58 908.63 202.227 906.253 203.437C903.876 204.646 901.186 205.251 898.183 205.251C895.222 205.251 892.553 204.646 890.175 203.437C887.798 202.227 885.922 200.58 884.545 198.495C883.169 196.368 882.481 193.949 882.481 191.238C882.481 188.485 883.169 186.066 884.545 183.981C885.922 181.854 887.798 180.186 890.175 178.976C892.553 177.767 895.222 177.162 898.183 177.162ZM898.183 184.106C896.765 184.106 895.472 184.398 894.304 184.982C893.137 185.524 892.219 186.337 891.552 187.422C890.926 188.464 890.613 189.736 890.613 191.238C890.613 192.698 890.926 193.97 891.552 195.054C892.219 196.097 893.137 196.889 894.304 197.431C895.472 197.973 896.765 198.244 898.183 198.244C899.684 198.244 900.998 197.973 902.124 197.431C903.25 196.889 904.147 196.097 904.814 195.054C905.481 193.97 905.815 192.698 905.815 191.238C905.815 189.736 905.481 188.464 904.814 187.422C904.147 186.337 903.25 185.524 902.124 184.982C900.998 184.398 899.684 184.106 898.183 184.106ZM919.328 174.034H927.648V207.816H919.328V174.034ZM908.755 209.004C912.759 209.004 916.221 209.463 919.14 210.381C922.101 211.298 924.374 212.612 925.959 214.322C927.544 216.032 928.336 218.096 928.336 220.515C928.336 222.892 927.544 224.936 925.959 226.646C924.374 228.356 922.101 229.669 919.14 230.587C916.221 231.504 912.759 231.963 908.755 231.963C904.752 231.963 901.269 231.504 898.308 230.587C895.389 229.669 893.116 228.356 891.489 226.646C889.904 224.936 889.112 222.892 889.112 220.515C889.112 218.096 889.904 216.032 891.489 214.322C893.116 212.612 895.389 211.298 898.308 210.381C901.269 209.463 904.752 209.004 908.755 209.004ZM908.755 215.573C906.295 215.573 904.23 215.761 902.562 216.136C900.894 216.47 899.622 216.991 898.746 217.7C897.87 218.409 897.432 219.347 897.432 220.515C897.432 221.599 897.87 222.517 898.746 223.268C899.622 224.018 900.894 224.581 902.562 224.957C904.23 225.29 906.295 225.457 908.755 225.457C911.216 225.457 913.28 225.29 914.948 224.957C916.658 224.581 917.93 224.018 918.765 223.268C919.64 222.517 920.078 221.599 920.078 220.515C920.078 219.347 919.64 218.409 918.765 217.7C917.93 216.991 916.658 216.47 914.948 216.136C913.28 215.761 911.216 215.573 908.755 215.573Z" fill="#02C8D1"/>
</svg>
