<svg width="1603" height="438" viewBox="0 0 1603 438" fill="none" xmlns="http://www.w3.org/2000/svg">
<path d="M140.377 143.815C140.377 143.815 101.428 121.093 59.2224 140.577C17.0168 160.061 0.809396 192.496 0.809396 192.496C0.809396 192.496 -2.42819 202.228 4.04698 205.485C8.78634 207.864 21.0931 197.04 27.3732 191.033C30.0647 188.458 33.1657 186.333 36.5594 184.772L41.9228 182.295C52.2207 177.536 63.6887 175.937 74.8838 177.693C78.0628 178.18 81.515 178.785 85.1816 179.526C101.409 182.763 105.212 206.012 105.212 206.012C105.212 206.012 111.141 231.464 88.4192 267.155C72.6019 292.022 58.3448 312.169 51.148 322.097C48.6905 325.471 45.9991 328.669 43.2296 331.79C39.4264 336.081 34.1019 344.253 40.9086 351.079C48.4175 358.588 66.3412 341.795 74.1816 333.682C77.0487 330.717 79.9742 327.831 82.9387 324.983C104.997 303.978 191.456 216.036 163.04 153.547C163.04 153.547 176.029 114.599 195.494 108.104C214.978 101.609 211.72 134.063 211.72 134.063V354.16C211.72 371.85 215.251 389.423 222.701 405.474C228.845 418.697 237.894 431.667 250.669 435.919C272.571 443.213 268.924 426.791 265.726 418.112C263.912 413.158 262.293 408.146 261.045 403.036C258.158 391.217 253.907 371.987 253.907 361.26V23.7122C253.907 23.7122 253.907 -11.9987 224.69 4.22819C195.474 20.4551 140.299 143.795 140.299 143.795L140.377 143.815Z" fill="#02C8D1"/>
<path d="M665.384 313.061C665.384 313.061 649.002 322.898 653.921 337.632C656.183 344.396 661.19 348.392 665.933 350.742C671.203 353.355 677.153 354.211 683.016 353.64C693.513 352.608 714.242 348.656 719.248 333.526C726.033 313.039 698.168 304.848 698.168 304.848L686.662 302.96C686.662 302.96 647.29 276.17 686.662 222.503C726.033 168.858 745.686 178.674 745.686 178.674C745.686 178.674 753.877 178.674 755.524 198.327C757.171 217.98 755.524 250.632 755.524 250.632C755.524 250.632 755.524 260.601 745.686 260.601C735.849 260.601 726.033 255.683 726.033 255.683C726.033 255.683 717.843 252.411 717.843 257.329C717.843 262.248 717.843 280.276 727.68 281.901C735.322 283.175 738.023 280.496 738.835 279.222C739.428 278.3 740.131 277.422 741.031 276.763C742.634 275.577 745.291 274.413 748.98 275.336C752.669 276.258 754.426 279.596 755.348 282.406C755.985 284.361 756.249 286.425 756.249 288.489V370.373C756.249 370.373 757.149 385.129 768.633 390.026C780.118 394.922 786.661 396.569 786.661 396.569C786.661 396.569 781.743 376.916 781.743 349.051V187.194C781.743 180.826 779.854 174.523 776.011 169.429C771.51 163.5 763.714 158.164 750.605 160.624C724.387 165.542 686.706 204.87 686.706 204.87C686.706 204.87 635.915 252.389 665.406 313.017L665.384 313.061Z" fill="#F5AF73"/>
<path d="M783.281 160.054C783.281 160.054 799.75 160.669 799.75 177.05V399.887C799.75 399.887 799.75 409.724 811.213 416.268L821.05 422.812V182.562C821.05 178.28 820.325 174.02 818.679 170.068C816.351 164.468 811.806 158.254 803.022 157.375C786.641 155.729 783.281 160.032 783.281 160.032V160.054Z" fill="#F5AF73"/>
<path d="M679.328 322.063C679.328 322.063 680.975 336.82 690.791 338.445C700.606 340.07 698.322 330.254 698.322 330.254C698.322 330.254 697.356 322.063 679.328 322.063Z" fill="black"/>
<path d="M1297.15 178.209C1297.15 178.209 1280.88 158.091 1264.6 164.131C1248.33 170.171 1242.9 180.207 1242.9 180.207C1242.9 180.207 1239.29 190.266 1253.74 188.245C1268.2 186.225 1273.63 194.285 1273.63 194.285C1273.63 194.285 1250.13 210.361 1233.85 242.536C1233.85 242.536 1204.92 240.515 1203.13 256.614C1201.33 272.712 1219.4 276.731 1219.4 276.731C1219.4 276.731 1197.69 324.982 1232.06 353.137C1232.06 353.137 1212.17 365.195 1219.4 383.292C1226.63 401.388 1253.76 401.388 1253.76 401.388C1253.76 401.388 1277.26 401.388 1291.74 381.271C1306.19 361.154 1277.28 349.096 1277.28 349.096C1277.28 349.096 1309.83 333.02 1309.83 310.882C1309.83 288.744 1268.24 276.709 1268.24 276.709C1268.24 276.709 1251.96 270.669 1253.78 262.631C1255.6 254.593 1275.48 252.573 1275.48 252.573C1275.48 252.573 1331.53 232.455 1306.21 192.243C1306.21 192.243 1329.71 174.146 1329.71 212.36V381.403C1329.71 381.403 1329.71 397.347 1342.37 407.406C1355.03 417.465 1367.69 419.463 1367.69 419.463C1367.69 419.463 1362.26 409.405 1360.46 385.29V355.136C1360.46 355.136 1374.92 355.136 1380.35 359.155C1385.78 363.174 1393.01 359.155 1393.01 359.155C1393.01 359.155 1405.67 349.096 1400.24 329.001C1394.81 308.884 1373.12 320.963 1373.12 320.963C1373.12 320.963 1362.28 327.002 1358.67 333.02V192.682C1358.67 184.314 1355.6 176.188 1349.9 170.742C1344.96 166.02 1337.42 162.462 1326.12 164.131C1299.01 168.15 1297.19 178.209 1297.19 178.209H1297.15Z" fill="#F5AF73"/>
<path d="M1293.63 206.357C1293.63 206.357 1271.52 224.451 1263.48 240.525C1263.48 240.525 1277.56 242.545 1291.63 230.467C1305.71 218.412 1293.65 206.335 1293.65 206.335L1293.63 206.357Z" fill="black"/>
<path d="M1239.35 284.747C1239.35 284.747 1229.29 318.915 1267.5 332.991C1267.5 332.991 1295.65 322.933 1287.61 302.841C1279.57 282.749 1239.37 284.747 1239.37 284.747H1239.35Z" fill="black"/>
<path d="M1253.4 357.125C1253.4 357.125 1255.42 381.258 1265.46 381.258C1275.49 381.258 1275.51 375.219 1275.51 375.219C1275.51 375.219 1275.51 357.125 1253.4 357.125Z" fill="black"/>
<path d="M1451.9 336.037C1451.9 336.037 1417.56 367.79 1451.9 383.073C1486.24 398.356 1512.95 368.207 1512.95 368.207C1512.95 368.207 1530.12 336.037 1484.34 329.999C1484.34 329.999 1429.02 293.811 1470.99 231.492C1512.95 169.174 1533.93 171.172 1535.85 171.172C1537.77 171.172 1562.56 165.133 1562.56 201.321V309.358C1562.56 309.358 1562.56 319.942 1554.94 319.942C1549.63 319.942 1545.25 315.089 1543.06 312.125C1541 309.336 1538.14 307.228 1534.89 306.371C1531.08 305.361 1526.31 305.866 1522.5 311.905C1520.64 314.847 1519.45 317.768 1518.74 320.535C1515.97 331.141 1520.85 342.581 1530.66 346.314C1534.27 347.676 1538.58 348.027 1543.48 346.095C1549.71 343.635 1554.67 343.525 1558.36 344.228C1563.88 345.304 1568.07 350.442 1567.59 356.349C1567.42 358.479 1566.61 360.17 1564.46 360.17C1558.73 360.17 1554.92 356.152 1554.92 356.152C1554.92 356.152 1547.29 348.115 1535.83 352.133C1530.1 354.153 1528.2 358.677 1527.73 362.695C1527.25 366.714 1528.35 370.996 1530.52 374.465C1534.83 381.404 1545.15 393.745 1560.65 386.301C1560.65 386.301 1562.56 424.509 1602.61 422.489C1602.61 422.489 1591.17 414.452 1591.17 392.339V183.249C1591.17 183.249 1587.36 147.061 1547.29 149.082C1521.62 150.377 1489.66 178.923 1470.03 199.257C1451.25 218.712 1438.77 244.119 1435.67 271.677C1433.35 292.362 1436 315.967 1451.9 336.059V336.037Z" fill="#F5AF73"/>
<path d="M1469.06 346.094C1469.06 346.094 1469.06 368.206 1484.32 368.206C1499.57 368.206 1490.05 356.151 1490.05 356.151C1490.05 356.151 1484.32 348.114 1469.06 346.094Z" fill="black"/>
<path d="M360.876 52.0621C360.876 52.0621 379.287 29.4575 393.661 53.0373C404.486 70.7855 383.11 130.213 369.106 158.863C363.333 170.702 364.464 184.92 372.597 195.257C373.768 196.739 374.938 197.968 376.108 198.807C383.032 203.78 394.246 148.175 430.445 134.542C430.445 134.542 417.221 162.901 450.065 163.213C482.909 163.525 505.611 115.293 505.611 115.293C505.611 115.293 514.681 89.9769 492.72 88.8652C492.72 88.8652 502.101 60.9752 537.129 61.1312C572.157 61.2873 554.409 106.399 554.409 106.399C554.409 106.399 545.418 150.691 509.629 169.766C473.84 188.84 381.101 236.78 274.846 250.12C274.846 250.12 302.209 282.73 373.436 269.253C428.963 258.741 458.354 229.583 472.124 220.202C474.854 218.33 477.078 216.184 479.945 214.526C486.595 210.665 490.691 204.521 514.154 204.736C548.324 205.028 505.475 249.087 505.475 249.087L449.422 302.955C449.422 302.955 430.991 321.055 440.099 325.853C447.686 329.851 488.585 310.25 501.964 303.619C506.821 301.22 512.008 299.484 517.372 298.723C526.012 297.514 537.831 297.982 545.984 306.759C552.673 313.975 549.241 327.335 543.702 339.505C536.797 354.698 526.851 367.317 515.11 376.776C502.783 386.704 484.821 399.985 474.289 402.443C457.087 406.461 457.477 411.902 457.477 411.902C457.477 411.902 465.61 433.2 508.147 416.368C550.665 399.537 582.299 360.218 582.299 360.218C582.299 360.218 618.81 315.067 597.98 270.053C577.15 225.039 517.04 270.56 517.04 270.56C517.04 270.56 582.085 232.879 586.414 202.434C590.725 171.989 530.4 184.667 530.4 184.667C530.4 184.667 646.271 101.757 587.604 40.9256C533.053 -15.6541 481.193 81.5124 481.193 81.5124C481.193 81.5124 442.615 92.5709 435.73 117.73C435.73 117.73 424.438 113.089 418.314 119.018C418.314 119.018 452.62 20.6419 384.748 20.1738C384.748 20.1738 359.042 27.5462 353.913 47.1082C348.803 66.6507 360.837 52.0816 360.837 52.0816L360.876 52.0621Z" fill="#02C8D1"/>
<path d="M453.271 117.7C453.271 117.7 462.458 136.072 471.234 127.569C474.881 124.038 475.252 120.06 474.433 116.627C472.873 110.074 466.885 107.051 462.029 109.879C459.591 111.303 456.626 113.702 453.271 117.68V117.7Z" fill="black"/>
<path d="M1041.67 170.098C1041.67 170.098 1002.5 179.321 1003.67 197.788C1004.87 216.255 1035.72 203.936 1035.72 203.936C1035.72 203.936 1066.58 193.176 1067.77 219.329C1068.97 245.482 1053.53 253.168 1053.53 253.168C1053.53 253.168 1045.22 256.242 1042.84 251.63C1041.2 248.446 1041.26 245.262 1041.45 243.594C1041.63 242.078 1041.7 240.519 1041.51 239.004C1040.93 234.239 1038.33 226.378 1027.41 228.552C1011.97 231.626 1014.34 245.482 1014.34 245.482C1014.34 245.482 1015.54 254.705 1025.03 256.242C1025.03 256.242 1030.92 266.255 1003.63 275.082C976.351 283.91 944.32 287.006 944.32 287.006C944.32 287.006 973.997 313.159 1045.22 279.32L1115.24 250.093V307.493C1115.24 310.172 1115.39 312.851 1115.53 315.53C1115.76 320.317 1113.89 332.394 1091.51 340.848C1072.81 347.919 1057.68 360.963 1049.5 369.087C1043.38 375.148 1039.04 383.844 1037.73 393.681C1036.03 406.373 1039.12 421.503 1063.03 422.381C1104.57 423.918 1166.3 416.233 1169.87 373.15C1169.87 373.15 1133.07 393.154 1109.34 388.543C1094.07 385.578 1094.01 376.246 1095.92 369.966C1096.89 366.76 1098.57 363.993 1100.61 361.797C1102.41 359.865 1105.3 356.768 1108.78 353.167C1115.8 345.877 1129.52 319.307 1129.52 319.307C1129.52 319.307 1131.89 311.621 1140.21 310.084C1145.75 309.052 1149.18 310.765 1150.84 312.017C1152.23 313.071 1153.77 313.751 1155.37 313.817C1160.39 313.993 1169.21 310.611 1167.51 283.932C1165.14 247.019 1142.58 263.927 1142.58 263.927C1142.58 263.927 1139.01 265.464 1139.01 253.168V171.635C1139.01 171.635 1137.87 154.376 1125.39 160.7C1112.9 167.024 1098.66 207.01 1098.66 207.01C1098.66 207.01 1093.92 162.39 1041.69 170.098H1041.67Z" fill="#F5AF73"/>
<path d="M1100.34 220.273C1100.34 220.273 1102.79 234.832 1093.84 243.022L1114.39 233.009V200.884C1114.39 200.884 1114.39 192.957 1110.19 198.424C1105.98 203.892 1100.34 220.273 1100.34 220.273Z" fill="black"/>
</svg>
