<svg width="996" height="899" viewBox="0 0 996 899" fill="none" xmlns="http://www.w3.org/2000/svg">
<path d="M185.763 143.815C185.763 143.815 146.815 121.093 104.609 140.577C62.4035 160.061 46.1961 192.496 46.1961 192.496C46.1961 192.496 42.9585 202.228 49.4337 205.485C54.1731 207.864 66.4798 197.04 72.7599 191.033C75.4514 188.458 78.5525 186.333 81.9461 184.772L87.3095 182.295C97.6074 177.536 109.075 175.937 120.27 177.693C123.45 178.18 126.902 178.785 130.568 179.526C146.795 182.763 150.598 206.012 150.598 206.012C150.598 206.012 156.528 231.464 133.806 267.155C117.989 292.022 103.732 312.169 96.5347 322.097C94.0773 325.471 91.3858 328.669 88.6163 331.79C84.8131 336.081 79.4886 344.253 86.2954 351.079C93.8042 358.588 111.728 341.795 119.568 333.682C122.435 330.717 125.361 327.831 128.325 324.983C150.384 303.978 236.843 216.036 208.426 153.547C208.426 153.547 221.416 114.599 240.88 108.104C260.364 101.609 257.107 134.063 257.107 134.063V354.16C257.107 371.85 260.637 389.423 268.088 405.474C274.231 418.697 283.281 431.667 296.056 435.919C317.958 443.213 314.311 426.791 311.112 418.112C309.299 413.158 307.68 408.146 306.432 403.036C303.545 391.217 299.293 371.987 299.293 361.26V23.7122C299.293 23.7122 299.293 -11.9987 270.077 4.22819C240.861 20.4551 185.685 143.795 185.685 143.795L185.763 143.815Z" fill="#02C8D1"/>
<path d="M731.393 268.359C731.393 268.359 705.342 284.004 713.164 307.436C716.761 318.191 724.723 324.547 732.266 328.283C740.647 332.439 750.111 333.801 759.435 332.893C776.127 331.252 809.092 324.966 817.054 300.905C827.845 268.324 783.53 255.298 783.53 255.298L765.231 252.295C765.231 252.295 702.618 209.692 765.231 124.345C827.845 39.0325 859.099 54.6422 859.099 54.6422C859.099 54.6422 872.125 54.6422 874.744 85.8965C877.363 117.151 874.744 169.078 874.744 169.078C874.744 169.078 874.744 184.933 859.099 184.933C843.455 184.933 827.845 177.11 827.845 177.11C827.845 177.11 814.819 171.907 814.819 179.729C814.819 187.552 814.819 216.222 830.464 218.806C842.617 220.831 846.912 216.571 848.204 214.546C849.147 213.079 850.264 211.682 851.696 210.634C854.245 208.749 858.471 206.898 864.337 208.365C870.204 209.831 872.998 215.139 874.464 219.609C875.477 222.717 875.896 226 875.896 229.282V359.503C875.896 359.503 877.328 382.97 895.592 390.757C913.855 398.545 924.262 401.164 924.262 401.164C924.262 401.164 916.44 369.909 916.44 325.595V68.1916C916.44 58.0645 913.436 48.0422 907.325 39.9405C900.166 30.5118 887.769 22.026 866.922 25.9371C825.226 33.7594 765.301 96.303 765.301 96.303C765.301 96.303 684.529 171.872 731.428 268.289L731.393 268.359Z" fill="#F5AF73"/>
<path d="M918.887 25.0313C918.887 25.0313 945.077 26.0091 945.077 52.0602V406.439C945.077 406.439 945.077 422.083 963.306 432.49L978.951 442.896V60.8254C978.951 54.0158 977.798 47.2411 975.179 40.9553C971.478 32.0505 964.249 22.1678 950.281 20.771C924.23 18.1519 918.887 24.9964 918.887 24.9964V25.0313Z" fill="#F5AF73"/>
<path d="M753.57 282.676C753.57 282.676 756.189 306.143 771.799 308.727C787.409 311.311 783.777 295.701 783.777 295.701C783.777 295.701 782.24 282.676 753.57 282.676Z" fill="black"/>
<path d="M527.954 509.58C527.954 509.58 502.075 477.587 476.196 487.192C450.318 496.797 441.681 512.758 441.681 512.758C441.681 512.758 435.933 528.755 458.923 525.542C481.912 522.328 490.549 535.146 490.549 535.146C490.549 535.146 453.176 560.713 427.297 611.88C427.297 611.88 381.286 608.667 378.428 634.268C375.57 659.869 404.307 666.261 404.307 666.261C404.307 666.261 369.792 742.995 424.439 787.771C424.439 787.771 392.812 806.945 404.307 835.725C415.802 864.505 458.954 864.505 458.954 864.505C458.954 864.505 496.328 864.505 519.349 832.512C542.338 800.519 496.359 781.344 496.359 781.344C496.359 781.344 548.117 755.778 548.117 720.572C548.117 685.366 481.975 666.226 481.975 666.226C481.975 666.226 456.096 656.621 458.986 643.838C461.875 631.055 493.501 627.842 493.501 627.842C493.501 627.842 582.633 595.849 542.37 531.898C542.37 531.898 579.743 503.119 579.743 563.891V832.721C579.743 832.721 579.743 858.078 599.875 874.075C620.006 890.071 640.138 893.249 640.138 893.249C640.138 893.249 631.501 877.253 628.643 838.903V790.949C628.643 790.949 651.632 790.949 660.269 797.341C668.906 803.732 680.401 797.341 680.401 797.341C680.401 797.341 700.532 781.344 691.895 749.386C683.259 717.394 648.774 736.603 648.774 736.603C648.774 736.603 631.532 746.208 625.785 755.778V532.597C625.785 519.29 620.917 506.367 611.841 497.705C603.989 490.196 591.992 484.538 574.027 487.192C530.906 493.584 528.017 509.58 528.017 509.58H527.954Z" fill="#F5AF73"/>
<path d="M522.359 554.343C522.359 554.343 487.193 583.118 474.412 608.681C474.412 608.681 496.797 611.893 519.181 592.687C541.565 573.515 522.394 554.309 522.394 554.309L522.359 554.343Z" fill="black"/>
<path d="M436.029 679.009C436.029 679.009 420.035 733.346 480.798 755.731C480.798 755.731 525.567 739.737 512.786 707.784C500.005 675.831 436.064 679.009 436.064 679.009H436.029Z" fill="black"/>
<path d="M458.383 794.111C458.383 794.111 461.596 832.49 477.554 832.49C493.513 832.49 493.548 822.886 493.548 822.886C493.548 822.886 493.548 794.111 458.383 794.111Z" fill="black"/>
<path d="M756.318 760.777C756.318 760.777 701.708 811.273 756.318 835.578C810.929 859.883 853.411 811.937 853.411 811.937C853.411 811.937 880.716 760.777 807.913 751.174C807.913 751.174 719.934 693.624 786.672 594.518C853.411 495.413 886.78 498.59 889.828 498.59C892.877 498.59 932.31 488.987 932.31 546.537V718.348C932.31 718.348 932.31 735.18 920.182 735.18C911.732 735.18 904.773 727.463 901.294 722.748C898.013 718.313 893.474 714.961 888.304 713.599C882.24 711.993 874.652 712.796 868.587 722.399C865.638 727.079 863.75 731.723 862.623 736.123C858.216 752.99 865.97 771.184 881.577 777.12C887.31 779.286 894.169 779.844 901.957 776.771C911.865 772.86 919.751 772.685 925.617 773.803C934.398 775.514 941.059 783.686 940.297 793.079C940.031 796.467 938.739 799.156 935.326 799.156C926.213 799.156 920.149 792.765 920.149 792.765C920.149 792.765 908.021 779.984 889.795 786.375C880.683 789.587 877.667 796.781 876.905 803.172C876.143 809.562 877.899 816.372 881.345 821.889C888.205 832.924 904.608 852.55 929.262 840.712C929.262 840.712 932.31 901.474 996 898.262C996 898.262 977.808 885.48 977.808 850.315V517.797C977.808 517.797 971.744 460.247 908.021 463.46C867.196 465.52 816.363 510.917 785.148 543.254C755.291 574.194 735.442 614.598 730.505 658.424C726.826 691.319 731.035 728.86 756.318 760.812V760.777Z" fill="#F5AF73"/>
<path d="M783.615 776.771C783.615 776.771 783.615 811.936 807.872 811.936C832.128 811.936 816.984 792.764 816.984 792.764C816.984 792.764 807.872 779.983 783.615 776.771Z" fill="black"/>
<path d="M406.262 52.0621C406.262 52.0621 424.674 29.4575 439.048 53.0373C449.872 70.7855 428.496 130.213 414.493 158.863C408.72 170.702 409.851 184.92 417.984 195.257C419.154 196.739 420.324 197.968 421.495 198.807C428.418 203.78 439.633 148.175 475.832 134.542C475.832 134.542 462.608 162.901 495.452 163.213C528.296 163.525 550.998 115.293 550.998 115.293C550.998 115.293 560.067 89.9769 538.106 88.8652C538.106 88.8652 547.487 60.9752 582.516 61.1312C617.544 61.2873 599.796 106.399 599.796 106.399C599.796 106.399 590.805 150.691 555.016 169.766C519.227 188.84 426.488 236.78 320.232 250.12C320.232 250.12 347.596 282.73 418.823 269.253C474.349 258.741 503.741 229.583 517.511 220.202C520.241 218.33 522.464 216.184 525.331 214.526C531.982 210.665 536.078 204.521 559.541 204.736C593.711 205.028 550.862 249.087 550.862 249.087L494.808 302.955C494.808 302.955 476.378 321.055 485.486 325.853C493.073 329.851 533.971 310.25 547.351 303.619C552.207 301.22 557.395 299.484 562.759 298.723C571.399 297.514 583.218 297.982 591.37 306.759C598.06 313.975 594.627 327.335 589.088 339.505C582.184 354.698 572.237 367.317 560.496 376.776C548.17 386.704 530.207 399.985 519.675 402.443C502.473 406.461 502.863 411.902 502.863 411.902C502.863 411.902 510.996 433.2 553.534 416.368C596.051 399.537 627.686 360.218 627.686 360.218C627.686 360.218 664.197 315.067 643.367 270.053C622.537 225.039 562.427 270.56 562.427 270.56C562.427 270.56 627.471 232.879 631.801 202.434C636.111 171.989 575.787 184.667 575.787 184.667C575.787 184.667 691.657 101.757 632.991 40.9256C578.44 -15.6541 526.58 81.5124 526.58 81.5124C526.58 81.5124 488.002 92.5709 481.117 117.73C481.117 117.73 469.824 113.089 463.7 119.018C463.7 119.018 498.007 20.6419 430.135 20.1738C430.135 20.1738 404.429 27.5462 399.3 47.1082C394.19 66.6507 406.223 52.0816 406.223 52.0816L406.262 52.0621Z" fill="#02C8D1"/>
<path d="M498.658 117.7C498.658 117.7 507.844 136.072 516.621 127.569C520.268 124.038 520.639 120.06 519.82 116.627C518.259 110.074 512.272 107.051 507.415 109.879C504.977 111.303 502.013 113.702 498.658 117.68V117.7Z" fill="black"/>
<path d="M154.81 496.882C154.81 496.882 92.5176 511.549 94.3894 540.918C96.292 570.286 145.359 550.696 145.359 550.696C145.359 550.696 194.425 533.584 196.328 575.175C198.23 616.766 173.682 628.988 173.682 628.988C173.682 628.988 160.456 633.877 156.682 626.544C154.073 621.48 154.165 616.417 154.472 613.763C154.748 611.353 154.871 608.874 154.564 606.464C153.644 598.887 149.501 586.385 132.133 589.842C107.584 594.731 111.359 616.766 111.359 616.766C111.359 616.766 113.261 631.433 128.359 633.877C128.359 633.877 137.718 649.801 94.3281 663.84C50.9384 677.878 0 682.802 0 682.802C0 682.802 47.1947 724.393 160.456 670.579L271.815 624.1V715.383C271.815 719.644 272.06 723.904 272.275 728.164C272.643 735.777 269.667 754.984 234.071 768.428C204.337 779.673 180.279 800.416 167.268 813.337C157.541 822.975 150.636 836.804 148.55 852.448C145.85 872.633 150.759 896.693 188.779 898.09C254.845 900.534 353.009 888.312 358.686 819.797C358.686 819.797 300.168 851.61 262.425 844.277C238.152 839.562 238.06 824.721 241.098 814.733C242.632 809.635 245.302 805.235 248.555 801.743C251.409 798.67 256.011 793.746 261.535 788.019C272.704 776.425 294.522 734.171 294.522 734.171C294.522 734.171 298.296 721.948 311.522 719.504C320.329 717.863 325.791 720.586 328.43 722.577C330.639 724.253 333.094 725.336 335.641 725.44C343.619 725.72 357.643 720.342 354.942 677.913C351.168 619.211 315.296 646.1 315.296 646.1C315.296 646.1 309.619 648.544 309.619 628.988V499.327C309.619 499.327 307.809 471.879 287.955 481.936C268.102 491.993 245.456 555.584 245.456 555.584C245.456 555.584 237.907 484.625 154.84 496.882H154.81Z" fill="#F5AF73"/>
<path d="M248.126 576.677C248.126 576.677 252.023 599.83 237.785 612.855L270.466 596.932V545.842C270.466 545.842 270.466 533.236 263.776 541.931C257.087 550.626 248.126 576.677 248.126 576.677Z" fill="black"/>
</svg>
