<svg width="1666" height="508" viewBox="0 0 1666 508" fill="none" xmlns="http://www.w3.org/2000/svg">
<g clip-path="url(#clip0_439_43)">
<path d="M162.923 166.882C162.923 166.882 117.722 140.513 68.7422 163.124C19.7619 185.736 0.952988 223.376 0.952988 223.376C0.952988 223.376 -2.80427 234.671 4.71025 238.451C10.2103 241.212 24.4925 228.65 31.7806 221.679C34.9042 218.691 38.503 216.224 42.4413 214.413L48.6657 211.539C60.6165 206.016 73.9254 204.16 86.9173 206.197C90.6067 206.763 94.6129 207.465 98.8681 208.325C117.7 212.082 122.113 239.062 122.113 239.062C122.113 239.062 128.994 268.599 102.625 310.02C84.2691 338.878 67.7236 362.259 59.3716 373.78C56.5197 377.696 53.3962 381.408 50.1822 385.029C45.7685 390.009 39.5894 399.492 47.4887 407.414C56.2029 416.128 77.0036 396.64 86.1025 387.225C89.4297 383.784 92.8248 380.434 96.2652 377.13C121.864 352.753 222.201 250.696 189.224 178.176C189.224 178.176 204.298 132.976 226.887 125.439C249.498 117.901 245.718 155.565 245.718 155.565V410.99C245.718 431.52 249.815 451.913 258.461 470.541C265.591 485.887 276.093 500.938 290.919 505.873C316.337 514.338 312.104 495.28 308.392 485.208C306.287 479.459 304.409 473.642 302.96 467.712C299.61 453.995 294.676 431.678 294.676 419.229V27.5008C294.676 27.5008 294.676 -13.9423 260.77 4.88929C226.864 23.7209 162.832 166.859 162.832 166.859L162.923 166.882Z" fill="#02C8D1"/>
<path d="M779.495 385.594C779.495 385.594 764.579 395.055 769.06 409.247C771.12 415.743 775.67 419.613 780.015 421.876C784.814 424.389 790.223 425.226 795.565 424.66C805.117 423.664 823.993 419.862 828.543 405.308C834.722 385.594 809.349 377.717 809.349 377.717L798.87 375.907C798.87 375.907 763.04 350.104 798.87 298.453C834.699 246.802 852.603 256.263 852.603 256.263C852.603 256.263 860.05 256.263 861.543 275.185C863.037 294.107 861.543 325.523 861.543 325.523C861.543 325.523 861.543 335.12 852.603 335.12C843.662 335.12 834.699 330.389 834.699 330.389C834.699 330.389 827.253 327.243 827.253 331.974C827.253 336.704 827.253 354.065 836.193 355.626C843.165 356.849 845.609 354.268 846.356 353.046C846.899 352.163 847.533 351.303 848.348 350.669C849.819 349.538 852.241 348.406 855.591 349.311C858.941 350.217 860.548 353.408 861.385 356.124C861.974 358.003 862.2 359.995 862.2 361.964V440.776C862.2 440.776 863.037 454.967 873.472 459.698C883.906 464.429 889.881 466.013 889.881 466.013C889.881 466.013 885.4 447.091 885.4 420.269V264.456C885.4 258.322 883.68 252.256 880.171 247.367C876.075 241.641 868.99 236.526 857.062 238.88C833.206 243.61 798.892 281.477 798.892 281.477C798.892 281.477 752.651 327.221 779.495 385.571V385.594Z" fill="#F5AF73"/>
<path d="M886.803 238.313C886.803 238.313 901.787 238.902 901.787 254.678V469.181C901.787 469.181 901.787 478.642 912.221 484.957L921.161 491.272V259.997C921.161 255.877 920.505 251.781 919.011 247.978C916.883 242.591 912.764 236.593 904.774 235.756C889.858 234.171 886.803 238.313 886.803 238.313Z" fill="#F5AF73"/>
<path d="M792.193 394.263C792.193 394.263 793.687 408.454 802.628 410.039C811.568 411.623 809.486 402.162 809.486 402.162C809.486 402.162 808.603 394.285 792.193 394.285V394.263Z" fill="black"/>
<path d="M1370.27 255.879C1370.22 255.992 1370.09 256.015 1370.02 255.924C1368.23 253.91 1353.47 238.021 1338.72 243.204C1323.17 248.681 1317.85 257.735 1317.73 257.961C1317.67 258.165 1314.41 267.173 1328.24 265.34C1341.12 263.642 1346.57 269.754 1347.36 270.749C1347.43 270.817 1347.41 270.931 1347.34 270.976C1345.44 272.243 1324.07 286.956 1309.04 315.09C1309.02 315.135 1308.98 315.18 1308.91 315.18C1307.21 315.09 1280.95 313.822 1279.26 328.104C1277.6 342.002 1292.97 346.076 1294.83 346.528C1294.92 346.551 1294.96 346.642 1294.92 346.755C1293.54 349.81 1275.3 391.661 1307.05 416.558C1307.14 416.626 1307.14 416.762 1307.05 416.83C1305.04 418.052 1288.42 428.781 1295.01 444.398C1302 461.012 1328.24 461.012 1328.24 461.012C1328.24 461.012 1350.98 461.012 1364.97 442.565C1378.08 425.295 1354.4 414.476 1351.3 413.163C1351.17 413.118 1351.17 412.937 1351.3 412.869C1354.61 411.262 1382.47 397.048 1382.47 377.945C1382.47 357.687 1342.41 346.619 1342.25 346.574C1342.16 346.551 1326.52 341.006 1328.26 333.65C1330 326.294 1348.92 324.46 1349.24 324.415C1349.76 324.234 1403.18 305.832 1379.07 269.188C1379.03 269.097 1379.03 269.007 1379.12 268.961C1381.36 267.762 1408.81 253.864 1408.81 287.499V426.789C1408.81 434.009 1408.07 441.207 1407.03 448.337C1406.26 453.656 1406.82 461.148 1413.95 466.512C1425.07 474.887 1436.16 477.173 1438.13 477.535C1438.26 477.557 1438.35 477.422 1438.28 477.308C1437.42 475.611 1433.01 466.15 1431.45 446.209V418.686C1431.45 418.686 1431.49 418.528 1431.58 418.528C1433.06 418.528 1445.75 418.754 1450.69 422.217C1452.43 423.439 1454.38 423.847 1456.19 423.847C1460.58 423.847 1464.56 421.289 1467.07 417.509C1470.04 413.028 1473 405.377 1469.9 394.535C1464.65 376.089 1443.67 387.157 1443.67 387.157C1443.67 387.157 1433.67 392.43 1429.93 397.84C1429.84 397.976 1429.66 397.908 1429.66 397.749V269.527C1429.66 261.651 1426.58 253.978 1420.81 248.953C1416.03 244.788 1408.84 241.71 1398.18 243.204C1374.52 246.531 1370.77 254.362 1370.27 255.879Z" fill="#F5AF73"/>
<path d="M1357.95 281.977C1357.95 281.977 1338.71 298.59 1331.72 313.348C1331.72 313.348 1343.97 315.204 1356.21 304.113C1368.46 293.022 1357.95 281.954 1357.95 281.954V281.977Z" fill="black"/>
<path d="M1310.74 353.973C1310.74 353.973 1302 385.344 1335.23 398.268C1335.23 398.268 1359.72 389.033 1352.73 370.587C1345.73 352.14 1310.74 353.973 1310.74 353.973Z" fill="black"/>
<path d="M1322.99 420.406C1322.99 420.406 1324.73 442.565 1333.49 442.565C1342.25 442.565 1342.23 437.02 1342.23 437.02C1342.23 437.02 1342.23 420.406 1322.99 420.406Z" fill="black"/>
<path d="M1525.47 402.706C1525.47 402.706 1493.49 431.836 1525.47 445.869C1557.45 459.902 1582.33 432.221 1582.33 432.221C1582.33 432.221 1598.33 402.706 1555.66 397.161C1555.66 397.161 1504.13 363.956 1543.22 306.76C1582.3 249.564 1601.86 251.42 1603.63 251.42C1605.39 251.42 1633.23 248.047 1633.23 281.251V372.58C1633.23 377.718 1631.08 382.72 1627.07 385.776C1625.42 387.021 1623.52 387.926 1621.39 387.926C1616.48 387.926 1612.41 383.512 1610.37 380.796C1608.72 378.578 1606.57 376.813 1604.01 375.885C1600.3 374.527 1595.18 374.346 1591.18 380.57C1589.23 383.603 1588.08 386.658 1587.44 389.465C1585.34 398.745 1589.84 408.591 1598.42 412.009C1601.84 413.367 1605.98 413.774 1610.73 411.941C1616.82 409.564 1625.88 407.437 1629.36 408.206C1634.14 409.27 1633.41 415.879 1633.21 420.949C1633.12 423.077 1632.42 424.842 1630.29 424.842C1624.95 424.842 1621.39 421.153 1621.39 421.153C1621.39 421.153 1614.29 413.774 1603.63 417.463C1598.28 419.319 1596.52 423.462 1596.07 427.151C1595.61 430.84 1596.68 434.824 1598.71 438.061C1602.77 444.443 1618.86 455.285 1633.21 448.518C1633.21 448.518 1628.48 483.895 1665.8 482.039C1665.8 482.039 1655.14 474.66 1655.14 454.357V267.92C1655.14 260.156 1653.06 252.438 1648.69 246.123C1643.14 238.043 1632.91 230.212 1614.26 231.14C1590.41 232.316 1560.73 258.391 1542.42 277.041C1525.15 294.651 1513.52 317.557 1510.42 342.499C1508.02 361.738 1510.31 383.897 1525.4 402.706H1525.47Z" fill="#F5AF73"/>
<path d="M1541.47 411.94C1541.47 411.94 1541.47 432.243 1555.68 432.243C1569.9 432.243 1561.03 421.175 1561.03 421.175C1561.03 421.175 1555.68 413.796 1541.47 411.94Z" fill="black"/>
<path d="M409.812 60.3193C409.812 60.3193 431.178 34.0863 447.86 61.451C460.422 82.048 435.615 151.014 419.363 184.264C412.664 198.003 413.976 214.503 423.415 226.499C424.773 228.219 426.131 229.645 427.489 230.618C435.524 236.39 448.539 171.86 490.548 156.039C490.548 156.039 475.202 188.949 513.317 189.311C551.433 189.673 577.779 133.699 577.779 133.699C577.779 133.699 588.304 104.32 562.818 103.03C562.818 103.03 573.705 70.6631 614.356 70.8441C655.007 71.0252 634.41 123.378 634.41 123.378C634.41 123.378 623.976 174.78 582.442 196.916C540.908 219.052 433.283 274.687 309.973 290.169C309.973 290.169 341.728 328.013 424.388 312.373C488.827 300.173 522.937 266.335 538.917 255.448C542.085 253.275 544.666 250.785 547.993 248.861C555.711 244.38 560.464 237.25 587.693 237.499C627.348 237.839 577.621 288.969 577.621 288.969L512.571 351.484C512.571 351.484 491.181 372.489 501.751 378.057C510.556 382.697 558.02 359.95 573.547 352.254C579.183 349.47 585.203 347.456 591.428 346.573C601.455 345.17 615.171 345.713 624.632 355.898C632.396 364.273 628.412 379.777 621.984 393.901C613.971 411.533 602.428 426.177 588.802 437.155C574.498 448.675 553.652 464.089 541.429 466.941C521.466 471.604 521.918 477.919 521.918 477.919C521.918 477.919 531.357 502.635 580.722 483.102C630.087 463.569 666.777 417.938 666.777 417.938C666.777 417.938 709.148 365.54 684.975 313.301C660.801 261.061 591.043 313.889 591.043 313.889C591.043 313.889 666.528 270.16 671.553 234.828C676.555 199.496 606.547 214.209 606.547 214.209C606.547 214.209 741.017 117.991 672.933 47.3952C609.626 -18.2664 549.442 94.4968 549.442 94.4968C549.442 94.4968 504.671 107.33 496.681 136.528C496.681 136.528 483.576 131.141 476.469 138.022C476.469 138.022 516.283 23.8557 437.516 23.3125C437.516 23.3125 407.684 31.8682 401.731 54.5702C395.801 77.2496 409.766 60.3419 409.766 60.3419L409.812 60.3193Z" fill="#02C8D1"/>
<path d="M526.039 136.574C526.039 136.574 536.7 157.895 546.885 148.026C551.118 143.93 551.548 139.312 550.597 135.329C548.786 127.724 541.838 124.215 536.202 127.497C533.372 129.15 529.932 131.934 526.039 136.551V136.574Z" fill="black"/>
<path d="M1103.61 264.841C1103.61 264.841 1066 272.627 1067.13 288.222C1068.26 303.795 1093 288.607 1093 288.607C1093 288.607 1141.19 271.926 1141.19 299.721C1141.19 321.834 1115.02 334.962 1115.02 334.962C1115.02 334.962 1107.03 337.565 1104.77 333.672C1103.14 330.888 1103.25 328.104 1103.46 326.746C1103.59 325.772 1103.68 324.776 1103.59 323.781C1103.25 319.91 1101.17 312.237 1089.94 314.184C1075.12 316.787 1077.4 328.466 1077.4 328.466C1077.4 328.466 1078.38 335.075 1085.66 337.135C1087.32 337.587 1088.45 339.217 1088.02 340.869C1087.2 344.016 1083.06 348.927 1067.13 353.454C1040.92 360.923 1010.13 363.503 1010.13 363.503C1010.13 363.503 1038.63 385.572 1107.05 357.007L1174.32 332.336V380.773C1174.32 383.037 1174.46 385.3 1174.59 387.564C1174.82 391.615 1173.03 401.8 1151.53 408.953C1133.56 414.928 1119.03 425.928 1111.17 432.786C1105.31 437.902 1101.12 445.258 1099.88 453.542C1098.25 464.271 1101.21 477.036 1124.17 477.783C1164.07 479.073 1223.37 472.6 1226.79 436.227C1226.79 436.227 1180.14 459.11 1157.89 457.254C1143.06 456.009 1137.5 453.542 1137.5 440.573C1137.5 427.603 1150.47 420.179 1154.18 418.323C1156.53 417.146 1159.43 414.77 1163.46 412.755C1167.17 410.899 1176.5 407.097 1180.14 401.642C1184.89 394.535 1187.25 391.094 1189.96 382.991C1191.59 378.148 1194.35 372.693 1198.68 371.969C1204 371.109 1206.1 379.393 1207.93 383.082C1208.66 384.508 1211.31 386.07 1212.85 386.115C1217.67 386.251 1226.15 383.399 1224.5 360.878C1222.65 335.482 1207.89 344.061 1202.48 348.112C1201.37 348.95 1199.74 348.542 1199.22 347.252C1198.27 344.943 1197.14 340.937 1197.14 334.917V266.086C1197.14 266.086 1196.05 251.51 1184.06 256.852C1172.06 262.193 1158.39 295.941 1158.39 295.941C1158.39 295.941 1153.82 258.277 1103.66 264.773L1103.61 264.841Z" fill="#F5AF73"/>
<path d="M1159.97 307.189C1159.97 307.189 1162.33 319.479 1153.72 326.406L1173.46 317.963V290.847C1173.46 290.847 1173.46 284.148 1169.41 288.765C1165.36 293.382 1159.97 307.212 1159.97 307.212V307.189Z" fill="black"/>
</g>
<defs>
<clipPath id="clip0_439_43">
<rect width="1665.87" height="508" fill="white"/>
</clipPath>
</defs>
</svg>
