<svg width="1484" height="467" viewBox="0 0 1484 467" fill="none" xmlns="http://www.w3.org/2000/svg">
<path d="M149.817 152.626C149.817 152.626 108.252 128.378 63.2118 149.171C18.1715 169.964 0.875478 204.576 0.875478 204.576C0.875478 204.576 -2.57956 214.962 4.33051 218.438C9.38819 220.977 22.5215 209.426 29.2234 203.015C32.0957 200.268 33.3029 198.978 39.5469 194.815L42.211 192.817C46.2905 189.757 50.7029 187.176 55.4068 185.241C63.0037 182.119 69.9137 180.245 79.0925 180.245C83.2552 180.245 87.4179 180.245 95.7432 182.327C101.321 183.721 106.15 188.571 110.313 192.734C118.347 200.768 120.636 214.255 118.305 225.39C115.308 239.668 108.731 261.73 94.3904 284.25C77.5107 310.788 62.296 332.288 54.6158 342.882C51.9933 346.483 49.1211 349.896 46.1656 353.226C42.107 357.805 33.9273 370.564 43.6888 373.811C49.9328 375.892 70.8295 363.903 79.1965 355.245C82.2561 352.081 85.3781 349.001 88.5418 345.962C112.082 323.546 178.955 215.628 160.223 171.92C160.223 171.92 193.546 83.109 214.338 76.1781C231.072 70.6001 226.41 130.335 226.181 138.868C226.077 142.531 225.994 146.174 225.994 149.837V377.12C225.994 395.998 229.761 414.751 237.712 431.88C244.268 445.992 253.926 459.833 267.558 464.37C290.932 472.154 278.111 455.92 274.697 446.658C272.762 441.371 269.785 435.46 268.453 430.007C265.373 417.394 260.128 396.706 258.047 384.217C255.195 367.13 258.047 24.1445 258.047 24.1445C258.047 24.1445 260.128 -11.2384 239.835 3.68484C211.112 24.8105 149.775 152.626 149.775 152.626H149.817Z" fill="#02C8D1"/>
<path d="M683.492 353.726C683.492 353.726 669.776 362.426 673.897 375.476C675.791 381.449 679.975 385.008 683.971 387.09C688.383 389.4 693.358 390.17 698.27 389.65C707.053 388.734 724.411 385.237 728.595 371.854C734.277 353.726 710.945 346.483 710.945 346.483L701.309 344.818C701.309 344.818 668.361 321.09 701.309 273.594C734.256 226.098 750.72 234.798 750.72 234.798C750.72 234.798 757.567 234.798 758.941 252.198C760.315 269.598 758.941 298.487 758.941 298.487C758.941 298.487 758.941 307.312 750.72 307.312C742.498 307.312 734.256 302.962 734.256 302.962C734.256 302.962 727.409 300.069 727.409 304.419C727.409 308.769 727.409 324.733 735.63 326.169C742.041 327.293 744.288 324.92 744.975 323.796C745.475 322.984 746.057 322.193 746.807 321.611C748.16 320.57 750.387 319.529 753.467 320.362C756.548 321.194 758.025 324.129 758.795 326.627C759.337 328.354 759.545 330.186 759.545 331.996V404.469C759.545 404.469 760.315 417.519 769.91 421.869C779.505 426.219 784.999 427.676 784.999 427.676C784.999 427.676 780.878 410.276 780.878 385.612V242.332C780.878 236.692 779.297 231.114 776.071 226.618C772.303 221.352 765.789 216.648 754.82 218.813C732.883 223.163 701.329 257.984 701.329 257.984C701.329 257.984 658.807 300.048 683.492 353.705V353.726Z" fill="#F5AF73"/>
<path d="M782.168 218.313C782.168 218.313 795.947 218.854 795.947 233.361V430.61C795.947 430.61 795.947 439.31 805.542 445.117L813.763 450.924V238.252C813.763 234.464 813.159 230.697 811.786 227.2C809.829 222.247 806.041 216.731 798.694 215.961C784.978 214.504 782.168 218.313 782.168 218.313Z" fill="#F5AF73"/>
<path d="M695.17 361.718C695.17 361.718 696.544 374.768 704.765 376.225C712.986 377.682 711.071 368.982 711.071 368.982C711.071 368.982 710.26 361.739 695.17 361.739V361.718Z" fill="black"/>
<path d="M1208.01 234.463C1207.97 234.567 1207.85 234.588 1207.78 234.504C1206.14 232.652 1192.57 218.041 1179 222.807C1164.7 227.844 1159.81 236.169 1159.71 236.377C1159.64 236.565 1156.65 244.849 1169.36 243.163C1181.21 241.602 1186.22 247.221 1186.95 248.137C1187.01 248.2 1186.99 248.304 1186.93 248.345C1185.18 249.511 1165.53 263.04 1151.71 288.911C1151.69 288.952 1151.65 288.994 1151.59 288.994C1150.03 288.911 1125.88 287.745 1124.32 300.878C1122.8 313.658 1136.94 317.404 1138.64 317.821C1138.73 317.841 1138.77 317.925 1138.73 318.029C1137.46 320.839 1120.68 359.323 1149.88 382.217C1149.97 382.28 1149.97 382.405 1149.88 382.467C1148.03 383.591 1132.75 393.457 1138.81 407.818C1145.24 423.095 1169.36 423.095 1169.36 423.095C1169.36 423.095 1190.28 423.095 1203.14 406.132C1215.19 390.251 1193.42 380.303 1190.57 379.095C1190.45 379.054 1190.45 378.887 1190.57 378.825C1193.61 377.347 1219.23 364.276 1219.23 346.71C1219.23 328.082 1182.39 317.904 1182.25 317.862C1182.16 317.841 1167.78 312.742 1169.38 305.978C1170.99 299.213 1188.39 297.527 1188.68 297.486C1189.16 297.319 1238.28 280.398 1216.11 246.701C1216.07 246.618 1216.07 246.534 1216.15 246.493C1218.21 245.39 1243.46 232.61 1243.46 263.539V391.625C1243.46 398.265 1242.77 404.883 1241.82 411.44C1241.11 416.331 1241.63 423.22 1248.18 428.153C1258.4 435.854 1268.6 437.956 1270.41 438.289C1270.54 438.31 1270.62 438.185 1270.56 438.081C1269.77 436.52 1265.71 427.82 1264.27 409.483V384.174C1264.27 384.174 1264.31 384.028 1264.4 384.028C1265.75 384.028 1277.43 384.236 1281.96 387.421C1283.57 388.545 1285.36 388.919 1287.02 388.919C1291.06 388.919 1294.72 386.567 1297.03 383.092C1299.76 378.971 1302.49 371.936 1299.63 361.966C1294.81 345.003 1275.51 355.181 1275.51 355.181C1275.51 355.181 1266.31 360.03 1262.88 365.005C1262.8 365.13 1262.63 365.067 1262.63 364.921V247.013C1262.63 239.77 1259.8 232.714 1254.49 228.094C1250.1 224.264 1243.48 221.433 1233.68 222.807C1211.93 225.867 1208.47 233.068 1208.01 234.463Z" fill="#F5AF73"/>
<path d="M1196.69 258.461C1196.69 258.461 1179 273.738 1172.57 287.309C1172.57 287.309 1183.83 289.015 1195.09 278.817C1206.35 268.618 1196.69 258.44 1196.69 258.44V258.461Z" fill="black"/>
<path d="M1153.27 324.648C1153.27 324.648 1145.24 353.495 1175.79 365.38C1175.79 365.38 1198.31 356.888 1191.88 339.925C1185.45 322.962 1153.27 324.648 1153.27 324.648Z" fill="black"/>
<path d="M1164.53 385.757C1164.53 385.757 1166.14 406.133 1174.19 406.133C1182.25 406.133 1182.22 401.034 1182.22 401.034C1182.22 401.034 1182.22 385.757 1164.53 385.757Z" fill="black"/>
<path d="M1354.89 369.48C1354.89 369.48 1325.48 396.267 1354.89 409.171C1384.3 422.075 1407.18 396.62 1407.18 396.62C1407.18 396.62 1421.89 369.48 1382.66 364.38C1382.66 364.38 1335.27 333.847 1371.21 281.251C1407.16 228.656 1425.14 230.362 1426.76 230.362C1428.39 230.362 1453.99 227.261 1453.99 257.795V341.777C1453.99 346.502 1452.01 351.101 1448.32 353.911C1446.81 355.056 1445.06 355.888 1443.1 355.888C1438.58 355.888 1434.84 351.83 1432.96 349.332C1431.44 347.292 1429.47 345.669 1427.12 344.816C1423.7 343.567 1419 343.4 1415.31 349.124C1413.52 351.913 1412.46 354.723 1411.88 357.304C1409.94 365.837 1414.09 374.891 1421.97 378.034C1425.12 379.283 1428.93 379.657 1433.3 377.972C1438.9 375.786 1447.22 373.83 1450.43 374.537C1454.82 375.516 1454.15 381.593 1453.97 386.255C1453.88 388.212 1453.24 389.835 1451.28 389.835C1446.37 389.835 1443.1 386.443 1443.1 386.443C1443.1 386.443 1436.57 379.657 1426.76 383.05C1421.85 384.757 1420.23 388.566 1419.81 391.958C1419.39 395.351 1420.37 399.014 1422.25 401.99C1425.97 407.86 1440.77 417.829 1453.97 411.606C1453.97 411.606 1449.62 444.138 1483.94 442.431C1483.94 442.431 1474.13 435.646 1474.13 416.976V245.535C1474.13 238.396 1472.22 231.299 1468.2 225.492C1463.1 218.062 1453.69 210.86 1436.54 211.714C1414.61 212.796 1387.32 236.773 1370.48 253.923C1354.6 270.116 1343.9 291.179 1341.05 314.116C1338.85 331.807 1340.95 352.184 1354.83 369.48H1354.89Z" fill="#F5AF73"/>
<path d="M1369.61 377.951C1369.61 377.951 1369.61 396.621 1382.68 396.621C1395.75 396.621 1387.59 386.443 1387.59 386.443C1387.59 386.443 1382.68 379.658 1369.61 377.951Z" fill="black"/>
<path d="M326.167 49.5572C326.167 49.5572 349.603 16.7344 369.105 41.9603C383.779 60.9422 375.162 132.062 365.588 167.424C361.633 182.014 354.14 203.244 364.63 214.025C366.129 215.565 367.607 216.814 368.98 217.605C377.222 222.33 378.95 156.101 414.728 134.851C414.728 134.851 405.903 169.755 440.704 165.176C475.483 160.597 490.697 101.195 490.697 101.195C490.697 101.195 495.672 70.4539 472.257 72.452C472.257 72.452 477.106 38.6718 514.154 33.5725C551.202 28.4732 540.671 83.5248 540.671 83.5248C540.671 83.5248 539.234 136.287 504.871 163.802C470.508 191.318 381.198 260.918 271.303 292.367C271.303 292.367 303.688 317.198 376.536 290.827C433.315 270.284 461.579 240.937 474.421 227.97C476.981 225.389 478.917 222.58 481.664 220.207C487.992 214.733 491.218 206.99 516.048 203.702C552.243 198.915 514.945 256.485 514.945 256.485L465.492 327.438C465.492 327.438 449.299 351.207 459.81 355.411C468.573 358.908 508.243 329.998 521.168 320.299C525.872 316.781 531.034 313.992 536.57 312.306C545.478 309.601 558.071 308.373 568.29 317.343C576.678 324.711 575.471 340.738 571.828 355.702C567.291 374.372 559.07 390.503 548.372 403.261C537.153 416.623 520.586 434.752 509.887 439.185C492.425 446.428 493.84 452.693 493.84 452.693C493.84 452.693 506.328 476.192 548.205 450.258C571.745 435.689 590.352 413.397 602.133 396.663C621.635 368.981 626.151 331.163 612.623 298.132C612.123 296.946 611.624 295.739 611.083 294.532C587.376 241.52 531.096 279.692 531.096 279.692C531.096 279.692 573.764 234.152 572.786 198.165C571.808 162.179 529.577 178.018 529.577 178.018C529.577 178.018 629.461 68.4766 550.578 16.1932C498.835 -18.1074 458.79 65.6668 458.79 65.6668C458.79 65.6668 420.036 84.3157 417.33 114.558C417.33 114.558 404.551 110.874 399.16 118.679C399.16 118.679 412.772 30.1799 370.687 11.7599C356.7 5.64079 341.153 9.42884 330.434 20.127C324.46 26.0796 318.82 34.3634 317.987 44.8742C316.135 68.3309 326.229 49.5988 326.229 49.5988L326.167 49.5572Z" fill="#02C8D1"/>
<path d="M443.994 110.771C443.994 110.771 457.065 130.71 464.787 119.533C468.013 114.892 467.659 110.209 466.181 106.358C463.33 98.9905 456.461 96.368 451.841 100.406C449.51 102.425 446.825 105.651 443.994 110.792V110.771Z" fill="black"/>
<path d="M966.971 234.734C966.971 234.734 932.379 242.186 933.42 257.109C934.461 272.011 957.21 257.463 957.21 257.463C957.21 257.463 1001.52 241.499 1001.52 268.098C1001.52 289.245 977.461 301.816 977.461 301.816C977.461 301.816 970.114 304.293 968.033 300.567C966.534 297.903 966.638 295.239 966.826 293.949C966.95 293.012 967.034 292.055 966.95 291.118C966.638 287.413 964.723 280.066 954.4 281.939C940.767 284.416 942.869 295.614 942.869 295.614C942.869 295.614 943.764 301.941 950.466 303.918C951.986 304.355 953.026 305.916 952.631 307.498C951.882 310.516 948.073 315.199 933.42 319.549C909.318 326.688 881.012 329.165 881.012 329.165C881.012 329.165 907.216 350.291 970.135 322.963L1031.99 299.36V345.712C1031.99 347.876 1032.12 350.041 1032.24 352.206C1032.45 356.077 1030.81 365.838 1011.03 372.665C994.508 378.368 981.145 388.9 973.923 395.456C968.532 400.347 964.682 407.382 963.537 415.312C962.039 425.573 964.765 437.791 985.87 438.498C1022.56 439.747 1077.1 433.524 1080.24 398.744C1080.24 398.744 1037.34 420.64 1016.88 418.85C1003.25 417.664 998.129 415.312 998.129 402.886C998.129 390.461 1010.06 383.384 1013.47 381.594C1015.63 380.47 1018.3 378.202 1022 376.266C1025.42 374.497 1033.99 370.854 1037.34 365.63C1041.71 358.824 1043.88 355.557 1046.37 347.793C1047.87 343.152 1050.41 337.928 1054.39 337.261C1059.28 336.429 1061.21 344.359 1062.9 347.897C1063.57 349.271 1066 350.749 1067.42 350.811C1071.85 350.957 1079.66 348.209 1078.14 326.667C1076.43 302.357 1062.86 310.579 1057.88 314.45C1056.86 315.262 1055.37 314.845 1054.89 313.617C1054.01 311.411 1052.97 307.561 1052.97 301.816V235.962C1052.97 235.962 1051.97 222.017 1040.94 227.137C1029.91 232.258 1017.34 264.539 1017.34 264.539C1017.34 264.539 1013.14 228.511 967.013 234.714L966.971 234.734Z" fill="#F5AF73"/>
<path d="M1018.8 275.279C1018.8 275.279 1020.96 287.039 1013.05 293.657L1031.2 285.561V259.627C1031.2 259.627 1031.2 253.217 1027.47 257.629C1023.75 262.042 1018.8 275.279 1018.8 275.279Z" fill="black"/>
</svg>
