<svg width="355" height="109" viewBox="0 0 355 109" fill="none" xmlns="http://www.w3.org/2000/svg">
<g clip-path="url(#clip0_441_86)">
<path d="M255 78.3605L297 47.3605C297 47.3605 319 32.3605 339 42.3605C359 52.3605 354 71.3605 354 71.3605C354 71.3605 350 89.3605 331 94.3605C316.23 98.2505 285.48 100.85 272.54 101.82C269.36 102.06 266.18 102.18 262.99 102.18C256.39 102.18 241.58 102.65 226.01 106.36C206.34 111.04 31.3595 106.95 9.28953 106.42C6.60953 106.35 4.00953 105.29 2.22953 103.29C0.999531 101.91 0.0195312 99.9905 0.0195312 97.3705C0.0195312 90.3705 25.0195 89.3705 25.0195 89.3705C25.0195 89.3705 65.0195 22.3705 137.02 23.3705C209.02 24.3705 255.02 78.3705 255.02 78.3705L255 78.3605Z" fill="#02C7D0"/>
<path d="M34.9991 79.3601H230.999C233.829 79.3601 236.659 79.4801 239.489 79.6501C244.649 79.9501 255.659 78.8901 251.009 63.3601C247.199 50.6401 232.469 35.5001 222.239 26.1601C214.569 19.1501 205.659 13.6701 195.949 10.0001C195.709 9.91009 195.469 9.82009 195.229 9.73009C163.889 -1.94991 129.619 -2.98991 97.3991 5.99009C84.7391 9.52009 71.5591 14.4901 62.0091 21.3701C39.5291 37.5601 23.5191 65.8701 20.5191 71.4101C20.0091 72.3601 19.6091 73.3701 19.4191 74.4301C19.0291 76.6001 19.2091 79.6901 23.4591 79.6901C30.0091 79.6901 35.0091 79.3601 35.0091 79.3601H34.9991Z" fill="#F3AD73"/>
<path d="M301 105.36C320.33 105.36 336 89.6903 336 70.3604C336 51.0304 320.33 35.3604 301 35.3604C281.67 35.3604 266 51.0304 266 70.3604C266 89.6903 281.67 105.36 301 105.36Z" fill="white"/>
<path d="M301 85.3604C309.284 85.3604 316 78.6446 316 70.3604C316 62.0761 309.284 55.3604 301 55.3604C292.716 55.3604 286 62.0761 286 70.3604C286 78.6446 292.716 85.3604 301 85.3604Z" fill="black"/>
</g>
<defs>
<clipPath id="clip0_441_86">
<rect width="354.56" height="108.58" fill="white"/>
</clipPath>
</defs>
</svg>
